<svg width="100%" height="100%" viewBox="0 0 1920 1182" fill="none" xmlns="http://www.w3.org/2000/svg">
<g style="mix-blend-mode:lighten">
<path d="M2198.05 1H2257V60M2198.05 1V60M2198.05 1H2139.09M2198.05 60H2257M2198.05 60V119M2198.05 60H2139.09M2257 60V119M2198.05 119H2257M2198.05 119V178M2198.05 119H2139.09M2257 119V178M2198.05 178H2257M2198.05 178V237M2198.05 178H2139.09M2257 178V237M2198.05 237H2257M2198.05 237V296M2198.05 237H2139.09M2257 237V296M2198.05 296H2257M2198.05 296V355M2198.05 296H2139.09M2257 296V355M2198.05 355H2257M2198.05 355V414M2198.05 355H2139.09M2257 355V414M2198.05 414H2257M2198.05 414V473M2198.05 414H2139.09M2257 414V473M2198.05 473H2257M2198.05 473V532M2198.05 473H2139.09M2257 473V532M2198.05 532H2257M2198.05 532V591M2198.05 532H2139.09M2257 532V591M2198.05 591H2257M2198.05 591V650M2198.05 591H2139.09M2257 591V650M2198.05 650H2257M2198.05 650V709M2198.05 650H2139.09M2257 650V709M2198.05 709H2257M2198.05 709V768M2198.05 709H2139.09M2257 709V768M2198.05 768H2257M2198.05 768V827M2198.05 768H2139.09M2257 768V827M2198.05 827H2257M2198.05 827V886M2198.05 827H2139.09M2257 827V886M2198.05 886H2257M2198.05 886V945M2198.05 886H2139.09M2257 886V945M2198.05 945H2257M2198.05 945V1004M2198.05 945H2139.09M2257 945V1004M2198.05 1004H2257M2198.05 1004V1063M2198.05 1004H2139.09M2257 1004V1063M2198.05 1063H2257M2198.05 1063V1122M2198.05 1063H2139.09M2257 1063V1122M2198.05 1122H2257M2198.05 1122V1181M2198.05 1122H2139.09M2257 1122V1181H2198.05M2198.05 1181H2139.09M2139.09 1V60M2139.09 1H2080.14M2139.09 60V119M2139.09 60H2080.14M2139.09 119V178M2139.09 119H2080.14M2139.09 178V237M2139.09 178H2080.14M2139.09 237V296M2139.09 237H2080.14M2139.09 296V355M2139.09 296H2080.14M2139.09 355V414M2139.09 355H2080.14M2139.09 414V473M2139.09 414H2080.14M2139.09 473V532M2139.09 473H2080.14M2139.09 532V591M2139.09 532H2080.14M2139.09 591V650M2139.09 591H2080.14M2139.09 650V709M2139.09 650H2080.14M2139.09 709V768M2139.09 709H2080.14M2139.09 768V827M2139.09 768H2080.14M2139.09 827V886M2139.09 827H2080.14M2139.09 886V945M2139.09 886H2080.14M2139.09 945V1004M2139.09 945H2080.14M2139.09 1004V1063M2139.09 1004H2080.14M2139.09 1063V1122M2139.09 1063H2080.14M2139.09 1122V1181M2139.09 1122H2080.14M2139.09 1181H2080.14M2080.14 1V60M2080.14 1H2021.18M2080.14 60V119M2080.14 60H2021.18M2080.14 119V178M2080.14 119H2021.18M2080.14 178V237M2080.14 178H2021.18M2080.14 237V296M2080.14 237H2021.18M2080.14 296V355M2080.14 296H2021.18M2080.14 355V414M2080.14 355H2021.18M2080.14 414V473M2080.14 414H2021.18M2080.14 473V532M2080.14 473H2021.18M2080.14 532V591M2080.14 532H2021.18M2080.14 591V650M2080.14 591H2021.18M2080.14 650V709M2080.14 650H2021.18M2080.14 709V768M2080.14 709H2021.18M2080.14 768V827M2080.14 768H2021.18M2080.14 827V886M2080.14 827H2021.18M2080.14 886V945M2080.14 886H2021.18M2080.14 945V1004M2080.14 945H2021.18M2080.14 1004V1063M2080.14 1004H2021.18M2080.14 1063V1122M2080.14 1063H2021.18M2080.14 1122V1181M2080.14 1122H2021.18M2080.14 1181H2021.18M2021.18 1V60M2021.18 1H1962.23M2021.18 60V119M2021.18 60H1962.23M2021.18 119V178M2021.18 119H1962.23M2021.18 178V237M2021.18 178H1962.23M2021.18 237V296M2021.18 237H1962.23M2021.18 296V355M2021.18 296H1962.23M2021.18 355V414M2021.18 355H1962.23M2021.18 414V473M2021.18 414H1962.23M2021.18 473V532M2021.18 473H1962.23M2021.18 532V591M2021.18 532H1962.23M2021.18 591V650M2021.18 591H1962.23M2021.18 650V709M2021.18 650H1962.23M2021.18 709V768M2021.18 709H1962.23M2021.18 768V827M2021.18 768H1962.23M2021.18 827V886M2021.18 827H1962.23M2021.18 886V945M2021.18 886H1962.23M2021.18 945V1004M2021.18 945H1962.23M2021.18 1004V1063M2021.18 1004H1962.23M2021.18 1063V1122M2021.18 1063H1962.23M2021.18 1122V1181M2021.18 1122H1962.23M2021.18 1181H1962.23M1962.23 1V60M1962.23 1H1903.27M1962.23 60V119M1962.23 60H1903.27M1962.23 119V178M1962.23 119H1903.27M1962.23 178V237M1962.23 178H1903.27M1962.23 237V296M1962.23 237H1903.27M1962.23 296V355M1962.23 296H1903.27M1962.23 355V414M1962.23 355H1903.27M1962.23 414V473M1962.23 414H1903.27M1962.23 473V532M1962.23 473H1903.27M1962.23 532V591M1962.23 532H1903.27M1962.23 591V650M1962.23 591H1903.27M1962.23 650V709M1962.23 650H1903.27M1962.23 709V768M1962.23 709H1903.27M1962.23 768V827M1962.23 768H1903.27M1962.23 827V886M1962.23 827H1903.27M1962.23 886V945M1962.23 886H1903.27M1962.23 945V1004M1962.23 945H1903.27M1962.23 1004V1063M1962.23 1004H1903.27M1962.23 1063V1122M1962.23 1063H1903.27M1962.23 1122V1181M1962.23 1122H1903.27M1962.23 1181H1903.27M1903.27 1V60M1903.27 1H1844.32M1903.27 60V119M1903.27 60H1844.32M1903.27 119V178M1903.27 119H1844.32M1903.27 178V237M1903.27 178H1844.32M1903.27 237V296M1903.27 237H1844.32M1903.27 296V355M1903.27 296H1844.32M1903.27 355V414M1903.27 355H1844.32M1903.27 414V473M1903.27 414H1844.32M1903.27 473V532M1903.27 473H1844.32M1903.27 532V591M1903.27 532H1844.32M1903.27 591V650M1903.27 591H1844.32M1903.27 650V709M1903.27 650H1844.32M1903.27 709V768M1903.27 709H1844.32M1903.27 768V827M1903.27 768H1844.32M1903.27 827V886M1903.27 827H1844.32M1903.27 886V945M1903.27 886H1844.32M1903.27 945V1004M1903.27 945H1844.32M1903.27 1004V1063M1903.27 1004H1844.32M1903.27 1063V1122M1903.27 1063H1844.32M1903.27 1122V1181M1903.27 1122H1844.32M1903.27 1181H1844.32M1844.32 1V60M1844.32 1H1785.36M1844.32 60V119M1844.32 60H1785.36M1844.32 119V178M1844.32 119H1785.36M1844.32 178V237M1844.32 178H1785.36M1844.32 237V296M1844.32 237H1785.36M1844.32 296V355M1844.32 296H1785.36M1844.32 355V414M1844.32 355H1785.36M1844.32 414H1785.36M1844.32 414V473M1844.32 473V532M1844.32 473H1785.36M1844.32 532V591M1844.32 532H1785.36M1844.32 591V650M1844.32 591H1785.36M1844.32 650V709M1844.32 650H1785.36M1844.32 709V768M1844.32 709H1785.36M1844.32 768V827M1844.32 768H1785.36M1844.32 827V886M1844.32 827H1785.36M1844.32 886V945M1844.32 886H1785.36M1844.32 945V1004M1844.32 945H1785.36M1844.32 1004V1063M1844.32 1004H1785.36M1844.32 1063V1122M1844.32 1063H1785.36M1844.32 1122V1181M1844.32 1122H1785.36M1844.32 1181H1785.36M1785.36 1V60M1785.36 1H1726.41M1785.36 60V119M1785.36 60H1726.41M1785.36 119V178M1785.36 119H1726.41M1785.36 178V237M1785.36 178H1726.41M1785.36 237V296M1785.36 237H1726.41M1785.36 296V355M1785.36 296H1726.41M1785.36 355V414M1785.36 355H1726.41M1785.36 414V473M1785.36 414H1726.41M1785.36 473V532M1785.36 473H1726.41M1785.36 532V591M1785.36 532H1726.41M1785.36 591V650M1785.36 591H1726.41M1785.36 650V709M1785.36 650H1726.41M1785.36 709V768M1785.36 709H1726.41M1785.36 768V827M1785.36 768C1785.36 768 1749.43 768 1726.41 768M1785.36 827V886M1785.36 827H1726.41M1785.36 886V945M1785.36 886H1726.41M1785.36 945V1004M1785.36 945H1726.41M1785.36 1004V1063M1785.36 1004H1726.41M1785.36 1063V1122M1785.36 1063H1726.41M1785.36 1122V1181M1785.36 1122H1726.41M1785.36 1181H1726.41M1726.41 1V60M1726.41 1H1667.45M1726.41 60V119M1726.41 60H1667.45M1726.41 119V178M1726.41 119H1667.45M1726.41 178V237M1726.41 178H1667.45M1726.41 237V296M1726.41 237H1667.45M1726.41 296V355M1726.41 296H1667.45M1726.41 355V414M1726.41 355H1667.45M1726.41 414V473M1726.41 414H1667.45M1726.41 473V532M1726.41 473H1667.45M1726.41 532V591M1726.41 532H1667.45M1726.41 591V650M1726.41 591H1667.45M1726.41 650V709M1726.41 650H1667.45M1726.41 709C1726.41 709 1726.41 744.959 1726.41 768M1726.41 709H1667.45M1726.41 768C1726.41 791.041 1726.41 827 1726.41 827M1726.41 768C1703.39 768 1667.45 768 1667.45 768M1726.41 827V886M1726.41 827H1667.45M1726.41 886V945M1726.41 886H1667.45M1726.41 945V1004M1726.41 945H1667.45M1726.41 1004V1063M1726.41 1004H1667.45M1726.41 1063V1122M1726.41 1063H1667.45M1726.41 1122V1181M1726.41 1122H1667.45M1726.41 1181H1667.45M1667.45 1V60M1667.45 1H1608.5M1667.45 60V119M1667.45 60H1608.5M1667.45 119V178M1667.45 119H1608.5M1667.45 178V237M1667.45 178H1608.5M1667.45 237V296M1667.45 237H1608.5M1667.45 296V355M1667.45 296H1608.5M1667.45 355V414M1667.45 355H1608.5M1667.45 414V473M1667.45 414H1608.5M1667.45 473V532M1667.45 473H1608.5M1667.45 532V591M1667.45 532H1608.5M1667.45 591V650M1667.45 591H1608.5M1667.45 650V709M1667.45 650H1608.5M1667.45 709V768M1667.45 709H1608.5M1667.45 768V827M1667.45 768H1608.5M1667.45 827V886M1667.45 827H1608.5M1667.45 886V945M1667.45 886H1608.5M1667.45 945V1004M1667.45 945H1608.5M1667.45 1004V1063M1667.45 1004H1608.5M1667.45 1063V1122M1667.45 1063H1608.5M1667.45 1122V1181M1667.45 1122H1608.5M1667.45 1181H1608.5M1608.5 1V60M1608.5 1H1549.55M1608.5 60V119M1608.5 60H1549.55M1608.5 119V178M1608.5 119H1549.55M1608.5 178V237M1608.5 178H1549.55M1608.5 237V296M1608.5 237H311.5M1608.5 296V355M1608.5 296H311.5M1608.5 355V414M1608.5 355H1549.55M1608.5 414V473M1608.5 414H1549.55M1608.5 473V532M1608.5 473H1549.55M1608.5 532V591M1608.5 532H1549.55M1608.5 591V650M1608.5 591H1549.55M1608.5 650V709M1608.5 650H1549.55M1608.5 709V768M1608.5 709H1549.55M1608.5 768V827M1608.5 768H1549.55M1608.5 827V886M1608.5 827H1549.55M1608.5 886V945M1608.5 886H1549.55M1608.5 945V1004M1608.5 945H1549.55M1608.5 1004V1063M1608.5 1004H1549.55M1608.5 1063V1122M1608.5 1063H1549.55M1608.5 1122V1181M1608.5 1122H1549.55M1608.5 1181H1549.55M1549.55 1V60M1549.55 1H1490.59M1549.55 60V119M1549.55 60H1490.59M1549.55 119V178M1549.55 119H1490.59M1549.55 178H1490.59M1549.55 178V355M1549.55 355V414M1549.55 355H1490.59M1549.55 414V473M1549.55 414H1490.59M1549.55 473V532M1549.55 473H1490.59M1549.55 532V591M1549.55 532H1490.59M1549.55 591V650M1549.55 591H1490.59M1549.55 650V709M1549.55 650H1490.59M1549.55 709V768M1549.55 709H1490.59M1549.55 768V827M1549.55 768H1490.59M1549.55 827V886M1549.55 827H1490.59M1549.55 886V945M1549.55 886H1490.59M1549.55 945V1004M1549.55 945H1490.59M1549.55 1004V1063M1549.55 1004H1490.59M1549.55 1063V1122M1549.55 1063H1490.59M1549.55 1122V1181M1549.55 1122H1490.59M1549.55 1181H1490.59M1490.59 1V60M1490.59 1H1431.64M1490.59 60V119M1490.59 60H1431.64M1490.59 119V178M1490.59 119H1431.64M1490.59 178H1431.64M1490.59 178V355M1490.59 355V414M1490.59 355H1431.64M1490.59 414V473M1490.59 414H1431.64M1490.59 473V532M1490.59 473H1431.64M1490.59 532V591M1490.59 532H1431.64M1490.59 591V650M1490.59 591H1431.64M1490.59 650V709M1490.59 650H1431.64M1490.59 709V768M1490.59 709H1431.64M1490.59 768V827M1490.59 768H1431.64M1490.59 827V886M1490.59 827H1431.64M1490.59 886V945M1490.59 886H1431.64M1490.59 945V1004M1490.59 945H1431.64M1490.59 1004V1063M1490.59 1004H1431.64M1490.59 1063V1122M1490.59 1063H1431.64M1490.59 1122V1181M1490.59 1122H1431.64M1490.59 1181H1431.64M1431.64 1V60M1431.64 1H1372.68M1431.64 60V119M1431.64 60H1372.68M1431.64 119V178M1431.64 119H1372.68M1431.64 178H1372.68M1431.64 178V355M1431.64 355V414M1431.64 355H488.364M1431.64 414V473M1431.64 414H488.364M1431.64 473V532M1431.64 473H1372.68M1431.64 532V591M1431.64 532H1372.68M1431.64 591V650M1431.64 591H1372.68M1431.64 650V709M1431.64 650H1372.68M1431.64 709V768M1431.64 709H1372.68M1431.64 768V827M1431.64 768H1372.68M1431.64 827V886M1431.64 827H1372.68M1431.64 886V945M1431.64 886H1372.68M1431.64 945V1004M1431.64 945H1372.68M1431.64 1004V1063M1431.64 1004H1372.68M1431.64 1063V1122M1431.64 1063H1372.68M1431.64 1122V1181M1431.64 1122H1372.68M1431.64 1181H1372.68M1372.68 1V60M1372.68 1H1313.73M1372.68 60V119M1372.68 60H1313.73M1372.68 119V178M1372.68 119H1313.73M1372.68 178H1313.73M1372.68 178V473M1372.68 473V532M1372.68 473H1313.73M1372.68 532V591M1372.68 532H1313.73M1372.68 591V650M1372.68 591H1313.73M1372.68 650V709M1372.68 650H1313.73M1372.68 709V768M1372.68 709H1313.73M1372.68 768V827M1372.68 768H1313.73M1372.68 827V886M1372.68 827H1313.73M1372.68 886V945M1372.68 886H1313.73M1372.68 945V1004M1372.68 945H1313.73M1372.68 1004V1063M1372.68 1004H1313.73M1372.68 1063V1122M1372.68 1063H1313.73M1372.68 1122V1181M1372.68 1122H1313.73M1372.68 1181H1313.73M1313.73 1V60M1313.73 1H1254.77M1313.73 60V119M1313.73 60H1254.77M1313.73 119V178M1313.73 119H1254.77M1313.73 178H1254.77M1313.73 178V473M1313.73 473V532M1313.73 473H1254.77M1313.73 532V591M1313.73 532H1254.77M1313.73 591V650M1313.73 591H1254.77M1313.73 650V709M1313.73 650H1254.77M1313.73 709V768M1313.73 709H1254.77M1313.73 768V827M1313.73 768H1254.77M1313.73 827V886M1313.73 827H1254.77M1313.73 886V945M1313.73 886H1254.77M1313.73 945V1004M1313.73 945H1254.77M1313.73 1004V1063M1313.73 1004H1254.77M1313.73 1063V1122M1313.73 1063H1254.77M1313.73 1122V1181M1313.73 1122H1254.77M1313.73 1181H1254.77M1254.77 1V60M1254.77 1H1195.82M1254.77 60V119M1254.77 60H1195.82M1254.77 119V178M1254.77 119H1195.82M1254.77 178H1195.82M1254.77 178V473M1254.77 473V532M1254.77 473H1195.82M1254.77 532V591M1254.77 532H1195.82M1254.77 591V650M1254.77 591H1195.82M1254.77 650V709M1254.77 650H1195.82M1254.77 709V768M1254.77 709H1195.82M1254.77 768V827M1254.77 768H1195.82M1254.77 827V886M1254.77 827H1195.82M1254.77 886V945M1254.77 886H1195.82M1254.77 945V1004M1254.77 945H1195.82M1254.77 1004V1063M1254.77 1004H1195.82M1254.77 1063V1122M1254.77 1063H1195.82M1254.77 1122V1181M1254.77 1122H1195.82M1254.77 1181H1195.82M1195.82 1V60M1195.82 1H1136.86M1195.82 60V119M1195.82 60H1136.86M1195.82 119V178M1195.82 119H1136.86M1195.82 178H1136.86M1195.82 178V473M1195.82 473V532M1195.82 473H1136.86M1195.82 532V591M1195.82 532H1136.86M1195.82 591V650M1195.82 591H1136.86M1195.82 650V709M1195.82 650H1136.86M1195.82 709V768M1195.82 709H1136.86M1195.82 768V827M1195.82 768H1136.86M1195.82 827V886M1195.82 827H1136.86M1195.82 886V945M1195.82 886H1136.86M1195.82 945V1004M1195.82 945H1136.86M1195.82 1004V1063M1195.82 1004H1136.86M1195.82 1063V1122M1195.82 1063H1136.86M1195.82 1122V1181M1195.82 1122H1136.86M1195.82 1181H1136.86M1136.86 1V60M1136.86 1H1077.91M1136.86 60V119M1136.86 60H1077.91M1136.86 119V178M1136.86 119H1077.91M1136.86 178H1077.91M1136.86 178V473M1136.86 473V532M1136.86 473H1077.91M1136.86 532V591M1136.86 532H1077.91M1136.86 591V650M1136.86 591H1077.91M1136.86 650V709M1136.86 650H1077.91M1136.86 709V768M1136.86 709H1077.91M1136.86 768V827M1136.86 768H1077.91M1136.86 827V886M1136.86 827H1077.91M1136.86 886V945M1136.86 886H1077.91M1136.86 945V1004M1136.86 945H1077.91M1136.86 1004V1063M1136.86 1004H1077.91M1136.86 1063V1122M1136.86 1063H1077.91M1136.86 1122V1181M1136.86 1122H1077.91M1136.86 1181H1077.91M1077.91 1V60M1077.91 1H1018.95M1077.91 60V119M1077.91 60H1018.95M1077.91 119V178M1077.91 119H1018.95M1077.91 178H1018.95M1077.91 178V473M1077.91 473V532M1077.91 473H1018.95M1077.91 532V591M1077.91 532H1018.95M1077.91 591V650M1077.91 591H1018.95M1077.91 650V709M1077.91 650H1018.95M1077.91 709V768M1077.91 709H1018.95M1077.91 768V827M1077.91 768H1018.95M1077.91 827V886M1077.91 827H1018.95M1077.91 886V945M1077.91 886H1018.95M1077.91 945V1004M1077.91 945H1018.95M1077.91 1004V1063M1077.91 1004H1018.95M1077.91 1063V1122M1077.91 1063H1018.95M1077.91 1122V1181M1077.91 1122H1018.95M1077.91 1181H1018.95M1018.95 1V60M1018.95 1H960M1018.95 60H960M1018.95 60V119M1018.95 119V178M1018.95 119H960M1018.95 178H960M1018.95 178V473M1018.95 473V532M1018.95 473H960M1018.95 532V591M1018.95 532H960M1018.95 591V650M1018.95 591H960M1018.95 650V709M1018.95 650H960M1018.95 709V768M1018.95 709H960M1018.95 768V827M1018.95 768H960M1018.95 827V886M1018.95 827H960M1018.95 886V945M1018.95 886H960M1018.95 945V1004M1018.95 945H960M1018.95 1004V1063M1018.95 1004H960M1018.95 1063V1122M1018.95 1063H960M1018.95 1122V1181M1018.95 1122H960M1018.95 1181H960M960 1V60M960 1H901.045M960 60H901.045M960 60V119M960 119V178M960 119H901.045M960 178H901.045M960 178V473M960 473V532M960 473H901.045M960 532V591M960 532H901.045M960 591V650M960 591H901.045M960 650V709M960 650H901.045M960 709V768M960 709H901.045M960 768V827M960 768H901.045M960 827V886M960 827H901.045M960 886V945M960 886H901.045M960 945V1004M960 945H901.045M960 1004V1063M960 1004H901.045M960 1063V1122M960 1063H901.045M960 1122V1181M960 1122H901.045M960 1181H901.045M901.045 1V60M901.045 1H842.091M901.045 60H842.091M901.045 60V119M901.045 119V178M901.045 119H842.091M901.045 178H842.091M901.045 178V473M901.045 473V532M901.045 473H842.091M901.045 532V591M901.045 532H842.091M901.045 591V650M901.045 591H842.091M901.045 650V709M901.045 650H842.091M901.045 709V768M901.045 709H842.091M901.045 768V827M901.045 768H842.091M901.045 827V886M901.045 827H842.091M901.045 886V945M901.045 886H842.091M901.045 945V1004M901.045 945H842.091M901.045 1004V1063M901.045 1004H842.091M901.045 1063V1122M901.045 1063H842.091M901.045 1122V1181M901.045 1122H842.091M901.045 1181H842.091M842.091 1V60M842.091 1H783.136M842.091 60H783.136M842.091 60V119M842.091 119V178M842.091 119H783.136M842.091 178H783.136M842.091 178V473M842.091 473V532M842.091 473H783.136M842.091 532V591M842.091 532H783.136M842.091 591V650M842.091 591H783.136M842.091 650V709M842.091 650H783.136M842.091 709V768M842.091 709H783.136M842.091 768V827M842.091 768H783.136M842.091 827V886M842.091 827H783.136M842.091 886V945M842.091 886H783.136M842.091 945V1004M842.091 945H783.136M842.091 1004V1063M842.091 1004H783.136M842.091 1063V1122M842.091 1063H783.136M842.091 1122V1181M842.091 1122H783.136M842.091 1181H783.136M783.136 1V60M783.136 1H724.182M783.136 60V119M783.136 60H724.182M783.136 119V178M783.136 119H724.182M783.136 178H724.182M783.136 178V473M783.136 473V532M783.136 473H724.182M783.136 532V591M783.136 532H724.182M783.136 591V650M783.136 591H724.182M783.136 650V709M783.136 650H724.182M783.136 709V768M783.136 709H724.182M783.136 768V827M783.136 768H724.182M783.136 827V886M783.136 827H724.182M783.136 886V945M783.136 886H724.182M783.136 945V1004M783.136 945H724.182M783.136 1004V1063M783.136 1004H724.182M783.136 1063V1122M783.136 1063H724.182M783.136 1122V1181M783.136 1122H724.182M783.136 1181H724.182M724.182 1V60M724.182 1H665.227M724.182 60V119M724.182 60H665.227M724.182 119V178M724.182 119H665.227M724.182 178H665.227M724.182 178V473M724.182 473V532M724.182 473H665.227M724.182 532V591M724.182 532H665.227M724.182 591V650M724.182 591H665.227M724.182 650V709M724.182 650H665.227M724.182 709V768M724.182 709H665.227M724.182 768V827M724.182 768H665.227M724.182 827V886M724.182 827H665.227M724.182 886V945M724.182 886H665.227M724.182 945V1004M724.182 945H665.227M724.182 1004V1063M724.182 1004H665.227M724.182 1063V1122M724.182 1063H665.227M724.182 1122V1181M724.182 1122H665.227M724.182 1181H665.227M665.227 1V60M665.227 1H606.273M665.227 60V119M665.227 60H606.273M665.227 119V178M665.227 119H606.273M665.227 178H606.273M665.227 178V473M665.227 473V532M665.227 473H606.273M665.227 532V591M665.227 532H606.273M665.227 591V650M665.227 591H606.273M665.227 650V709M665.227 650H606.273M665.227 709V768M665.227 709H606.273M665.227 768V827M665.227 768H606.273M665.227 827V886M665.227 827H606.273M665.227 886V945M665.227 886H606.273M665.227 945V1004M665.227 945H606.273M665.227 1004V1063M665.227 1004H606.273M665.227 1063V1122M665.227 1063H606.273M665.227 1122V1181M665.227 1122H606.273M665.227 1181H606.273M606.273 1V60M606.273 1H547.318M606.273 60V119M606.273 60H547.318M606.273 119V178M606.273 119H547.318M606.273 178H547.318M606.273 178V473M606.273 473V532M606.273 473H547.318M606.273 532V591M606.273 532H547.318M606.273 591V650M606.273 591H547.318M606.273 650V709M606.273 650H547.318M606.273 709V768M606.273 709H547.318M606.273 768V827M606.273 768H547.318M606.273 827V886M606.273 827H547.318M606.273 886V945M606.273 886H547.318M606.273 945V1004M606.273 945H547.318M606.273 1004V1063M606.273 1004H547.318M606.273 1063V1122M606.273 1063H547.318M606.273 1122V1181M606.273 1122H547.318M606.273 1181H547.318M547.318 1V60M547.318 1H488.364M547.318 60V119M547.318 60H488.364M547.318 119V178M547.318 119H488.364M547.318 178H488.364M547.318 178V473M547.318 473V532M547.318 473H488.364M547.318 532V591M547.318 532H488.364M547.318 591V650M547.318 591H488.364M547.318 650V709M547.318 650H488.364M547.318 709V768M547.318 709H488.364M547.318 768V827M547.318 768H488.364M547.318 827V886M547.318 827H488.364M547.318 886V945M547.318 886H488.364M547.318 945V1004M547.318 945H488.364M547.318 1004V1063M547.318 1004H488.364M547.318 1063V1122M547.318 1063H488.364M547.318 1122V1181M547.318 1122H488.364M547.318 1181H488.364M488.364 1V60M488.364 1H429.409M488.364 60V119M488.364 60H429.409M488.364 119V178M488.364 119H429.409M488.364 178H429.409M488.364 178V355M488.364 355V414M488.364 355H429.409M488.364 414V473M488.364 414H429.409M488.364 473V532M488.364 473H429.409M488.364 532V591M488.364 532H429.409M488.364 591V650M488.364 591H429.409M488.364 650V709M488.364 650H429.409M488.364 709V768M488.364 709H429.409M488.364 768V827M488.364 768H429.409M488.364 827V886M488.364 827H429.409M488.364 886V945M488.364 886H429.409M488.364 945V1004M488.364 945H429.409M488.364 1004V1063M488.364 1004H429.409M488.364 1063V1122M488.364 1063H429.409M488.364 1122V1181M488.364 1122H429.409M488.364 1181H429.409M429.409 1V60M429.409 1H370.455M429.409 60V119M429.409 60H370.455M429.409 119V178M429.409 119H370.455M429.409 178H370.455M429.409 178V355M429.409 355V414M429.409 355H370.455M429.409 414V473M429.409 414H370.455M429.409 473V532M429.409 473H370.455M429.409 532V591M429.409 532H370.455M429.409 591V650M429.409 591H370.455M429.409 650V709M429.409 650H370.455M429.409 709V768M429.409 709H370.455M429.409 768V827M429.409 768H370.455M429.409 827V886M429.409 827H370.455M429.409 886V945M429.409 886H370.455M429.409 945V1004M429.409 945H370.455M429.409 1004V1063M429.409 1004H370.455M429.409 1063V1122M429.409 1063H370.455M429.409 1122V1181M429.409 1122H370.455M429.409 1181H370.455M370.455 1V60M370.455 1H311.5M370.455 60V119M370.455 60H311.5M370.455 119V178M370.455 119H311.5M370.455 178H311.5M370.455 178V355M370.455 355V414M370.455 355H311.5M370.455 414V473M370.455 414H311.5M370.455 473V532M370.455 473H311.5M370.455 532V591M370.455 532H311.5M370.455 591V650M370.455 591H311.5M370.455 650V709M370.455 650H311.5M370.455 709V768M370.455 709H311.5M370.455 768V827M370.455 768H311.5M370.455 827V886M370.455 827H311.5M370.455 886V945M370.455 886H311.5M370.455 945V1004M370.455 945H311.5M370.455 1004V1063M370.455 1004H311.5M370.455 1063V1122M370.455 1063H311.5M370.455 1122V1181M370.455 1122H311.5M370.455 1181H311.5M311.5 1V60M311.5 1H252.546M311.5 60V119M311.5 60H252.546M311.5 119V178M311.5 119H252.546M311.5 178V237M311.5 178H252.546M311.5 237V296M311.5 237H252.546M311.5 296V355M311.5 296H252.546M311.5 355V414M311.5 355H252.546M311.5 414V473M311.5 414H252.546M311.5 473V532M311.5 473H252.546M311.5 532V591M311.5 532H252.546M311.5 591V650M311.5 591H252.546M311.5 650V709M311.5 650H252.546M311.5 709V768M311.5 709H252.546M311.5 768V827M311.5 768H252.546M311.5 827V886M311.5 827H252.546M311.5 886V945M311.5 886H252.546M311.5 945V1004M311.5 945H252.546M311.5 1004V1063M311.5 1004H252.546M311.5 1063V1122M311.5 1063H252.546M311.5 1122V1181M311.5 1122H252.546M311.5 1181H252.546M252.546 1V60M252.546 1H193.591M252.546 60V119M252.546 60H193.591M252.546 119V178M252.546 119H193.591M252.546 178V237M252.546 178H193.591M252.546 237V296M252.546 237H193.591M252.546 296V355M252.546 296H193.591M252.546 355V414M252.546 355H193.591M252.546 414V473M252.546 414H193.591M252.546 473V532M252.546 473H193.591M252.546 532V591M252.546 532H193.591M252.546 591V650M252.546 591H193.591M252.546 650V709M252.546 650H193.591M252.546 709V768M252.546 709H193.591M252.546 768V827M252.546 768H193.591M252.546 827V886M252.546 827H193.591M252.546 886V945M252.546 886H193.591M252.546 945V1004M252.546 945H193.591M252.546 1004V1063M252.546 1004H193.591M252.546 1063V1122M252.546 1063H193.591M252.546 1122V1181M252.546 1122H193.591M252.546 1181H193.591M193.591 1V60M193.591 1H134.636M193.591 60V119M193.591 60H134.636M193.591 119V178M193.591 119H134.636M193.591 178V237M193.591 178H134.636M193.591 237V296M193.591 237H134.636M193.591 296V355M193.591 296H134.636M193.591 355V414M193.591 355H134.636M193.591 414V473M193.591 414H134.636M193.591 473V532M193.591 473H134.636M193.591 532V591M193.591 532H134.636M193.591 591V650M193.591 591H134.636M193.591 650V709M193.591 650H134.636M193.591 709V768M193.591 709H134.636M193.591 768V827M193.591 768H134.636M193.591 827V886M193.591 827H134.636M193.591 886V945M193.591 886H134.636M193.591 945V1004M193.591 945H134.636M193.591 1004V1063M193.591 1004H134.636M193.591 1063V1122M193.591 1063H134.636M193.591 1122V1181M193.591 1122H134.636M193.591 1181H134.636M134.636 1V60M134.636 1H75.6819M134.636 60V119M134.636 60H75.6819M134.636 119V178M134.636 119H75.6819M134.636 178V237M134.636 178H75.6819M134.636 237V296M134.636 237H75.6819M134.636 296V355M134.636 296H75.6819M134.636 355V414M134.636 355H75.6819M134.636 414V473M134.636 414H75.6819M134.636 473V532M134.636 473H75.6819M134.636 532V591M134.636 532H75.6819M134.636 591V650M134.636 591H75.6819M134.636 650V709M134.636 650H75.6819M134.636 709V768M134.636 709H75.6819M134.636 768V827M134.636 768H75.6819M134.636 827V886M134.636 827H75.6819M134.636 886V945M134.636 886H75.6819M134.636 945V1004M134.636 945H75.6819M134.636 1004V1063M134.636 1004H75.6819M134.636 1063V1122M134.636 1063H75.6819M134.636 1122V1181M134.636 1122H75.6819M134.636 1181H75.6819M75.6819 1V60M75.6819 1H16.7273M75.6819 60V119M75.6819 60H16.7273M75.6819 119V178M75.6819 119H16.7273M75.6819 178V237M75.6819 178H16.7273M75.6819 237V296M75.6819 237H16.7273M75.6819 296V355M75.6819 296H16.7273M75.6819 355V414M75.6819 355H16.7273M75.6819 414H16.7273M75.6819 414V473M75.6819 473V532M75.6819 473H16.7273M75.6819 532V591M75.6819 532H16.7273M75.6819 591V650M75.6819 591H16.7273M75.6819 650V709M75.6819 650H16.7273M75.6819 709V768M75.6819 709H16.7273M75.6819 768V827M75.6819 768H16.7273M75.6819 827V886M75.6819 827H16.7273M75.6819 886V945M75.6819 886H16.7273M75.6819 945V1004M75.6819 945H16.7273M75.6819 1004V1063M75.6819 1004H16.7273M75.6819 1063V1122M75.6819 1063H16.7273M75.6819 1122V1181M75.6819 1122H16.7273M75.6819 1181H16.7273M16.7273 1V60M16.7273 1H-42.2272M16.7273 60V119M16.7273 60H-42.2272M16.7273 119V178M16.7273 119H-42.2272M16.7273 178V237M16.7273 178H-42.2272M16.7273 237V296M16.7273 237H-42.2272M16.7273 296V355M16.7273 296H-42.2272M16.7273 355V414M16.7273 355H-42.2272M16.7273 414V473M16.7273 414H-42.2272M16.7273 473V532M16.7273 473H-42.2272M16.7273 532V591M16.7273 532H-42.2272M16.7273 591V650M16.7273 591H-42.2272M16.7273 650V709M16.7273 650H-42.2272M16.7273 709V768M16.7273 709H-42.2272M16.7273 768V827M16.7273 768H-42.2272M16.7273 827V886M16.7273 827H-42.2272M16.7273 886V945M16.7273 886H-42.2272M16.7273 945V1004M16.7273 945H-42.2272M16.7273 1004V1063M16.7273 1004H-42.2272M16.7273 1063V1122M16.7273 1063H-42.2272M16.7273 1122V1181M16.7273 1122H-42.2272M16.7273 1181H-42.2272M-42.2272 1V60M-42.2272 1H-101.182M-42.2272 60V119M-42.2272 60H-101.182M-42.2272 119V178M-42.2272 119H-101.182M-42.2272 178V237M-42.2272 178H-101.182M-42.2272 237V296M-42.2272 237H-101.182M-42.2272 296V355M-42.2272 296H-101.182M-42.2272 355V414M-42.2272 355H-101.182M-42.2272 414V473M-42.2272 414H-101.182M-42.2272 473V532M-42.2272 473H-101.182M-42.2272 532V591M-42.2272 532H-101.182M-42.2272 591V650M-42.2272 591H-101.182M-42.2272 650V709M-42.2272 650H-101.182M-42.2272 709V768M-42.2272 709H-101.182M-42.2272 768V827M-42.2272 768H-101.182M-42.2272 827V886M-42.2272 827H-101.182M-42.2272 886V945M-42.2272 886H-101.182M-42.2272 945V1004M-42.2272 945H-101.182M-42.2272 1004V1063M-42.2272 1004H-101.182M-42.2272 1063V1122M-42.2272 1063H-101.182M-42.2272 1122V1181M-42.2272 1122H-101.182M-42.2272 1181H-101.182M-101.182 1V60M-101.182 1H-160.136M-101.182 60V119M-101.182 60H-160.136M-101.182 119V178M-101.182 119H-160.136M-101.182 178V237M-101.182 178H-160.136M-101.182 237V296M-101.182 237H-160.136M-101.182 296V355M-101.182 296H-160.136M-101.182 355V414M-101.182 355H-160.136M-101.182 414V473M-101.182 414H-160.136M-101.182 473V532M-101.182 473H-160.136M-101.182 532V591M-101.182 532H-160.136M-101.182 591V650M-101.182 591H-160.136M-101.182 650V709M-101.182 650H-160.136M-101.182 709V768M-101.182 709H-160.136M-101.182 768V827M-101.182 768H-160.136M-101.182 827V886M-101.182 827H-160.136M-101.182 886V945M-101.182 886H-160.136M-101.182 945V1004M-101.182 945H-160.136M-101.182 1004V1063M-101.182 1004H-160.136M-101.182 1063V1122M-101.182 1063H-160.136M-101.182 1122V1181M-101.182 1122H-160.136M-101.182 1181H-160.136M-160.136 1V60M-160.136 1H-219.091M-160.136 60V119M-160.136 60H-219.091M-160.136 119V178M-160.136 119H-219.091M-160.136 178V237M-160.136 178H-219.091M-160.136 237V296M-160.136 237H-219.091M-160.136 296V355M-160.136 296H-219.091M-160.136 355V414M-160.136 355H-219.091M-160.136 414V473M-160.136 414H-219.091M-160.136 473V532M-160.136 473H-219.091M-160.136 532V591M-160.136 532H-219.091M-160.136 591V650M-160.136 591H-219.091M-160.136 650V709M-160.136 650H-219.091M-160.136 709V768M-160.136 709H-219.091M-160.136 768V827M-160.136 768H-219.091M-160.136 827V886M-160.136 827H-219.091M-160.136 886V945M-160.136 886H-219.091M-160.136 945V1004M-160.136 945H-219.091M-160.136 1004V1063M-160.136 1004H-219.091M-160.136 1063V1122M-160.136 1063H-219.091M-160.136 1122V1181M-160.136 1122H-219.091M-160.136 1181H-219.091M-219.091 1V60M-219.091 1H-278.045M-219.091 60V119M-219.091 60H-278.045M-219.091 119V178M-219.091 119H-278.045M-219.091 178V237M-219.091 178H-278.045M-219.091 237V296M-219.091 237H-278.045M-219.091 296V355M-219.091 296H-278.045M-219.091 355V414M-219.091 355H-278.045M-219.091 414V473M-219.091 414H-278.045M-219.091 473V532M-219.091 473H-278.045M-219.091 532V591M-219.091 532H-278.045M-219.091 591V650M-219.091 591H-278.045M-219.091 650V709M-219.091 650H-278.045M-219.091 709V768M-219.091 709H-278.045M-219.091 768V827M-219.091 768H-278.045M-219.091 827V886M-219.091 827H-278.045M-219.091 886V945M-219.091 886H-278.045M-219.091 945V1004M-219.091 945H-278.045M-219.091 1004V1063M-219.091 1004H-278.045M-219.091 1063V1122M-219.091 1063H-278.045M-219.091 1122V1181M-219.091 1122H-278.045M-219.091 1181H-278.045M-278.045 1V60M-278.045 1H-337V60M-278.045 60V119M-278.045 60H-337M-278.045 119V178M-278.045 119H-337M-278.045 178V237M-278.045 178H-337M-278.045 237V296M-278.045 237H-337M-278.045 296V355M-278.045 296H-337M-278.045 355V414M-278.045 355H-337M-278.045 414V473M-278.045 414H-337M-278.045 473V532M-278.045 473H-337M-278.045 532V591M-278.045 532H-337M-278.045 591V650M-278.045 591H-337M-278.045 650V709M-278.045 650H-337M-278.045 709V768M-278.045 709H-337M-278.045 768V827M-278.045 768H-337M-278.045 827V886M-278.045 827H-337M-278.045 886V945M-278.045 886H-337M-278.045 945V1004M-278.045 945H-337M-278.045 1004V1063M-278.045 1004H-337M-278.045 1063V1122M-278.045 1063H-337M-278.045 1122V1181M-278.045 1122H-337M-278.045 1181H-337V1122M-337 60V119M-337 119V178M-337 178V237M-337 237V296M-337 296V355M-337 355V414M-337 414V473M-337 473V532M-337 532V591M-337 591V650M-337 650V709M-337 709V768M-337 768V827M-337 827V886M-337 886V945M-337 945V1004M-337 1004V1063M-337 1063V1122" stroke="url(#paint0_radial_17_1665)" stroke-opacity="0.8" strokeWidth="1.61"/>
</g>
<defs>
<radialGradient id="paint0_radial_17_1665" cx="0" cy="0" r="1" gradientUnits="userSpaceOnUse" gradientTransform="translate(1022.52 475.107) rotate(-91.2128) scale(190.15 418.106)">
<stop stop-color="#076A67"/>
<stop offset="1" stop-color="#076A67" stop-opacity="0"/>
</radialGradient>
</defs>
</svg>
