<svg width="1502" height="1229" viewBox="0 0 1502 1229" fill="none" xmlns="http://www.w3.org/2000/svg">
<path d="M928.628 1016.53C1000.59 987.292 1063.4 939.288 1110.51 877.521L1001.3 794.239C969.09 836.473 926.144 869.296 876.935 889.287L928.628 1016.53Z" fill="url(#paint0_linear_0_1)"/>
<path d="M1069.32 924.175C1121.4 873.077 1159.77 809.682 1180.88 739.842C1202 670.002 1205.17 595.968 1190.12 524.575L1055.74 552.907C1066.03 601.722 1063.86 652.344 1049.42 700.098C1034.98 747.853 1008.75 791.2 973.136 826.139L1069.32 924.175Z" fill="url(#paint1_linear_0_1)"/>
<path d="M1178.03 748.904C1200.67 679.542 1205.47 605.595 1191.98 533.891C1178.5 462.186 1147.16 395.035 1100.87 338.636L994.711 425.768C1026.36 464.331 1047.79 510.247 1057.01 559.276C1066.23 608.305 1062.95 658.867 1047.47 706.294L1178.03 748.904Z" fill="url(#paint2_linear_0_1)"/>
<path d="M1101.88 339.871C1055.8 283.303 996.212 239.255 928.615 211.796C861.018 184.336 787.592 174.35 715.116 182.758L730.943 319.183C780.499 313.434 830.706 320.263 876.926 339.039C923.147 357.814 963.893 387.932 995.401 426.612L1101.88 339.871Z" fill="url(#paint3_linear_0_1)"/>
<path d="M736.542 180.81C673.749 184.957 612.608 202.701 557.351 232.813C502.093 262.925 454.04 304.685 416.517 355.204C378.994 405.723 352.897 463.792 340.034 525.393C327.171 586.994 327.849 650.654 342.02 711.967C356.191 773.28 383.518 830.781 422.108 880.489C460.698 930.198 509.629 970.926 565.515 999.855C621.401 1028.78 682.906 1045.22 745.773 1048.03C808.639 1050.84 871.366 1039.96 929.61 1016.13L877.606 889.014C837.781 905.306 794.891 912.75 751.905 910.829C708.919 908.907 666.864 897.667 628.651 877.887C590.438 858.106 556.981 830.257 530.594 796.269C504.208 762.28 485.523 722.962 475.833 681.039C466.143 639.115 465.68 595.586 474.475 553.466C483.27 511.345 501.114 471.639 526.771 437.096C552.428 402.554 585.285 373.999 623.069 353.41C660.852 332.82 702.658 320.688 745.593 317.852L736.542 180.81Z" fill="url(#paint4_linear_0_1)"/>
<line x1="558" y1="279" x2="262" y2="279" stroke="url(#paint5_linear_0_1)" strokeWidth="2"/>
<circle cx="562.5" cy="278.5" r="10.5" fill="#1EDECA"/>
<line y1="-1" x2="296" y2="-1" transform="matrix(1 -8.74228e-08 -8.74228e-08 -1 960 279)" stroke="url(#paint6_linear_0_1)" strokeWidth="2"/>
<circle cx="10.5" cy="10.5" r="10.5" transform="matrix(-1 0 0 1 966 269)" fill="#1EDECA"/>
<line x1="1011" y1="964" x2="1291" y2="964" stroke="url(#paint7_linear_0_1)" strokeWidth="2"/>
<circle cx="10.5" cy="10.5" r="10.5" transform="matrix(-1 0 0 1 1017 955)" fill="#1EDECA"/>
<line y1="-1" x2="172" y2="-1" transform="matrix(-1 0 0 1 403 705)" stroke="url(#paint8_linear_0_1)" strokeWidth="2"/>
<circle cx="407.5" cy="705.5" r="10.5" fill="#1EDECA"/>
<line x1="1089" y1="824" x2="1261" y2="824" stroke="url(#paint9_linear_0_1)" strokeWidth="2"/>
<line x1="1136" y1="624" x2="1308" y2="624" stroke="url(#paint10_linear_0_1)" strokeWidth="2"/>
<circle cx="10.5" cy="10.5" r="10.5" transform="matrix(-1 0 0 1 1095 815)" fill="#1EDECA"/>
<circle cx="10.5" cy="10.5" r="10.5" transform="matrix(-1 0 0 1 1142 615)" fill="#1EDECA"/>
<path d="M1.58523 251V237.909H9.4858V239.315H3.17045V243.739H9.0767V245.145H3.17045V249.594H9.58807V251H1.58523ZM22.8771 242H21.2919C21.1982 241.544 21.0341 241.143 20.7997 240.798C20.5696 240.453 20.2884 240.163 19.956 239.929C19.6278 239.69 19.2635 239.511 18.8629 239.392C18.4624 239.273 18.0447 239.213 17.6101 239.213C16.8175 239.213 16.0994 239.413 15.456 239.814C14.8168 240.214 14.3075 240.805 13.9283 241.585C13.5533 242.364 13.3658 243.321 13.3658 244.455C13.3658 245.588 13.5533 246.545 13.9283 247.325C14.3075 248.104 14.8168 248.695 15.456 249.095C16.0994 249.496 16.8175 249.696 17.6101 249.696C18.0447 249.696 18.4624 249.636 18.8629 249.517C19.2635 249.398 19.6278 249.221 19.956 248.987C20.2884 248.748 20.5696 248.456 20.7997 248.111C21.0341 247.761 21.1982 247.361 21.2919 246.909H22.8771C22.7578 247.578 22.5405 248.177 22.2251 248.705C21.9098 249.234 21.5178 249.683 21.049 250.054C20.5803 250.42 20.054 250.7 19.4702 250.891C18.8906 251.083 18.2706 251.179 17.6101 251.179C16.4936 251.179 15.5007 250.906 14.6314 250.361C13.7621 249.815 13.0781 249.04 12.5795 248.034C12.081 247.028 11.8317 245.835 11.8317 244.455C11.8317 243.074 12.081 241.881 12.5795 240.875C13.0781 239.869 13.7621 239.094 14.6314 238.548C15.5007 238.003 16.4936 237.73 17.6101 237.73C18.2706 237.73 18.8906 237.826 19.4702 238.018C20.054 238.21 20.5803 238.491 21.049 238.862C21.5178 239.228 21.9098 239.675 22.2251 240.204C22.5405 240.728 22.7578 241.327 22.8771 242ZM36.4842 244.455C36.4842 245.835 36.2349 247.028 35.7363 248.034C35.2377 249.04 34.5538 249.815 33.6845 250.361C32.8152 250.906 31.8223 251.179 30.7058 251.179C29.5893 251.179 28.5964 250.906 27.7271 250.361C26.8578 249.815 26.1738 249.04 25.6752 248.034C25.1767 247.028 24.9274 245.835 24.9274 244.455C24.9274 243.074 25.1767 241.881 25.6752 240.875C26.1738 239.869 26.8578 239.094 27.7271 238.548C28.5964 238.003 29.5893 237.73 30.7058 237.73C31.8223 237.73 32.8152 238.003 33.6845 238.548C34.5538 239.094 35.2377 239.869 35.7363 240.875C36.2349 241.881 36.4842 243.074 36.4842 244.455ZM34.9501 244.455C34.9501 243.321 34.7605 242.364 34.3812 241.585C34.0062 240.805 33.497 240.214 32.8535 239.814C32.2143 239.413 31.4984 239.213 30.7058 239.213C29.9132 239.213 29.1951 239.413 28.5517 239.814C27.9125 240.214 27.4032 240.805 27.024 241.585C26.649 242.364 26.4615 243.321 26.4615 244.455C26.4615 245.588 26.649 246.545 27.024 247.325C27.4032 248.104 27.9125 248.695 28.5517 249.095C29.1951 249.496 29.9132 249.696 30.7058 249.696C31.4984 249.696 32.2143 249.496 32.8535 249.095C33.497 248.695 34.0062 248.104 34.3812 247.325C34.7605 246.545 34.9501 245.588 34.9501 244.455ZM46.3088 241.182C46.2321 240.534 45.921 240.031 45.3755 239.673C44.8301 239.315 44.161 239.136 43.3684 239.136C42.7889 239.136 42.2818 239.23 41.8471 239.418C41.4167 239.605 41.0801 239.863 40.8372 240.191C40.5985 240.519 40.4792 240.892 40.4792 241.31C40.4792 241.659 40.5623 241.96 40.7285 242.211C40.899 242.458 41.1163 242.665 41.3805 242.831C41.6447 242.993 41.9217 243.127 42.2115 243.234C42.5012 243.336 42.7676 243.419 43.0105 243.483L44.34 243.841C44.6809 243.93 45.0602 244.054 45.4778 244.212C45.8997 244.369 46.3024 244.585 46.6859 244.857C47.0737 245.126 47.3933 245.471 47.6447 245.893C47.8961 246.315 48.0218 246.832 48.0218 247.446C48.0218 248.153 47.8365 248.793 47.4657 249.364C47.0993 249.935 46.5623 250.388 45.8549 250.725C45.1518 251.062 44.2974 251.23 43.2917 251.23C42.3542 251.23 41.5424 251.079 40.8564 250.776C40.1745 250.474 39.6376 250.052 39.2456 249.511C38.8578 248.969 38.6383 248.341 38.5872 247.625H40.2235C40.2662 248.119 40.4324 248.528 40.7221 248.852C41.0162 249.172 41.3869 249.411 41.8343 249.568C42.286 249.722 42.7718 249.798 43.2917 249.798C43.8968 249.798 44.4402 249.7 44.9217 249.504C45.4032 249.304 45.7846 249.027 46.0659 248.673C46.3471 248.315 46.4877 247.898 46.4877 247.42C46.4877 246.986 46.3663 246.632 46.1234 246.359C45.8805 246.087 45.5609 245.865 45.1646 245.695C44.7683 245.524 44.34 245.375 43.8798 245.247L42.269 244.787C41.2463 244.493 40.4366 244.073 39.84 243.528C39.2434 242.982 38.9451 242.268 38.9451 241.386C38.9451 240.653 39.1433 240.014 39.5396 239.469C39.9402 238.919 40.4771 238.493 41.1504 238.19C41.8279 237.884 42.5843 237.73 43.4196 237.73C44.2633 237.73 45.0133 237.881 45.6696 238.184C46.3258 238.482 46.8457 238.891 47.2292 239.411C47.617 239.931 47.8216 240.521 47.8429 241.182H46.3088ZM49.5032 237.909H51.3185L54.9492 244.02H55.1026L58.7333 237.909H60.5487L55.8185 245.605V251H54.2333V245.605L49.5032 237.909ZM69.758 241.182C69.6813 240.534 69.3702 240.031 68.8248 239.673C68.2793 239.315 67.6103 239.136 66.8176 239.136C66.2381 239.136 65.731 239.23 65.2963 239.418C64.8659 239.605 64.5293 239.863 64.2864 240.191C64.0478 240.519 63.9284 240.892 63.9284 241.31C63.9284 241.659 64.0115 241.96 64.1777 242.211C64.3482 242.458 64.5655 242.665 64.8297 242.831C65.0939 242.993 65.3709 243.127 65.6607 243.234C65.9505 243.336 66.2168 243.419 66.4597 243.483L67.7892 243.841C68.1301 243.93 68.5094 244.054 68.927 244.212C69.3489 244.369 69.7516 244.585 70.1351 244.857C70.5229 245.126 70.8425 245.471 71.0939 245.893C71.3453 246.315 71.4711 246.832 71.4711 247.446C71.4711 248.153 71.2857 248.793 70.915 249.364C70.5485 249.935 70.0115 250.388 69.3042 250.725C68.601 251.062 67.7466 251.23 66.7409 251.23C65.8034 251.23 64.9917 251.079 64.3056 250.776C63.6238 250.474 63.0868 250.052 62.6948 249.511C62.307 248.969 62.0875 248.341 62.0364 247.625H63.6728C63.7154 248.119 63.8816 248.528 64.1713 248.852C64.4654 249.172 64.8361 249.411 65.2836 249.568C65.7353 249.722 66.2211 249.798 66.7409 249.798C67.3461 249.798 67.8894 249.7 68.3709 249.504C68.8525 249.304 69.2338 249.027 69.5151 248.673C69.7963 248.315 69.937 247.898 69.937 247.42C69.937 246.986 69.8155 246.632 69.5726 246.359C69.3297 246.087 69.0101 245.865 68.6138 245.695C68.2175 245.524 67.7892 245.375 67.329 245.247L65.7182 244.787C64.6955 244.493 63.8858 244.073 63.2892 243.528C62.6926 242.982 62.3944 242.268 62.3944 241.386C62.3944 240.653 62.5925 240.014 62.9888 239.469C63.3894 238.919 63.9263 238.493 64.5996 238.19C65.2772 237.884 66.0336 237.73 66.8688 237.73C67.7125 237.73 68.4625 237.881 69.1188 238.184C69.775 238.482 70.2949 238.891 70.6784 239.411C71.0662 239.931 71.2708 240.521 71.2921 241.182H69.758ZM73.3615 239.315V237.909H83.1797V239.315H79.0632V251H77.478V239.315H73.3615ZM85.6262 251V237.909H93.5268V239.315H87.2115V243.739H93.1177V245.145H87.2115V249.594H93.6291V251H85.6262ZM96.3841 237.909H98.2761L102.725 248.776H102.878L107.327 237.909H109.219V251H107.736V241.054H107.608L103.518 251H102.086L97.9949 241.054H97.867V251H96.3841V237.909ZM120.963 251.179C120.102 251.179 119.361 251.021 118.739 250.706C118.116 250.391 117.637 249.958 117.3 249.408C116.964 248.859 116.795 248.23 116.795 247.523C116.795 246.977 116.911 246.494 117.141 246.072C117.375 245.646 117.697 245.251 118.106 244.889C118.519 244.523 118.994 244.156 119.531 243.79L121.423 242.384C121.794 242.141 122.09 241.881 122.312 241.604C122.538 241.327 122.651 240.964 122.651 240.517C122.651 240.185 122.504 239.863 122.21 239.552C121.92 239.241 121.538 239.085 121.065 239.085C120.733 239.085 120.439 239.17 120.183 239.341C119.932 239.507 119.734 239.72 119.589 239.98C119.448 240.236 119.378 240.5 119.378 240.773C119.378 241.08 119.461 241.391 119.627 241.706C119.798 242.017 120.013 242.337 120.273 242.665C120.537 242.989 120.81 243.321 121.091 243.662L127.099 251H125.284L120.324 245.017C119.864 244.463 119.446 243.96 119.071 243.509C118.696 243.057 118.398 242.612 118.176 242.173C117.955 241.734 117.844 241.259 117.844 240.747C117.844 240.159 117.974 239.643 118.234 239.2C118.498 238.753 118.866 238.406 119.339 238.158C119.817 237.907 120.375 237.781 121.014 237.781C121.67 237.781 122.235 237.909 122.708 238.165C123.181 238.416 123.545 238.751 123.801 239.168C124.057 239.582 124.185 240.031 124.185 240.517C124.185 241.143 124.029 241.687 123.718 242.147C123.407 242.607 122.983 243.036 122.446 243.432L119.838 245.375C119.25 245.81 118.852 246.232 118.643 246.641C118.434 247.05 118.33 247.344 118.33 247.523C118.33 247.932 118.436 248.313 118.649 248.667C118.862 249.021 119.163 249.306 119.55 249.523C119.938 249.741 120.392 249.849 120.912 249.849C121.406 249.849 121.888 249.745 122.357 249.536C122.825 249.323 123.249 249.016 123.629 248.616C124.012 248.215 124.315 247.734 124.536 247.171C124.762 246.609 124.875 245.976 124.875 245.273H126.332C126.332 246.142 126.232 246.852 126.032 247.401C125.832 247.951 125.606 248.381 125.354 248.692C125.103 249.004 124.901 249.236 124.747 249.389C124.696 249.453 124.649 249.517 124.607 249.581C124.564 249.645 124.517 249.709 124.466 249.773C124.044 250.246 123.511 250.599 122.868 250.834C122.224 251.064 121.589 251.179 120.963 251.179ZM5.625 277H1.58523V263.909H5.80398C7.07386 263.909 8.16051 264.171 9.06392 264.695C9.96733 265.215 10.6598 265.963 11.1413 266.939C11.6229 267.911 11.8636 269.074 11.8636 270.429C11.8636 271.793 11.6207 272.967 11.1349 273.951C10.6491 274.931 9.94176 275.685 9.01278 276.214C8.08381 276.738 6.95455 277 5.625 277ZM3.17045 275.594H5.52273C6.60511 275.594 7.50213 275.385 8.21378 274.967C8.92543 274.55 9.45597 273.955 9.8054 273.184C10.1548 272.413 10.3295 271.494 10.3295 270.429C10.3295 269.372 10.157 268.462 9.81179 267.7C9.46662 266.933 8.95099 266.344 8.26491 265.935C7.57884 265.522 6.72443 265.315 5.7017 265.315H3.17045V275.594ZM14.5227 277V263.909H22.4233V265.315H16.108V269.739H22.0142V271.145H16.108V275.594H22.5256V277H14.5227ZM25.8175 263.909L29.7038 274.929H29.8572L33.7436 263.909H35.4055L30.5987 277H28.9624L24.1555 263.909H25.8175ZM37.4446 277V263.909H45.3452V265.315H39.0298V269.739H44.9361V271.145H39.0298V275.594H45.4474V277H37.4446ZM48.2024 277V263.909H49.7876V275.594H55.8729V277H48.2024ZM68.8631 270.455C68.8631 271.835 68.6138 273.028 68.1152 274.034C67.6167 275.04 66.9327 275.815 66.0634 276.361C65.1941 276.906 64.2012 277.179 63.0847 277.179C61.9682 277.179 60.9753 276.906 60.106 276.361C59.2367 275.815 58.5527 275.04 58.0542 274.034C57.5556 273.028 57.3063 271.835 57.3063 270.455C57.3063 269.074 57.5556 267.881 58.0542 266.875C58.5527 265.869 59.2367 265.094 60.106 264.548C60.9753 264.003 61.9682 263.73 63.0847 263.73C64.2012 263.73 65.1941 264.003 66.0634 264.548C66.9327 265.094 67.6167 265.869 68.1152 266.875C68.6138 267.881 68.8631 269.074 68.8631 270.455ZM67.329 270.455C67.329 269.321 67.1394 268.364 66.7601 267.585C66.3851 266.805 65.8759 266.214 65.2324 265.814C64.5932 265.413 63.8773 265.213 63.0847 265.213C62.2921 265.213 61.574 265.413 60.9306 265.814C60.2914 266.214 59.7821 266.805 59.4029 267.585C59.0279 268.364 58.8404 269.321 58.8404 270.455C58.8404 271.588 59.0279 272.545 59.4029 273.325C59.7821 274.104 60.2914 274.695 60.9306 275.095C61.574 275.496 62.2921 275.696 63.0847 275.696C63.8773 275.696 64.5932 275.496 65.2324 275.095C65.8759 274.695 66.3851 274.104 66.7601 273.325C67.1394 272.545 67.329 271.588 67.329 270.455ZM71.5286 277V263.909H75.9519C76.9789 263.909 77.8184 264.094 78.4703 264.465C79.1266 264.832 79.6124 265.328 79.9277 265.955C80.2431 266.581 80.4007 267.28 80.4007 268.051C80.4007 268.822 80.2431 269.523 79.9277 270.154C79.6167 270.785 79.1351 271.288 78.4831 271.663C77.8311 272.033 76.9959 272.219 75.9775 272.219H72.807V270.812H75.9263C76.6294 270.812 77.1941 270.691 77.6202 270.448C78.0463 270.205 78.3553 269.877 78.5471 269.464C78.7431 269.046 78.8411 268.575 78.8411 268.051C78.8411 267.527 78.7431 267.058 78.5471 266.645C78.3553 266.232 78.0442 265.908 77.6138 265.673C77.1834 265.435 76.6124 265.315 75.9007 265.315H73.1138V277H71.5286ZM82.9544 263.909H84.8464L89.2953 274.776H89.4487L93.8976 263.909H95.7896V277H94.3066V267.054H94.1788L90.0879 277H88.6561L84.5652 267.054H84.4373V277H82.9544V263.909ZM98.968 277V263.909H106.869V265.315H100.553V269.739H106.46V271.145H100.553V275.594H106.971V277H98.968ZM120.107 263.909V277H118.572L111.439 266.722H111.311V277H109.726V263.909H111.26L118.419 274.213H118.547V263.909H120.107ZM122.563 265.315V263.909H132.381V265.315H128.264V277H126.679V265.315H122.563Z" fill="#DBDBDB"/>
<path d="M1.428 318V315.172C1.428 314.631 1.596 314.033 1.932 313.38C2.268 312.727 2.73467 312.073 3.332 311.42C3.92933 310.767 4.62933 310.16 5.432 309.6L8.4 307.472C8.81067 307.192 9.19333 306.875 9.548 306.52C9.92133 306.165 10.22 305.783 10.444 305.372C10.6867 304.943 10.808 304.532 10.808 304.14C10.808 303.655 10.6867 303.216 10.444 302.824C10.22 302.432 9.884 302.124 9.436 301.9C8.988 301.676 8.43733 301.564 7.784 301.564C7.224 301.564 6.72 301.676 6.272 301.9C5.84267 302.124 5.488 302.423 5.208 302.796C4.928 303.169 4.732 303.571 4.62 304L0.672 303.328C0.858667 302.395 1.26 301.527 1.876 300.724C2.492 299.921 3.29467 299.277 4.284 298.792C5.292 298.288 6.43067 298.036 7.7 298.036C9.156 298.036 10.4067 298.297 11.452 298.82C12.4973 299.343 13.3 300.061 13.86 300.976C14.4387 301.872 14.728 302.917 14.728 304.112C14.728 305.325 14.392 306.408 13.72 307.36C13.0667 308.293 12.1613 309.171 11.004 309.992L8.344 311.924C7.80267 312.297 7.336 312.708 6.944 313.156C6.552 313.604 6.25333 314.099 6.048 314.64H14.98V318H1.428ZM24.4468 318.336C22.8602 318.336 21.4602 317.907 20.2468 317.048C19.0335 316.171 18.0815 314.976 17.3908 313.464C16.7002 311.933 16.3548 310.179 16.3548 308.2C16.3548 306.221 16.7002 304.476 17.3908 302.964C18.0815 301.433 19.0242 300.239 20.2188 299.38C21.4322 298.503 22.8322 298.064 24.4188 298.064C26.0055 298.064 27.4055 298.503 28.6188 299.38C29.8508 300.239 30.8122 301.433 31.5028 302.964C32.1935 304.476 32.5388 306.221 32.5388 308.2C32.5388 310.179 32.1935 311.933 31.5028 313.464C30.8122 314.976 29.8602 316.171 28.6468 317.048C27.4335 317.907 26.0335 318.336 24.4468 318.336ZM24.4468 314.864C25.2868 314.864 26.0335 314.584 26.6868 314.024C27.3588 313.445 27.8815 312.661 28.2548 311.672C28.6282 310.664 28.8148 309.507 28.8148 308.2C28.8148 306.893 28.6282 305.736 28.2548 304.728C27.8815 303.72 27.3588 302.936 26.6868 302.376C26.0335 301.797 25.2775 301.508 24.4188 301.508C23.5788 301.508 22.8322 301.797 22.1788 302.376C21.5255 302.936 21.0122 303.72 20.6388 304.728C20.2842 305.736 20.1068 306.893 20.1068 308.2C20.1068 309.507 20.2842 310.664 20.6388 311.672C21.0122 312.661 21.5255 313.445 22.1788 314.024C22.8508 314.584 23.6068 314.864 24.4468 314.864ZM35.2111 318L49.1271 298.4H52.8231L38.8231 318H35.2111ZM49.7431 318.42C48.8658 318.42 48.0818 318.215 47.3911 317.804C46.7004 317.393 46.1591 316.824 45.7671 316.096C45.3938 315.349 45.2071 314.509 45.2071 313.576C45.2071 312.624 45.3938 311.784 45.7671 311.056C46.1591 310.328 46.7004 309.759 47.3911 309.348C48.0818 308.937 48.8658 308.732 49.7431 308.732C50.6391 308.732 51.4231 308.947 52.0951 309.376C52.7858 309.787 53.3271 310.356 53.7191 311.084C54.1111 311.793 54.3071 312.624 54.3071 313.576C54.3071 314.509 54.1111 315.349 53.7191 316.096C53.3271 316.824 52.7858 317.393 52.0951 317.804C51.4231 318.215 50.6391 318.42 49.7431 318.42ZM49.7431 315.956C50.3218 315.956 50.7884 315.732 51.1431 315.284C51.4978 314.817 51.6751 314.248 51.6751 313.576C51.6751 312.904 51.4978 312.344 51.1431 311.896C50.7884 311.429 50.3218 311.196 49.7431 311.196C49.1831 311.196 48.7164 311.429 48.3431 311.896C47.9884 312.344 47.8111 312.904 47.8111 313.576C47.8111 314.248 47.9884 314.817 48.3431 315.284C48.7164 315.732 49.1831 315.956 49.7431 315.956ZM38.4031 307.64C37.5071 307.64 36.7138 307.435 36.0231 307.024C35.3511 306.613 34.8191 306.044 34.4271 305.316C34.0351 304.569 33.8391 303.729 33.8391 302.796C33.8391 301.844 34.0258 301.004 34.3991 300.276C34.7911 299.548 35.3324 298.979 36.0231 298.568C36.7138 298.157 37.5071 297.952 38.4031 297.952C39.2991 297.952 40.0831 298.167 40.7551 298.596C41.4458 299.007 41.9778 299.576 42.3511 300.304C42.7431 301.013 42.9391 301.844 42.9391 302.796C42.9391 303.729 42.7431 304.569 42.3511 305.316C41.9778 306.044 41.4458 306.613 40.7551 307.024C40.0644 307.435 39.2804 307.64 38.4031 307.64ZM38.3751 305.176C38.9538 305.176 39.4204 304.952 39.7751 304.504C40.1484 304.037 40.3351 303.468 40.3351 302.796C40.3351 302.124 40.1484 301.564 39.7751 301.116C39.4204 300.668 38.9538 300.444 38.3751 300.444C37.8151 300.444 37.3578 300.668 37.0031 301.116C36.6484 301.564 36.4711 302.124 36.4711 302.796C36.4711 303.468 36.6484 304.037 37.0031 304.504C37.3578 304.952 37.8151 305.176 38.3751 305.176Z" fill="#E8EAFB"/>
<path d="M14.5852 678V664.909H19.0085C20.0355 664.909 20.875 665.094 21.527 665.465C22.1832 665.832 22.669 666.328 22.9844 666.955C23.2997 667.581 23.4574 668.28 23.4574 669.051C23.4574 669.822 23.2997 670.523 22.9844 671.154C22.6733 671.785 22.1918 672.288 21.5398 672.663C20.8878 673.033 20.0526 673.219 19.0341 673.219H15.8636V671.812H18.983C19.6861 671.812 20.2507 671.691 20.6768 671.448C21.103 671.205 21.4119 670.877 21.6037 670.464C21.7997 670.046 21.8977 669.575 21.8977 669.051C21.8977 668.527 21.7997 668.058 21.6037 667.645C21.4119 667.232 21.1009 666.908 20.6705 666.673C20.2401 666.435 19.669 666.315 18.9574 666.315H16.1705V678H14.5852ZM26.011 678V664.909H30.4343C31.457 664.909 32.2965 665.084 32.9528 665.433C33.609 665.778 34.0948 666.254 34.4102 666.859C34.7255 667.464 34.8832 668.152 34.8832 668.923C34.8832 669.695 34.7255 670.379 34.4102 670.975C34.0948 671.572 33.6112 672.04 32.9592 672.381C32.3072 672.718 31.4741 672.886 30.4599 672.886H26.8803V671.455H30.4087C31.1076 671.455 31.6701 671.352 32.0962 671.148C32.5266 670.943 32.8377 670.653 33.0295 670.278C33.2255 669.899 33.3235 669.447 33.3235 668.923C33.3235 668.399 33.2255 667.941 33.0295 667.549C32.8335 667.157 32.5202 666.854 32.0898 666.641C31.6594 666.424 31.0906 666.315 30.3832 666.315H27.5962V678H26.011ZM32.1729 672.119L35.3945 678H33.5536L30.3832 672.119H32.1729ZM37.5247 678V664.909H45.4252V666.315H39.1099V670.739H45.0162V672.145H39.1099V676.594H45.5275V678H37.5247ZM55.4416 668.182C55.3649 667.534 55.0538 667.031 54.5083 666.673C53.9629 666.315 53.2939 666.136 52.5012 666.136C51.9217 666.136 51.4146 666.23 50.9799 666.418C50.5495 666.605 50.2129 666.863 49.97 667.191C49.7314 667.519 49.612 667.892 49.612 668.31C49.612 668.659 49.6951 668.96 49.8613 669.211C50.0318 669.458 50.2491 669.665 50.5133 669.831C50.7775 669.993 51.0545 670.127 51.3443 670.234C51.6341 670.336 51.9004 670.419 52.1433 670.483L53.4728 670.841C53.8137 670.93 54.193 671.054 54.6106 671.212C55.0325 671.369 55.4352 671.585 55.8187 671.857C56.2065 672.126 56.5261 672.471 56.7775 672.893C57.0289 673.315 57.1547 673.832 57.1547 674.446C57.1547 675.153 56.9693 675.793 56.5985 676.364C56.2321 676.935 55.6951 677.388 54.9877 677.725C54.2846 678.062 53.4302 678.23 52.4245 678.23C51.487 678.23 50.6752 678.079 49.9892 677.776C49.3074 677.474 48.7704 677.052 48.3784 676.511C47.9906 675.969 47.7711 675.341 47.72 674.625H49.3564C49.399 675.119 49.5652 675.528 49.8549 675.852C50.149 676.172 50.5197 676.411 50.9672 676.568C51.4189 676.722 51.9047 676.798 52.4245 676.798C53.0297 676.798 53.573 676.7 54.0545 676.504C54.536 676.304 54.9174 676.027 55.1987 675.673C55.4799 675.315 55.6206 674.898 55.6206 674.42C55.6206 673.986 55.4991 673.632 55.2562 673.359C55.0133 673.087 54.6937 672.865 54.2974 672.695C53.9011 672.524 53.4728 672.375 53.0126 672.247L51.4018 671.787C50.3791 671.493 49.5694 671.073 48.9728 670.528C48.3762 669.982 48.0779 669.268 48.0779 668.386C48.0779 667.653 48.2761 667.014 48.6724 666.469C49.073 665.919 49.6099 665.493 50.2832 665.19C50.9608 664.884 51.7172 664.73 52.5524 664.73C53.3961 664.73 54.1461 664.881 54.8024 665.184C55.4586 665.482 55.9785 665.891 56.362 666.411C56.7498 666.931 56.9544 667.521 56.9757 668.182H55.4416ZM60.2979 678H58.636L63.4428 664.909H65.0792L69.886 678H68.2241L64.3121 666.98H64.2099L60.2979 678ZM60.9116 672.886H67.6104V674.293H60.9116V672.886ZM71.9251 678V664.909H73.5103V676.594H79.5955V678H71.9251ZM82.0501 678V664.909H89.9506V666.315H83.6353V670.739H89.5415V672.145H83.6353V676.594H90.0529V678H82.0501Z" fill="#DBDBDB"/>
<path d="M22.856 745V741.136H13.728V738.084L22.408 725.4H26.468V737.86H29.884V741.136H26.468V745H22.856ZM17.676 737.86H22.856V730.272L17.676 737.86ZM38.9507 745.336C37.3641 745.336 35.9641 744.907 34.7508 744.048C33.5374 743.171 32.5854 741.976 31.8947 740.464C31.2041 738.933 30.8587 737.179 30.8587 735.2C30.8587 733.221 31.2041 731.476 31.8947 729.964C32.5854 728.433 33.5281 727.239 34.7228 726.38C35.9361 725.503 37.3361 725.064 38.9228 725.064C40.5094 725.064 41.9094 725.503 43.1228 726.38C44.3548 727.239 45.3161 728.433 46.0068 729.964C46.6974 731.476 47.0428 733.221 47.0428 735.2C47.0428 737.179 46.6974 738.933 46.0068 740.464C45.3161 741.976 44.3641 743.171 43.1508 744.048C41.9374 744.907 40.5374 745.336 38.9507 745.336ZM38.9507 741.864C39.7908 741.864 40.5374 741.584 41.1908 741.024C41.8628 740.445 42.3854 739.661 42.7588 738.672C43.1321 737.664 43.3188 736.507 43.3188 735.2C43.3188 733.893 43.1321 732.736 42.7588 731.728C42.3854 730.72 41.8628 729.936 41.1908 729.376C40.5374 728.797 39.7814 728.508 38.9228 728.508C38.0828 728.508 37.3361 728.797 36.6828 729.376C36.0294 729.936 35.5161 730.72 35.1428 731.728C34.7881 732.736 34.6108 733.893 34.6108 735.2C34.6108 736.507 34.7881 737.664 35.1428 738.672C35.5161 739.661 36.0294 740.445 36.6828 741.024C37.3548 741.584 38.1108 741.864 38.9507 741.864ZM49.715 745L63.631 725.4H67.327L53.327 745H49.715ZM64.247 745.42C63.3697 745.42 62.5857 745.215 61.895 744.804C61.2043 744.393 60.663 743.824 60.271 743.096C59.8977 742.349 59.711 741.509 59.711 740.576C59.711 739.624 59.8977 738.784 60.271 738.056C60.663 737.328 61.2043 736.759 61.895 736.348C62.5857 735.937 63.3697 735.732 64.247 735.732C65.143 735.732 65.927 735.947 66.599 736.376C67.2897 736.787 67.831 737.356 68.223 738.084C68.615 738.793 68.811 739.624 68.811 740.576C68.811 741.509 68.615 742.349 68.223 743.096C67.831 743.824 67.2897 744.393 66.599 744.804C65.927 745.215 65.143 745.42 64.247 745.42ZM64.247 742.956C64.8257 742.956 65.2923 742.732 65.647 742.284C66.0017 741.817 66.179 741.248 66.179 740.576C66.179 739.904 66.0017 739.344 65.647 738.896C65.2923 738.429 64.8257 738.196 64.247 738.196C63.687 738.196 63.2203 738.429 62.847 738.896C62.4923 739.344 62.315 739.904 62.315 740.576C62.315 741.248 62.4923 741.817 62.847 742.284C63.2203 742.732 63.687 742.956 64.247 742.956ZM52.907 734.64C52.011 734.64 51.2177 734.435 50.527 734.024C49.855 733.613 49.323 733.044 48.931 732.316C48.539 731.569 48.343 730.729 48.343 729.796C48.343 728.844 48.5297 728.004 48.903 727.276C49.295 726.548 49.8363 725.979 50.527 725.568C51.2177 725.157 52.011 724.952 52.907 724.952C53.803 724.952 54.587 725.167 55.259 725.596C55.9497 726.007 56.4817 726.576 56.855 727.304C57.247 728.013 57.443 728.844 57.443 729.796C57.443 730.729 57.247 731.569 56.855 732.316C56.4817 733.044 55.9497 733.613 55.259 734.024C54.5683 734.435 53.7843 734.64 52.907 734.64ZM52.879 732.176C53.4577 732.176 53.9243 731.952 54.279 731.504C54.6523 731.037 54.839 730.468 54.839 729.796C54.839 729.124 54.6523 728.564 54.279 728.116C53.9243 727.668 53.4577 727.444 52.879 727.444C52.319 727.444 51.8617 727.668 51.507 728.116C51.1523 728.564 50.975 729.124 50.975 729.796C50.975 730.468 51.1523 731.037 51.507 731.504C51.8617 731.952 52.319 732.176 52.879 732.176Z" fill="#E8EAFB"/>
<path d="M1339.87 253.315V251.909H1349.69V253.315H1345.57V265H1343.99V253.315H1339.87ZM1352.13 265V251.909H1360.03V253.315H1353.72V257.739H1359.63V259.145H1353.72V263.594H1360.14V265H1352.13ZM1363.43 265H1361.77L1366.57 251.909H1368.21L1373.02 265H1371.35L1367.44 253.98H1367.34L1363.43 265ZM1364.04 259.886H1370.74V261.293H1364.04V259.886ZM1375.06 251.909H1376.95L1381.4 262.776H1381.55L1386 251.909H1387.89V265H1386.41V255.054H1386.28L1382.19 265H1380.76L1376.67 255.054H1376.54V265H1375.06V251.909ZM1399.63 265.179C1398.77 265.179 1398.03 265.021 1397.41 264.706C1396.79 264.391 1396.31 263.958 1395.97 263.408C1395.64 262.859 1395.47 262.23 1395.47 261.523C1395.47 260.977 1395.58 260.494 1395.81 260.072C1396.05 259.646 1396.37 259.251 1396.78 258.889C1397.19 258.523 1397.67 258.156 1398.2 257.79L1400.1 256.384C1400.47 256.141 1400.76 255.881 1400.98 255.604C1401.21 255.327 1401.32 254.964 1401.32 254.517C1401.32 254.185 1401.18 253.863 1400.88 253.552C1400.59 253.241 1400.21 253.085 1399.74 253.085C1399.4 253.085 1399.11 253.17 1398.86 253.341C1398.6 253.507 1398.41 253.72 1398.26 253.98C1398.12 254.236 1398.05 254.5 1398.05 254.773C1398.05 255.08 1398.13 255.391 1398.3 255.706C1398.47 256.017 1398.68 256.337 1398.94 256.665C1399.21 256.989 1399.48 257.321 1399.76 257.662L1405.77 265H1403.96L1399 259.017C1398.54 258.463 1398.12 257.96 1397.74 257.509C1397.37 257.057 1397.07 256.612 1396.85 256.173C1396.63 255.734 1396.52 255.259 1396.52 254.747C1396.52 254.159 1396.65 253.643 1396.91 253.2C1397.17 252.753 1397.54 252.406 1398.01 252.158C1398.49 251.907 1399.05 251.781 1399.69 251.781C1400.34 251.781 1400.91 251.909 1401.38 252.165C1401.85 252.416 1402.22 252.751 1402.47 253.168C1402.73 253.582 1402.86 254.031 1402.86 254.517C1402.86 255.143 1402.7 255.687 1402.39 256.147C1402.08 256.607 1401.65 257.036 1401.12 257.432L1398.51 259.375C1397.92 259.81 1397.52 260.232 1397.31 260.641C1397.11 261.05 1397 261.344 1397 261.523C1397 261.932 1397.11 262.313 1397.32 262.667C1397.53 263.021 1397.83 263.306 1398.22 263.523C1398.61 263.741 1399.06 263.849 1399.58 263.849C1400.08 263.849 1400.56 263.745 1401.03 263.536C1401.5 263.323 1401.92 263.016 1402.3 262.616C1402.68 262.215 1402.99 261.734 1403.21 261.171C1403.43 260.609 1403.55 259.976 1403.55 259.273H1405C1405 260.142 1404.9 260.852 1404.7 261.401C1404.5 261.951 1404.28 262.381 1404.03 262.692C1403.77 263.004 1403.57 263.236 1403.42 263.389C1403.37 263.453 1403.32 263.517 1403.28 263.581C1403.24 263.645 1403.19 263.709 1403.14 263.773C1402.72 264.246 1402.18 264.599 1401.54 264.834C1400.9 265.064 1400.26 265.179 1399.63 265.179ZM1341.12 291H1339.46L1344.27 277.909H1345.9L1350.71 291H1349.05L1345.14 279.98H1345.03L1341.12 291ZM1341.74 285.886H1348.43V287.293H1341.74V285.886ZM1356.79 291H1352.75V277.909H1356.97C1358.24 277.909 1359.32 278.171 1360.23 278.695C1361.13 279.215 1361.82 279.963 1362.31 280.939C1362.79 281.911 1363.03 283.074 1363.03 284.429C1363.03 285.793 1362.78 286.967 1362.3 287.951C1361.81 288.931 1361.11 289.685 1360.18 290.214C1359.25 290.738 1358.12 291 1356.79 291ZM1354.33 289.594H1356.69C1357.77 289.594 1358.67 289.385 1359.38 288.967C1360.09 288.55 1360.62 287.955 1360.97 287.184C1361.32 286.413 1361.49 285.494 1361.49 284.429C1361.49 283.372 1361.32 282.462 1360.98 281.7C1360.63 280.933 1360.12 280.344 1359.43 279.935C1358.74 279.522 1357.89 279.315 1356.87 279.315H1354.33V289.594ZM1365.61 277.909L1369.49 288.929H1369.65L1373.53 277.909H1375.2L1370.39 291H1368.75L1363.95 277.909H1365.61ZM1378.82 277.909V291H1377.24V277.909H1378.82ZM1389.16 281.182C1389.08 280.534 1388.77 280.031 1388.23 279.673C1387.68 279.315 1387.01 279.136 1386.22 279.136C1385.64 279.136 1385.13 279.23 1384.7 279.418C1384.27 279.605 1383.93 279.863 1383.69 280.191C1383.45 280.519 1383.33 280.892 1383.33 281.31C1383.33 281.659 1383.41 281.96 1383.58 282.211C1383.75 282.458 1383.97 282.665 1384.23 282.831C1384.49 282.993 1384.77 283.127 1385.06 283.234C1385.35 283.336 1385.62 283.419 1385.86 283.483L1387.19 283.841C1387.53 283.93 1387.91 284.054 1388.33 284.212C1388.75 284.369 1389.15 284.585 1389.54 284.857C1389.92 285.126 1390.24 285.471 1390.49 285.893C1390.75 286.315 1390.87 286.832 1390.87 287.446C1390.87 288.153 1390.69 288.793 1390.32 289.364C1389.95 289.935 1389.41 290.388 1388.7 290.725C1388 291.062 1387.15 291.23 1386.14 291.23C1385.2 291.23 1384.39 291.079 1383.71 290.776C1383.02 290.474 1382.49 290.052 1382.1 289.511C1381.71 288.969 1381.49 288.341 1381.44 287.625H1383.07C1383.12 288.119 1383.28 288.528 1383.57 288.852C1383.87 289.172 1384.24 289.411 1384.68 289.568C1385.14 289.722 1385.62 289.798 1386.14 289.798C1386.75 289.798 1387.29 289.7 1387.77 289.504C1388.25 289.304 1388.63 289.027 1388.92 288.673C1389.2 288.315 1389.34 287.898 1389.34 287.42C1389.34 286.986 1389.22 286.632 1388.97 286.359C1388.73 286.087 1388.41 285.865 1388.01 285.695C1387.62 285.524 1387.19 285.375 1386.73 285.247L1385.12 284.787C1384.1 284.493 1383.29 284.073 1382.69 283.528C1382.09 282.982 1381.79 282.268 1381.79 281.386C1381.79 280.653 1381.99 280.014 1382.39 279.469C1382.79 278.919 1383.33 278.493 1384 278.19C1384.68 277.884 1385.43 277.73 1386.27 277.73C1387.11 277.73 1387.86 277.881 1388.52 278.184C1389.18 278.482 1389.7 278.891 1390.08 279.411C1390.47 279.931 1390.67 280.521 1390.69 281.182H1389.16ZM1404.52 284.455C1404.52 285.835 1404.27 287.028 1403.78 288.034C1403.28 289.04 1402.59 289.815 1401.72 290.361C1400.85 290.906 1399.86 291.179 1398.74 291.179C1397.63 291.179 1396.64 290.906 1395.77 290.361C1394.9 289.815 1394.21 289.04 1393.71 288.034C1393.22 287.028 1392.97 285.835 1392.97 284.455C1392.97 283.074 1393.22 281.881 1393.71 280.875C1394.21 279.869 1394.9 279.094 1395.77 278.548C1396.64 278.003 1397.63 277.73 1398.74 277.73C1399.86 277.73 1400.85 278.003 1401.72 278.548C1402.59 279.094 1403.28 279.869 1403.78 280.875C1404.27 281.881 1404.52 283.074 1404.52 284.455ZM1402.99 284.455C1402.99 283.321 1402.8 282.364 1402.42 281.585C1402.05 280.805 1401.54 280.214 1400.89 279.814C1400.25 279.413 1399.54 279.213 1398.74 279.213C1397.95 279.213 1397.23 279.413 1396.59 279.814C1395.95 280.214 1395.44 280.805 1395.06 281.585C1394.69 282.364 1394.5 283.321 1394.5 284.455C1394.5 285.588 1394.69 286.545 1395.06 287.325C1395.44 288.104 1395.95 288.695 1396.59 289.095C1397.23 289.496 1397.95 289.696 1398.74 289.696C1399.54 289.696 1400.25 289.496 1400.89 289.095C1401.54 288.695 1402.05 288.104 1402.42 287.325C1402.8 286.545 1402.99 285.588 1402.99 284.455ZM1407.19 291V277.909H1411.61C1412.63 277.909 1413.47 278.084 1414.13 278.433C1414.79 278.778 1415.27 279.254 1415.59 279.859C1415.9 280.464 1416.06 281.152 1416.06 281.923C1416.06 282.695 1415.9 283.379 1415.59 283.975C1415.27 284.572 1414.79 285.04 1414.14 285.381C1413.48 285.718 1412.65 285.886 1411.64 285.886H1408.06V284.455H1411.59C1412.29 284.455 1412.85 284.352 1413.27 284.148C1413.7 283.943 1414.02 283.653 1414.21 283.278C1414.4 282.899 1414.5 282.447 1414.5 281.923C1414.5 281.399 1414.4 280.941 1414.21 280.549C1414.01 280.157 1413.7 279.854 1413.27 279.641C1412.84 279.424 1412.27 279.315 1411.56 279.315H1408.77V291H1407.19ZM1413.35 285.119L1416.57 291H1414.73L1411.56 285.119H1413.35ZM1425.86 281.182C1425.78 280.534 1425.47 280.031 1424.93 279.673C1424.38 279.315 1423.71 279.136 1422.92 279.136C1422.34 279.136 1421.83 279.23 1421.4 279.418C1420.97 279.605 1420.63 279.863 1420.39 280.191C1420.15 280.519 1420.03 280.892 1420.03 281.31C1420.03 281.659 1420.12 281.96 1420.28 282.211C1420.45 282.458 1420.67 282.665 1420.93 282.831C1421.2 282.993 1421.47 283.127 1421.76 283.234C1422.05 283.336 1422.32 283.419 1422.56 283.483L1423.89 283.841C1424.23 283.93 1424.61 284.054 1425.03 284.212C1425.45 284.369 1425.86 284.585 1426.24 284.857C1426.63 285.126 1426.95 285.471 1427.2 285.893C1427.45 286.315 1427.57 286.832 1427.57 287.446C1427.57 288.153 1427.39 288.793 1427.02 289.364C1426.65 289.935 1426.12 290.388 1425.41 290.725C1424.7 291.062 1423.85 291.23 1422.84 291.23C1421.91 291.23 1421.1 291.079 1420.41 290.776C1419.73 290.474 1419.19 290.052 1418.8 289.511C1418.41 288.969 1418.19 288.341 1418.14 287.625H1419.78C1419.82 288.119 1419.99 288.528 1420.27 288.852C1420.57 289.172 1420.94 289.411 1421.39 289.568C1421.84 289.722 1422.32 289.798 1422.84 289.798C1423.45 289.798 1423.99 289.7 1424.47 289.504C1424.96 289.304 1425.34 289.027 1425.62 288.673C1425.9 288.315 1426.04 287.898 1426.04 287.42C1426.04 286.986 1425.92 286.632 1425.68 286.359C1425.43 286.087 1425.11 285.865 1424.72 285.695C1424.32 285.524 1423.89 285.375 1423.43 285.247L1421.82 284.787C1420.8 284.493 1419.99 284.073 1419.39 283.528C1418.8 282.982 1418.5 282.268 1418.5 281.386C1418.5 280.653 1418.7 280.014 1419.09 279.469C1419.49 278.919 1420.03 278.493 1420.7 278.19C1421.38 277.884 1422.14 277.73 1422.97 277.73C1423.82 277.73 1424.57 277.881 1425.22 278.184C1425.88 278.482 1426.4 278.891 1426.78 279.411C1427.17 279.931 1427.37 280.521 1427.4 281.182H1425.86Z" fill="#DBDBDB"/>
<path d="M1344.46 324V306.444L1344.82 304.4H1348.13V324H1344.46ZM1340.32 310.588V307.116C1340.78 307.153 1341.29 307.041 1341.83 306.78C1342.37 306.5 1342.9 306.145 1343.42 305.716C1343.97 305.268 1344.43 304.82 1344.82 304.372L1347.26 306.752C1346.59 307.499 1345.88 308.18 1345.13 308.796C1344.39 309.393 1343.61 309.86 1342.81 310.196C1342.02 310.532 1341.19 310.663 1340.32 310.588ZM1358.18 324.336C1357.28 324.336 1356.36 324.187 1355.4 323.888C1354.47 323.589 1353.62 323.141 1352.86 322.544C1352.11 321.947 1351.56 321.209 1351.2 320.332L1354.7 319.296C1355.12 319.893 1355.6 320.332 1356.16 320.612C1356.74 320.892 1357.34 321.032 1357.95 321.032C1358.92 321.032 1359.71 320.743 1360.3 320.164C1360.92 319.567 1361.23 318.773 1361.23 317.784C1361.23 316.869 1360.93 316.104 1360.33 315.488C1359.75 314.872 1358.98 314.564 1358.01 314.564C1357.43 314.564 1356.9 314.695 1356.41 314.956C1355.93 315.217 1355.55 315.525 1355.29 315.88L1351.85 315.124L1353.02 304.4H1364.11V307.872H1356.3L1355.74 312.576C1356.24 312.296 1356.8 312.072 1357.42 311.904C1358.04 311.717 1358.7 311.633 1359.41 311.652C1360.47 311.652 1361.44 311.913 1362.32 312.436C1363.2 312.94 1363.89 313.64 1364.39 314.536C1364.92 315.413 1365.18 316.44 1365.18 317.616C1365.18 318.941 1364.88 320.108 1364.28 321.116C1363.68 322.124 1362.86 322.917 1361.82 323.496C1360.77 324.056 1359.56 324.336 1358.18 324.336ZM1367.92 324L1381.84 304.4H1385.53L1371.53 324H1367.92ZM1382.45 324.42C1381.58 324.42 1380.79 324.215 1380.1 323.804C1379.41 323.393 1378.87 322.824 1378.48 322.096C1378.1 321.349 1377.92 320.509 1377.92 319.576C1377.92 318.624 1378.1 317.784 1378.48 317.056C1378.87 316.328 1379.41 315.759 1380.1 315.348C1380.79 314.937 1381.58 314.732 1382.45 314.732C1383.35 314.732 1384.13 314.947 1384.81 315.376C1385.5 315.787 1386.04 316.356 1386.43 317.084C1386.82 317.793 1387.02 318.624 1387.02 319.576C1387.02 320.509 1386.82 321.349 1386.43 322.096C1386.04 322.824 1385.5 323.393 1384.81 323.804C1384.13 324.215 1383.35 324.42 1382.45 324.42ZM1382.45 321.956C1383.03 321.956 1383.5 321.732 1383.85 321.284C1384.21 320.817 1384.39 320.248 1384.39 319.576C1384.39 318.904 1384.21 318.344 1383.85 317.896C1383.5 317.429 1383.03 317.196 1382.45 317.196C1381.89 317.196 1381.43 317.429 1381.05 317.896C1380.7 318.344 1380.52 318.904 1380.52 319.576C1380.52 320.248 1380.7 320.817 1381.05 321.284C1381.43 321.732 1381.89 321.956 1382.45 321.956ZM1371.11 313.64C1370.22 313.64 1369.42 313.435 1368.73 313.024C1368.06 312.613 1367.53 312.044 1367.14 311.316C1366.75 310.569 1366.55 309.729 1366.55 308.796C1366.55 307.844 1366.74 307.004 1367.11 306.276C1367.5 305.548 1368.04 304.979 1368.73 304.568C1369.42 304.157 1370.22 303.952 1371.11 303.952C1372.01 303.952 1372.79 304.167 1373.47 304.596C1374.16 305.007 1374.69 305.576 1375.06 306.304C1375.45 307.013 1375.65 307.844 1375.65 308.796C1375.65 309.729 1375.45 310.569 1375.06 311.316C1374.69 312.044 1374.16 312.613 1373.47 313.024C1372.78 313.435 1371.99 313.64 1371.11 313.64ZM1371.09 311.176C1371.66 311.176 1372.13 310.952 1372.49 310.504C1372.86 310.037 1373.05 309.468 1373.05 308.796C1373.05 308.124 1372.86 307.564 1372.49 307.116C1372.13 306.668 1371.66 306.444 1371.09 306.444C1370.53 306.444 1370.07 306.668 1369.71 307.116C1369.36 307.564 1369.18 308.124 1369.18 308.796C1369.18 309.468 1369.36 310.037 1369.71 310.504C1370.07 310.952 1370.53 311.176 1371.09 311.176Z" fill="#E8EAFB"/>
<path d="M1336.59 970V956.909H1341.01C1342.03 956.909 1342.87 957.084 1343.53 957.433C1344.18 957.778 1344.67 958.254 1344.98 958.859C1345.3 959.464 1345.46 960.152 1345.46 960.923C1345.46 961.695 1345.3 962.379 1344.98 962.975C1344.67 963.572 1344.19 964.04 1343.53 964.381C1342.88 964.718 1342.05 964.886 1341.03 964.886H1337.45V963.455H1340.98C1341.68 963.455 1342.24 963.352 1342.67 963.148C1343.1 962.943 1343.41 962.653 1343.6 962.278C1343.8 961.899 1343.9 961.447 1343.9 960.923C1343.9 960.399 1343.8 959.941 1343.6 959.549C1343.41 959.157 1343.09 958.854 1342.66 958.641C1342.23 958.424 1341.66 958.315 1340.96 958.315H1338.17V970H1336.59ZM1342.75 964.119L1345.97 970H1344.13L1340.96 964.119H1342.75ZM1348.1 970V956.909H1356V958.315H1349.68V962.739H1355.59V964.145H1349.68V968.594H1356.1V970H1348.1ZM1366.02 960.182C1365.94 959.534 1365.63 959.031 1365.08 958.673C1364.54 958.315 1363.87 958.136 1363.08 958.136C1362.5 958.136 1361.99 958.23 1361.55 958.418C1361.12 958.605 1360.79 958.863 1360.54 959.191C1360.31 959.519 1360.19 959.892 1360.19 960.31C1360.19 960.659 1360.27 960.96 1360.44 961.211C1360.61 961.458 1360.82 961.665 1361.09 961.831C1361.35 961.993 1361.63 962.127 1361.92 962.234C1362.21 962.336 1362.47 962.419 1362.72 962.483L1364.05 962.841C1364.39 962.93 1364.77 963.054 1365.18 963.212C1365.61 963.369 1366.01 963.585 1366.39 963.857C1366.78 964.126 1367.1 964.471 1367.35 964.893C1367.6 965.315 1367.73 965.832 1367.73 966.446C1367.73 967.153 1367.54 967.793 1367.17 968.364C1366.81 968.935 1366.27 969.388 1365.56 969.725C1364.86 970.062 1364 970.23 1363 970.23C1362.06 970.23 1361.25 970.079 1360.56 969.776C1359.88 969.474 1359.34 969.052 1358.95 968.511C1358.56 967.969 1358.35 967.341 1358.29 966.625H1359.93C1359.97 967.119 1360.14 967.528 1360.43 967.852C1360.72 968.172 1361.09 968.411 1361.54 968.568C1361.99 968.722 1362.48 968.798 1363 968.798C1363.6 968.798 1364.15 968.7 1364.63 968.504C1365.11 968.304 1365.49 968.027 1365.77 967.673C1366.05 967.315 1366.19 966.898 1366.19 966.42C1366.19 965.986 1366.07 965.632 1365.83 965.359C1365.59 965.087 1365.27 964.865 1364.87 964.695C1364.48 964.524 1364.05 964.375 1363.59 964.247L1361.98 963.787C1360.95 963.493 1360.14 963.073 1359.55 962.528C1358.95 961.982 1358.65 961.268 1358.65 960.386C1358.65 959.653 1358.85 959.014 1359.25 958.469C1359.65 957.919 1360.18 957.493 1360.86 957.19C1361.53 956.884 1362.29 956.73 1363.13 956.73C1363.97 956.73 1364.72 956.881 1365.38 957.184C1366.03 957.482 1366.55 957.891 1366.94 958.411C1367.32 958.931 1367.53 959.521 1367.55 960.182H1366.02ZM1370.34 970V956.909H1378.24V958.315H1371.92V962.739H1377.83V964.145H1371.92V968.594H1378.34V970H1370.34ZM1381.09 970V956.909H1385.52C1386.54 956.909 1387.38 957.084 1388.03 957.433C1388.69 957.778 1389.18 958.254 1389.49 958.859C1389.81 959.464 1389.97 960.152 1389.97 960.923C1389.97 961.695 1389.81 962.379 1389.49 962.975C1389.18 963.572 1388.69 964.04 1388.04 964.381C1387.39 964.718 1386.56 964.886 1385.54 964.886H1381.96V963.455H1385.49C1386.19 963.455 1386.75 963.352 1387.18 963.148C1387.61 962.943 1387.92 962.653 1388.11 962.278C1388.31 961.899 1388.41 961.447 1388.41 960.923C1388.41 960.399 1388.31 959.941 1388.11 959.549C1387.92 959.157 1387.6 958.854 1387.17 958.641C1386.74 958.424 1386.17 958.315 1385.47 958.315H1382.68V970H1381.09ZM1387.25 964.119L1390.48 970H1388.64L1385.47 964.119H1387.25ZM1392.84 956.909L1396.73 967.929H1396.88L1400.77 956.909H1402.43L1397.63 970H1395.99L1391.18 956.909H1392.84ZM1404.47 970V956.909H1412.37V958.315H1406.06V962.739H1411.96V964.145H1406.06V968.594H1412.47V970H1404.47Z" fill="#DBDBDB"/>
<path d="M1344.07 1011.34C1342.49 1011.34 1341.09 1010.91 1339.87 1010.05C1338.66 1009.17 1337.71 1007.98 1337.02 1006.46C1336.33 1004.93 1335.98 1003.18 1335.98 1001.2C1335.98 999.221 1336.33 997.476 1337.02 995.964C1337.71 994.433 1338.65 993.239 1339.84 992.38C1341.06 991.503 1342.46 991.064 1344.04 991.064C1345.63 991.064 1347.03 991.503 1348.24 992.38C1349.48 993.239 1350.44 994.433 1351.13 995.964C1351.82 997.476 1352.16 999.221 1352.16 1001.2C1352.16 1003.18 1351.82 1004.93 1351.13 1006.46C1350.44 1007.98 1349.49 1009.17 1348.27 1010.05C1347.06 1010.91 1345.66 1011.34 1344.07 1011.34ZM1344.07 1007.86C1344.91 1007.86 1345.66 1007.58 1346.31 1007.02C1346.98 1006.45 1347.51 1005.66 1347.88 1004.67C1348.25 1003.66 1348.44 1002.51 1348.44 1001.2C1348.44 999.893 1348.25 998.736 1347.88 997.728C1347.51 996.72 1346.98 995.936 1346.31 995.376C1345.66 994.797 1344.9 994.508 1344.04 994.508C1343.2 994.508 1342.46 994.797 1341.8 995.376C1341.15 995.936 1340.64 996.72 1340.26 997.728C1339.91 998.736 1339.73 999.893 1339.73 1001.2C1339.73 1002.51 1339.91 1003.66 1340.26 1004.67C1340.64 1005.66 1341.15 1006.45 1341.8 1007.02C1342.48 1007.58 1343.23 1007.86 1344.07 1007.86ZM1360.52 1011.34C1359.62 1011.34 1358.7 1011.19 1357.75 1010.89C1356.81 1010.59 1355.97 1010.14 1355.2 1009.54C1354.45 1008.95 1353.9 1008.21 1353.55 1007.33L1357.05 1006.3C1357.46 1006.89 1357.94 1007.33 1358.5 1007.61C1359.08 1007.89 1359.68 1008.03 1360.3 1008.03C1361.27 1008.03 1362.05 1007.74 1362.65 1007.16C1363.26 1006.57 1363.57 1005.77 1363.57 1004.78C1363.57 1003.87 1363.27 1003.1 1362.68 1002.49C1362.1 1001.87 1361.32 1001.56 1360.35 1001.56C1359.77 1001.56 1359.24 1001.69 1358.76 1001.96C1358.27 1002.22 1357.9 1002.53 1357.64 1002.88L1354.19 1002.12L1355.37 991.4H1366.46V994.872H1358.64L1358.08 999.576C1358.59 999.296 1359.15 999.072 1359.76 998.904C1360.38 998.717 1361.04 998.633 1361.75 998.652C1362.82 998.652 1363.79 998.913 1364.66 999.436C1365.54 999.94 1366.23 1000.64 1366.74 1001.54C1367.26 1002.41 1367.52 1003.44 1367.52 1004.62C1367.52 1005.94 1367.22 1007.11 1366.62 1008.12C1366.03 1009.12 1365.21 1009.92 1364.16 1010.5C1363.11 1011.06 1361.9 1011.34 1360.52 1011.34ZM1370.27 1011L1384.18 991.4H1387.88L1373.88 1011H1370.27ZM1384.8 1011.42C1383.92 1011.42 1383.14 1011.21 1382.45 1010.8C1381.76 1010.39 1381.21 1009.82 1380.82 1009.1C1380.45 1008.35 1380.26 1007.51 1380.26 1006.58C1380.26 1005.62 1380.45 1004.78 1380.82 1004.06C1381.21 1003.33 1381.76 1002.76 1382.45 1002.35C1383.14 1001.94 1383.92 1001.73 1384.8 1001.73C1385.69 1001.73 1386.48 1001.95 1387.15 1002.38C1387.84 1002.79 1388.38 1003.36 1388.77 1004.08C1389.17 1004.79 1389.36 1005.62 1389.36 1006.58C1389.36 1007.51 1389.17 1008.35 1388.77 1009.1C1388.38 1009.82 1387.84 1010.39 1387.15 1010.8C1386.48 1011.21 1385.69 1011.42 1384.8 1011.42ZM1384.8 1008.96C1385.38 1008.96 1385.84 1008.73 1386.2 1008.28C1386.55 1007.82 1386.73 1007.25 1386.73 1006.58C1386.73 1005.9 1386.55 1005.34 1386.2 1004.9C1385.84 1004.43 1385.38 1004.2 1384.8 1004.2C1384.24 1004.2 1383.77 1004.43 1383.4 1004.9C1383.04 1005.34 1382.87 1005.9 1382.87 1006.58C1382.87 1007.25 1383.04 1007.82 1383.4 1008.28C1383.77 1008.73 1384.24 1008.96 1384.8 1008.96ZM1373.46 1000.64C1372.56 1000.64 1371.77 1000.43 1371.08 1000.02C1370.41 999.613 1369.87 999.044 1369.48 998.316C1369.09 997.569 1368.89 996.729 1368.89 995.796C1368.89 994.844 1369.08 994.004 1369.45 993.276C1369.85 992.548 1370.39 991.979 1371.08 991.568C1371.77 991.157 1372.56 990.952 1373.46 990.952C1374.35 990.952 1375.14 991.167 1375.81 991.596C1376.5 992.007 1377.03 992.576 1377.41 993.304C1377.8 994.013 1377.99 994.844 1377.99 995.796C1377.99 996.729 1377.8 997.569 1377.41 998.316C1377.03 999.044 1376.5 999.613 1375.81 1000.02C1375.12 1000.43 1374.34 1000.64 1373.46 1000.64ZM1373.43 998.176C1374.01 998.176 1374.48 997.952 1374.83 997.504C1375.2 997.037 1375.39 996.468 1375.39 995.796C1375.39 995.124 1375.2 994.564 1374.83 994.116C1374.48 993.668 1374.01 993.444 1373.43 993.444C1372.87 993.444 1372.41 993.668 1372.06 994.116C1371.7 994.564 1371.53 995.124 1371.53 995.796C1371.53 996.468 1371.7 997.037 1372.06 997.504C1372.41 997.952 1372.87 998.176 1373.43 998.176Z" fill="#E8EAFB"/>
<path d="M1340.59 797.909H1342.48L1346.93 808.776H1347.08L1351.53 797.909H1353.42V811H1351.94V801.054H1351.81L1347.72 811H1346.29L1342.2 801.054H1342.07V811H1340.59V797.909ZM1357.14 811H1355.47L1360.28 797.909H1361.92L1366.72 811H1365.06L1361.15 799.98H1361.05L1357.14 811ZM1357.75 805.886H1364.45V807.293H1357.75V805.886ZM1368.76 811V797.909H1373.19C1374.21 797.909 1375.05 798.084 1375.7 798.433C1376.36 798.778 1376.85 799.254 1377.16 799.859C1377.48 800.464 1377.64 801.152 1377.64 801.923C1377.64 802.695 1377.48 803.379 1377.16 803.975C1376.85 804.572 1376.36 805.04 1375.71 805.381C1375.06 805.718 1374.23 805.886 1373.21 805.886H1369.63V804.455H1373.16C1373.86 804.455 1374.42 804.352 1374.85 804.148C1375.28 803.943 1375.59 803.653 1375.78 803.278C1375.98 802.899 1376.08 802.447 1376.08 801.923C1376.08 801.399 1375.98 800.941 1375.78 800.549C1375.59 800.157 1375.27 799.854 1374.84 799.641C1374.41 799.424 1373.84 799.315 1373.14 799.315H1370.35V811H1368.76ZM1374.92 805.119L1378.15 811H1376.31L1373.14 805.119H1374.92ZM1380.28 811V797.909H1381.86V804.403H1382.02L1387.9 797.909H1389.97L1384.47 803.815L1389.97 811H1388.05L1383.5 804.915L1381.86 806.756V811H1380.28ZM1392.02 811V797.909H1399.92V799.315H1393.6V803.739H1399.51V805.145H1393.6V809.594H1400.02V811H1392.02ZM1402.06 799.315V797.909H1411.88V799.315H1407.76V811H1406.18V799.315H1402.06ZM1415.91 797.909V811H1414.33V797.909H1415.91ZM1429.47 797.909V811H1427.94L1420.8 800.722H1420.67V811H1419.09V797.909H1420.62L1427.78 808.213H1427.91V797.909H1429.47ZM1441.59 802C1441.45 801.57 1441.26 801.184 1441.03 800.843C1440.81 800.498 1440.54 800.204 1440.22 799.961C1439.91 799.718 1439.56 799.533 1439.16 799.405C1438.77 799.277 1438.33 799.213 1437.86 799.213C1437.08 799.213 1436.38 799.413 1435.74 799.814C1435.11 800.214 1434.6 800.805 1434.23 801.585C1433.85 802.364 1433.66 803.321 1433.66 804.455C1433.66 805.588 1433.85 806.545 1434.23 807.325C1434.61 808.104 1435.13 808.695 1435.77 809.095C1436.42 809.496 1437.15 809.696 1437.96 809.696C1438.71 809.696 1439.37 809.536 1439.94 809.217C1440.52 808.893 1440.96 808.437 1441.28 807.849C1441.61 807.256 1441.77 806.56 1441.77 805.759L1442.26 805.861H1438.32V804.455H1443.3V805.861C1443.3 806.939 1443.07 807.876 1442.61 808.673C1442.16 809.47 1441.53 810.088 1440.72 810.527C1439.92 810.962 1439 811.179 1437.96 811.179C1436.8 811.179 1435.78 810.906 1434.9 810.361C1434.03 809.815 1433.35 809.04 1432.86 808.034C1432.37 807.028 1432.13 805.835 1432.13 804.455C1432.13 803.419 1432.27 802.488 1432.55 801.661C1432.83 800.83 1433.22 800.123 1433.73 799.539C1434.25 798.955 1434.85 798.508 1435.55 798.197C1436.25 797.886 1437.02 797.73 1437.86 797.73C1438.55 797.73 1439.19 797.835 1439.79 798.043C1440.39 798.248 1440.92 798.54 1441.39 798.919C1441.87 799.294 1442.26 799.744 1442.58 800.268C1442.89 800.788 1443.11 801.365 1443.23 802H1441.59ZM1454.58 811.179C1453.72 811.179 1452.98 811.021 1452.36 810.706C1451.74 810.391 1451.26 809.958 1450.92 809.408C1450.58 808.859 1450.42 808.23 1450.42 807.523C1450.42 806.977 1450.53 806.494 1450.76 806.072C1451 805.646 1451.32 805.251 1451.73 804.889C1452.14 804.523 1452.62 804.156 1453.15 803.79L1455.04 802.384C1455.42 802.141 1455.71 801.881 1455.93 801.604C1456.16 801.327 1456.27 800.964 1456.27 800.517C1456.27 800.185 1456.12 799.863 1455.83 799.552C1455.54 799.241 1455.16 799.085 1454.69 799.085C1454.35 799.085 1454.06 799.17 1453.8 799.341C1453.55 799.507 1453.35 799.72 1453.21 799.98C1453.07 800.236 1453 800.5 1453 800.773C1453 801.08 1453.08 801.391 1453.25 801.706C1453.42 802.017 1453.63 802.337 1453.89 802.665C1454.16 802.989 1454.43 803.321 1454.71 803.662L1460.72 811H1458.91L1453.94 805.017C1453.48 804.463 1453.07 803.96 1452.69 803.509C1452.32 803.057 1452.02 802.612 1451.8 802.173C1451.58 801.734 1451.46 801.259 1451.46 800.747C1451.46 800.159 1451.59 799.643 1451.85 799.2C1452.12 798.753 1452.49 798.406 1452.96 798.158C1453.44 797.907 1454 797.781 1454.64 797.781C1455.29 797.781 1455.86 797.909 1456.33 798.165C1456.8 798.416 1457.17 798.751 1457.42 799.168C1457.68 799.582 1457.81 800.031 1457.81 800.517C1457.81 801.143 1457.65 801.687 1457.34 802.147C1457.03 802.607 1456.6 803.036 1456.07 803.432L1453.46 805.375C1452.87 805.81 1452.47 806.232 1452.26 806.641C1452.06 807.05 1451.95 807.344 1451.95 807.523C1451.95 807.932 1452.06 808.313 1452.27 808.667C1452.48 809.021 1452.78 809.306 1453.17 809.523C1453.56 809.741 1454.01 809.849 1454.53 809.849C1455.03 809.849 1455.51 809.745 1455.98 809.536C1456.45 809.323 1456.87 809.016 1457.25 808.616C1457.63 808.215 1457.94 807.734 1458.16 807.171C1458.38 806.609 1458.5 805.976 1458.5 805.273H1459.95C1459.95 806.142 1459.85 806.852 1459.65 807.401C1459.45 807.951 1459.23 808.381 1458.98 808.692C1458.72 809.004 1458.52 809.236 1458.37 809.389C1458.32 809.453 1458.27 809.517 1458.23 809.581C1458.19 809.645 1458.14 809.709 1458.09 809.773C1457.67 810.246 1457.13 810.599 1456.49 810.834C1455.85 811.064 1455.21 811.179 1454.58 811.179ZM1351.12 828H1349.53C1349.44 827.544 1349.28 827.143 1349.04 826.798C1348.81 826.453 1348.53 826.163 1348.2 825.929C1347.87 825.69 1347.51 825.511 1347.11 825.392C1346.7 825.273 1346.29 825.213 1345.85 825.213C1345.06 825.213 1344.34 825.413 1343.7 825.814C1343.06 826.214 1342.55 826.805 1342.17 827.585C1341.8 828.364 1341.61 829.321 1341.61 830.455C1341.61 831.588 1341.8 832.545 1342.17 833.325C1342.55 834.104 1343.06 834.695 1343.7 835.095C1344.34 835.496 1345.06 835.696 1345.85 835.696C1346.29 835.696 1346.7 835.636 1347.11 835.517C1347.51 835.398 1347.87 835.221 1348.2 834.987C1348.53 834.748 1348.81 834.456 1349.04 834.111C1349.28 833.761 1349.44 833.361 1349.53 832.909H1351.12C1351 833.578 1350.78 834.177 1350.47 834.705C1350.15 835.234 1349.76 835.683 1349.29 836.054C1348.82 836.42 1348.3 836.7 1347.71 836.891C1347.13 837.083 1346.51 837.179 1345.85 837.179C1344.74 837.179 1343.74 836.906 1342.87 836.361C1342 835.815 1341.32 835.04 1340.82 834.034C1340.32 833.028 1340.07 831.835 1340.07 830.455C1340.07 829.074 1340.32 827.881 1340.82 826.875C1341.32 825.869 1342 825.094 1342.87 824.548C1343.74 824.003 1344.74 823.73 1345.85 823.73C1346.51 823.73 1347.13 823.826 1347.71 824.018C1348.3 824.21 1348.82 824.491 1349.29 824.862C1349.76 825.228 1350.15 825.675 1350.47 826.204C1350.78 826.728 1351 827.327 1351.12 828ZM1364.73 830.455C1364.73 831.835 1364.48 833.028 1363.98 834.034C1363.48 835.04 1362.8 835.815 1361.93 836.361C1361.06 836.906 1360.06 837.179 1358.95 837.179C1357.83 837.179 1356.84 836.906 1355.97 836.361C1355.1 835.815 1354.42 835.04 1353.92 834.034C1353.42 833.028 1353.17 831.835 1353.17 830.455C1353.17 829.074 1353.42 827.881 1353.92 826.875C1354.42 825.869 1355.1 825.094 1355.97 824.548C1356.84 824.003 1357.83 823.73 1358.95 823.73C1360.06 823.73 1361.06 824.003 1361.93 824.548C1362.8 825.094 1363.48 825.869 1363.98 826.875C1364.48 827.881 1364.73 829.074 1364.73 830.455ZM1363.19 830.455C1363.19 829.321 1363 828.364 1362.62 827.585C1362.25 826.805 1361.74 826.214 1361.1 825.814C1360.46 825.413 1359.74 825.213 1358.95 825.213C1358.16 825.213 1357.44 825.413 1356.79 825.814C1356.15 826.214 1355.65 826.805 1355.27 827.585C1354.89 828.364 1354.7 829.321 1354.7 830.455C1354.7 831.588 1354.89 832.545 1355.27 833.325C1355.65 834.104 1356.15 834.695 1356.79 835.095C1357.44 835.496 1358.16 835.696 1358.95 835.696C1359.74 835.696 1360.46 835.496 1361.1 835.095C1361.74 834.695 1362.25 834.104 1362.62 833.325C1363 832.545 1363.19 831.588 1363.19 830.455ZM1367.39 823.909H1369.28L1373.73 834.776H1373.89L1378.34 823.909H1380.23V837H1378.74V827.054H1378.62L1374.53 837H1373.09L1369 827.054H1368.87V837H1367.39V823.909ZM1383.41 823.909H1385.3L1389.75 834.776H1389.9L1394.35 823.909H1396.24V837H1394.76V827.054H1394.63L1390.54 837H1389.11L1385.02 827.054H1384.89V837H1383.41V823.909ZM1408.01 823.909H1409.6V832.577C1409.6 833.472 1409.38 834.271 1408.96 834.974C1408.54 835.673 1407.95 836.224 1407.19 836.629C1406.43 837.03 1405.53 837.23 1404.51 837.23C1403.48 837.23 1402.59 837.03 1401.82 836.629C1401.06 836.224 1400.47 835.673 1400.05 834.974C1399.63 834.271 1399.42 833.472 1399.42 832.577V823.909H1401V832.449C1401 833.088 1401.15 833.657 1401.43 834.156C1401.71 834.65 1402.11 835.04 1402.63 835.325C1403.15 835.607 1403.78 835.747 1404.51 835.747C1405.24 835.747 1405.86 835.607 1406.39 835.325C1406.91 835.04 1407.31 834.65 1407.59 834.156C1407.87 833.657 1408.01 833.088 1408.01 832.449V823.909ZM1423.14 823.909V837H1421.61L1414.47 826.722H1414.35V837H1412.76V823.909H1414.3L1421.45 834.213H1421.58V823.909H1423.14ZM1427.9 823.909V837H1426.31V823.909H1427.9ZM1430.36 825.315V823.909H1440.18V825.315H1436.06V837H1434.48V825.315H1430.36ZM1441.5 823.909H1443.32L1446.95 830.02H1447.1L1450.73 823.909H1452.55L1447.82 831.605V837H1446.23V831.605L1441.5 823.909Z" fill="#DBDBDB"/>
<path d="M1344.46 878V860.444L1344.82 858.4H1348.13V878H1344.46ZM1340.32 864.588V861.116C1340.78 861.153 1341.29 861.041 1341.83 860.78C1342.37 860.5 1342.9 860.145 1343.42 859.716C1343.97 859.268 1344.43 858.82 1344.82 858.372L1347.26 860.752C1346.59 861.499 1345.88 862.18 1345.13 862.796C1344.39 863.393 1343.61 863.86 1342.81 864.196C1342.02 864.532 1341.19 864.663 1340.32 864.588ZM1359.04 878.336C1357.46 878.336 1356.06 877.907 1354.84 877.048C1353.63 876.171 1352.68 874.976 1351.99 873.464C1351.3 871.933 1350.95 870.179 1350.95 868.2C1350.95 866.221 1351.3 864.476 1351.99 862.964C1352.68 861.433 1353.62 860.239 1354.82 859.38C1356.03 858.503 1357.43 858.064 1359.02 858.064C1360.6 858.064 1362 858.503 1363.22 859.38C1364.45 860.239 1365.41 861.433 1366.1 862.964C1366.79 864.476 1367.14 866.221 1367.14 868.2C1367.14 870.179 1366.79 871.933 1366.1 873.464C1365.41 874.976 1364.46 876.171 1363.24 877.048C1362.03 877.907 1360.63 878.336 1359.04 878.336ZM1359.04 874.864C1359.88 874.864 1360.63 874.584 1361.28 874.024C1361.96 873.445 1362.48 872.661 1362.85 871.672C1363.23 870.664 1363.41 869.507 1363.41 868.2C1363.41 866.893 1363.23 865.736 1362.85 864.728C1362.48 863.72 1361.96 862.936 1361.28 862.376C1360.63 861.797 1359.88 861.508 1359.02 861.508C1358.18 861.508 1357.43 861.797 1356.78 862.376C1356.12 862.936 1355.61 863.72 1355.24 864.728C1354.88 865.736 1354.7 866.893 1354.7 868.2C1354.7 869.507 1354.88 870.664 1355.24 871.672C1355.61 872.661 1356.12 873.445 1356.78 874.024C1357.45 874.584 1358.2 874.864 1359.04 874.864ZM1369.81 878L1383.72 858.4H1387.42L1373.42 878H1369.81ZM1384.34 878.42C1383.46 878.42 1382.68 878.215 1381.99 877.804C1381.3 877.393 1380.76 876.824 1380.36 876.096C1379.99 875.349 1379.8 874.509 1379.8 873.576C1379.8 872.624 1379.99 871.784 1380.36 871.056C1380.76 870.328 1381.3 869.759 1381.99 869.348C1382.68 868.937 1383.46 868.732 1384.34 868.732C1385.24 868.732 1386.02 868.947 1386.69 869.376C1387.38 869.787 1387.92 870.356 1388.32 871.084C1388.71 871.793 1388.9 872.624 1388.9 873.576C1388.9 874.509 1388.71 875.349 1388.32 876.096C1387.92 876.824 1387.38 877.393 1386.69 877.804C1386.02 878.215 1385.24 878.42 1384.34 878.42ZM1384.34 875.956C1384.92 875.956 1385.39 875.732 1385.74 875.284C1386.1 874.817 1386.27 874.248 1386.27 873.576C1386.27 872.904 1386.1 872.344 1385.74 871.896C1385.39 871.429 1384.92 871.196 1384.34 871.196C1383.78 871.196 1383.31 871.429 1382.94 871.896C1382.59 872.344 1382.41 872.904 1382.41 873.576C1382.41 874.248 1382.59 874.817 1382.94 875.284C1383.31 875.732 1383.78 875.956 1384.34 875.956ZM1373 867.64C1372.1 867.64 1371.31 867.435 1370.62 867.024C1369.95 866.613 1369.42 866.044 1369.02 865.316C1368.63 864.569 1368.44 863.729 1368.44 862.796C1368.44 861.844 1368.62 861.004 1369 860.276C1369.39 859.548 1369.93 858.979 1370.62 858.568C1371.31 858.157 1372.1 857.952 1373 857.952C1373.9 857.952 1374.68 858.167 1375.35 858.596C1376.04 859.007 1376.58 859.576 1376.95 860.304C1377.34 861.013 1377.54 861.844 1377.54 862.796C1377.54 863.729 1377.34 864.569 1376.95 865.316C1376.58 866.044 1376.04 866.613 1375.35 867.024C1374.66 867.435 1373.88 867.64 1373 867.64ZM1372.97 865.176C1373.55 865.176 1374.02 864.952 1374.37 864.504C1374.75 864.037 1374.93 863.468 1374.93 862.796C1374.93 862.124 1374.75 861.564 1374.37 861.116C1374.02 860.668 1373.55 860.444 1372.97 860.444C1372.41 860.444 1371.96 860.668 1371.6 861.116C1371.25 861.564 1371.07 862.124 1371.07 862.796C1371.07 863.468 1371.25 864.037 1371.6 864.504C1371.96 864.952 1372.41 865.176 1372.97 865.176Z" fill="#E8EAFB"/>
<path d="M1340.59 609V595.909H1342.17V607.594H1348.26V609H1340.59ZM1352.3 595.909V609H1350.71V595.909H1352.3ZM1360.23 604.909H1361.97L1363.43 606.827L1363.81 607.338L1365.98 610.227H1364.24L1362.81 608.31L1362.45 607.824L1360.23 604.909ZM1366.52 602.455C1366.52 603.835 1366.27 605.028 1365.77 606.034C1365.27 607.04 1364.59 607.815 1363.72 608.361C1362.85 608.906 1361.86 609.179 1360.74 609.179C1359.62 609.179 1358.63 608.906 1357.76 608.361C1356.89 607.815 1356.21 607.04 1355.71 606.034C1355.21 605.028 1354.96 603.835 1354.96 602.455C1354.96 601.074 1355.21 599.881 1355.71 598.875C1356.21 597.869 1356.89 597.094 1357.76 596.548C1358.63 596.003 1359.62 595.73 1360.74 595.73C1361.86 595.73 1362.85 596.003 1363.72 596.548C1364.59 597.094 1365.27 597.869 1365.77 598.875C1366.27 599.881 1366.52 601.074 1366.52 602.455ZM1364.99 602.455C1364.99 601.321 1364.8 600.364 1364.42 599.585C1364.04 598.805 1363.53 598.214 1362.89 597.814C1362.25 597.413 1361.53 597.213 1360.74 597.213C1359.95 597.213 1359.23 597.413 1358.59 597.814C1357.95 598.214 1357.44 598.805 1357.06 599.585C1356.68 600.364 1356.5 601.321 1356.5 602.455C1356.5 603.588 1356.68 604.545 1357.06 605.325C1357.44 606.104 1357.95 606.695 1358.59 607.095C1359.23 607.496 1359.95 607.696 1360.74 607.696C1361.53 607.696 1362.25 607.496 1362.89 607.095C1363.53 606.695 1364.04 606.104 1364.42 605.325C1364.8 604.545 1364.99 603.588 1364.99 602.455ZM1377.78 595.909H1379.36V604.577C1379.36 605.472 1379.15 606.271 1378.73 606.974C1378.31 607.673 1377.72 608.224 1376.96 608.629C1376.19 609.03 1375.3 609.23 1374.27 609.23C1373.25 609.23 1372.35 609.03 1371.59 608.629C1370.83 608.224 1370.23 607.673 1369.81 606.974C1369.39 606.271 1369.18 605.472 1369.18 604.577V595.909H1370.77V604.449C1370.77 605.088 1370.91 605.657 1371.19 606.156C1371.47 606.65 1371.87 607.04 1372.39 607.325C1372.92 607.607 1373.54 607.747 1374.27 607.747C1375 607.747 1375.63 607.607 1376.15 607.325C1376.68 607.04 1377.08 606.65 1377.35 606.156C1377.64 605.657 1377.78 605.088 1377.78 604.449V595.909ZM1384.11 595.909V609H1382.53V595.909H1384.11ZM1391.33 609H1387.29V595.909H1391.51C1392.78 595.909 1393.87 596.171 1394.77 596.695C1395.67 597.215 1396.36 597.963 1396.85 598.939C1397.33 599.911 1397.57 601.074 1397.57 602.429C1397.57 603.793 1397.33 604.967 1396.84 605.951C1396.35 606.931 1395.65 607.685 1394.72 608.214C1393.79 608.738 1392.66 609 1391.33 609ZM1388.88 607.594H1391.23C1392.31 607.594 1393.21 607.385 1393.92 606.967C1394.63 606.55 1395.16 605.955 1395.51 605.184C1395.86 604.413 1396.03 603.494 1396.03 602.429C1396.03 601.372 1395.86 600.462 1395.52 599.7C1395.17 598.933 1394.66 598.344 1393.97 597.935C1393.28 597.522 1392.43 597.315 1391.41 597.315H1388.88V607.594ZM1401.81 595.909V609H1400.23V595.909H1401.81ZM1404.28 597.315V595.909H1414.09V597.315H1409.98V609H1408.39V597.315H1404.28ZM1415.42 595.909H1417.23L1420.86 602.02H1421.01L1424.65 595.909H1426.46L1421.73 603.605V609H1420.15V603.605L1415.42 595.909ZM1437.08 609.179C1436.22 609.179 1435.47 609.021 1434.85 608.706C1434.23 608.391 1433.75 607.958 1433.41 607.408C1433.08 606.859 1432.91 606.23 1432.91 605.523C1432.91 604.977 1433.02 604.494 1433.25 604.072C1433.49 603.646 1433.81 603.251 1434.22 602.889C1434.63 602.523 1435.11 602.156 1435.64 601.79L1437.54 600.384C1437.91 600.141 1438.2 599.881 1438.43 599.604C1438.65 599.327 1438.76 598.964 1438.76 598.517C1438.76 598.185 1438.62 597.863 1438.32 597.552C1438.03 597.241 1437.65 597.085 1437.18 597.085C1436.85 597.085 1436.55 597.17 1436.3 597.341C1436.05 597.507 1435.85 597.72 1435.7 597.98C1435.56 598.236 1435.49 598.5 1435.49 598.773C1435.49 599.08 1435.57 599.391 1435.74 599.706C1435.91 600.017 1436.13 600.337 1436.39 600.665C1436.65 600.989 1436.92 601.321 1437.2 601.662L1443.21 609H1441.4L1436.44 603.017C1435.98 602.463 1435.56 601.96 1435.18 601.509C1434.81 601.057 1434.51 600.612 1434.29 600.173C1434.07 599.734 1433.96 599.259 1433.96 598.747C1433.96 598.159 1434.09 597.643 1434.35 597.2C1434.61 596.753 1434.98 596.406 1435.45 596.158C1435.93 595.907 1436.49 595.781 1437.13 595.781C1437.78 595.781 1438.35 595.909 1438.82 596.165C1439.29 596.416 1439.66 596.751 1439.91 597.168C1440.17 597.582 1440.3 598.031 1440.3 598.517C1440.3 599.143 1440.14 599.687 1439.83 600.147C1439.52 600.607 1439.1 601.036 1438.56 601.432L1435.95 603.375C1435.36 603.81 1434.96 604.232 1434.76 604.641C1434.55 605.05 1434.44 605.344 1434.44 605.523C1434.44 605.932 1434.55 606.313 1434.76 606.667C1434.98 607.021 1435.28 607.306 1435.66 607.523C1436.05 607.741 1436.51 607.849 1437.03 607.849C1437.52 607.849 1438 607.745 1438.47 607.536C1438.94 607.323 1439.36 607.016 1439.74 606.616C1440.13 606.215 1440.43 605.734 1440.65 605.171C1440.88 604.609 1440.99 603.976 1440.99 603.273H1442.45C1442.45 604.142 1442.35 604.852 1442.15 605.401C1441.94 605.951 1441.72 606.381 1441.47 606.692C1441.22 607.004 1441.01 607.236 1440.86 607.389C1440.81 607.453 1440.76 607.517 1440.72 607.581C1440.68 607.645 1440.63 607.709 1440.58 607.773C1440.16 608.246 1439.62 608.599 1438.98 608.834C1438.34 609.064 1437.7 609.179 1437.08 609.179ZM1340.59 635V621.909H1348.49V623.315H1342.17V627.739H1348.08V629.145H1342.17V633.594H1348.59V635H1340.59ZM1352.11 621.909L1355.49 627.355H1355.59L1358.96 621.909H1360.83L1356.71 628.455L1360.83 635H1358.96L1355.59 629.656H1355.49L1352.11 635H1350.24L1354.46 628.455L1350.24 621.909H1352.11ZM1373.22 626H1371.63C1371.54 625.544 1371.37 625.143 1371.14 624.798C1370.91 624.453 1370.63 624.163 1370.29 623.929C1369.97 623.69 1369.6 623.511 1369.2 623.392C1368.8 623.273 1368.38 623.213 1367.95 623.213C1367.16 623.213 1366.44 623.413 1365.79 623.814C1365.15 624.214 1364.65 624.805 1364.27 625.585C1363.89 626.364 1363.7 627.321 1363.7 628.455C1363.7 629.588 1363.89 630.545 1364.27 631.325C1364.65 632.104 1365.15 632.695 1365.79 633.095C1366.44 633.496 1367.16 633.696 1367.95 633.696C1368.38 633.696 1368.8 633.636 1369.2 633.517C1369.6 633.398 1369.97 633.221 1370.29 632.987C1370.63 632.748 1370.91 632.456 1371.14 632.111C1371.37 631.761 1371.54 631.361 1371.63 630.909H1373.22C1373.1 631.578 1372.88 632.177 1372.56 632.705C1372.25 633.234 1371.86 633.683 1371.39 634.054C1370.92 634.42 1370.39 634.7 1369.81 634.891C1369.23 635.083 1368.61 635.179 1367.95 635.179C1366.83 635.179 1365.84 634.906 1364.97 634.361C1364.1 633.815 1363.42 633.04 1362.92 632.034C1362.42 631.028 1362.17 629.835 1362.17 628.455C1362.17 627.074 1362.42 625.881 1362.92 624.875C1363.42 623.869 1364.1 623.094 1364.97 622.548C1365.84 622.003 1366.83 621.73 1367.95 621.73C1368.61 621.73 1369.23 621.826 1369.81 622.018C1370.39 622.21 1370.92 622.491 1371.39 622.862C1371.86 623.228 1372.25 623.675 1372.56 624.204C1372.88 624.728 1373.1 625.327 1373.22 626ZM1375.78 635V621.909H1377.36V627.739H1384.34V621.909H1385.93V635H1384.34V629.145H1377.36V635H1375.78ZM1389.64 635H1387.98L1392.78 621.909H1394.42L1399.23 635H1397.56L1393.65 623.98H1393.55L1389.64 635ZM1390.25 629.886H1396.95V631.293H1390.25V629.886ZM1411.65 621.909V635H1410.11L1402.98 624.722H1402.85V635H1401.26V621.909H1402.8L1409.96 632.213H1410.09V621.909H1411.65ZM1423.77 626C1423.63 625.57 1423.44 625.184 1423.21 624.843C1422.98 624.498 1422.71 624.204 1422.4 623.961C1422.09 623.718 1421.73 623.533 1421.34 623.405C1420.94 623.277 1420.51 623.213 1420.03 623.213C1419.26 623.213 1418.55 623.413 1417.92 623.814C1417.28 624.214 1416.78 624.805 1416.4 625.585C1416.03 626.364 1415.84 627.321 1415.84 628.455C1415.84 629.588 1416.03 630.545 1416.41 631.325C1416.79 632.104 1417.3 632.695 1417.95 633.095C1418.6 633.496 1419.33 633.696 1420.14 633.696C1420.89 633.696 1421.55 633.536 1422.12 633.217C1422.69 632.893 1423.14 632.437 1423.46 631.849C1423.78 631.256 1423.95 630.56 1423.95 629.759L1424.43 629.861H1420.49V628.455H1425.48V629.861C1425.48 630.939 1425.25 631.876 1424.79 632.673C1424.33 633.47 1423.7 634.088 1422.9 634.527C1422.1 634.962 1421.18 635.179 1420.14 635.179C1418.98 635.179 1417.96 634.906 1417.08 634.361C1416.21 633.815 1415.53 633.04 1415.03 632.034C1414.55 631.028 1414.31 629.835 1414.31 628.455C1414.31 627.419 1414.44 626.488 1414.72 625.661C1415 624.83 1415.4 624.123 1415.91 623.539C1416.42 622.955 1417.03 622.508 1417.73 622.197C1418.42 621.886 1419.19 621.73 1420.03 621.73C1420.72 621.73 1421.37 621.835 1421.96 622.043C1422.56 622.248 1423.1 622.54 1423.57 622.919C1424.04 623.294 1424.44 623.744 1424.75 624.268C1425.07 624.788 1425.28 625.365 1425.4 626H1423.77ZM1428.19 635V621.909H1436.1V623.315H1429.78V627.739H1435.69V629.145H1429.78V633.594H1436.2V635H1428.19Z" fill="#DBDBDB"/>
<path d="M1344.46 676V658.444L1344.82 656.4H1348.13V676H1344.46ZM1340.32 662.588V659.116C1340.78 659.153 1341.29 659.041 1341.83 658.78C1342.37 658.5 1342.9 658.145 1343.42 657.716C1343.97 657.268 1344.43 656.82 1344.82 656.372L1347.26 658.752C1346.59 659.499 1345.88 660.18 1345.13 660.796C1344.39 661.393 1343.61 661.86 1342.81 662.196C1342.02 662.532 1341.19 662.663 1340.32 662.588ZM1359.04 676.336C1357.46 676.336 1356.06 675.907 1354.84 675.048C1353.63 674.171 1352.68 672.976 1351.99 671.464C1351.3 669.933 1350.95 668.179 1350.95 666.2C1350.95 664.221 1351.3 662.476 1351.99 660.964C1352.68 659.433 1353.62 658.239 1354.82 657.38C1356.03 656.503 1357.43 656.064 1359.02 656.064C1360.6 656.064 1362 656.503 1363.22 657.38C1364.45 658.239 1365.41 659.433 1366.1 660.964C1366.79 662.476 1367.14 664.221 1367.14 666.2C1367.14 668.179 1366.79 669.933 1366.1 671.464C1365.41 672.976 1364.46 674.171 1363.24 675.048C1362.03 675.907 1360.63 676.336 1359.04 676.336ZM1359.04 672.864C1359.88 672.864 1360.63 672.584 1361.28 672.024C1361.96 671.445 1362.48 670.661 1362.85 669.672C1363.23 668.664 1363.41 667.507 1363.41 666.2C1363.41 664.893 1363.23 663.736 1362.85 662.728C1362.48 661.72 1361.96 660.936 1361.28 660.376C1360.63 659.797 1359.88 659.508 1359.02 659.508C1358.18 659.508 1357.43 659.797 1356.78 660.376C1356.12 660.936 1355.61 661.72 1355.24 662.728C1354.88 663.736 1354.7 664.893 1354.7 666.2C1354.7 667.507 1354.88 668.664 1355.24 669.672C1355.61 670.661 1356.12 671.445 1356.78 672.024C1357.45 672.584 1358.2 672.864 1359.04 672.864ZM1369.81 676L1383.72 656.4H1387.42L1373.42 676H1369.81ZM1384.34 676.42C1383.46 676.42 1382.68 676.215 1381.99 675.804C1381.3 675.393 1380.76 674.824 1380.36 674.096C1379.99 673.349 1379.8 672.509 1379.8 671.576C1379.8 670.624 1379.99 669.784 1380.36 669.056C1380.76 668.328 1381.3 667.759 1381.99 667.348C1382.68 666.937 1383.46 666.732 1384.34 666.732C1385.24 666.732 1386.02 666.947 1386.69 667.376C1387.38 667.787 1387.92 668.356 1388.32 669.084C1388.71 669.793 1388.9 670.624 1388.9 671.576C1388.9 672.509 1388.71 673.349 1388.32 674.096C1387.92 674.824 1387.38 675.393 1386.69 675.804C1386.02 676.215 1385.24 676.42 1384.34 676.42ZM1384.34 673.956C1384.92 673.956 1385.39 673.732 1385.74 673.284C1386.1 672.817 1386.27 672.248 1386.27 671.576C1386.27 670.904 1386.1 670.344 1385.74 669.896C1385.39 669.429 1384.92 669.196 1384.34 669.196C1383.78 669.196 1383.31 669.429 1382.94 669.896C1382.59 670.344 1382.41 670.904 1382.41 671.576C1382.41 672.248 1382.59 672.817 1382.94 673.284C1383.31 673.732 1383.78 673.956 1384.34 673.956ZM1373 665.64C1372.1 665.64 1371.31 665.435 1370.62 665.024C1369.95 664.613 1369.42 664.044 1369.02 663.316C1368.63 662.569 1368.44 661.729 1368.44 660.796C1368.44 659.844 1368.62 659.004 1369 658.276C1369.39 657.548 1369.93 656.979 1370.62 656.568C1371.31 656.157 1372.1 655.952 1373 655.952C1373.9 655.952 1374.68 656.167 1375.35 656.596C1376.04 657.007 1376.58 657.576 1376.95 658.304C1377.34 659.013 1377.54 659.844 1377.54 660.796C1377.54 661.729 1377.34 662.569 1376.95 663.316C1376.58 664.044 1376.04 664.613 1375.35 665.024C1374.66 665.435 1373.88 665.64 1373 665.64ZM1372.97 663.176C1373.55 663.176 1374.02 662.952 1374.37 662.504C1374.75 662.037 1374.93 661.468 1374.93 660.796C1374.93 660.124 1374.75 659.564 1374.37 659.116C1374.02 658.668 1373.55 658.444 1372.97 658.444C1372.41 658.444 1371.96 658.668 1371.6 659.116C1371.25 659.564 1371.07 660.124 1371.07 660.796C1371.07 661.468 1371.25 662.037 1371.6 662.504C1371.96 662.952 1372.41 663.176 1372.97 663.176Z" fill="#E8EAFB"/>
<defs>
<linearGradient id="paint0_linear_0_1" x1="979.335" y1="973.629" x2="1091" y2="847" gradientUnits="userSpaceOnUse">
<stop offset="0.00113046" stopColor="#053744"/>
<stop offset="1" stopColor="#00070F"/>
</linearGradient>
<linearGradient id="paint1_linear_0_1" x1="1105.77" y1="857.209" x2="1161" y2="649.5" gradientUnits="userSpaceOnUse">
<stop offset="0.00113046" stopColor="#053744"/>
<stop offset="1" stopColor="#00070F"/>
</linearGradient>
<linearGradient id="paint2_linear_0_1" x1="1179.48" y1="672.674" x2="1074.44" y2="335.887" gradientUnits="userSpaceOnUse">
<stop offset="0.00113046" stopColor="#053744"/>
<stop offset="1" stopColor="#00070F"/>
</linearGradient>
<linearGradient id="paint3_linear_0_1" x1="1038.56" y1="297.404" x2="698.5" y2="203.5" gradientUnits="userSpaceOnUse">
<stop offset="0.00113046" stopColor="#053744"/>
<stop offset="1" stopColor="#00070F"/>
</linearGradient>
<linearGradient id="paint4_linear_0_1" x1="665.251" y1="207.84" x2="849.439" y2="945.199" gradientUnits="userSpaceOnUse">
<stop offset="0.00113046" stopColor="#053744"/>
<stop offset="1" stopColor="#00070F"/>
</linearGradient>
<linearGradient id="paint5_linear_0_1" x1="262" y1="277.5" x2="558" y2="277.5" gradientUnits="userSpaceOnUse">
<stop stopColor="#121927"/>
<stop offset="1" stopColor="#596278"/>
</linearGradient>
<linearGradient id="paint6_linear_0_1" x1="296" y1="0.5" x2="0" y2="0.5" gradientUnits="userSpaceOnUse">
<stop stopColor="#121927"/>
<stop offset="1" stopColor="#596278"/>
</linearGradient>
<linearGradient id="paint7_linear_0_1" x1="1291" y1="965.5" x2="1011" y2="965.5" gradientUnits="userSpaceOnUse">
<stop stopColor="#121927"/>
<stop offset="1" stopColor="#596278"/>
</linearGradient>
<linearGradient id="paint8_linear_0_1" x1="172" y1="0.5" x2="0" y2="0.5" gradientUnits="userSpaceOnUse">
<stop stopColor="#121927"/>
<stop offset="1" stopColor="#596278"/>
</linearGradient>
<linearGradient id="paint9_linear_0_1" x1="1261" y1="825.5" x2="1089" y2="825.5" gradientUnits="userSpaceOnUse">
<stop stopColor="#121927"/>
<stop offset="1" stopColor="#596278"/>
</linearGradient>
<linearGradient id="paint10_linear_0_1" x1="1308" y1="625.5" x2="1136" y2="625.5" gradientUnits="userSpaceOnUse">
<stop stopColor="#121927"/>
<stop offset="1" stopColor="#596278"/>
</linearGradient>
</defs>
</svg>
