<svg width="100%" height="100%" viewBox="0 0 100 100" fill="none" xmlns="http://www.w3.org/2000/svg">
<g clip-path="url(#clip0_17_17422)">
<path d="M35 90L27 99L0.5 73L10 64L35 90Z" fill="url(#paint0_linear_17_17422)"/>
<path d="M73.9997 46.5H25.4997C19.9997 42 10.4997 3 50.9997 3C83.3997 3 79.833 32 73.9997 46.5Z" fill="#0FEDBE"/>
<path d="M73.9997 46.5H25.4997C19.9997 42 10.4997 3 50.9997 3C83.3997 3 79.833 32 73.9997 46.5Z" fill="url(#paint1_linear_17_17422)"/>
<path d="M43.7521 74.9998C42.6018 74.9998 41.6686 74.0689 41.6686 72.917C41.6686 69.4707 44.4723 66.667 47.9185 66.667H66.6684C68.9665 66.667 70.8348 64.7979 70.8348 62.4998C70.8348 60.2018 68.9665 58.3335 66.6684 58.3335H47.9185C47.6959 58.3335 47.473 58.2962 47.2601 58.2251L41.3313 56.2499H31.2522C27.8265 56.2499 24.5689 57.5462 22.3083 59.8065L20.2247 61.8895C20.0315 62.0832 19.8019 62.2369 19.5492 62.3417C19.2965 62.4466 19.0255 62.5006 18.7519 62.5006C18.4783 62.5006 18.2073 62.4466 17.9546 62.3417C17.7019 62.2369 17.4723 62.0832 17.2791 61.8895C17.0854 61.6962 16.9317 61.4667 16.8268 61.2139C16.7219 60.9612 16.668 60.6903 16.668 60.4167C16.668 60.143 16.7219 59.8721 16.8268 59.6194C16.9317 59.3666 17.0854 59.1371 17.2791 58.9438L19.3626 56.8602C22.3976 53.8251 26.731 52.0835 31.2522 52.0835H41.6686C41.8912 52.0835 42.1141 52.1208 42.327 52.1919L48.2556 54.1671H66.6684C71.2643 54.1671 75.002 57.904 75.002 62.4998C75.002 67.0957 71.2643 70.8334 66.6684 70.8334H47.9185C46.7703 70.8334 45.835 71.7664 45.835 72.917C45.835 74.0689 44.9019 74.9998 43.7521 74.9998Z" fill="#414A57"/>
<path d="M32.723 86.8897L29.7773 83.944L33.9437 79.7776C34.137 79.5838 34.3666 79.4301 34.6194 79.3254C34.8722 79.2206 35.1433 79.1669 35.417 79.1673H63.84L85.9165 61.1049L95.1502 46.3321C94.6627 46.0468 94.15 45.8339 93.7502 45.8339C91.9039 45.8339 90.4459 45.8339 86.8899 49.3899L82.7227 53.5571C82.6022 53.6776 82.4688 53.7813 82.3229 53.8692L71.9066 60.1191L69.7627 56.5463L79.9601 50.4274L83.9458 46.4419C88.3684 42.0192 90.8998 41.6675 93.7502 41.6675C96.6143 41.6675 99.1144 44.086 99.3898 44.3606C99.7228 44.6938 99.9331 45.1299 99.9864 45.5979C100.04 46.0659 99.933 46.5382 99.6836 46.9378L89.2664 63.6049C89.1458 63.7975 88.9945 63.9691 88.8186 64.1131L65.9023 82.8629C65.5299 83.167 65.064 83.3332 64.5832 83.3336H36.2798L32.723 86.8897Z" fill="#414A57"/>
<path d="M27.0836 99.9999C26.81 100 26.539 99.9466 26.2863 99.8419C26.0336 99.7371 25.804 99.5834 25.6109 99.3895C25.4172 99.1963 25.2635 98.9667 25.1587 98.714C25.0538 98.4613 24.9999 98.1903 24.9999 97.9167C24.9999 97.6431 25.0538 97.3721 25.1587 97.1194C25.2635 96.8667 25.4172 96.6371 25.6109 96.4439L32.4715 89.5836L10.4173 67.5294L3.55678 74.3897C3.36353 74.5834 3.13396 74.7371 2.88123 74.8419C2.62849 74.9468 2.35756 75.0008 2.08393 75.0008C1.81031 75.0008 1.53938 74.9468 1.28664 74.8419C1.03391 74.7371 0.804344 74.5834 0.611092 74.3897C0.417382 74.1964 0.263697 73.9669 0.158836 73.7141C0.0539757 73.4614 0 73.1905 0 72.9169C0 72.6432 0.0539757 72.3723 0.158836 72.1196C0.263697 71.8668 0.417382 71.6373 0.611092 71.444L8.94386 63.1105C9.13728 62.9169 9.36694 62.7634 9.61973 62.6586C9.87251 62.5539 10.1435 62.5 10.4171 62.5C10.6907 62.5 10.9617 62.5539 11.2144 62.6586C11.4672 62.7634 11.6969 62.9169 11.8903 63.1105L36.8902 88.1103C37.0837 88.3037 37.2373 88.5334 37.342 88.7862C37.4468 89.039 37.5007 89.3099 37.5007 89.5836C37.5007 89.8572 37.4468 90.1281 37.342 90.3809C37.2373 90.6337 37.0837 90.8634 36.8902 91.0568L28.5566 99.3895C28.3634 99.5833 28.1337 99.737 27.8809 99.8417C27.6281 99.9465 27.3573 100 27.0836 99.9999ZM74.9982 47.9174C74.6419 47.9174 74.2817 47.8274 73.9523 47.6336C72.9566 47.0545 72.6208 45.7774 73.1999 44.784C75.7397 40.4231 77.0833 35.744 77.0833 31.2503C77.0833 16.3174 64.9336 4.16765 50.0006 4.16765C35.0669 4.16765 22.9172 16.3174 22.9172 31.2503C22.9172 35.744 24.2608 40.4231 26.8006 44.7854C27.3797 45.7795 27.0424 47.0545 26.0482 47.636C25.0527 48.2127 23.7801 47.8801 23.1987 46.8836C20.2905 41.8856 18.7508 36.4794 18.7508 31.2503C18.7508 14.0194 32.7689 0.000488281 50.0006 0.000488281C67.2316 0.000488281 81.2505 14.0194 81.2505 31.2503C81.2505 36.4794 79.7124 41.8856 76.8003 46.882C76.4149 47.5467 75.7146 47.9174 74.9982 47.9174Z" fill="#414A57"/>
<path d="M54.1676 45.8339H45.834C42.3887 45.8339 39.584 43.03 39.584 39.5839C39.584 38.4341 40.5178 37.5003 41.6676 37.5003C42.8174 37.5003 43.7512 38.4341 43.7512 39.5839C43.7512 40.7321 44.6865 41.6675 45.834 41.6675H54.1676C55.3174 41.6675 56.2512 40.7319 56.2512 39.5839V35.4175C56.2512 34.2692 55.3174 33.3339 54.1676 33.3339H45.834C42.3887 33.3339 39.584 30.53 39.584 27.0839V22.9175C39.584 19.4712 42.3887 16.6675 45.834 16.6675H54.1676C57.6137 16.6675 60.4176 19.4712 60.4176 22.9175C60.4176 24.0673 59.4859 25.0003 58.334 25.0003C57.182 25.0003 56.2512 24.0673 56.2512 22.9175C56.2512 21.7692 55.3174 20.8339 54.1676 20.8339H45.834C44.6865 20.8339 43.7512 21.7692 43.7512 22.9175V27.0839C43.7512 28.2321 44.6865 29.1675 45.834 29.1675H54.1676C57.6137 29.1675 60.4176 31.9712 60.4176 35.4175V39.5839C60.4176 43.03 57.6137 45.8339 54.1676 45.8339Z" fill="#414A57"/>
<path d="M50.0014 50.0003C48.8511 50.0003 47.9179 49.0673 47.9179 47.9175V14.5841C47.9179 13.4343 48.8509 12.5005 50.0014 12.5005C51.1512 12.5005 52.0842 13.4343 52.0842 14.5841V47.9175C52.0842 49.0673 51.1512 50.0003 50.0014 50.0003ZM66.6677 29.1676H70.8341V33.334H66.6677V29.1676ZM29.168 29.1676H33.3344V33.334H29.168V29.1676Z" fill="#414A57"/>
</g>
<defs>
<linearGradient id="paint0_linear_17_17422" x1="22" y1="77.5" x2="13.5" y2="86" gradientUnits="userSpaceOnUse">
<stop stop-color="#1CE0C7"/>
<stop offset="1" stop-color="#191F27" stop-opacity="0"/>
</linearGradient>
<linearGradient id="paint1_linear_17_17422" x1="38.4498" y1="3" x2="78.2416" y2="4.25989" gradientUnits="userSpaceOnUse">
<stop stop-color="#2DC5EC"/>
<stop offset="1" stop-color="#1BE1C5"/>
</linearGradient>
<clipPath id="clip0_17_17422">
<rect width="100" height="100" fill="white"/>
</clipPath>
</defs>
</svg>
