<svg width="18" height="19" viewBox="0 0 18 19" fill="none" xmlns="http://www.w3.org/2000/svg">
<path d="M4.25 2L2 5V15.5C2 15.8978 2.15804 16.2794 2.43934 16.5607C2.72064 16.842 3.10218 17 3.5 17H14C14.3978 17 14.7794 16.842 15.0607 16.5607C15.342 16.2794 15.5 15.8978 15.5 15.5V5L13.25 2H4.25Z" stroke="currentColor" stroke-width="2" stroke-linecap="round" stroke-linejoin="round"/>
<path d="M2.1875 4.75H15.3125" stroke="currentColor" stroke-width="2" stroke-linecap="round" stroke-linejoin="round"/>
<path d="M11.6654 7.91666C11.6654 8.75651 11.3581 9.56196 10.8111 10.1558C10.2641 10.7497 9.52225 11.0833 8.7487 11.0833C7.97515 11.0833 7.23328 10.7497 6.6863 10.1558C6.13932 9.56196 5.83203 8.75651 5.83203 7.91666" stroke="currentColor" stroke-width="2" stroke-linecap="round" stroke-linejoin="round"/>
</svg>
