<svg width="15" height="15" viewBox="0 0 15 15" fill="none" xmlns="http://www.w3.org/2000/svg">
<g clip-path="url(#clip0_235_7018)">
<path d="M11.0384 7.50062L12.5595 9.02172L14.0806 7.50062L12.5595 5.97953L11.0384 7.50062ZM0.916016 7.50098L2.43711 9.02207L3.95832 7.50098L2.43723 5.97988L0.916016 7.50098ZM7.49961 3.95898L4.97773 6.48086L3.45664 4.95977L7.49961 0.916797L11.5426 4.95977L10.0215 6.48086L7.49961 3.95898ZM7.49961 11.0418L10.0215 8.51992L11.5426 10.041L7.49961 14.084L3.45664 10.041L4.97773 8.51992L7.49961 11.0418Z" fill="currentColor"/>
<path d="M5.99414 7.50082L7.49625 9.00293L8.99836 7.50082L7.49625 5.99871L5.99414 7.50082Z" fill="currentColor"/>
</g>
<defs>
<clipPath id="clip0_235_7018">
<rect width="15" height="15" fill="white" transform="matrix(1 0 0 -1 0 15)"/>
</clipPath>
</defs>
</svg>
