<svg width="100%" height="100%" viewBox="0 0 7 7" fill="none" xmlns="http://www.w3.org/2000/svg">
<path fill-rule="evenodd" clip-rule="evenodd" d="M1.05057 2.09613C1.14801 1.99872 1.28015 1.944 1.41793 1.944C1.55572 1.944 1.68786 1.99872 1.7853 2.09613L3.49637 3.8072L5.20745 2.09613C5.25538 2.0465 5.31271 2.00692 5.37611 1.97969C5.4395 1.95245 5.50769 1.93812 5.57668 1.93752C5.64567 1.93692 5.7141 1.95007 5.77795 1.97619C5.84181 2.00232 5.89983 2.0409 5.94861 2.08969C5.9974 2.13848 6.03598 2.19649 6.06211 2.26035C6.08824 2.32421 6.10138 2.39263 6.10078 2.46162C6.10019 2.53062 6.08585 2.5988 6.05862 2.66219C6.03139 2.72559 5.9918 2.78292 5.94217 2.83086L3.86374 4.90929C3.76629 5.00671 3.63415 5.06143 3.49637 5.06143C3.35859 5.06143 3.22645 5.00671 3.12901 4.90929L1.05057 2.83086C0.953161 2.73342 0.898438 2.60127 0.898438 2.46349C0.898438 2.32571 0.953161 2.19357 1.05057 2.09613Z" fill="currentColor"/>
</svg>