<svg width="100%" height="100%" viewBox="0 0 100 100" fill="none" xmlns="http://www.w3.org/2000/svg">
<g clip-path="url(#clip0_17_17441)">
<path d="M64.0625 51.5625V46.875C64.0625 46.4606 63.8979 46.0632 63.6049 45.7701C63.3118 45.4771 62.9144 45.3125 62.5 45.3125H54.6875V48.4375H60.9375V51.5625H39.0625V48.4375H45.3125V45.3125H37.5C37.0856 45.3125 36.6882 45.4771 36.3951 45.7701C36.1021 46.0632 35.9375 46.4606 35.9375 46.875V53.125C35.9375 53.5394 36.1021 53.9368 36.3951 54.2299C36.6882 54.5229 37.0856 54.6875 37.5 54.6875V57.8125H35.9375C35.5231 57.8125 35.1257 57.9771 34.8326 58.2701C34.5396 58.5632 34.375 58.9606 34.375 59.375V71.875C34.375 72.2894 34.5396 72.6868 34.8326 72.9799C35.1257 73.2729 35.5231 73.4375 35.9375 73.4375H37.5V76.5625H35.9375C35.5231 76.5625 35.1257 76.7271 34.8326 77.0201C34.5396 77.3132 34.375 77.7106 34.375 78.125V84.375C34.375 84.7894 34.5396 85.1868 34.8326 85.4799C35.1257 85.7729 35.5231 85.9375 35.9375 85.9375H37.5V89.0625H35.9375C35.5231 89.0625 35.1257 89.2271 34.8326 89.5201C34.5396 89.8132 34.375 90.2106 34.375 90.625V96.875C34.375 97.2894 34.5396 97.6868 34.8326 97.9799C35.1257 98.2729 35.5231 98.4375 35.9375 98.4375H60.9375C61.3519 98.4375 61.7493 98.2729 62.0424 97.9799C62.3354 97.6868 62.5 97.2894 62.5 96.875V92.1875H64.0625C64.4769 92.1875 64.8743 92.0229 65.1674 91.7299C65.4604 91.4368 65.625 91.0394 65.625 90.625V84.375C65.625 83.9606 65.4604 83.5632 65.1674 83.2701C64.8743 82.9771 64.4769 82.8125 64.0625 82.8125H62.5V79.6875H64.0625C64.4769 79.6875 64.8743 79.5229 65.1674 79.2299C65.4604 78.9368 65.625 78.5394 65.625 78.125V71.875C65.625 71.4606 65.4604 71.0632 65.1674 70.7701C64.8743 70.4771 64.4769 70.3125 64.0625 70.3125H62.5V60.9375H64.0625C64.4769 60.9375 64.8743 60.7729 65.1674 60.4799C65.4604 60.1868 65.625 59.7894 65.625 59.375V53.125C65.625 52.7106 65.4604 52.3132 65.1674 52.0201C64.8743 51.7271 64.4769 51.5625 64.0625 51.5625ZM53.125 57.8125V54.6875H56.25V57.8125H53.125ZM46.875 57.8125V54.6875H50V57.8125H46.875ZM40.625 54.6875H43.75V57.8125H40.625V54.6875ZM50 70.3125V67.1875H53.125V70.3125H50ZM46.875 70.3125H43.75V67.1875H46.875V70.3125ZM40.625 70.3125H37.5V67.1875H40.625V70.3125ZM50 82.8125V79.6875H53.125V82.8125H50ZM46.875 82.8125H43.75V79.6875H46.875V82.8125ZM37.5 79.6875H40.625V82.8125H37.5V79.6875ZM53.125 92.1875V95.3125H50V92.1875H53.125ZM46.875 95.3125H43.75V92.1875H46.875V95.3125ZM37.5 92.1875H40.625V95.3125H37.5V92.1875ZM59.375 95.3125H56.25V92.1875H59.375V95.3125ZM40.625 89.0625V85.9375H62.5V89.0625H40.625ZM59.375 82.8125H56.25V79.6875H59.375V82.8125ZM40.625 76.5625V73.4375H62.5V76.5625H40.625ZM56.25 70.3125V67.1875H59.375V70.3125H56.25ZM59.375 60.9375V64.0625H37.5V60.9375H59.375ZM62.5 57.8125H59.375V54.6875H62.5V57.8125ZM28.125 57.8125H6.25C5.8356 57.8125 5.43817 57.9771 5.14515 58.2701C4.85212 58.5632 4.6875 58.9606 4.6875 59.375V70.3125H3.125C2.7106 70.3125 2.31317 70.4771 2.02015 70.7701C1.72712 71.0632 1.5625 71.4606 1.5625 71.875V78.125C1.5625 78.5394 1.72712 78.9368 2.02015 79.2299C2.31317 79.5229 2.7106 79.6875 3.125 79.6875H4.6875V82.8125H3.125C2.7106 82.8125 2.31317 82.9771 2.02015 83.2701C1.72712 83.5632 1.5625 83.9606 1.5625 84.375V90.625C1.5625 91.0394 1.72712 91.4368 2.02015 91.7299C2.31317 92.0229 2.7106 92.1875 3.125 92.1875H4.6875V96.875C4.6875 97.2894 4.85212 97.6868 5.14515 97.9799C5.43817 98.2729 5.8356 98.4375 6.25 98.4375H28.125C28.5394 98.4375 28.9368 98.2729 29.2299 97.9799C29.5229 97.6868 29.6875 97.2894 29.6875 96.875V90.625C29.6875 90.2106 29.5229 89.8132 29.2299 89.5201C28.9368 89.2271 28.5394 89.0625 28.125 89.0625H26.5625V85.9375H28.125C28.5394 85.9375 28.9368 85.7729 29.2299 85.4799C29.5229 85.1868 29.6875 84.7894 29.6875 84.375V78.125C29.6875 77.7106 29.5229 77.3132 29.2299 77.0201C28.9368 76.7271 28.5394 76.5625 28.125 76.5625H26.5625V73.4375H28.125C28.5394 73.4375 28.9368 73.2729 29.2299 72.9799C29.5229 72.6868 29.6875 72.2894 29.6875 71.875V59.375C29.6875 58.9606 29.5229 58.5632 29.2299 58.2701C28.9368 57.9771 28.5394 57.8125 28.125 57.8125ZM26.5625 64.0625H21.875V60.9375H26.5625V64.0625ZM15.625 64.0625V60.9375H18.75V64.0625H15.625ZM7.8125 60.9375H12.5V64.0625H7.8125V60.9375ZM4.6875 73.4375H9.375V76.5625H4.6875V73.4375ZM12.5 76.5625V73.4375H15.625V76.5625H12.5ZM4.6875 85.9375H9.375V89.0625H4.6875V85.9375ZM12.5 89.0625V85.9375H15.625V89.0625H12.5ZM26.5625 92.1875V95.3125H7.8125V92.1875H26.5625ZM23.4375 89.0625H18.75V85.9375H23.4375V89.0625ZM26.5625 82.8125H7.8125V79.6875H26.5625V82.8125ZM23.4375 76.5625H18.75V73.4375H23.4375V76.5625ZM7.8125 70.3125V67.1875H26.5625V70.3125H7.8125ZM96.875 57.8125H75C74.5856 57.8125 74.1882 57.9771 73.8951 58.2701C73.6021 58.5632 73.4375 58.9606 73.4375 59.375V70.3125H71.875C71.4606 70.3125 71.0632 70.4771 70.7701 70.7701C70.4771 71.0632 70.3125 71.4606 70.3125 71.875V78.125C70.3125 78.5394 70.4771 78.9368 70.7701 79.2299C71.0632 79.5229 71.4606 79.6875 71.875 79.6875H73.4375V82.8125H71.875C71.4606 82.8125 71.0632 82.9771 70.7701 83.2701C70.4771 83.5632 70.3125 83.9606 70.3125 84.375V90.625C70.3125 91.0394 70.4771 91.4368 70.7701 91.7299C71.0632 92.0229 71.4606 92.1875 71.875 92.1875H73.4375V96.875C73.4375 97.2894 73.6021 97.6868 73.8951 97.9799C74.1882 98.2729 74.5856 98.4375 75 98.4375H96.875C97.2894 98.4375 97.6868 98.2729 97.9799 97.9799C98.2729 97.6868 98.4375 97.2894 98.4375 96.875V90.625C98.4375 90.2106 98.2729 89.8132 97.9799 89.5201C97.6868 89.2271 97.2894 89.0625 96.875 89.0625H95.3125V85.9375H96.875C97.2894 85.9375 97.6868 85.7729 97.9799 85.4799C98.2729 85.1868 98.4375 84.7894 98.4375 84.375V78.125C98.4375 77.7106 98.2729 77.3132 97.9799 77.0201C97.6868 76.7271 97.2894 76.5625 96.875 76.5625H95.3125V73.4375H96.875C97.2894 73.4375 97.6868 73.2729 97.9799 72.9799C98.2729 72.6868 98.4375 72.2894 98.4375 71.875V59.375C98.4375 58.9606 98.2729 58.5632 97.9799 58.2701C97.6868 57.9771 97.2894 57.8125 96.875 57.8125ZM95.3125 64.0625H90.625V60.9375H95.3125V64.0625ZM84.375 64.0625V60.9375H87.5V64.0625H84.375ZM76.5625 60.9375H81.25V64.0625H76.5625V60.9375ZM73.4375 73.4375H78.125V76.5625H73.4375V73.4375ZM81.25 76.5625V73.4375H84.375V76.5625H81.25ZM73.4375 85.9375H78.125V89.0625H73.4375V85.9375ZM81.25 89.0625V85.9375H84.375V89.0625H81.25ZM95.3125 92.1875V95.3125H76.5625V92.1875H95.3125ZM92.1875 89.0625H87.5V85.9375H92.1875V89.0625ZM95.3125 79.6875V82.8125H76.5625V79.6875H95.3125ZM92.1875 76.5625H87.5V73.4375H92.1875V76.5625ZM76.5625 70.3125V67.1875H95.3125V70.3125H76.5625Z" fill="#414A57"/>
<path d="M55 34.5L50 47L45 34.5H19.5L17 31V6L21 3H80L83 6V31L80 34.5H55Z" fill="#0FEDBE"/>
<path d="M55 34.5L50 47L45 34.5H19.5L17 31V6L21 3H80L83 6V31L80 34.5H55Z" fill="url(#paint0_linear_17_17441)"/>
<path d="M20.3125 35.9375H44.1859L48.5172 48.9313C48.6199 49.2439 48.8188 49.516 49.0853 49.709C49.3518 49.902 49.6725 50.0059 50.0016 50.0059C50.3306 50.0059 50.6513 49.902 50.9178 49.709C51.1844 49.516 51.3832 49.2439 51.4859 48.9313L55.8141 35.9375H79.6875C80.9307 35.9375 82.123 35.4436 83.0021 34.5646C83.8811 33.6855 84.375 32.4932 84.375 31.25V6.25C84.375 5.0068 83.8811 3.81451 83.0021 2.93544C82.123 2.05636 80.9307 1.5625 79.6875 1.5625H20.3125C19.0693 1.5625 17.877 2.05636 16.9979 2.93544C16.1189 3.81451 15.625 5.0068 15.625 6.25V31.25C15.625 32.4932 16.1189 33.6855 16.9979 34.5646C17.877 35.4436 19.0693 35.9375 20.3125 35.9375ZM18.75 6.25C18.75 5.8356 18.9146 5.43817 19.2076 5.14515C19.5007 4.85212 19.8981 4.6875 20.3125 4.6875H79.6875C80.1019 4.6875 80.4993 4.85212 80.7924 5.14515C81.0854 5.43817 81.25 5.8356 81.25 6.25V31.25C81.25 31.6644 81.0854 32.0618 80.7924 32.3549C80.4993 32.6479 80.1019 32.8125 79.6875 32.8125H54.6875C54.3594 32.8124 54.0397 32.9156 53.7735 33.1074C53.5074 33.2993 53.3084 33.57 53.2047 33.8812L50 43.4969L46.7953 33.8812C46.6916 33.57 46.4926 33.2993 46.2265 33.1074C45.9603 32.9156 45.6406 32.8124 45.3125 32.8125H20.3125C19.8981 32.8125 19.5007 32.6479 19.2076 32.3549C18.9146 32.0618 18.75 31.6644 18.75 31.25V6.25Z" fill="#414A57"/>
<path d="M28.125 21.875H32.8125V18.75H28.125V14.0625H32.8125V10.9375H26.5625C26.1481 10.9375 25.7507 11.1021 25.4576 11.3952C25.1646 11.6882 25 12.0856 25 12.5V26.5625H28.125V21.875ZM41.4062 26.5625C42.8567 26.5625 44.2477 25.9863 45.2732 24.9607C46.2988 23.9352 46.875 22.5442 46.875 21.0938V10.9375H43.75V21.0938C43.75 21.7154 43.5031 22.3115 43.0635 22.751C42.624 23.1906 42.0279 23.4375 41.4062 23.4375C40.7846 23.4375 40.1885 23.1906 39.749 22.751C39.3094 22.3115 39.0625 21.7154 39.0625 21.0938V10.9375H35.9375V21.0938C35.9375 22.5442 36.5137 23.9352 37.5393 24.9607C38.5648 25.9863 39.9558 26.5625 41.4062 26.5625ZM53.125 17.9484L58.05 25.8281C58.2298 26.1158 58.4984 26.3372 58.8152 26.4588C59.1319 26.5803 59.4796 26.5955 59.8058 26.502C60.1319 26.4084 60.4187 26.2113 60.6229 25.9403C60.8271 25.6693 60.9375 25.3393 60.9375 25V10.9375H57.8125V19.5516L52.8875 11.6719C52.7077 11.3842 52.4391 11.1628 52.1223 11.0412C51.8056 10.9197 51.4579 10.9045 51.1317 10.998C50.8056 11.0916 50.5188 11.2887 50.3146 11.5597C50.1104 11.8307 50 12.1607 50 12.5V26.5625H53.125V17.9484ZM65.625 26.5625H67.1875C69.2595 26.5625 71.2466 25.7394 72.7118 24.2743C74.1769 22.8091 75 20.822 75 18.75C75 16.678 74.1769 14.6909 72.7118 13.2257C71.2466 11.7606 69.2595 10.9375 67.1875 10.9375H65.625C65.2106 10.9375 64.8132 11.1021 64.5201 11.3952C64.2271 11.6882 64.0625 12.0856 64.0625 12.5V25C64.0625 25.4144 64.2271 25.8118 64.5201 26.1049C64.8132 26.3979 65.2106 26.5625 65.625 26.5625ZM67.1875 14.0625C68.4307 14.0625 69.623 14.5564 70.5021 15.4354C71.3811 16.3145 71.875 17.5068 71.875 18.75C71.875 19.9932 71.3811 21.1855 70.5021 22.0646C69.623 22.9436 68.4307 23.4375 67.1875 23.4375V14.0625Z" fill="#191F27"/>
</g>
<defs>
<linearGradient id="paint0_linear_17_17441" x1="37.7089" y1="3" x2="83.4396" y2="4.6456" gradientUnits="userSpaceOnUse">
<stop stop-color="#2DC5EC"/>
<stop offset="1" stop-color="#1BE1C5"/>
</linearGradient>
<clipPath id="clip0_17_17441">
<rect width="100" height="100" fill="white"/>
</clipPath>
</defs>
</svg>
