<svg width="16" height="16" viewBox="0 0 16 16" fill="none" xmlns="http://www.w3.org/2000/svg">
<path d="M13.8931 7.69123L8.39309 0.691229C8.3463 0.631697 8.28661 0.583568 8.21851 0.550474C8.15041 0.517379 8.07568 0.500183 7.99996 0.500183C7.92425 0.500183 7.84952 0.517379 7.78142 0.550474C7.71332 0.583568 7.65362 0.631697 7.60684 0.691229L2.10684 7.69123C2.0377 7.77929 2.00012 7.88802 2.00012 7.99998C2.00012 8.11194 2.0377 8.22066 2.10684 8.30873L7.60684 15.3087C7.65362 15.3683 7.71332 15.4164 7.78142 15.4495C7.84952 15.4826 7.92425 15.4998 7.99996 15.4998C8.07568 15.4998 8.15041 15.4826 8.21851 15.4495C8.28661 15.4164 8.3463 15.3683 8.39309 15.3087L13.8931 8.30873C13.9622 8.22066 13.9998 8.11194 13.9998 7.99998C13.9998 7.88802 13.9622 7.77929 13.8931 7.69123ZM8.49996 9.72373V2.4456L12.7137 7.8081L8.49996 9.72373ZM7.49996 9.72373L3.28621 7.8081L7.49996 2.4456V9.72373ZM7.49996 10.8219V13.5544L4.16059 9.30435L7.49996 10.8219Z" fill="currentColor"/>
<path d="M13.8931 7.69123L8.39309 0.691229C8.3463 0.631697 8.28661 0.583568 8.21851 0.550474C8.15041 0.517379 8.07568 0.500183 7.99996 0.500183C7.92425 0.500183 7.84952 0.517379 7.78142 0.550474C7.71332 0.583568 7.65362 0.631697 7.60684 0.691229L2.10684 7.69123C2.0377 7.77929 2.00012 7.88802 2.00012 7.99998C2.00012 8.11194 2.0377 8.22066 2.10684 8.30873L7.60684 15.3087C7.65362 15.3683 7.71332 15.4164 7.78142 15.4495C7.84952 15.4826 7.92425 15.4998 7.99996 15.4998C8.07568 15.4998 8.15041 15.4826 8.21851 15.4495C8.28661 15.4164 8.3463 15.3683 8.39309 15.3087L13.8931 8.30873C13.9622 8.22066 13.9998 8.11194 13.9998 7.99998C13.9998 7.88802 13.9622 7.77929 13.8931 7.69123ZM8.49996 9.72373V2.4456L12.7137 7.8081L8.49996 9.72373ZM7.49996 9.72373L3.28621 7.8081L7.49996 2.4456V9.72373ZM7.49996 10.8219V13.5544L4.16059 9.30435L7.49996 10.8219Z" fill="currentColor"/>
<defs>
<linearGradient id="paint0_linear_17_26442" x1="6.82111" y1="4.1819" x2="16.8847" y2="6.97535" gradientUnits="userSpaceOnUse">
<stop offset="0.119715" stop-color="#42BDDD"/>
<stop offset="1" stop-color="#0FEDBE"/>
</linearGradient>
</defs>
</svg>
