<svg width="1920" height="1469" viewBox="0 0 1920 1469" fill="none" xmlns="http://www.w3.org/2000/svg">
<g filter="url(#filter0_d_17_1019)">
<mask id="path-1-outside-1_17_1019" maskUnits="userSpaceOnUse" x="-398" y="19" width="2348" height="1413" fill="black">
<rect fill="white" x="-398" y="19" width="2348" height="1413"/>
</mask>
<g clip-path="url(#paint0_diamond_17_1019_clip_path)" data-figma-skip-parse="true" mask="url(#path-1-outside-1_17_1019)"><g transform="matrix(1.04965 0.0148927 0.0424008 -2.98574 -107.839 521.884)"><rect x="0" y="0" width="1973.38" height="306.473" fill="url(#paint0_diamond_17_1019)" opacity="0.23" shape-rendering="crispEdges"/><rect x="0" y="0" width="1973.38" height="306.473" transform="scale(1 -1)" fill="url(#paint0_diamond_17_1019)" opacity="0.23" shape-rendering="crispEdges"/><rect x="0" y="0" width="1973.38" height="306.473" transform="scale(-1 1)" fill="url(#paint0_diamond_17_1019)" opacity="0.23" shape-rendering="crispEdges"/><rect x="0" y="0" width="1973.38" height="306.473" transform="scale(-1)" fill="url(#paint0_diamond_17_1019)" opacity="0.23" shape-rendering="crispEdges"/></g></g><path d="M1596.72 739.757L1595.79 740.128L1596.72 739.757ZM1135.52 601.443L1135.24 600.483L1135.52 601.443ZM832.302 497.311L832.124 496.327L832.302 497.311ZM280.286 1412.47L280.474 1411.48L280.286 1412.47ZM-326.858 686.448L-326.725 685.457L-326.858 686.448ZM1948.1 942.296C1944.46 934.84 1934.2 920.903 1919.17 902.794C1904.17 884.719 1884.49 862.573 1862.12 838.732C1817.38 791.048 1761.88 736.616 1711.46 694.447C1686.24 673.361 1662.32 655.361 1641.66 642.805C1631.33 636.526 1621.83 631.622 1613.42 628.372C1604.99 625.118 1597.71 623.551 1591.78 623.874C1585.89 624.196 1581.38 626.376 1578.32 630.627C1575.23 634.924 1573.53 641.472 1573.61 650.714C1573.78 669.204 1581.1 697.942 1597.64 739.386L1595.79 740.128C1579.23 698.65 1571.79 669.618 1571.61 650.732C1571.53 641.286 1573.25 634.246 1576.7 629.459C1580.18 624.625 1585.3 622.225 1591.67 621.877C1598 621.532 1605.58 623.205 1614.14 626.506C1622.7 629.813 1632.31 634.78 1642.7 641.095C1663.48 653.726 1687.49 671.797 1712.74 692.913C1763.25 735.149 1818.8 789.642 1863.58 837.364C1885.97 861.226 1905.67 883.403 1920.71 901.516C1935.71 919.595 1946.14 933.712 1949.9 941.419L1948.1 942.296ZM1597.64 739.386C1609.97 770.253 1606.82 793.06 1592.12 808.903C1577.51 824.642 1551.72 833.245 1519.35 836.334C1454.57 842.52 1362.58 826.694 1278 800.176C1235.7 786.912 1195.21 770.963 1160.87 753.728C1126.55 736.502 1098.3 717.959 1080.53 699.486C1062.78 681.044 1055.23 662.379 1063.1 645.107C1067.01 636.526 1074.67 628.43 1086.51 620.961C1098.36 613.49 1114.43 606.612 1135.24 600.483L1135.8 602.402C1115.1 608.499 1099.22 615.313 1087.58 622.652C1075.94 629.993 1068.61 637.824 1064.92 645.936C1057.57 662.05 1064.39 679.835 1081.97 698.1C1099.51 716.334 1127.53 734.755 1161.77 751.941C1196 769.118 1236.38 785.029 1278.6 798.267C1363.07 824.752 1454.76 840.492 1519.16 834.344C1551.39 831.267 1576.56 822.728 1590.65 807.542C1604.65 792.46 1607.94 770.56 1595.79 740.128L1597.64 739.386ZM1135.24 600.483C1167.97 590.843 1194.12 580.841 1214.03 570.871C1233.95 560.893 1247.55 550.984 1255.27 541.561C1262.96 532.166 1264.72 523.385 1261.3 515.454C1257.83 507.42 1248.93 499.967 1234.59 493.595C1205.96 480.867 1156.38 472.778 1088.41 472.516C1020.48 472.254 934.277 479.81 832.481 498.295L832.124 496.327C934.015 477.825 1020.34 470.253 1088.42 470.516C1156.46 470.779 1206.38 478.868 1235.41 491.768C1249.9 498.21 1259.37 505.933 1263.13 514.662C1266.95 523.494 1264.81 533.062 1256.82 542.828C1248.84 552.567 1234.95 562.629 1214.93 572.659C1194.88 582.698 1168.61 592.739 1135.8 602.402L1135.24 600.483ZM832.481 498.295C738.303 515.396 672.293 545.002 627.177 583.333C582.079 621.65 557.793 668.742 547.152 720.955C536.507 773.192 539.517 830.565 549.048 889.404C558.579 948.242 574.619 1008.48 589.993 1066.44C605.361 1124.38 620.068 1180.07 626.891 1229.72C633.712 1279.35 632.681 1323.13 616.417 1357.17C600.115 1391.28 568.599 1415.45 514.892 1426.02C461.233 1436.58 385.344 1433.61 280.098 1413.45L280.474 1411.48C385.628 1431.62 461.219 1434.55 514.506 1424.06C567.745 1413.58 598.643 1389.72 614.612 1356.3C630.618 1322.8 631.715 1279.51 624.91 1229.99C618.107 1180.48 603.436 1124.92 588.06 1066.95C572.691 1009.01 556.624 948.677 547.074 889.724C537.524 830.771 534.479 773.128 545.193 720.555C555.911 667.96 580.401 620.451 625.883 581.809C671.348 543.18 737.723 513.468 832.124 496.327L832.481 498.295ZM280.098 1413.45C106.947 1380.29 11.0452 1322.12 -42.4939 1252.41C-96.0245 1182.7 -107.067 1101.62 -110.887 1022.98C-112.8 983.597 -112.899 944.949 -115.585 908.45C-118.268 871.988 -123.525 837.858 -135.702 807.697C-147.869 777.558 -166.951 751.368 -197.322 730.78C-227.708 710.181 -269.45 695.151 -326.991 687.439L-326.725 685.457C-268.983 693.196 -226.918 708.3 -196.199 729.124C-165.466 749.959 -146.147 776.482 -133.847 806.949C-121.556 837.394 -116.279 871.765 -113.59 908.303C-110.904 944.804 -110.794 983.656 -108.889 1022.88C-105.073 1101.45 -94.046 1182 -40.9076 1251.19C12.2225 1320.37 107.59 1378.37 280.474 1411.48L280.098 1413.45ZM-326.991 687.439C-349.701 684.395 -366.362 679.841 -377.715 673.885C-389.084 667.92 -395.249 660.479 -396.677 651.653C-398.096 642.884 -394.789 633.025 -387.876 622.308C-380.951 611.573 -370.317 599.837 -356.831 587.259C-329.854 562.101 -291.3 533.43 -247.699 502.491C-204.071 471.534 -155.4 438.315 -108.078 403.999C-60.7662 369.69 -14.8622 334.326 23.1742 299.128C61.2239 263.917 91.3296 228.937 107.123 195.408C122.896 161.921 124.358 129.982 105.307 100.635C86.1989 71.2024 46.3435 44.1908 -21.0051 20.9453L-20.3525 19.0547C47.137 42.3489 87.5104 69.5497 106.984 99.5464C126.514 129.63 124.911 162.337 108.932 196.26C92.974 230.139 62.6431 265.329 24.5326 300.596C-13.5913 335.874 -59.5709 371.293 -106.904 405.618C-154.228 439.935 -202.963 473.2 -246.542 504.122C-290.147 535.063 -328.599 563.666 -355.467 588.722C-368.901 601.251 -379.399 612.857 -386.195 623.392C-393.002 633.945 -396.005 643.283 -394.702 651.333C-393.409 659.326 -387.821 666.325 -376.786 672.114C-365.736 677.911 -349.342 682.425 -326.725 685.457L-326.991 687.439Z" data-figma-gradient-fill="{&#34;type&#34;:&#34;GRADIENT_DIAMOND&#34;,&#34;stops&#34;:[{&#34;color&#34;:{&#34;r&#34;:1.0,&#34;g&#34;:1.0,&#34;b&#34;:1.0,&#34;a&#34;:1.0},&#34;position&#34;:0.0},{&#34;color&#34;:{&#34;r&#34;:0.17647059261798859,&#34;g&#34;:0.77647060155868530,&#34;b&#34;:0.92156863212585449,&#34;a&#34;:1.0},&#34;position&#34;:0.64847844839096069}],&#34;stopsVar&#34;:[{&#34;color&#34;:{&#34;r&#34;:1.0,&#34;g&#34;:1.0,&#34;b&#34;:1.0,&#34;a&#34;:1.0},&#34;position&#34;:0.0},{&#34;color&#34;:{&#34;r&#34;:0.17647059261798859,&#34;g&#34;:0.77647060155868530,&#34;b&#34;:0.92156863212585449,&#34;a&#34;:1.0},&#34;position&#34;:0.64847844839096069}],&#34;transform&#34;:{&#34;m00&#34;:2099.302246093750,&#34;m01&#34;:84.801544189453125,&#34;m02&#34;:-1199.8913574218750,&#34;m10&#34;:29.785346984863281,&#34;m11&#34;:-5971.472656250,&#34;m12&#34;:3492.7272949218750},&#34;opacity&#34;:0.23000000417232513,&#34;blendMode&#34;:&#34;NORMAL&#34;,&#34;visible&#34;:true}" mask="url(#path-1-outside-1_17_1019)"/>
</g>
<defs>
<filter id="filter0_d_17_1019" x="-406" y="0.054718" width="2402.9" height="1468.95" filterUnits="userSpaceOnUse" color-interpolation-filters="sRGB">
<feFlood flood-opacity="0" result="BackgroundImageFix"/>
<feColorMatrix in="SourceAlpha" type="matrix" values="0 0 0 0 0 0 0 0 0 0 0 0 0 0 0 0 0 0 127 0" result="hardAlpha"/>
<feOffset dx="19" dy="9"/>
<feGaussianBlur stdDeviation="14"/>
<feComposite in2="hardAlpha" operator="out"/>
<feColorMatrix type="matrix" values="0 0 0 0 0.167015 0 0 0 0 0.0581983 0 0 0 0 0.366126 0 0 0 0.8 0"/>
<feBlend mode="normal" in2="BackgroundImageFix" result="effect1_dropShadow_17_1019"/>
<feBlend mode="normal" in="SourceGraphic" in2="effect1_dropShadow_17_1019" result="shape"/>
</filter>
<clipPath id="paint0_diamond_17_1019_clip_path"><path d="M1596.72 739.757L1595.79 740.128L1596.72 739.757ZM1135.52 601.443L1135.24 600.483L1135.52 601.443ZM832.302 497.311L832.124 496.327L832.302 497.311ZM280.286 1412.47L280.474 1411.48L280.286 1412.47ZM-326.858 686.448L-326.725 685.457L-326.858 686.448ZM1948.1 942.296C1944.46 934.84 1934.2 920.903 1919.17 902.794C1904.17 884.719 1884.49 862.573 1862.12 838.732C1817.38 791.048 1761.88 736.616 1711.46 694.447C1686.24 673.361 1662.32 655.361 1641.66 642.805C1631.33 636.526 1621.83 631.622 1613.42 628.372C1604.99 625.118 1597.71 623.551 1591.78 623.874C1585.89 624.196 1581.38 626.376 1578.32 630.627C1575.23 634.924 1573.53 641.472 1573.61 650.714C1573.78 669.204 1581.1 697.942 1597.64 739.386L1595.79 740.128C1579.23 698.65 1571.79 669.618 1571.61 650.732C1571.53 641.286 1573.25 634.246 1576.7 629.459C1580.18 624.625 1585.3 622.225 1591.67 621.877C1598 621.532 1605.58 623.205 1614.14 626.506C1622.7 629.813 1632.31 634.78 1642.7 641.095C1663.48 653.726 1687.49 671.797 1712.74 692.913C1763.25 735.149 1818.8 789.642 1863.58 837.364C1885.97 861.226 1905.67 883.403 1920.71 901.516C1935.71 919.595 1946.14 933.712 1949.9 941.419L1948.1 942.296ZM1597.64 739.386C1609.97 770.253 1606.82 793.06 1592.12 808.903C1577.51 824.642 1551.72 833.245 1519.35 836.334C1454.57 842.52 1362.58 826.694 1278 800.176C1235.7 786.912 1195.21 770.963 1160.87 753.728C1126.55 736.502 1098.3 717.959 1080.53 699.486C1062.78 681.044 1055.23 662.379 1063.1 645.107C1067.01 636.526 1074.67 628.43 1086.51 620.961C1098.36 613.49 1114.43 606.612 1135.24 600.483L1135.8 602.402C1115.1 608.499 1099.22 615.313 1087.58 622.652C1075.94 629.993 1068.61 637.824 1064.92 645.936C1057.57 662.05 1064.39 679.835 1081.97 698.1C1099.51 716.334 1127.53 734.755 1161.77 751.941C1196 769.118 1236.38 785.029 1278.6 798.267C1363.07 824.752 1454.76 840.492 1519.16 834.344C1551.39 831.267 1576.56 822.728 1590.65 807.542C1604.65 792.46 1607.94 770.56 1595.79 740.128L1597.64 739.386ZM1135.24 600.483C1167.97 590.843 1194.12 580.841 1214.03 570.871C1233.95 560.893 1247.55 550.984 1255.27 541.561C1262.96 532.166 1264.72 523.385 1261.3 515.454C1257.83 507.42 1248.93 499.967 1234.59 493.595C1205.96 480.867 1156.38 472.778 1088.41 472.516C1020.48 472.254 934.277 479.81 832.481 498.295L832.124 496.327C934.015 477.825 1020.34 470.253 1088.42 470.516C1156.46 470.779 1206.38 478.868 1235.41 491.768C1249.9 498.21 1259.37 505.933 1263.13 514.662C1266.95 523.494 1264.81 533.062 1256.82 542.828C1248.84 552.567 1234.95 562.629 1214.93 572.659C1194.88 582.698 1168.61 592.739 1135.8 602.402L1135.24 600.483ZM832.481 498.295C738.303 515.396 672.293 545.002 627.177 583.333C582.079 621.65 557.793 668.742 547.152 720.955C536.507 773.192 539.517 830.565 549.048 889.404C558.579 948.242 574.619 1008.48 589.993 1066.44C605.361 1124.38 620.068 1180.07 626.891 1229.72C633.712 1279.35 632.681 1323.13 616.417 1357.17C600.115 1391.28 568.599 1415.45 514.892 1426.02C461.233 1436.58 385.344 1433.61 280.098 1413.45L280.474 1411.48C385.628 1431.62 461.219 1434.55 514.506 1424.06C567.745 1413.58 598.643 1389.72 614.612 1356.3C630.618 1322.8 631.715 1279.51 624.91 1229.99C618.107 1180.48 603.436 1124.92 588.06 1066.95C572.691 1009.01 556.624 948.677 547.074 889.724C537.524 830.771 534.479 773.128 545.193 720.555C555.911 667.96 580.401 620.451 625.883 581.809C671.348 543.18 737.723 513.468 832.124 496.327L832.481 498.295ZM280.098 1413.45C106.947 1380.29 11.0452 1322.12 -42.4939 1252.41C-96.0245 1182.7 -107.067 1101.62 -110.887 1022.98C-112.8 983.597 -112.899 944.949 -115.585 908.45C-118.268 871.988 -123.525 837.858 -135.702 807.697C-147.869 777.558 -166.951 751.368 -197.322 730.78C-227.708 710.181 -269.45 695.151 -326.991 687.439L-326.725 685.457C-268.983 693.196 -226.918 708.3 -196.199 729.124C-165.466 749.959 -146.147 776.482 -133.847 806.949C-121.556 837.394 -116.279 871.765 -113.59 908.303C-110.904 944.804 -110.794 983.656 -108.889 1022.88C-105.073 1101.45 -94.046 1182 -40.9076 1251.19C12.2225 1320.37 107.59 1378.37 280.474 1411.48L280.098 1413.45ZM-326.991 687.439C-349.701 684.395 -366.362 679.841 -377.715 673.885C-389.084 667.92 -395.249 660.479 -396.677 651.653C-398.096 642.884 -394.789 633.025 -387.876 622.308C-380.951 611.573 -370.317 599.837 -356.831 587.259C-329.854 562.101 -291.3 533.43 -247.699 502.491C-204.071 471.534 -155.4 438.315 -108.078 403.999C-60.7662 369.69 -14.8622 334.326 23.1742 299.128C61.2239 263.917 91.3296 228.937 107.123 195.408C122.896 161.921 124.358 129.982 105.307 100.635C86.1989 71.2024 46.3435 44.1908 -21.0051 20.9453L-20.3525 19.0547C47.137 42.3489 87.5104 69.5497 106.984 99.5464C126.514 129.63 124.911 162.337 108.932 196.26C92.974 230.139 62.6431 265.329 24.5326 300.596C-13.5913 335.874 -59.5709 371.293 -106.904 405.618C-154.228 439.935 -202.963 473.2 -246.542 504.122C-290.147 535.063 -328.599 563.666 -355.467 588.722C-368.901 601.251 -379.399 612.857 -386.195 623.392C-393.002 633.945 -396.005 643.283 -394.702 651.333C-393.409 659.326 -387.821 666.325 -376.786 672.114C-365.736 677.911 -349.342 682.425 -326.725 685.457L-326.991 687.439Z" mask="url(#path-1-outside-1_17_1019)"/></clipPath><linearGradient id="paint0_diamond_17_1019" x1="0" y1="0" x2="500" y2="500" gradientUnits="userSpaceOnUse">
<stop stop-color="white"/>
<stop offset="0.648478" stop-color="#2DC6EB"/>
</linearGradient>
</defs>
</svg>
