<svg width="100%" height="100%" viewBox="0 0 431 382" fill="none" xmlns="http://www.w3.org/2000/svg">
<g style="mix-blend-mode:multiply" opacity="0.2">
<path d="M271.925 145.17V7.56021L249.245 6.9302L212.525 18.6302L173.285 1.0802L134.945 43.7402L96.9647 111.33L58.9847 144.54L0.844727 230.94V305.37C0.844727 307.71 1.56473 310.14 3.18473 310.14C3.81473 310.14 4.53472 309.96 5.25472 309.51L264.365 159.93C268.505 157.5 271.925 150.75 271.925 145.17Z" fill="#231F20"/>
</g>
<g style="mix-blend-mode:multiply" opacity="0.6">
<path d="M8.76405 239.04L8.67407 235.89L64.9241 151.02L102.814 117.9L140.884 50.4001L173.824 13.5901L175.714 15.3001L142.864 51.9301L104.794 119.61L104.524 119.88L66.7241 152.91L8.76405 239.04Z" fill="#B086CC"/>
</g>
<path d="M264.724 183.42C264.544 183.42 264.394 183.39 264.274 183.33L262.744 182.43C262.294 182.16 262.204 181.62 262.384 181.17C262.654 180.72 263.194 180.63 263.644 180.9L265.174 181.8C265.624 182.07 265.804 182.61 265.534 183.06C265.354 183.33 265.084 183.42 264.724 183.42Z" fill="white" fill-opacity="0.3"/>
<path d="M280.743 192.96C280.563 192.96 280.413 192.9 280.293 192.78L277.053 190.89C276.603 190.62 276.513 190.08 276.783 189.72C276.963 189.27 277.503 189.09 277.953 189.36L281.193 191.25C281.553 191.52 281.733 192.06 281.463 192.51C281.283 192.78 281.013 192.96 280.743 192.96ZM272.733 188.19C272.553 188.19 272.403 188.16 272.283 188.1L269.043 186.21C268.683 185.94 268.503 185.4 268.773 184.95C269.043 184.5 269.583 184.41 269.943 184.59L273.183 186.48C273.633 186.75 273.723 187.29 273.453 187.74C273.363 188.01 273.003 188.19 272.733 188.19Z" fill="white" fill-opacity="0.3"/>
<path d="M287.043 196.65C286.863 196.65 286.713 196.62 286.593 196.56L285.063 195.66C284.613 195.39 284.433 194.85 284.703 194.4C284.973 193.95 285.513 193.86 285.963 194.13L287.493 195.03C287.943 195.3 288.123 195.84 287.853 196.29C287.673 196.56 287.313 196.65 287.043 196.65Z" fill="white" fill-opacity="0.3"/>
<path d="M226.114 205.65C225.934 205.65 225.784 205.62 225.664 205.56L224.134 204.57C223.684 204.39 223.504 203.76 223.774 203.4C224.044 202.95 224.584 202.77 225.034 203.04L226.564 203.94C227.014 204.21 227.194 204.75 226.924 205.2C226.744 205.47 226.474 205.65 226.114 205.65Z" fill="white" fill-opacity="0.3"/>
<path d="M242.132 215.1C241.952 215.1 241.772 215.07 241.592 215.01L238.442 213.12C237.992 212.85 237.902 212.31 238.082 211.86C238.352 211.41 238.892 211.32 239.342 211.59L242.582 213.48C242.942 213.66 243.122 214.29 242.852 214.65C242.672 214.92 242.402 215.1 242.132 215.1ZM234.122 210.42C233.942 210.42 233.792 210.36 233.672 210.24L230.432 208.35C229.982 208.08 229.892 207.54 230.162 207.09C230.432 206.73 230.972 206.55 231.332 206.82L234.572 208.71C235.022 208.98 235.112 209.52 234.842 209.97C234.752 210.24 234.392 210.42 234.122 210.42Z" fill="white" fill-opacity="0.3"/>
<path d="M248.434 218.88C248.254 218.88 248.104 218.85 247.984 218.79L246.454 217.8C246.004 217.62 245.824 216.99 246.094 216.63C246.364 216.18 246.904 216 247.354 216.27L248.884 217.17C249.334 217.44 249.424 217.98 249.244 218.43C249.064 218.7 248.704 218.88 248.434 218.88Z" fill="white" fill-opacity="0.3"/>
<path d="M187.505 227.79C187.325 227.79 187.175 227.76 187.055 227.7L185.525 226.8C185.075 226.53 184.895 225.99 185.165 225.54C185.435 225.09 185.975 225 186.425 225.27L187.955 226.17C188.405 226.44 188.495 226.98 188.315 227.34C188.135 227.7 187.775 227.79 187.505 227.79Z" fill="white" fill-opacity="0.3"/>
<path d="M203.523 237.33C203.343 237.33 203.163 237.27 202.983 237.15L199.833 235.26C199.383 234.99 199.293 234.45 199.473 234.09C199.743 233.64 200.283 233.46 200.733 233.73L203.973 235.62C204.333 235.89 204.513 236.43 204.243 236.88C204.063 237.15 203.793 237.33 203.523 237.33ZM195.513 232.56C195.333 232.56 195.183 232.53 195.063 232.47L191.823 230.58C191.373 230.31 191.283 229.77 191.553 229.32C191.823 228.87 192.363 228.78 192.723 228.96L195.963 230.85C196.413 231.12 196.503 231.66 196.233 232.11C196.143 232.38 195.783 232.56 195.513 232.56Z" fill="white" fill-opacity="0.3"/>
<path d="M209.822 241.02C209.642 241.02 209.492 240.99 209.372 240.93L207.842 240.03C207.392 239.76 207.212 239.22 207.482 238.77C207.752 238.32 208.292 238.23 208.742 238.5L210.272 239.4C210.722 239.67 210.812 240.21 210.632 240.66C210.452 240.93 210.092 241.02 209.822 241.02Z" fill="white" fill-opacity="0.3"/>
<path d="M148.893 250.02C148.713 250.02 148.563 249.96 148.443 249.84L146.913 248.94C146.463 248.67 146.283 248.13 146.553 247.77C146.823 247.32 147.363 247.14 147.813 247.41L149.343 248.31C149.793 248.58 149.883 249.12 149.703 249.57C149.523 249.84 149.163 250.02 148.893 250.02Z" fill="white" fill-opacity="0.3"/>
<path d="M164.915 259.47C164.735 259.47 164.555 259.44 164.375 259.38L161.225 257.49C160.775 257.22 160.685 256.68 160.865 256.23C161.135 255.78 161.675 255.69 162.125 255.96L165.365 257.85C165.725 258.03 165.905 258.57 165.635 259.02C165.455 259.29 165.185 259.47 164.915 259.47ZM156.905 254.79C156.725 254.79 156.575 254.73 156.455 254.61L153.215 252.72C152.765 252.45 152.675 251.91 152.945 251.46C153.215 251.1 153.755 250.92 154.115 251.19L157.355 253.08C157.805 253.35 157.895 253.89 157.625 254.34C157.535 254.61 157.175 254.79 156.905 254.79Z" fill="white" fill-opacity="0.3"/>
<path d="M171.213 263.25C171.033 263.25 170.883 263.22 170.763 263.16L169.233 262.17C168.783 261.99 168.603 261.36 168.873 261C169.143 260.55 169.683 260.37 170.133 260.64L171.663 261.54C172.113 261.81 172.203 262.35 172.023 262.8C171.843 263.07 171.483 263.25 171.213 263.25Z" fill="white" fill-opacity="0.3"/>
<path d="M110.284 272.16C110.104 272.16 109.954 272.13 109.834 272.07L108.304 271.17C107.854 270.9 107.674 270.36 107.944 269.91C108.214 269.46 108.754 269.37 109.204 269.64L110.734 270.54C111.184 270.81 111.274 271.35 111.094 271.71C110.914 272.07 110.554 272.16 110.284 272.16Z" fill="white" fill-opacity="0.3"/>
<path d="M126.213 281.7C126.093 281.7 125.943 281.64 125.763 281.52L122.613 279.63C122.163 279.36 122.073 278.82 122.253 278.37C122.523 278.01 123.063 277.83 123.513 278.1L126.753 279.99C127.113 280.26 127.293 280.8 127.023 281.25C126.843 281.52 126.573 281.7 126.213 281.7ZM118.293 276.93C118.113 276.93 117.963 276.9 117.843 276.84L114.603 274.95C114.153 274.68 114.063 274.14 114.333 273.69C114.513 273.24 115.143 273.15 115.503 273.33L118.743 275.22C119.193 275.49 119.283 276.03 119.013 276.48C118.833 276.75 118.563 276.93 118.293 276.93Z" fill="white" fill-opacity="0.3"/>
<path d="M132.605 285.39C132.425 285.39 132.275 285.36 132.155 285.3L130.625 284.4C130.175 284.13 129.995 283.59 130.265 283.14C130.535 282.69 131.075 282.6 131.525 282.87L133.055 283.77C133.505 284.04 133.595 284.58 133.415 285.03C133.235 285.3 132.875 285.39 132.605 285.39Z" fill="white" fill-opacity="0.3"/>
<path d="M71.6722 294.39C71.4922 294.39 71.3422 294.33 71.2222 294.21L69.6922 293.31C69.2422 293.04 69.0622 292.5 69.3322 292.14C69.6022 291.69 70.1422 291.51 70.5922 291.78L72.1222 292.68C72.5722 292.95 72.6622 293.49 72.4822 293.94C72.3022 294.21 71.9422 294.39 71.6722 294.39Z" fill="white" fill-opacity="0.3"/>
<path d="M87.6039 303.84C87.4839 303.84 87.3339 303.81 87.1539 303.75L84.0039 301.86C83.5539 301.59 83.4639 301.05 83.6439 300.6C83.9139 300.15 84.4539 300.06 84.9039 300.24L88.1439 302.22C88.5039 302.4 88.6839 302.94 88.4139 303.39C88.2339 303.66 87.9639 303.84 87.6039 303.84ZM79.6839 299.07C79.5039 299.13 79.3539 299.1 79.2339 298.98L75.9939 297.09C75.5439 296.82 75.4539 296.28 75.7239 295.83C75.9039 295.47 76.5339 295.29 76.8939 295.56L80.1339 297.45C80.5839 297.72 80.6739 298.26 80.4039 298.71C80.2239 298.98 79.9539 299.07 79.6839 299.07Z" fill="white" fill-opacity="0.3"/>
<path d="M93.9927 307.62C93.8127 307.62 93.6627 307.56 93.5427 307.44L92.0127 306.54C91.5627 306.27 91.3827 305.73 91.6527 305.37C91.9227 304.92 92.4627 304.74 92.9127 305.01L94.4427 305.91C94.8927 306.18 94.9827 306.72 94.8027 307.17C94.6227 307.44 94.2627 307.62 93.9927 307.62Z" fill="white" fill-opacity="0.3"/>
<path d="M33.0635 316.53C32.8835 316.53 32.7335 316.5 32.6135 316.44L31.0835 315.54C30.6335 315.27 30.4535 314.73 30.7235 314.28C30.9935 313.83 31.5335 313.74 31.9835 314.01L33.5135 314.91C33.9635 315.18 34.0535 315.72 33.8735 316.08C33.6935 316.44 33.3335 316.53 33.0635 316.53Z" fill="white" fill-opacity="0.3"/>
<path d="M48.9918 326.07C48.8718 326.07 48.7218 326.01 48.5418 325.89L45.3918 324C44.9418 323.73 44.8518 323.19 45.0318 322.74C45.3018 322.38 45.8418 322.2 46.2918 322.47L49.5318 324.36C49.8918 324.63 50.0718 325.17 49.8018 325.62C49.6218 325.89 49.3518 326.07 48.9918 326.07ZM41.0719 321.3C40.8919 321.3 40.7419 321.27 40.6219 321.21L37.3818 319.32C36.9318 319.05 36.8418 318.51 37.1118 318.06C37.2918 317.61 37.9218 317.43 38.2818 317.7L41.5219 319.59C41.9719 319.86 42.0618 320.4 41.7918 320.85C41.6118 321.12 41.3419 321.3 41.0719 321.3Z" fill="white" fill-opacity="0.3"/>
<path d="M55.3843 329.76C55.2043 329.76 55.0543 329.73 54.9343 329.67L53.4043 328.77C52.9543 328.5 52.7743 327.96 53.0443 327.51C53.3143 327.06 53.8543 326.97 54.3043 327.24L55.8343 328.14C56.2843 328.41 56.3743 328.95 56.1943 329.31C56.0143 329.67 55.6543 329.76 55.3843 329.76Z" fill="white" fill-opacity="0.3"/>
<path fill-rule="evenodd" clip-rule="evenodd" d="M292.981 201.24C296.461 199.26 299.641 199.08 302.521 200.7C302.941 201 303.271 201.24 303.511 201.42L302.341 202.14C302.101 201.9 301.801 201.66 301.441 201.42C300.481 200.88 299.491 200.61 298.471 200.61C297.451 200.67 296.371 201 295.231 201.6L295.321 201.69C295.801 201.57 296.311 201.57 296.851 201.69C297.391 201.75 297.901 201.93 298.381 202.23C299.161 202.71 299.551 203.22 299.551 203.76C299.491 204.3 299.041 204.81 298.201 205.29C297.241 205.83 296.251 206.1 295.231 206.1C294.151 206.16 293.161 205.92 292.261 205.38C291.601 205.02 291.181 204.6 291.001 204.12C290.821 203.7 290.911 203.25 291.271 202.77C291.571 202.23 292.141 201.72 292.981 201.24ZM293.431 204.66C293.911 204.96 294.451 205.08 295.051 205.02C295.591 205.02 296.161 204.84 296.761 204.48C297.301 204.18 297.571 203.88 297.571 203.58C297.631 203.28 297.421 202.98 296.941 202.68C296.581 202.5 296.221 202.38 295.861 202.32C295.441 202.26 295.051 202.23 294.691 202.23C294.331 202.29 294.031 202.38 293.791 202.5C293.191 202.86 292.861 203.25 292.801 203.67C292.681 204.03 292.891 204.36 293.431 204.66Z" fill="white" fill-opacity="0.2"/>
<path fill-rule="evenodd" clip-rule="evenodd" d="M307.201 208.71C305.641 209.61 304.231 210.12 302.971 210.24C301.711 210.42 300.571 210.21 299.551 209.61C298.591 209.01 298.231 208.35 298.471 207.63C298.711 206.85 299.581 206.04 301.081 205.2C302.641 204.3 304.051 203.79 305.311 203.67C306.571 203.49 307.711 203.7 308.731 204.3C309.751 204.9 310.111 205.56 309.811 206.28C309.571 207.06 308.701 207.87 307.201 208.71ZM302.521 206.01C301.321 206.73 300.601 207.3 300.361 207.72C300.061 208.2 300.181 208.59 300.721 208.89C301.321 209.25 302.011 209.34 302.791 209.16C303.571 208.98 304.561 208.56 305.761 207.9C306.961 207.18 307.681 206.61 307.921 206.19C308.221 205.71 308.101 205.32 307.561 205.02C306.961 204.66 306.301 204.57 305.581 204.75C304.801 204.93 303.781 205.35 302.521 206.01Z" fill="white" fill-opacity="0.2"/>
<path d="M259.323 224.19C260.223 224.73 260.703 225.3 260.763 225.9C260.763 226.44 260.373 226.95 259.593 227.43C258.633 227.97 257.583 228.24 256.443 228.24C255.303 228.18 254.193 227.85 253.113 227.25C252.093 226.65 251.463 226.08 251.223 225.54L252.483 224.82C252.663 225.12 252.903 225.42 253.203 225.72C253.563 226.02 253.923 226.29 254.283 226.53C254.943 226.89 255.573 227.1 256.173 227.16C256.773 227.16 257.373 227.01 257.973 226.71C258.993 226.05 258.843 225.33 257.523 224.55C257.343 224.43 257.073 224.31 256.713 224.19C256.413 224.07 256.113 223.95 255.813 223.83L255.633 223.29L260.313 220.95L264.903 223.65L263.643 224.37L260.313 222.39L257.883 223.56C258.063 223.62 258.273 223.71 258.513 223.83C258.753 223.95 259.023 224.07 259.323 224.19Z" fill="white" fill-opacity="0.2"/>
<path fill-rule="evenodd" clip-rule="evenodd" d="M268.68 230.94C267.12 231.84 265.71 232.35 264.45 232.47C263.25 232.65 262.11 232.44 261.03 231.84C260.07 231.24 259.71 230.58 259.95 229.86C260.19 229.08 261.06 228.27 262.56 227.43C264.18 226.53 265.59 226.02 266.79 225.9C268.05 225.72 269.19 225.93 270.21 226.53C271.23 227.13 271.59 227.79 271.29 228.51C271.05 229.29 270.18 230.1 268.68 230.94ZM264.09 228.24C262.83 228.96 262.08 229.53 261.84 229.95C261.54 230.43 261.69 230.82 262.29 231.12C262.83 231.42 263.49 231.51 264.27 231.39C265.05 231.21 266.04 230.79 267.24 230.13C268.44 229.41 269.16 228.84 269.4 228.42C269.7 227.94 269.58 227.55 269.04 227.25C268.5 226.89 267.84 226.8 267.06 226.98C266.28 227.16 265.29 227.58 264.09 228.24Z" fill="white" fill-opacity="0.2"/>
<path fill-rule="evenodd" clip-rule="evenodd" d="M220.531 250.47L219.272 249.75L217.381 250.92L215.942 250.11L217.922 248.94L213.781 246.6L214.952 245.97L224.852 244.98L226.292 245.79L220.531 249.12L221.702 249.84L220.531 250.47ZM219.092 248.22L221.342 246.96C222.122 246.48 222.812 246.12 223.412 245.88L223.322 245.79C222.962 245.91 222.452 246 221.792 246.06L216.392 246.6L219.092 248.22Z" fill="white" fill-opacity="0.2"/>
<path fill-rule="evenodd" clip-rule="evenodd" d="M230.163 253.17C228.663 254.07 227.283 254.58 226.023 254.7C224.763 254.88 223.623 254.67 222.603 254.07C221.583 253.47 221.193 252.81 221.433 252.09C221.733 251.31 222.633 250.5 224.133 249.66C225.693 248.76 227.103 248.22 228.363 248.04C229.563 247.92 230.673 248.16 231.693 248.76C232.713 249.36 233.103 250.02 232.863 250.74C232.563 251.52 231.663 252.33 230.163 253.17ZM225.573 250.47C224.373 251.19 223.623 251.76 223.323 252.18C223.083 252.66 223.233 253.05 223.773 253.35C224.313 253.65 224.973 253.74 225.753 253.62C226.533 253.44 227.523 253.02 228.723 252.36C229.923 251.64 230.673 251.07 230.973 250.65C231.213 250.17 231.063 249.78 230.523 249.48C229.983 249.12 229.323 249.03 228.543 249.21C227.763 249.39 226.773 249.81 225.573 250.47Z" fill="white" fill-opacity="0.2"/>
<path d="M186.242 269.46C185.702 269.82 185.072 270 184.352 270C183.692 270.06 182.972 269.94 182.192 269.64C182.792 270.12 183.092 270.57 183.092 270.99C183.092 271.41 182.822 271.8 182.282 272.16C181.382 272.64 180.392 272.82 179.312 272.7C178.292 272.64 177.212 272.28 176.072 271.62C175.052 271.08 174.362 270.51 174.002 269.91L175.262 269.19C175.502 269.49 175.772 269.79 176.072 270.09C176.372 270.45 176.732 270.72 177.152 270.9C177.872 271.32 178.532 271.56 179.132 271.62C179.672 271.68 180.212 271.53 180.752 271.17C181.232 270.93 181.412 270.63 181.292 270.27C181.112 269.91 180.632 269.49 179.852 269.01L179.042 268.56L180.212 267.93L181.022 268.38C182.402 269.22 183.602 269.34 184.622 268.74C184.982 268.56 185.132 268.32 185.072 268.02C185.072 267.78 184.832 267.51 184.352 267.21C183.992 267.03 183.602 266.88 183.182 266.76C182.762 266.64 182.222 266.52 181.562 266.4L181.832 265.41C183.272 265.59 184.532 265.98 185.612 266.58C186.512 267.12 187.022 267.63 187.142 268.11C187.262 268.65 186.962 269.1 186.242 269.46Z" fill="white" fill-opacity="0.2"/>
<path fill-rule="evenodd" clip-rule="evenodd" d="M191.732 275.4C190.172 276.3 188.762 276.81 187.502 276.93C186.242 277.11 185.102 276.9 184.082 276.3C183.062 275.7 182.702 275.04 183.002 274.32C183.242 273.54 184.112 272.73 185.612 271.89C187.172 270.99 188.582 270.45 189.842 270.27C191.102 270.15 192.242 270.39 193.262 270.99C194.222 271.59 194.582 272.25 194.342 272.97C194.102 273.69 193.232 274.5 191.732 275.4ZM187.052 272.7C185.852 273.42 185.102 273.99 184.802 274.41C184.562 274.89 184.712 275.28 185.252 275.58C185.792 275.88 186.452 275.97 187.232 275.85C188.012 275.67 189.002 275.25 190.202 274.59C191.402 273.87 192.152 273.3 192.452 272.88C192.752 272.4 192.602 272.01 192.002 271.71C191.462 271.35 190.802 271.26 190.022 271.44C189.242 271.62 188.252 272.04 187.052 272.7Z" fill="white" fill-opacity="0.2"/>
<path d="M141.241 295.83L135.211 292.41L136.291 291.78H140.881C142.261 291.72 143.221 291.69 143.761 291.69C144.241 291.63 144.661 291.57 145.021 291.51C145.381 291.39 145.711 291.24 146.011 291.06C146.431 290.88 146.641 290.64 146.641 290.34C146.581 290.04 146.341 289.77 145.921 289.53C145.561 289.35 145.171 289.2 144.751 289.08C144.331 288.96 143.731 288.87 142.951 288.81L143.131 287.82C144.031 287.88 144.811 288 145.471 288.18C146.131 288.36 146.731 288.6 147.271 288.9C148.051 289.38 148.501 289.89 148.621 290.43C148.681 290.97 148.351 291.45 147.631 291.87C147.211 292.11 146.731 292.29 146.191 292.41C145.711 292.53 145.141 292.62 144.481 292.68C143.761 292.68 142.741 292.68 141.421 292.68H138.361H138.271L142.501 295.11L141.241 295.83Z" fill="white" fill-opacity="0.2"/>
<path fill-rule="evenodd" clip-rule="evenodd" d="M153.213 297.63C151.653 298.53 150.243 299.04 148.983 299.16C147.723 299.34 146.583 299.13 145.563 298.53C144.603 297.93 144.243 297.27 144.483 296.55C144.723 295.77 145.593 294.96 147.093 294.12C148.653 293.22 150.063 292.68 151.323 292.5C152.583 292.38 153.723 292.62 154.743 293.22C155.763 293.76 156.123 294.42 155.823 295.2C155.583 295.92 154.713 296.73 153.213 297.63ZM148.533 294.93C147.333 295.65 146.613 296.22 146.373 296.64C146.073 297.12 146.193 297.51 146.733 297.81C147.333 298.11 148.023 298.2 148.803 298.08C149.583 297.9 150.573 297.48 151.773 296.82C152.973 296.1 153.693 295.5 153.933 295.02C154.233 294.6 154.113 294.24 153.573 293.94C152.973 293.58 152.313 293.49 151.593 293.67C150.813 293.85 149.793 294.27 148.533 294.93Z" fill="white" fill-opacity="0.2"/>
<path d="M100.921 317.07L99.4814 316.17L105.241 312.84C105.901 312.48 106.471 312.18 106.951 311.94C106.711 311.94 106.471 311.94 106.231 311.94C105.991 311.94 105.151 311.91 103.711 311.85L103.981 310.86L108.661 311.22L109.831 311.85L100.921 317.07Z" fill="white" fill-opacity="0.2"/>
<path fill-rule="evenodd" clip-rule="evenodd" d="M114.692 319.86C113.132 320.76 111.722 321.27 110.462 321.39C109.262 321.57 108.122 321.36 107.042 320.76C106.082 320.16 105.722 319.5 105.962 318.78C106.262 318 107.132 317.19 108.572 316.35C110.192 315.45 111.602 314.91 112.802 314.73C114.062 314.61 115.202 314.85 116.222 315.45C117.242 315.99 117.632 316.65 117.392 317.43C117.092 318.15 116.192 318.96 114.692 319.86ZM110.102 317.16C108.842 317.88 108.092 318.45 107.852 318.87C107.552 319.35 107.702 319.74 108.302 320.04C108.842 320.34 109.502 320.43 110.282 320.31C111.062 320.13 112.052 319.68 113.252 318.96C114.452 318.3 115.172 317.73 115.412 317.25C115.712 316.83 115.592 316.47 115.052 316.17C114.512 315.81 113.852 315.72 113.072 315.9C112.292 316.02 111.302 316.44 110.102 317.16Z" fill="white" fill-opacity="0.2"/>
<path fill-rule="evenodd" clip-rule="evenodd" d="M76.1719 342.09C74.6719 342.99 73.2919 343.5 72.0319 343.62C70.7719 343.74 69.6319 343.53 68.6119 342.99C67.5919 342.39 67.2019 341.73 67.4419 341.01C67.7419 340.23 68.6419 339.42 70.1419 338.58C71.7019 337.68 73.1119 337.14 74.3719 336.96C75.5719 336.84 76.7119 337.08 77.7919 337.68C78.7519 338.22 79.1119 338.88 78.8719 339.66C78.5719 340.38 77.6719 341.19 76.1719 342.09ZM71.5819 339.39C70.3819 340.11 69.6319 340.68 69.3319 341.1C69.0919 341.58 69.2419 341.97 69.7819 342.27C70.3219 342.57 70.9819 342.66 71.7619 342.54C72.5419 342.36 73.5319 341.91 74.7319 341.19C75.9319 340.53 76.6819 339.96 76.9819 339.48C77.2219 339.06 77.0719 338.7 76.5319 338.4C75.9919 338.04 75.3319 337.95 74.5519 338.13C73.7719 338.25 72.7819 338.67 71.5819 339.39Z" fill="white" fill-opacity="0.2"/>
<path d="M280.383 153.54V16.02L257.613 15.3L220.893 27L181.653 9.44995L143.403 52.2L105.423 119.7L67.4432 152.91L9.30322 239.31V313.74C9.30322 316.17 10.0232 318.6 11.6432 318.6C12.1832 318.6 12.9032 318.33 13.7132 317.88L272.733 168.3C276.873 165.96 280.383 159.21 280.383 153.54Z" fill="url(#paint0_linear_17_1195)"/>
<path d="M10.0246 239.85L8.49463 238.77L66.8146 152.19L104.705 119.16L142.685 51.5702L181.475 8.37024L220.985 26.0102L257.525 14.4002H257.705L280.385 15.1202L280.295 16.9202L257.795 16.2902L220.895 27.9902L181.925 10.5302L144.125 52.6502L106.145 120.33L105.965 120.42L68.0746 153.54L10.0246 239.85Z" fill="url(#paint1_linear_17_1195)"/>
<path d="M105.245 261.54C104.705 261.54 104.345 261.18 104.345 260.64V257.04C104.345 256.5 104.705 256.14 105.245 256.14C105.695 256.14 106.145 256.5 106.145 257.04V260.64C106.145 261.18 105.695 261.54 105.245 261.54ZM105.245 252.54C104.705 252.54 104.345 252.18 104.345 251.64V248.04C104.345 247.5 104.705 247.14 105.245 247.14C105.695 247.14 106.145 247.5 106.145 248.04V251.64C106.145 252.18 105.695 252.54 105.245 252.54ZM105.245 243.54C104.705 243.54 104.345 243.18 104.345 242.64V239.04C104.345 238.5 104.705 238.14 105.245 238.14C105.695 238.14 106.145 238.5 106.145 239.04V242.64C106.145 243.18 105.695 243.54 105.245 243.54ZM105.245 234.54C104.705 234.54 104.345 234.18 104.345 233.64V230.04C104.345 229.5 104.705 229.14 105.245 229.14C105.695 229.14 106.145 229.5 106.145 230.04V233.64C106.145 234.18 105.695 234.54 105.245 234.54ZM105.245 225.54C104.705 225.54 104.345 225.18 104.345 224.64V221.04C104.345 220.5 104.705 220.14 105.245 220.14C105.695 220.14 106.145 220.5 106.145 221.04V224.64C106.145 225.18 105.695 225.54 105.245 225.54ZM105.245 216.54C104.705 216.54 104.345 216.18 104.345 215.64V212.04C104.345 211.5 104.705 211.14 105.245 211.14C105.695 211.14 106.145 211.5 106.145 212.04V215.64C106.145 216.18 105.695 216.54 105.245 216.54ZM105.245 207.54C104.705 207.54 104.345 207.18 104.345 206.64V203.04C104.345 202.5 104.705 202.14 105.245 202.14C105.695 202.14 106.145 202.5 106.145 203.04V206.64C106.145 207.18 105.695 207.54 105.245 207.54ZM105.245 198.54C104.705 198.54 104.345 198.18 104.345 197.64V194.04C104.345 193.5 104.705 193.14 105.245 193.14C105.695 193.14 106.145 193.5 106.145 194.04V197.64C106.145 198.18 105.695 198.54 105.245 198.54ZM105.245 189.54C104.705 189.54 104.345 189.18 104.345 188.64V185.04C104.345 184.5 104.705 184.14 105.245 184.14C105.695 184.14 106.145 184.5 106.145 185.04V188.64C106.145 189.18 105.695 189.54 105.245 189.54ZM105.245 180.54C104.705 180.54 104.345 180.18 104.345 179.64V176.04C104.345 175.5 104.705 175.14 105.245 175.14C105.695 175.14 106.145 175.5 106.145 176.04V179.64C106.145 180.18 105.695 180.54 105.245 180.54ZM105.245 171.54C104.705 171.54 104.345 171.18 104.345 170.64V167.04C104.345 166.5 104.705 166.14 105.245 166.14C105.695 166.14 106.145 166.5 106.145 167.04V170.64C106.145 171.18 105.695 171.54 105.245 171.54ZM105.245 162.54C104.705 162.54 104.345 162.18 104.345 161.64V158.04C104.345 157.5 104.705 157.14 105.245 157.14C105.695 157.14 106.145 157.5 106.145 158.04V161.64C106.145 162.18 105.695 162.54 105.245 162.54ZM105.245 153.54C104.705 153.54 104.345 153.18 104.345 152.64V149.04C104.345 148.5 104.705 148.14 105.245 148.14C105.695 148.14 106.145 148.5 106.145 149.04V152.64C106.145 153.18 105.695 153.54 105.245 153.54ZM105.245 144.54C104.705 144.54 104.345 144.18 104.345 143.64V140.04C104.345 139.5 104.705 139.14 105.245 139.14C105.695 139.14 106.145 139.5 106.145 140.04V143.64C106.145 144.18 105.695 144.54 105.245 144.54ZM105.245 135.54C104.705 135.54 104.345 135.18 104.345 134.64V131.04C104.345 130.5 104.705 130.14 105.245 130.14C105.695 130.14 106.145 130.5 106.145 131.04V134.64C106.145 135.18 105.695 135.54 105.245 135.54Z" fill="url(#paint2_linear_17_1195)"/>
<path d="M28.3873 305.91C27.9373 305.91 27.4873 305.55 27.4873 305.01V301.41C27.4873 300.96 27.9373 300.51 28.3873 300.51C28.9273 300.51 29.2873 300.96 29.2873 301.41V305.01C29.2873 305.55 28.9273 305.91 28.3873 305.91ZM28.3873 296.91C27.9373 296.91 27.4873 296.55 27.4873 296.01V292.41C27.4873 291.96 27.9373 291.51 28.3873 291.51C28.9273 291.51 29.2873 291.96 29.2873 292.41V296.01C29.2873 296.55 28.9273 296.91 28.3873 296.91ZM28.3873 287.91C27.9373 287.91 27.4873 287.55 27.4873 287.01V283.41C27.4873 282.96 27.9373 282.51 28.3873 282.51C28.9273 282.51 29.2873 282.96 29.2873 283.41V287.01C29.2873 287.55 28.9273 287.91 28.3873 287.91ZM28.3873 278.91C27.9373 278.91 27.4873 278.55 27.4873 278.01V274.41C27.4873 273.96 27.9373 273.51 28.3873 273.51C28.9273 273.51 29.2873 273.96 29.2873 274.41V278.01C29.2873 278.55 28.9273 278.91 28.3873 278.91ZM28.3873 269.91C27.9373 269.91 27.4873 269.55 27.4873 269.01V265.41C27.4873 264.96 27.9373 264.51 28.3873 264.51C28.9273 264.51 29.2873 264.96 29.2873 265.41V269.01C29.2873 269.55 28.9273 269.91 28.3873 269.91ZM28.3873 260.91C27.9373 260.91 27.4873 260.55 27.4873 260.01V256.41C27.4873 255.96 27.9373 255.51 28.3873 255.51C28.9273 255.51 29.2873 255.96 29.2873 256.41V260.01C29.2873 260.55 28.9273 260.91 28.3873 260.91ZM28.3873 251.91C27.9373 251.91 27.4873 251.55 27.4873 251.01V247.41C27.4873 246.96 27.9373 246.51 28.3873 246.51C28.9273 246.51 29.2873 246.96 29.2873 247.41V251.01C29.2873 251.55 28.9273 251.91 28.3873 251.91ZM28.3873 242.91C27.9373 242.91 27.4873 242.55 27.4873 242.01V238.41C27.4873 237.96 27.9373 237.51 28.3873 237.51C28.9273 237.51 29.2873 237.96 29.2873 238.41V242.01C29.2873 242.55 28.9273 242.91 28.3873 242.91ZM28.3873 233.91C27.9373 233.91 27.4873 233.55 27.4873 233.01V229.41C27.4873 228.96 27.9373 228.51 28.3873 228.51C28.9273 228.51 29.2873 228.96 29.2873 229.41V233.01C29.2873 233.55 28.9273 233.91 28.3873 233.91ZM28.3873 224.91C27.9373 224.91 27.4873 224.55 27.4873 224.01V220.41C27.4873 219.96 27.9373 219.51 28.3873 219.51C28.9273 219.51 29.2873 219.96 29.2873 220.41V224.01C29.2873 224.55 28.9273 224.91 28.3873 224.91Z" fill="url(#paint3_linear_17_1195)"/>
<path d="M66.7232 282.96C66.1832 282.96 65.8232 282.51 65.8232 282.06V278.46C65.8232 277.92 66.1832 277.56 66.7232 277.56C67.1732 277.56 67.6232 277.92 67.6232 278.46V282.06C67.6232 282.51 67.1732 282.96 66.7232 282.96ZM66.7232 273.96C66.1832 273.96 65.8232 273.51 65.8232 273.06V269.46C65.8232 268.92 66.1832 268.56 66.7232 268.56C67.1732 268.56 67.6232 268.92 67.6232 269.46V273.06C67.6232 273.51 67.1732 273.96 66.7232 273.96ZM66.7232 264.96C66.1832 264.96 65.8232 264.51 65.8232 264.06V260.46C65.8232 259.92 66.1832 259.56 66.7232 259.56C67.1732 259.56 67.6232 259.92 67.6232 260.46V264.06C67.6232 264.51 67.1732 264.96 66.7232 264.96ZM66.7232 255.96C66.1832 255.96 65.8232 255.51 65.8232 255.06V251.46C65.8232 250.92 66.1832 250.56 66.7232 250.56C67.1732 250.56 67.6232 250.92 67.6232 251.46V255.06C67.6232 255.51 67.1732 255.96 66.7232 255.96ZM66.7232 246.96C66.1832 246.96 65.8232 246.51 65.8232 246.06V242.46C65.8232 241.92 66.1832 241.56 66.7232 241.56C67.1732 241.56 67.6232 241.92 67.6232 242.46V246.06C67.6232 246.51 67.1732 246.96 66.7232 246.96ZM66.7232 237.96C66.1832 237.96 65.8232 237.51 65.8232 237.06V233.46C65.8232 232.92 66.1832 232.56 66.7232 232.56C67.1732 232.56 67.6232 232.92 67.6232 233.46V237.06C67.6232 237.51 67.1732 237.96 66.7232 237.96ZM66.7232 228.96C66.1832 228.96 65.8232 228.51 65.8232 228.06V224.46C65.8232 223.92 66.1832 223.56 66.7232 223.56C67.1732 223.56 67.6232 223.92 67.6232 224.46V228.06C67.6232 228.51 67.1732 228.96 66.7232 228.96ZM66.7232 219.96C66.1832 219.96 65.8232 219.51 65.8232 219.06V215.46C65.8232 214.92 66.1832 214.56 66.7232 214.56C67.1732 214.56 67.6232 214.92 67.6232 215.46V219.06C67.6232 219.51 67.1732 219.96 66.7232 219.96ZM66.7232 210.96C66.1832 210.96 65.8232 210.51 65.8232 210.06V206.46C65.8232 205.92 66.1832 205.56 66.7232 205.56C67.1732 205.56 67.6232 205.92 67.6232 206.46V210.06C67.6232 210.51 67.1732 210.96 66.7232 210.96ZM66.7232 201.96C66.1832 201.96 65.8232 201.51 65.8232 201.06V197.46C65.8232 196.92 66.1832 196.56 66.7232 196.56C67.1732 196.56 67.6232 196.92 67.6232 197.46V201.06C67.6232 201.51 67.1732 201.96 66.7232 201.96ZM66.7232 192.96C66.1832 192.96 65.8232 192.51 65.8232 192.06V188.46C65.8232 187.92 66.1832 187.56 66.7232 187.56C67.1732 187.56 67.6232 187.92 67.6232 188.46V192.06C67.6232 192.51 67.1732 192.96 66.7232 192.96ZM66.7232 183.96C66.1832 183.96 65.8232 183.51 65.8232 183.06V179.46C65.8232 178.92 66.1832 178.56 66.7232 178.56C67.1732 178.56 67.6232 178.92 67.6232 179.46V183.06C67.6232 183.51 67.1732 183.96 66.7232 183.96ZM66.7232 174.96C66.1832 174.96 65.8232 174.51 65.8232 174.06V170.46C65.8232 169.92 66.1832 169.56 66.7232 169.56C67.1732 169.56 67.6232 169.92 67.6232 170.46V174.06C67.6232 174.51 67.1732 174.96 66.7232 174.96ZM66.7232 165.96C66.1832 165.96 65.8232 165.51 65.8232 165.06V161.46C65.8232 160.92 66.1832 160.56 66.7232 160.56C67.1732 160.56 67.6232 160.92 67.6232 161.46V165.06C67.6232 165.51 67.1732 165.96 66.7232 165.96Z" fill="url(#paint4_linear_17_1195)"/>
<path d="M143.495 239.76C142.955 239.76 142.595 239.4 142.595 238.86V235.26C142.595 234.81 142.955 234.36 143.495 234.36C143.945 234.36 144.395 234.81 144.395 235.26V238.86C144.395 239.4 143.945 239.76 143.495 239.76ZM143.495 230.76C142.955 230.76 142.595 230.4 142.595 229.86V226.26C142.595 225.81 142.955 225.36 143.495 225.36C143.945 225.36 144.395 225.81 144.395 226.26V229.86C144.395 230.4 143.945 230.76 143.495 230.76ZM143.495 221.76C142.955 221.76 142.595 221.4 142.595 220.86V217.26C142.595 216.81 142.955 216.36 143.495 216.36C143.945 216.36 144.395 216.81 144.395 217.26V220.86C144.395 221.4 143.945 221.76 143.495 221.76ZM143.495 212.76C142.955 212.76 142.595 212.4 142.595 211.86V208.26C142.595 207.81 142.955 207.36 143.495 207.36C143.945 207.36 144.395 207.81 144.395 208.26V211.86C144.395 212.4 143.945 212.76 143.495 212.76ZM143.495 203.76C142.955 203.76 142.595 203.4 142.595 202.86V199.26C142.595 198.81 142.955 198.36 143.495 198.36C143.945 198.36 144.395 198.81 144.395 199.26V202.86C144.395 203.4 143.945 203.76 143.495 203.76ZM143.495 194.76C142.955 194.76 142.595 194.4 142.595 193.86V190.26C142.595 189.81 142.955 189.36 143.495 189.36C143.945 189.36 144.395 189.81 144.395 190.26V193.86C144.395 194.4 143.945 194.76 143.495 194.76ZM143.495 185.76C142.955 185.76 142.595 185.4 142.595 184.86V181.26C142.595 180.81 142.955 180.36 143.495 180.36C143.945 180.36 144.395 180.81 144.395 181.26V184.86C144.395 185.4 143.945 185.76 143.495 185.76ZM143.495 176.76C142.955 176.76 142.595 176.4 142.595 175.86V172.26C142.595 171.81 142.955 171.36 143.495 171.36C143.945 171.36 144.395 171.81 144.395 172.26V175.86C144.395 176.4 143.945 176.76 143.495 176.76ZM143.495 167.76C142.955 167.76 142.595 167.4 142.595 166.86V163.26C142.595 162.81 142.955 162.36 143.495 162.36C143.945 162.36 144.395 162.81 144.395 163.26V166.86C144.395 167.4 143.945 167.76 143.495 167.76ZM143.495 158.76C142.955 158.76 142.595 158.4 142.595 157.86V154.26C142.595 153.81 142.955 153.36 143.495 153.36C143.945 153.36 144.395 153.81 144.395 154.26V157.86C144.395 158.4 143.945 158.76 143.495 158.76ZM143.495 149.76C142.955 149.76 142.595 149.4 142.595 148.86V145.26C142.595 144.81 142.955 144.36 143.495 144.36C143.945 144.36 144.395 144.81 144.395 145.26V148.86C144.395 149.4 143.945 149.76 143.495 149.76ZM143.495 140.76C142.955 140.76 142.595 140.4 142.595 139.86V136.26C142.595 135.81 142.955 135.36 143.495 135.36C143.945 135.36 144.395 135.81 144.395 136.26V139.86C144.395 140.4 143.945 140.76 143.495 140.76ZM143.495 131.76C142.955 131.76 142.595 131.4 142.595 130.86V127.26C142.595 126.81 142.955 126.36 143.495 126.36C143.945 126.36 144.395 126.81 144.395 127.26V130.86C144.395 131.4 143.945 131.76 143.495 131.76ZM143.495 122.76C142.955 122.76 142.595 122.4 142.595 121.86V118.26C142.595 117.81 142.955 117.36 143.495 117.36C143.945 117.36 144.395 117.81 144.395 118.26V121.86C144.395 122.4 143.945 122.76 143.495 122.76ZM143.495 113.76C142.955 113.76 142.595 113.4 142.595 112.86V109.26C142.595 108.81 142.955 108.36 143.495 108.36C143.945 108.36 144.395 108.81 144.395 109.26V112.86C144.395 113.4 143.945 113.76 143.495 113.76ZM143.495 104.76C142.955 104.76 142.595 104.4 142.595 103.86V100.26C142.595 99.8104 142.955 99.3604 143.495 99.3604C143.945 99.3604 144.395 99.8104 144.395 100.26V103.86C144.395 104.4 143.945 104.76 143.495 104.76ZM143.495 95.7603C142.955 95.7603 142.595 95.4004 142.595 94.8604V91.2604C142.595 90.8104 142.955 90.3604 143.495 90.3604C143.945 90.3604 144.395 90.8104 144.395 91.2604V94.8604C144.395 95.4004 143.945 95.7603 143.495 95.7603ZM143.495 86.7604C142.955 86.7604 142.595 86.4004 142.595 85.8604V82.2604C142.595 81.8104 142.955 81.3604 143.495 81.3604C143.945 81.3604 144.395 81.8104 144.395 82.2604V85.8604C144.395 86.4004 143.945 86.7604 143.495 86.7604ZM143.495 77.7604C142.955 77.7604 142.595 77.4004 142.595 76.8604V73.2604C142.595 72.8104 142.955 72.3604 143.495 72.3604C143.945 72.3604 144.395 72.8104 144.395 73.2604V76.8604C144.395 77.4004 143.945 77.7604 143.495 77.7604ZM143.495 68.7604C142.955 68.7604 142.595 68.4004 142.595 67.8604V64.2604C142.595 63.8104 142.955 63.3604 143.495 63.3604C143.945 63.3604 144.395 63.8104 144.395 64.2604V67.8604C144.395 68.4004 143.945 68.7604 143.495 68.7604Z" fill="url(#paint5_linear_17_1195)"/>
<g style="mix-blend-mode:screen">
<path d="M181.745 217.62C181.295 217.62 180.845 217.17 180.845 216.72V213.12C180.845 212.58 181.295 212.22 181.745 212.22C182.285 212.22 182.645 212.58 182.645 213.12V216.72C182.645 217.17 182.285 217.62 181.745 217.62ZM181.745 208.62C181.295 208.62 180.845 208.17 180.845 207.72V204.12C180.845 203.58 181.295 203.22 181.745 203.22C182.285 203.22 182.645 203.58 182.645 204.12V207.72C182.645 208.17 182.285 208.62 181.745 208.62ZM181.745 199.62C181.295 199.62 180.845 199.17 180.845 198.72V195.12C180.845 194.58 181.295 194.22 181.745 194.22C182.285 194.22 182.645 194.58 182.645 195.12V198.72C182.645 199.17 182.285 199.62 181.745 199.62ZM181.745 190.62C181.295 190.62 180.845 190.17 180.845 189.72V186.12C180.845 185.58 181.295 185.22 181.745 185.22C182.285 185.22 182.645 185.58 182.645 186.12V189.72C182.645 190.17 182.285 190.62 181.745 190.62ZM181.745 181.62C181.295 181.62 180.845 181.17 180.845 180.72V177.12C180.845 176.58 181.295 176.22 181.745 176.22C182.285 176.22 182.645 176.58 182.645 177.12V180.72C182.645 181.17 182.285 181.62 181.745 181.62ZM181.745 172.62C181.295 172.62 180.845 172.17 180.845 171.72V168.12C180.845 167.58 181.295 167.22 181.745 167.22C182.285 167.22 182.645 167.58 182.645 168.12V171.72C182.645 172.17 182.285 172.62 181.745 172.62ZM181.745 163.62C181.295 163.62 180.845 163.17 180.845 162.72V159.12C180.845 158.58 181.295 158.22 181.745 158.22C182.285 158.22 182.645 158.58 182.645 159.12V162.72C182.645 163.17 182.285 163.62 181.745 163.62ZM181.745 154.62C181.295 154.62 180.845 154.17 180.845 153.72V150.12C180.845 149.58 181.295 149.22 181.745 149.22C182.285 149.22 182.645 149.58 182.645 150.12V153.72C182.645 154.17 182.285 154.62 181.745 154.62ZM181.745 145.62C181.295 145.62 180.845 145.17 180.845 144.72V141.12C180.845 140.58 181.295 140.22 181.745 140.22C182.285 140.22 182.645 140.58 182.645 141.12V144.72C182.645 145.17 182.285 145.62 181.745 145.62ZM181.745 136.62C181.295 136.62 180.845 136.17 180.845 135.72V132.12C180.845 131.58 181.295 131.22 181.745 131.22C182.285 131.22 182.645 131.58 182.645 132.12V135.72C182.645 136.17 182.285 136.62 181.745 136.62ZM181.745 127.62C181.295 127.62 180.845 127.17 180.845 126.72V123.12C180.845 122.58 181.295 122.22 181.745 122.22C182.285 122.22 182.645 122.58 182.645 123.12V126.72C182.645 127.17 182.285 127.62 181.745 127.62ZM181.745 118.62C181.295 118.62 180.845 118.17 180.845 117.72V114.12C180.845 113.58 181.295 113.22 181.745 113.22C182.285 113.22 182.645 113.58 182.645 114.12V117.72C182.645 118.17 182.285 118.62 181.745 118.62ZM181.745 109.62C181.295 109.62 180.845 109.17 180.845 108.72V105.12C180.845 104.58 181.295 104.22 181.745 104.22C182.285 104.22 182.645 104.58 182.645 105.12V108.72C182.645 109.17 182.285 109.62 181.745 109.62ZM181.745 100.62C181.295 100.62 180.845 100.17 180.845 99.7202V96.1202C180.845 95.5802 181.295 95.2202 181.745 95.2202C182.285 95.2202 182.645 95.5802 182.645 96.1202V99.7202C182.645 100.17 182.285 100.62 181.745 100.62ZM181.745 91.6202C181.295 91.6202 180.845 91.1702 180.845 90.7202V87.1202C180.845 86.5802 181.295 86.2202 181.745 86.2202C182.285 86.2202 182.645 86.5802 182.645 87.1202V90.7202C182.645 91.1702 182.285 91.6202 181.745 91.6202ZM181.745 82.6202C181.295 82.6202 180.845 82.1702 180.845 81.7202V78.1202C180.845 77.5802 181.295 77.2202 181.745 77.2202C182.285 77.2202 182.645 77.5802 182.645 78.1202V81.7202C182.645 82.1702 182.285 82.6202 181.745 82.6202ZM181.745 73.6202C181.295 73.6202 180.845 73.1702 180.845 72.7202V69.1202C180.845 68.5802 181.295 68.2202 181.745 68.2202C182.285 68.2202 182.645 68.5802 182.645 69.1202V72.7202C182.645 73.1702 182.285 73.6202 181.745 73.6202ZM181.745 64.6202C181.295 64.6202 180.845 64.1702 180.845 63.7202V60.1202C180.845 59.5802 181.295 59.2202 181.745 59.2202C182.285 59.2202 182.645 59.5802 182.645 60.1202V63.7202C182.645 64.1702 182.285 64.6202 181.745 64.6202ZM181.745 55.6202C181.295 55.6202 180.845 55.1702 180.845 54.7202V51.1202C180.845 50.5802 181.295 50.2202 181.745 50.2202C182.285 50.2202 182.645 50.5802 182.645 51.1202V54.7202C182.645 55.1702 182.285 55.6202 181.745 55.6202ZM181.745 46.6202C181.295 46.6202 180.845 46.1702 180.845 45.7202V42.1202C180.845 41.5802 181.295 41.2202 181.745 41.2202C182.285 41.2202 182.645 41.5802 182.645 42.1202V45.7202C182.645 46.1702 182.285 46.6202 181.745 46.6202ZM181.745 37.6202C181.295 37.6202 180.845 37.1702 180.845 36.7202V33.1202C180.845 32.5802 181.295 32.2202 181.745 32.2202C182.285 32.2202 182.645 32.5802 182.645 33.1202V36.7202C182.645 37.1702 182.285 37.6202 181.745 37.6202ZM181.745 28.6202C181.295 28.6202 180.845 28.1702 180.845 27.7202V24.1202C180.845 23.5802 181.295 23.2202 181.745 23.2202C182.285 23.2202 182.645 23.5802 182.645 24.1202V27.7202C182.645 28.1702 182.285 28.6202 181.745 28.6202ZM181.745 19.6202C181.295 19.6202 180.845 19.1702 180.845 18.7202V15.1202C180.845 14.5802 181.295 14.2202 181.745 14.2202C182.285 14.2202 182.645 14.5802 182.645 15.1202V18.7202C182.645 19.1702 182.285 19.6202 181.745 19.6202Z" fill="#25054D"/>
</g>
<path d="M220.084 194.49C219.544 194.49 219.184 194.04 219.184 193.59V189.99C219.184 189.45 219.544 189.09 220.084 189.09C220.534 189.09 220.984 189.45 220.984 189.99V193.59C220.984 194.04 220.534 194.49 220.084 194.49ZM220.084 185.49C219.544 185.49 219.184 185.04 219.184 184.59V180.99C219.184 180.45 219.544 180.09 220.084 180.09C220.534 180.09 220.984 180.45 220.984 180.99V184.59C220.984 185.04 220.534 185.49 220.084 185.49ZM220.084 176.49C219.544 176.49 219.184 176.04 219.184 175.59V171.99C219.184 171.45 219.544 171.09 220.084 171.09C220.534 171.09 220.984 171.45 220.984 171.99V175.59C220.984 176.04 220.534 176.49 220.084 176.49ZM220.084 167.49C219.544 167.49 219.184 167.04 219.184 166.59V162.99C219.184 162.45 219.544 162.09 220.084 162.09C220.534 162.09 220.984 162.45 220.984 162.99V166.59C220.984 167.04 220.534 167.49 220.084 167.49ZM220.084 158.49C219.544 158.49 219.184 158.04 219.184 157.59V153.99C219.184 153.45 219.544 153.09 220.084 153.09C220.534 153.09 220.984 153.45 220.984 153.99V157.59C220.984 158.04 220.534 158.49 220.084 158.49ZM220.084 149.49C219.544 149.49 219.184 149.04 219.184 148.59V144.99C219.184 144.45 219.544 144.09 220.084 144.09C220.534 144.09 220.984 144.45 220.984 144.99V148.59C220.984 149.04 220.534 149.49 220.084 149.49ZM220.084 140.49C219.544 140.49 219.184 140.04 219.184 139.59V135.99C219.184 135.45 219.544 135.09 220.084 135.09C220.534 135.09 220.984 135.45 220.984 135.99V139.59C220.984 140.04 220.534 140.49 220.084 140.49ZM220.084 131.49C219.544 131.49 219.184 131.04 219.184 130.59V126.99C219.184 126.45 219.544 126.09 220.084 126.09C220.534 126.09 220.984 126.45 220.984 126.99V130.59C220.984 131.04 220.534 131.49 220.084 131.49ZM220.084 122.49C219.544 122.49 219.184 122.04 219.184 121.59V117.99C219.184 117.45 219.544 117.09 220.084 117.09C220.534 117.09 220.984 117.45 220.984 117.99V121.59C220.984 122.04 220.534 122.49 220.084 122.49ZM220.084 113.49C219.544 113.49 219.184 113.04 219.184 112.59V108.99C219.184 108.45 219.544 108.09 220.084 108.09C220.534 108.09 220.984 108.45 220.984 108.99V112.59C220.984 113.04 220.534 113.49 220.084 113.49ZM220.084 104.49C219.544 104.49 219.184 104.04 219.184 103.59V99.9902C219.184 99.4502 219.544 99.0902 220.084 99.0902C220.534 99.0902 220.984 99.4502 220.984 99.9902V103.59C220.984 104.04 220.534 104.49 220.084 104.49ZM220.084 95.4902C219.544 95.4902 219.184 95.0402 219.184 94.5902V90.9902C219.184 90.4502 219.544 90.0902 220.084 90.0902C220.534 90.0902 220.984 90.4502 220.984 90.9902V94.5902C220.984 95.0402 220.534 95.4902 220.084 95.4902ZM220.084 86.4902C219.544 86.4902 219.184 86.0402 219.184 85.5902V81.9902C219.184 81.4502 219.544 81.0902 220.084 81.0902C220.534 81.0902 220.984 81.4502 220.984 81.9902V85.5902C220.984 86.0402 220.534 86.4902 220.084 86.4902ZM220.084 77.4902C219.544 77.4902 219.184 77.0402 219.184 76.5902V72.9902C219.184 72.4502 219.544 72.0902 220.084 72.0902C220.534 72.0902 220.984 72.4502 220.984 72.9902V76.5902C220.984 77.0402 220.534 77.4902 220.084 77.4902ZM220.084 68.4902C219.544 68.4902 219.184 68.0402 219.184 67.5902V63.9902C219.184 63.4502 219.544 63.0902 220.084 63.0902C220.534 63.0902 220.984 63.4502 220.984 63.9902V67.5902C220.984 68.0402 220.534 68.4902 220.084 68.4902ZM220.084 59.4902C219.544 59.4902 219.184 59.0402 219.184 58.5902V54.9902C219.184 54.4502 219.544 54.0902 220.084 54.0902C220.534 54.0902 220.984 54.4502 220.984 54.9902V58.5902C220.984 59.0402 220.534 59.4902 220.084 59.4902ZM220.084 50.4902C219.544 50.4902 219.184 50.0402 219.184 49.5902V45.9902C219.184 45.4502 219.544 45.0902 220.084 45.0902C220.534 45.0902 220.984 45.4502 220.984 45.9902V49.5902C220.984 50.0402 220.534 50.4902 220.084 50.4902ZM220.084 41.4902C219.544 41.4902 219.184 41.0402 219.184 40.5902V36.9902C219.184 36.4502 219.544 36.0902 220.084 36.0902C220.534 36.0902 220.984 36.4502 220.984 36.9902V40.5902C220.984 41.0402 220.534 41.4902 220.084 41.4902ZM220.084 32.4902C219.544 32.4902 219.184 32.0402 219.184 31.5902V31.2302C219.184 30.7802 219.544 30.3302 220.084 30.3302C220.534 30.3302 220.984 30.7802 220.984 31.2302V31.5902C220.984 32.0402 220.534 32.4902 220.084 32.4902Z" fill="url(#paint6_linear_17_1195)"/>
<g style="mix-blend-mode:screen">
<path d="M258.334 172.71C257.794 172.71 257.434 172.26 257.434 171.81V168.21C257.434 167.67 257.794 167.31 258.334 167.31C258.784 167.31 259.234 167.67 259.234 168.21V171.81C259.234 172.26 258.784 172.71 258.334 172.71ZM258.334 163.71C257.794 163.71 257.434 163.26 257.434 162.81V159.21C257.434 158.67 257.794 158.31 258.334 158.31C258.784 158.31 259.234 158.67 259.234 159.21V162.81C259.234 163.26 258.784 163.71 258.334 163.71ZM258.334 154.71C257.794 154.71 257.434 154.26 257.434 153.81V150.21C257.434 149.67 257.794 149.31 258.334 149.31C258.784 149.31 259.234 149.67 259.234 150.21V153.81C259.234 154.26 258.784 154.71 258.334 154.71ZM258.334 145.71C257.794 145.71 257.434 145.26 257.434 144.81V141.21C257.434 140.67 257.794 140.31 258.334 140.31C258.784 140.31 259.234 140.67 259.234 141.21V144.81C259.234 145.26 258.784 145.71 258.334 145.71ZM258.334 136.71C257.794 136.71 257.434 136.26 257.434 135.81V132.21C257.434 131.67 257.794 131.31 258.334 131.31C258.784 131.31 259.234 131.67 259.234 132.21V135.81C259.234 136.26 258.784 136.71 258.334 136.71ZM258.334 127.71C257.794 127.71 257.434 127.26 257.434 126.81V123.21C257.434 122.67 257.794 122.31 258.334 122.31C258.784 122.31 259.234 122.67 259.234 123.21V126.81C259.234 127.26 258.784 127.71 258.334 127.71ZM258.334 118.71C257.794 118.71 257.434 118.26 257.434 117.81V114.21C257.434 113.67 257.794 113.31 258.334 113.31C258.784 113.31 259.234 113.67 259.234 114.21V117.81C259.234 118.26 258.784 118.71 258.334 118.71ZM258.334 109.71C257.794 109.71 257.434 109.26 257.434 108.81V105.21C257.434 104.67 257.794 104.31 258.334 104.31C258.784 104.31 259.234 104.67 259.234 105.21V108.81C259.234 109.26 258.784 109.71 258.334 109.71ZM258.334 100.71C257.794 100.71 257.434 100.26 257.434 99.8103V96.2103C257.434 95.6703 257.794 95.3103 258.334 95.3103C258.784 95.3103 259.234 95.6703 259.234 96.2103V99.8103C259.234 100.26 258.784 100.71 258.334 100.71ZM258.334 91.7103C257.794 91.7103 257.434 91.2603 257.434 90.8103V87.2103C257.434 86.6703 257.794 86.3103 258.334 86.3103C258.784 86.3103 259.234 86.6703 259.234 87.2103V90.8103C259.234 91.2603 258.784 91.7103 258.334 91.7103ZM258.334 82.7103C257.794 82.7103 257.434 82.2603 257.434 81.8103V78.2103C257.434 77.6703 257.794 77.3103 258.334 77.3103C258.784 77.3103 259.234 77.6703 259.234 78.2103V81.8103C259.234 82.2603 258.784 82.7103 258.334 82.7103ZM258.334 73.7103C257.794 73.7103 257.434 73.2603 257.434 72.8103V69.2103C257.434 68.6703 257.794 68.3103 258.334 68.3103C258.784 68.3103 259.234 68.6703 259.234 69.2103V72.8103C259.234 73.2603 258.784 73.7103 258.334 73.7103ZM258.334 64.7103C257.794 64.7103 257.434 64.2603 257.434 63.8103V60.2103C257.434 59.6703 257.794 59.3103 258.334 59.3103C258.784 59.3103 259.234 59.6703 259.234 60.2103V63.8103C259.234 64.2603 258.784 64.7103 258.334 64.7103ZM258.334 55.7103C257.794 55.7103 257.434 55.2603 257.434 54.8103V51.2103C257.434 50.6703 257.794 50.3103 258.334 50.3103C258.784 50.3103 259.234 50.6703 259.234 51.2103V54.8103C259.234 55.2603 258.784 55.7103 258.334 55.7103ZM258.334 46.7103C257.794 46.7103 257.434 46.2603 257.434 45.8103V42.2103C257.434 41.6703 257.794 41.3103 258.334 41.3103C258.784 41.3103 259.234 41.6703 259.234 42.2103V45.8103C259.234 46.2603 258.784 46.7103 258.334 46.7103ZM258.334 37.7103C257.794 37.7103 257.434 37.2603 257.434 36.8103V33.2103C257.434 32.6703 257.794 32.3103 258.334 32.3103C258.784 32.3103 259.234 32.6703 259.234 33.2103V36.8103C259.234 37.2603 258.784 37.7103 258.334 37.7103ZM258.334 28.7103C257.794 28.7103 257.434 28.2603 257.434 27.8103V24.2103C257.434 23.6703 257.794 23.3103 258.334 23.3103C258.784 23.3103 259.234 23.6703 259.234 24.2103V27.8103C259.234 28.2603 258.784 28.7103 258.334 28.7103Z" fill="url(#paint7_linear_17_1195)"/>
</g>
<path d="M184.715 201.15L176.795 206.91V14.6702L181.565 11.4302L184.715 11.8802V201.15Z" fill="url(#paint8_linear_17_1195)"/>
<g style="mix-blend-mode:color-dodge">
<path d="M176.796 223.573L184.896 219.073L183.904 158.13L184.264 16.7401C184.264 14.0401 182.734 11.8801 180.844 11.8801C179.044 11.8801 177.514 14.0401 177.514 16.7401L177.154 158.22L176.796 223.573Z" fill="#1ABEB0"/>
<path d="M179.315 188.91L179.135 140.85V139.23L178.955 19.7102C178.955 18.9902 179.135 16.9201 179.495 16.4701C179.675 15.8401 180.215 15.3901 180.755 15.3901C181.385 15.3901 181.925 15.8402 182.195 16.5602C182.465 16.9202 182.735 18.9001 182.735 19.5301L182.465 139.23V141.21L182.285 185.85L179.315 188.91Z" fill="url(#paint9_linear_17_1195)"/>
<path d="M181.116 181.8L180.576 137.7L179.946 20.5202C179.946 19.7102 180.396 19.1702 180.846 19.1702C181.386 19.1702 181.836 19.7102 181.836 20.5202L181.476 137.7L181.116 181.8Z" fill="url(#paint10_linear_17_1195)"/>
</g>
<path d="M189.214 6.21035C189.214 10.9803 185.884 16.7403 181.744 19.1703C177.604 21.5103 174.274 19.6203 174.274 14.8503C174.274 10.1703 177.604 4.32033 181.744 1.98033C185.884 -0.449666 189.214 1.44035 189.214 6.21035Z" fill="url(#paint11_linear_17_1195)"/>
<path fill-rule="evenodd" clip-rule="evenodd" d="M178.414 21.06C175.354 21.06 173.374 18.63 173.374 14.85C173.374 9.81 176.884 3.69002 181.294 1.17002C182.614 0.390016 183.874 0 185.074 0C188.134 0 190.114 2.43002 190.114 6.21002C190.114 11.34 186.604 17.37 182.194 19.89C180.874 20.67 179.614 21.06 178.414 21.06ZM185.074 1.8C184.264 1.8 183.184 2.16 182.194 2.7C178.324 4.95 175.174 10.44 175.174 14.85C175.174 17.64 176.344 19.26 178.414 19.26C179.224 19.26 180.304 18.99 181.294 18.36C185.164 16.11 188.314 10.71 188.314 6.21002C188.314 3.51002 187.144 1.8 185.074 1.8Z" fill="#2FFBED"/>
<path d="M147.276 50.2204C147.276 52.6504 145.476 55.7104 143.406 56.8804C141.246 58.1404 139.536 57.1504 139.536 54.7204C139.536 52.2904 141.246 49.2304 143.406 48.0604C145.476 46.8004 147.276 47.7904 147.276 50.2204Z" fill="#24D5D9"/>
<path d="M225.126 24.4801C225.126 26.9101 223.416 29.8801 221.256 31.1401C219.096 32.4001 217.386 31.4101 217.386 28.8901C217.386 26.4601 219.096 23.4901 221.256 22.2301C223.416 20.9701 225.126 21.9601 225.126 24.4801Z" fill="url(#paint12_linear_17_1195)"/>
<path d="M262.743 14.4004C262.743 16.8304 261.033 19.8004 258.873 21.0604C256.803 22.3204 255.003 21.3304 255.003 18.8104C255.003 16.3804 256.803 13.4104 258.873 12.1504C261.033 10.8904 262.743 11.8804 262.743 14.4004Z" fill="url(#paint13_linear_17_1195)"/>
<path d="M108.935 118.08C108.935 120.51 107.225 123.48 105.065 124.74C102.905 126 101.195 125.01 101.195 122.49C101.195 120.06 102.905 117.09 105.065 115.83C107.225 114.57 108.935 115.56 108.935 118.08Z" fill="#24D5D9"/>
<path d="M70.9553 151.38C70.9553 153.81 69.2453 156.78 67.0853 158.04C64.9253 159.3 63.2153 158.31 63.2153 155.79C63.2153 153.36 64.9253 150.39 67.0853 149.13C69.2453 147.87 70.9553 148.86 70.9553 151.38Z" fill="#24D5D9"/>
<path d="M32.0762 207.27C32.0762 209.79 30.2762 212.76 28.2062 214.02C26.0462 215.19 24.3362 214.2 24.3362 211.77C24.3362 209.34 26.0462 206.37 28.2062 205.11C30.2762 203.85 32.0762 204.84 32.0762 207.27Z" fill="#24D5D9"/>
<g opacity="0.95">
<path d="M370.834 153L386.764 162.27L370.834 171.45L354.904 162.27L370.834 153Z" fill="url(#paint14_linear_17_1195)"/>
<path d="M386.763 246.15L370.833 255.33V171.45L386.763 162.27V246.15Z" fill="url(#paint15_linear_17_1195)"/>
<path d="M370.834 255.33L354.904 246.15V162.27L370.834 171.45V255.33Z" fill="url(#paint16_linear_17_1195)"/>
</g>
<path style="mix-blend-mode:color-dodge" d="M354.903 162.27L370.743 170.82L386.763 162.27L371.283 171.81L370.833 255.33L370.023 171.72L354.903 162.27Z" fill="url(#paint17_radial_17_1195)"/>
<g opacity="0.95">
<path d="M342.124 125.91L358.054 135.09L342.124 144.36L326.104 135.09L342.124 125.91Z" fill="url(#paint18_linear_17_1195)"/>
<path d="M358.055 262.71L342.125 271.89V144.36L358.055 135.09V262.71Z" fill="url(#paint19_linear_17_1195)"/>
<path d="M342.124 271.89L326.104 262.71V135.09L342.124 144.36V271.89Z" fill="url(#paint20_linear_17_1195)"/>
</g>
<path style="mix-blend-mode:color-dodge" d="M326.103 135.09L342.033 143.64L358.053 135.09L342.573 144.72L342.123 271.89L341.313 144.54L326.103 135.09Z" fill="url(#paint21_radial_17_1195)"/>
<path d="M383.612 256.59C383.492 256.59 383.342 256.56 383.162 256.5L381.632 255.6C381.182 255.33 381.092 254.79 381.362 254.34C381.542 253.89 382.172 253.8 382.532 253.98L384.152 254.97C384.512 255.15 384.692 255.69 384.422 256.14C384.242 256.41 383.972 256.59 383.612 256.59Z" fill="white" fill-opacity="0.2"/>
<path d="M400.803 266.67C400.623 266.67 400.473 266.64 400.353 266.58L396.933 264.51C396.483 264.33 396.303 263.7 396.573 263.34C396.843 262.89 397.383 262.71 397.833 262.98L401.253 265.05C401.613 265.23 401.793 265.86 401.523 266.22C401.343 266.49 401.073 266.67 400.803 266.67ZM392.253 261.63C392.073 261.63 391.893 261.6 391.713 261.54L388.293 259.47C387.933 259.29 387.753 258.66 388.023 258.3C388.293 257.85 388.833 257.67 389.283 257.94L392.703 260.01C393.063 260.19 393.243 260.73 392.973 261.18C392.793 261.45 392.523 261.63 392.253 261.63Z" fill="white" fill-opacity="0.2"/>
<path d="M407.463 270.63C407.283 270.63 407.133 270.6 407.013 270.54L405.483 269.55C405.033 269.37 404.853 268.83 405.123 268.38C405.393 267.93 405.933 267.75 406.383 268.02L407.913 268.92C408.363 269.19 408.453 269.73 408.273 270.18C408.093 270.45 407.733 270.63 407.463 270.63Z" fill="white" fill-opacity="0.2"/>
<path d="M355.263 272.97C355.083 272.97 354.933 272.94 354.813 272.88L353.283 271.98C352.833 271.71 352.653 271.17 352.923 270.72C353.193 270.27 353.733 270.18 354.183 270.45L355.713 271.35C356.163 271.62 356.253 272.16 355.983 272.61C355.893 272.88 355.533 272.97 355.263 272.97Z" fill="white" fill-opacity="0.2"/>
<path d="M372.364 283.14C372.184 283.14 372.034 283.08 371.914 282.96L368.494 280.98C368.044 280.71 367.954 280.17 368.134 279.72C368.404 279.27 368.944 279.18 369.394 279.45L372.814 281.43C373.264 281.7 373.444 282.24 373.174 282.69C372.994 282.96 372.634 283.14 372.364 283.14ZM363.814 278.1C363.634 278.1 363.484 278.04 363.364 277.92L359.944 275.94C359.494 275.67 359.404 275.13 359.584 274.68C359.854 274.23 360.394 274.14 360.844 274.32L364.264 276.39C364.714 276.66 364.804 277.2 364.624 277.65C364.444 277.92 364.084 278.1 363.814 278.1Z" fill="white" fill-opacity="0.2"/>
<path d="M379.024 287.01C378.904 287.01 378.754 286.98 378.574 286.92L377.044 286.02C376.594 285.75 376.504 285.21 376.774 284.76C376.954 284.31 377.494 284.22 377.944 284.49L379.474 285.39C379.924 285.66 380.104 286.2 379.834 286.56C379.654 286.92 379.384 287.01 379.024 287.01Z" fill="white" fill-opacity="0.2"/>
<path d="M326.824 289.44C326.704 289.44 326.554 289.38 326.374 289.26L324.844 288.36C324.394 288.09 324.304 287.55 324.484 287.19C324.754 286.74 325.294 286.56 325.744 286.83L327.274 287.73C327.724 288 327.904 288.54 327.634 288.99C327.454 289.26 327.184 289.44 326.824 289.44Z" fill="white" fill-opacity="0.2"/>
<path d="M344.011 299.52C343.831 299.52 343.651 299.49 343.471 299.43L340.051 297.36C339.691 297.09 339.511 296.55 339.781 296.1C340.051 295.74 340.591 295.56 341.041 295.83L344.461 297.81C344.821 298.08 345.001 298.62 344.731 299.07C344.551 299.34 344.281 299.52 344.011 299.52ZM335.371 294.48C335.251 294.48 335.101 294.42 334.921 294.3L331.501 292.32C331.141 292.05 330.961 291.51 331.231 291.06C331.501 290.7 332.041 290.52 332.401 290.79L335.821 292.77C336.271 293.04 336.451 293.58 336.181 294.03C336.001 294.3 335.731 294.48 335.371 294.48Z" fill="white" fill-opacity="0.2"/>
<path d="M350.671 303.48C350.491 303.48 350.341 303.42 350.221 303.3L348.601 302.4C348.241 302.13 348.061 301.59 348.331 301.14C348.601 300.78 349.141 300.6 349.591 300.87L351.121 301.77C351.571 302.04 351.661 302.58 351.391 303.03C351.301 303.3 350.941 303.48 350.671 303.48Z" fill="white" fill-opacity="0.2"/>
<path d="M298.471 305.82C298.291 305.82 298.141 305.79 298.021 305.73L296.401 304.83C296.041 304.56 295.861 304.02 296.131 303.57C296.401 303.12 296.941 303.03 297.391 303.21L298.921 304.2C299.371 304.38 299.461 304.92 299.191 305.37C299.011 305.64 298.741 305.82 298.471 305.82Z" fill="white" fill-opacity="0.2"/>
<path d="M315.574 315.9C315.394 315.9 315.244 315.87 315.124 315.81L311.704 313.74C311.254 313.56 311.074 313.02 311.344 312.57C311.614 312.12 312.154 311.94 312.604 312.21L316.024 314.28C316.474 314.46 316.564 315.09 316.384 315.45C316.204 315.72 315.844 315.9 315.574 315.9ZM307.024 310.86C306.844 310.86 306.694 310.83 306.574 310.77L303.154 308.7C302.704 308.52 302.524 307.89 302.794 307.53C303.064 307.08 303.604 306.9 304.054 307.17L307.474 309.24C307.924 309.42 308.014 310.05 307.744 310.41C307.654 310.68 307.294 310.86 307.024 310.86Z" fill="white" fill-opacity="0.2"/>
<path d="M322.233 319.86C322.113 319.86 321.963 319.83 321.783 319.77L320.253 318.78C319.803 318.6 319.713 318.06 319.893 317.61C320.163 317.16 320.703 316.98 321.153 317.25L322.683 318.15C323.133 318.42 323.313 318.96 323.043 319.41C322.863 319.68 322.593 319.86 322.233 319.86Z" fill="white" fill-opacity="0.2"/>
<path d="M270.033 322.2C269.913 322.26 269.763 322.23 269.583 322.11L268.053 321.21C267.603 320.94 267.513 320.4 267.693 319.95C267.963 319.5 268.503 319.41 268.953 319.68L270.483 320.58C270.933 320.85 271.113 321.39 270.843 321.84C270.663 322.11 270.393 322.2 270.033 322.2Z" fill="white" fill-opacity="0.2"/>
<path d="M287.131 332.37C287.011 332.37 286.861 332.31 286.681 332.19L283.261 330.21C282.811 329.94 282.721 329.4 282.991 328.95C283.261 328.5 283.801 328.41 284.161 328.68L287.581 330.66C288.031 330.93 288.211 331.47 287.941 331.92C287.761 332.19 287.491 332.37 287.131 332.37ZM278.581 327.33C278.461 327.33 278.311 327.27 278.131 327.15L274.711 325.17C274.261 324.9 274.171 324.36 274.441 323.91C274.621 323.46 275.251 323.37 275.611 323.64L279.031 325.62C279.481 325.89 279.661 326.43 279.391 326.88C279.211 327.15 278.941 327.33 278.581 327.33Z" fill="white" fill-opacity="0.2"/>
<path d="M293.884 336.24C293.704 336.24 293.554 336.21 293.434 336.15L291.814 335.25C291.454 334.98 291.274 334.44 291.544 333.99C291.814 333.54 292.354 333.45 292.714 333.72L294.334 334.62C294.694 334.89 294.874 335.43 294.604 335.79C294.424 336.15 294.154 336.24 293.884 336.24Z" fill="white" fill-opacity="0.2"/>
<path d="M241.684 338.67C241.504 338.67 241.354 338.61 241.234 338.49L239.614 337.59C239.254 337.32 239.074 336.78 239.344 336.42C239.614 335.97 240.154 335.79 240.514 336.06L242.134 336.96C242.494 337.23 242.674 337.77 242.404 338.22C242.224 338.49 241.954 338.67 241.684 338.67Z" fill="white" fill-opacity="0.2"/>
<path d="M258.783 348.75C258.603 348.75 258.453 348.72 258.333 348.66L254.913 346.59C254.463 346.32 254.283 345.78 254.553 345.33C254.823 344.97 255.363 344.79 255.813 345.06L259.233 347.04C259.683 347.31 259.773 347.85 259.503 348.3C259.413 348.57 259.053 348.75 258.783 348.75ZM250.233 343.71C250.053 343.71 249.903 343.65 249.783 343.53L246.363 341.55C245.913 341.28 245.733 340.74 246.003 340.29C246.273 339.93 246.813 339.75 247.263 340.02L250.683 342C251.133 342.27 251.223 342.81 250.953 343.26C250.773 343.53 250.503 343.71 250.233 343.71Z" fill="white" fill-opacity="0.2"/>
<path d="M265.442 352.71C265.262 352.71 265.112 352.65 264.992 352.53L263.462 351.63C263.012 351.36 262.832 350.82 263.102 350.37C263.372 350.01 263.912 349.83 264.362 350.1L265.892 351C266.342 351.27 266.432 351.81 266.252 352.26C266.072 352.53 265.712 352.71 265.442 352.71Z" fill="white" fill-opacity="0.2"/>
<path d="M213.242 355.05C213.062 355.05 212.912 355.02 212.792 354.96L211.262 354.06C210.812 353.79 210.633 353.25 210.903 352.8C211.173 352.35 211.712 352.26 212.162 352.44L213.692 353.43C214.142 353.61 214.233 354.15 214.053 354.6C213.873 354.87 213.512 355.05 213.242 355.05Z" fill="white" fill-opacity="0.2"/>
<path d="M230.343 365.13C230.223 365.13 230.073 365.1 229.893 365.04L226.473 362.97C226.023 362.79 225.933 362.25 226.203 361.8C226.383 361.35 226.923 361.17 227.373 361.44L230.793 363.51C231.243 363.69 231.423 364.32 231.153 364.68C230.973 364.95 230.703 365.13 230.343 365.13ZM221.793 360.09C221.613 360.09 221.463 360.06 221.343 360L217.923 357.93C217.473 357.75 217.383 357.12 217.563 356.76C217.833 356.31 218.373 356.13 218.823 356.4L222.243 358.47C222.693 358.65 222.873 359.28 222.603 359.64C222.423 359.91 222.153 360.09 221.793 360.09Z" fill="white" fill-opacity="0.2"/>
<path d="M237.003 369.09C236.883 369.09 236.733 369.06 236.553 369L235.023 368.1C234.573 367.83 234.483 367.29 234.753 366.84C234.933 366.39 235.563 366.21 235.923 366.48L237.543 367.38C237.903 367.65 238.083 368.19 237.813 368.64C237.633 368.91 237.363 369.09 237.003 369.09Z" fill="white" fill-opacity="0.2"/>
<path fill-rule="evenodd" clip-rule="evenodd" d="M415.202 273.24C418.262 271.5 421.052 271.35 423.572 272.79C423.932 273.03 424.232 273.24 424.472 273.42L423.392 273.96C423.212 273.78 422.942 273.6 422.582 273.42C421.742 272.94 420.902 272.7 420.062 272.7C419.162 272.7 418.202 272.97 417.182 273.51L417.272 273.6C417.692 273.48 418.142 273.48 418.622 273.6C419.102 273.66 419.552 273.81 419.972 274.05C420.632 274.47 420.962 274.92 420.962 275.4C420.902 275.88 420.512 276.33 419.792 276.75C418.952 277.23 418.082 277.47 417.182 277.47C416.222 277.47 415.352 277.26 414.572 276.84C414.032 276.48 413.672 276.12 413.492 275.76C413.372 275.34 413.462 274.92 413.762 274.5C414.002 274.08 414.482 273.66 415.202 273.24ZM415.562 276.21C415.982 276.45 416.462 276.57 417.002 276.57C417.482 276.51 417.992 276.33 418.532 276.03C418.952 275.79 419.192 275.52 419.252 275.22C419.312 274.98 419.102 274.74 418.622 274.5C418.382 274.32 418.082 274.2 417.722 274.14C417.362 274.08 417.032 274.08 416.732 274.14C416.372 274.14 416.102 274.2 415.922 274.32C415.382 274.62 415.082 274.95 415.022 275.31C414.962 275.67 415.142 275.97 415.562 276.21Z" fill="white" fill-opacity="0.3"/>
<path fill-rule="evenodd" clip-rule="evenodd" d="M427.621 279.72C426.301 280.5 425.071 280.95 423.931 281.07C422.851 281.25 421.861 281.07 420.961 280.53C420.121 279.99 419.791 279.42 419.971 278.82C420.211 278.16 420.991 277.44 422.311 276.66C423.691 275.88 424.921 275.43 426.001 275.31C427.081 275.19 428.071 275.37 428.971 275.85C429.871 276.39 430.201 276.99 429.961 277.65C429.721 278.31 428.941 279 427.621 279.72ZM423.571 277.38C422.551 278.04 421.921 278.55 421.681 278.91C421.441 279.33 421.561 279.66 422.041 279.9C422.521 280.2 423.091 280.29 423.751 280.17C424.471 279.99 425.341 279.6 426.361 279C427.441 278.4 428.101 277.89 428.341 277.47C428.581 277.11 428.461 276.78 427.981 276.48C427.501 276.18 426.901 276.12 426.181 276.3C425.521 276.42 424.651 276.78 423.571 277.38Z" fill="white" fill-opacity="0.3"/>
<path d="M390.543 290.52C391.383 291 391.803 291.48 391.803 291.96C391.863 292.5 391.533 292.95 390.813 293.31C389.973 293.79 389.073 294.03 388.113 294.03C387.093 293.97 386.103 293.67 385.143 293.13C384.303 292.65 383.763 292.17 383.523 291.69L384.693 291.06C384.813 291.3 384.993 291.57 385.233 291.87C385.533 292.11 385.863 292.32 386.223 292.5C386.763 292.86 387.303 293.04 387.843 293.04C388.383 293.1 388.893 292.98 389.373 292.68C390.333 292.14 390.213 291.51 389.013 290.79C388.833 290.73 388.623 290.64 388.383 290.52C388.083 290.4 387.813 290.28 387.573 290.16L387.303 289.71L391.443 287.64L395.493 289.98L394.413 290.61L391.443 288.9L389.373 289.98C389.493 290.04 389.673 290.1 389.913 290.16C390.093 290.28 390.303 290.4 390.543 290.52Z" fill="white" fill-opacity="0.3"/>
<path fill-rule="evenodd" clip-rule="evenodd" d="M398.821 296.37C397.441 297.15 396.211 297.6 395.131 297.72C394.051 297.9 393.061 297.72 392.161 297.18C391.261 296.64 390.931 296.07 391.171 295.47C391.411 294.81 392.191 294.09 393.511 293.31C394.891 292.53 396.121 292.08 397.201 291.96C398.281 291.84 399.271 292.02 400.171 292.5C401.011 293.04 401.341 293.64 401.161 294.3C400.921 294.96 400.141 295.65 398.821 296.37ZM394.771 294.03C393.691 294.69 393.031 295.2 392.791 295.56C392.551 295.98 392.671 296.31 393.151 296.55C393.631 296.85 394.231 296.94 394.951 296.82C395.611 296.64 396.481 296.25 397.561 295.65C398.581 295.05 399.211 294.54 399.451 294.12C399.691 293.76 399.571 293.43 399.091 293.13C398.611 292.83 398.041 292.77 397.381 292.95C396.721 293.07 395.851 293.43 394.771 294.03Z" fill="white" fill-opacity="0.3"/>
<path fill-rule="evenodd" clip-rule="evenodd" d="M361.473 310.68L360.483 310.05L358.773 311.04L357.513 310.32L359.223 309.42L355.623 307.35L356.613 306.72L365.343 305.82L366.603 306.54L361.473 309.51L362.553 310.14L361.473 310.68ZM360.213 308.7L362.193 307.62C362.853 307.2 363.423 306.87 363.903 306.63C363.543 306.69 363.093 306.75 362.553 306.81L357.783 307.35L360.213 308.7Z" fill="white" fill-opacity="0.3"/>
<path fill-rule="evenodd" clip-rule="evenodd" d="M369.932 313.02C368.612 313.8 367.412 314.25 366.332 314.37C365.192 314.55 364.172 314.37 363.272 313.83C362.432 313.29 362.132 312.72 362.372 312.12C362.552 311.46 363.302 310.74 364.622 309.96C366.002 309.18 367.232 308.73 368.312 308.61C369.392 308.49 370.382 308.67 371.282 309.15C372.182 309.69 372.512 310.29 372.272 310.95C372.032 311.61 371.252 312.3 369.932 313.02ZM365.882 310.68C364.862 311.34 364.232 311.85 363.992 312.21C363.752 312.63 363.872 312.96 364.352 313.2C364.832 313.5 365.402 313.59 366.062 313.47C366.782 313.29 367.652 312.9 368.672 312.3C369.752 311.7 370.412 311.19 370.652 310.77C370.892 310.41 370.772 310.08 370.292 309.78C369.812 309.48 369.212 309.42 368.492 309.6C367.832 309.72 366.962 310.08 365.882 310.68Z" fill="white" fill-opacity="0.3"/>
<path d="M336.362 324.54C335.882 324.84 335.342 324.99 334.742 324.99C334.142 324.99 333.512 324.87 332.852 324.63L332.762 324.72C333.362 325.14 333.662 325.53 333.662 325.89C333.662 326.25 333.392 326.58 332.852 326.88C332.132 327.3 331.292 327.48 330.332 327.42C329.372 327.3 328.412 326.97 327.452 326.43C326.552 325.95 325.952 325.44 325.652 324.9L326.822 324.27C326.942 324.57 327.152 324.84 327.452 325.08C327.752 325.38 328.082 325.62 328.442 325.8C329.042 326.16 329.582 326.34 330.062 326.34C330.602 326.4 331.112 326.31 331.592 326.07C332.012 325.83 332.162 325.56 332.042 325.26C331.862 324.96 331.412 324.6 330.692 324.18L330.062 323.73L331.052 323.19L331.772 323.55C333.032 324.27 334.082 324.39 334.922 323.91C335.282 323.73 335.432 323.52 335.372 323.28C335.312 323.04 335.072 322.8 334.652 322.56C334.352 322.38 334.022 322.23 333.662 322.11C333.302 321.99 332.822 321.9 332.222 321.84L332.492 321.03C333.752 321.09 334.862 321.42 335.822 322.02C336.602 322.44 337.022 322.89 337.082 323.37C337.202 323.79 336.962 324.18 336.362 324.54Z" fill="white" fill-opacity="0.3"/>
<path fill-rule="evenodd" clip-rule="evenodd" d="M341.134 329.67C339.754 330.45 338.524 330.9 337.444 331.02C336.364 331.2 335.374 331.02 334.474 330.48C333.574 329.94 333.244 329.37 333.484 328.77C333.724 328.11 334.504 327.39 335.824 326.61C337.204 325.83 338.434 325.38 339.514 325.26C340.594 325.14 341.584 325.32 342.484 325.8C343.384 326.34 343.714 326.94 343.474 327.6C343.234 328.26 342.454 328.95 341.134 329.67ZM337.084 327.33C336.004 327.99 335.344 328.5 335.104 328.86C334.864 329.28 334.984 329.61 335.464 329.85C336.004 330.15 336.604 330.24 337.264 330.12C337.924 329.94 338.794 329.55 339.874 328.95C340.894 328.35 341.524 327.84 341.764 327.42C342.004 327.06 341.884 326.73 341.404 326.43C340.924 326.13 340.354 326.07 339.694 326.25C339.034 326.37 338.164 326.73 337.084 327.33Z" fill="white" fill-opacity="0.3"/>
<path d="M301.892 344.79L296.582 341.73L297.482 341.19H301.532C302.732 341.19 303.542 341.16 303.962 341.1C304.442 341.1 304.832 341.07 305.132 341.01C305.432 340.89 305.732 340.77 306.032 340.65C306.392 340.41 306.542 340.17 306.482 339.93C306.482 339.69 306.302 339.48 305.942 339.3C305.642 339.12 305.282 338.97 304.862 338.85C304.502 338.79 303.992 338.73 303.332 338.67L303.512 337.77C304.292 337.83 304.952 337.92 305.492 338.04C306.092 338.22 306.602 338.43 307.022 338.67C307.802 339.09 308.222 339.54 308.282 340.02C308.342 340.5 308.042 340.92 307.382 341.28C307.022 341.52 306.632 341.7 306.212 341.82C305.732 341.88 305.192 341.94 304.592 342C303.992 342.06 303.122 342.06 301.982 342H299.282H299.192L302.972 344.16L301.892 344.79Z" fill="white" fill-opacity="0.3"/>
<path fill-rule="evenodd" clip-rule="evenodd" d="M312.241 346.32C310.921 347.1 309.721 347.55 308.641 347.67C307.501 347.85 306.481 347.67 305.581 347.13C304.741 346.59 304.441 346.02 304.681 345.42C304.921 344.76 305.671 344.04 306.931 343.26C308.311 342.48 309.541 342.03 310.621 341.91C311.761 341.79 312.781 341.97 313.681 342.45C314.521 342.99 314.821 343.59 314.581 344.25C314.341 344.91 313.561 345.6 312.241 346.32ZM308.281 343.98C307.201 344.64 306.541 345.15 306.301 345.51C306.061 345.93 306.181 346.26 306.661 346.5C307.141 346.8 307.741 346.89 308.461 346.77C309.121 346.59 309.961 346.2 310.981 345.6C312.061 345 312.721 344.49 312.961 344.07C313.201 343.71 313.081 343.38 312.601 343.08C312.121 342.78 311.551 342.72 310.891 342.9C310.171 343.02 309.301 343.38 308.281 343.98Z" fill="white" fill-opacity="0.3"/>
<path d="M271.383 360.54L270.123 359.82L275.163 356.94C275.763 356.58 276.243 356.31 276.603 356.13C276.483 356.13 276.303 356.13 276.063 356.13C275.823 356.07 275.103 356.01 273.903 355.95L273.993 355.14L278.133 355.41L279.213 356.04L271.383 360.54Z" fill="white" fill-opacity="0.3"/>
<path fill-rule="evenodd" clip-rule="evenodd" d="M283.442 362.97C282.122 363.75 280.892 364.2 279.752 364.32C278.672 364.5 277.682 364.32 276.782 363.78C275.882 363.24 275.552 362.67 275.792 362.07C276.032 361.41 276.812 360.69 278.132 359.91C279.512 359.13 280.742 358.68 281.822 358.56C282.902 358.44 283.892 358.62 284.792 359.1C285.692 359.64 286.022 360.24 285.782 360.9C285.542 361.56 284.762 362.25 283.442 362.97ZM279.392 360.63C278.312 361.29 277.652 361.8 277.412 362.16C277.232 362.58 277.382 362.91 277.862 363.15C278.342 363.45 278.912 363.54 279.572 363.42C280.232 363.24 281.102 362.85 282.182 362.25C283.202 361.65 283.832 361.14 284.072 360.72C284.372 360.36 284.252 360.03 283.712 359.73C283.232 359.43 282.662 359.37 282.002 359.55C281.342 359.67 280.472 360.03 279.392 360.63Z" fill="white" fill-opacity="0.3"/>
<path fill-rule="evenodd" clip-rule="evenodd" d="M254.642 379.62C253.262 380.4 252.032 380.85 250.952 380.97C249.872 381.15 248.882 380.97 247.982 380.43C247.082 379.89 246.752 379.32 246.992 378.72C247.232 378.06 248.012 377.34 249.332 376.56C250.652 375.78 251.882 375.33 253.022 375.21C254.102 375.09 255.092 375.27 255.992 375.75C256.832 376.29 257.132 376.89 256.892 377.55C256.712 378.21 255.962 378.9 254.642 379.62ZM250.592 377.28C249.512 377.94 248.852 378.45 248.612 378.81C248.372 379.23 248.492 379.56 248.972 379.8C249.452 380.1 250.052 380.19 250.772 380.07C251.432 379.89 252.302 379.5 253.382 378.9C254.402 378.3 255.032 377.79 255.272 377.37C255.512 377.01 255.392 376.68 254.912 376.38C254.432 376.14 253.862 376.08 253.202 376.2C252.482 376.32 251.612 376.68 250.592 377.28Z" fill="white" fill-opacity="0.3"/>
<g opacity="0.95">
<path d="M313.682 79.1104L329.612 88.2903L313.682 97.4703L297.752 88.2903L313.682 79.1104Z" fill="url(#paint22_linear_17_1195)"/>
<path d="M329.611 279.27L313.681 288.45V97.4703L329.611 88.2903V279.27Z" fill="url(#paint23_linear_17_1195)"/>
<path d="M329.611 279.27L313.681 288.45V97.4703L329.611 88.2903V279.27Z" fill="url(#paint24_linear_17_1195)"/>
<path d="M313.682 288.45L297.752 279.27V88.2903L313.682 97.4703V288.45Z" fill="url(#paint25_linear_17_1195)"/>
</g>
<path style="mix-blend-mode:color-dodge" d="M297.753 88.29L313.593 96.84L329.613 88.29L314.133 97.83L313.683 288.45L312.963 97.74L297.753 88.29Z" fill="url(#paint26_radial_17_1195)"/>
<g opacity="0.95">
<path d="M285.695 121.86L301.625 131.04L285.695 140.22L269.765 131.04L285.695 121.86Z" fill="url(#paint27_linear_17_1195)"/>
<path d="M301.714 294.93L285.694 304.2V140.22L301.714 131.04V294.93Z" fill="url(#paint28_linear_17_1195)"/>
<path d="M285.695 304.2L269.765 294.93V131.04L285.695 140.22V304.2Z" fill="url(#paint29_linear_17_1195)"/>
</g>
<path style="mix-blend-mode:color-dodge" d="M269.765 131.04L285.605 139.59L301.715 131.04L286.235 140.58L285.695 304.2L284.975 140.49L269.765 131.04Z" fill="url(#paint30_radial_17_1195)"/>
<g opacity="0.95">
<path d="M256.981 187.38L272.911 196.65L256.981 205.83L241.052 196.65L256.981 187.38Z" fill="url(#paint31_linear_17_1195)"/>
<path d="M272.911 311.49L256.981 320.67V205.83L272.911 196.65V311.49Z" fill="url(#paint32_linear_17_1195)"/>
<path d="M256.981 320.67L241.052 311.49V196.65L256.981 205.83V320.67Z" fill="url(#paint33_linear_17_1195)"/>
</g>
<path style="mix-blend-mode:color-dodge" d="M241.053 196.65L256.893 205.2L272.913 196.65L257.433 206.19L256.983 320.67L256.263 206.1L241.053 196.65Z" fill="url(#paint34_radial_17_1195)"/>
<g opacity="0.95">
<path d="M228.182 226.26L244.112 235.44L228.182 244.62L212.252 235.44L228.182 226.26Z" fill="url(#paint35_linear_17_1195)"/>
<path d="M244.111 327.69L228.181 336.87V244.62L244.111 235.44V327.69Z" fill="url(#paint36_linear_17_1195)"/>
<path d="M228.182 336.87L212.252 327.69V235.44L228.182 244.62V336.87Z" fill="url(#paint37_linear_17_1195)"/>
</g>
<path style="mix-blend-mode:color-dodge" d="M212.253 235.44L228.093 243.99L244.113 235.44L228.633 244.98L228.183 336.87L227.463 244.89L212.253 235.44Z" fill="url(#paint38_radial_17_1195)"/>
<g opacity="0.95">
<path d="M199.204 286.11L215.134 295.29L199.204 304.56L183.274 295.29L199.204 286.11Z" fill="url(#paint39_linear_17_1195)"/>
<path d="M215.133 344.25L199.203 353.43V304.56L215.133 295.29V344.25Z" fill="url(#paint40_linear_17_1195)"/>
<path d="M199.204 353.43L183.274 344.25V295.29L199.204 304.56V353.43Z" fill="url(#paint41_linear_17_1195)"/>
</g>
<path style="mix-blend-mode:color-dodge" d="M183.274 295.29L199.114 303.84L215.134 295.29L199.654 304.92L199.204 353.43L198.394 304.74L183.274 295.29Z" fill="url(#paint42_radial_17_1195)"/>
<defs>
<linearGradient id="paint0_linear_17_1195" x1="144.843" y1="9.44995" x2="144.843" y2="318.6" gradientUnits="userSpaceOnUse">
<stop stop-color="#2CC8E9" stop-opacity="0"/>
<stop offset="1" stop-color="#1CE0C7"/>
</linearGradient>
<linearGradient id="paint1_linear_17_1195" x1="280.745" y1="13.8735" x2="8.94463" y2="234.824" gradientUnits="userSpaceOnUse">
<stop stop-color="#00A3CB"/>
<stop offset="1" stop-color="#1DDFC8"/>
</linearGradient>
<linearGradient id="paint2_linear_17_1195" x1="105.245" y1="130.14" x2="105.245" y2="261.54" gradientUnits="userSpaceOnUse">
<stop stop-color="#0DAAAA"/>
<stop offset="1" stop-color="#179A97" stop-opacity="0"/>
</linearGradient>
<linearGradient id="paint3_linear_17_1195" x1="28.3873" y1="219.51" x2="28.3873" y2="305.91" gradientUnits="userSpaceOnUse">
<stop stop-color="#0DAAAA"/>
<stop offset="1" stop-color="#179A97" stop-opacity="0"/>
</linearGradient>
<linearGradient id="paint4_linear_17_1195" x1="66.7232" y1="160.56" x2="66.7232" y2="282.96" gradientUnits="userSpaceOnUse">
<stop stop-color="#0DAAAA"/>
<stop offset="1" stop-color="#179A97" stop-opacity="0"/>
</linearGradient>
<linearGradient id="paint5_linear_17_1195" x1="143.495" y1="63.3604" x2="143.495" y2="239.76" gradientUnits="userSpaceOnUse">
<stop stop-color="#0DAAAA"/>
<stop offset="1" stop-color="#179A97" stop-opacity="0"/>
</linearGradient>
<linearGradient id="paint6_linear_17_1195" x1="220.084" y1="30.3302" x2="220.084" y2="194.49" gradientUnits="userSpaceOnUse">
<stop stop-color="#0DAAAA"/>
<stop offset="1" stop-color="#179A97" stop-opacity="0"/>
</linearGradient>
<linearGradient id="paint7_linear_17_1195" x1="258.334" y1="23.3103" x2="258.334" y2="172.71" gradientUnits="userSpaceOnUse">
<stop stop-color="#0DAAAA"/>
<stop offset="1" stop-color="#179A97" stop-opacity="0"/>
</linearGradient>
<linearGradient id="paint8_linear_17_1195" x1="180.755" y1="11.4302" x2="180.755" y2="206.91" gradientUnits="userSpaceOnUse">
<stop/>
<stop offset="1" stop-color="#1EDECA"/>
</linearGradient>
<linearGradient id="paint9_linear_17_1195" x1="-4494.28" y1="142585" x2="-4509.25" y2="143651" gradientUnits="userSpaceOnUse">
<stop stop-color="#82288F"/>
<stop offset="1"/>
</linearGradient>
<linearGradient id="paint10_linear_17_1195" x1="180.891" y1="19.1702" x2="180.891" y2="181.8" gradientUnits="userSpaceOnUse">
<stop stop-color="#1DDFC8"/>
<stop offset="1" stop-color="#2CC8E9" stop-opacity="0"/>
</linearGradient>
<linearGradient id="paint11_linear_17_1195" x1="181.744" y1="0.920654" x2="181.744" y2="20.1718" gradientUnits="userSpaceOnUse">
<stop stop-color="#2DC7EA"/>
<stop offset="1" stop-color="#1CE0C8"/>
</linearGradient>
<linearGradient id="paint12_linear_17_1195" x1="221.256" y1="21.684" x2="221.256" y2="31.6863" gradientUnits="userSpaceOnUse">
<stop stop-color="#2DC7EA"/>
<stop offset="1" stop-color="#1CE0C8"/>
</linearGradient>
<linearGradient id="paint13_linear_17_1195" x1="258.873" y1="11.6042" x2="258.873" y2="21.6066" gradientUnits="userSpaceOnUse">
<stop stop-color="#2DC7EA"/>
<stop offset="1" stop-color="#1CE0C8"/>
</linearGradient>
<linearGradient id="paint14_linear_17_1195" x1="370.834" y1="153" x2="369.924" y2="181.05" gradientUnits="userSpaceOnUse">
<stop offset="0.247573" stop-color="#5CC7FF"/>
<stop offset="1" stop-color="#0FEDBE"/>
</linearGradient>
<linearGradient id="paint15_linear_17_1195" x1="378.798" y1="162.27" x2="378.798" y2="255.33" gradientUnits="userSpaceOnUse">
<stop stop-color="#5CC7FF"/>
<stop offset="1" stop-color="#0FEDBE"/>
</linearGradient>
<linearGradient id="paint16_linear_17_1195" x1="362.869" y1="162.27" x2="362.869" y2="255.33" gradientUnits="userSpaceOnUse">
<stop stop-color="#38A7E1"/>
<stop offset="1" stop-color="#0FEDBE"/>
</linearGradient>
<radialGradient id="paint17_radial_17_1195" cx="0" cy="0" r="1" gradientUnits="userSpaceOnUse" gradientTransform="translate(26933.4 17364.4) scale(1242.12 3628.13)">
<stop stop-color="white"/>
<stop offset="1"/>
</radialGradient>
<linearGradient id="paint18_linear_17_1195" x1="342.079" y1="125.91" x2="341.172" y2="153.96" gradientUnits="userSpaceOnUse">
<stop offset="0.247573" stop-color="#5CC7FF"/>
<stop offset="1" stop-color="#0FEDBE"/>
</linearGradient>
<linearGradient id="paint19_linear_17_1195" x1="350.09" y1="135.09" x2="350.09" y2="271.89" gradientUnits="userSpaceOnUse">
<stop stop-color="#5CC7FF"/>
<stop offset="1" stop-color="#0FEDBE"/>
</linearGradient>
<linearGradient id="paint20_linear_17_1195" x1="334.114" y1="135.09" x2="334.114" y2="271.89" gradientUnits="userSpaceOnUse">
<stop stop-color="#38A7E1"/>
<stop offset="1" stop-color="#0FEDBE"/>
</linearGradient>
<radialGradient id="paint21_radial_17_1195" cx="0" cy="0" r="1" gradientUnits="userSpaceOnUse" gradientTransform="translate(36195 22883) scale(1755.24 7515.38)">
<stop stop-color="white"/>
<stop offset="1"/>
</radialGradient>
<linearGradient id="paint22_linear_17_1195" x1="313.682" y1="79.1104" x2="314.044" y2="112.424" gradientUnits="userSpaceOnUse">
<stop stop-color="white"/>
<stop offset="1" stop-color="#6DE5FF"/>
</linearGradient>
<linearGradient id="paint23_linear_17_1195" x1="-8941.34" y1="230618" x2="-8941.34" y2="236353" gradientUnits="userSpaceOnUse">
<stop offset="0.01" stop-color="#FFE4A7"/>
<stop offset="0.2" stop-color="#F49587"/>
<stop offset="0.6" stop-color="#7C1DC9"/>
<stop offset="1" stop-color="#45108A"/>
</linearGradient>
<linearGradient id="paint24_linear_17_1195" x1="321.646" y1="88.2903" x2="321.646" y2="288.45" gradientUnits="userSpaceOnUse">
<stop stop-color="white"/>
<stop offset="1" stop-color="#6DE5FF"/>
</linearGradient>
<linearGradient id="paint25_linear_17_1195" x1="305.717" y1="88.2903" x2="305.717" y2="288.45" gradientUnits="userSpaceOnUse">
<stop stop-color="#D2F7FF"/>
<stop offset="1" stop-color="#6DE5FF"/>
</linearGradient>
<radialGradient id="paint26_radial_17_1195" cx="0" cy="0" r="1" gradientUnits="userSpaceOnUse" gradientTransform="translate(49511.1 29030) scale(2510.53 15772.4)">
<stop stop-color="white"/>
<stop offset="1"/>
</radialGradient>
<linearGradient id="paint27_linear_17_1195" x1="285.695" y1="121.86" x2="284.794" y2="149.774" gradientUnits="userSpaceOnUse">
<stop offset="0.247573" stop-color="#5CC7FF"/>
<stop offset="1" stop-color="#0FEDBE"/>
</linearGradient>
<linearGradient id="paint28_linear_17_1195" x1="293.704" y1="131.04" x2="293.704" y2="304.2" gradientUnits="userSpaceOnUse">
<stop stop-color="#5CC7FF"/>
<stop offset="1" stop-color="#0FEDBE"/>
</linearGradient>
<linearGradient id="paint29_linear_17_1195" x1="277.73" y1="131.04" x2="277.73" y2="304.2" gradientUnits="userSpaceOnUse">
<stop stop-color="#38A7E1"/>
<stop offset="1" stop-color="#0FEDBE"/>
</linearGradient>
<radialGradient id="paint30_radial_17_1195" cx="0" cy="0" r="1" gradientUnits="userSpaceOnUse" gradientTransform="translate(41164.5 28239.1) scale(2190.2 11870.3)">
<stop stop-color="white"/>
<stop offset="1"/>
</radialGradient>
<linearGradient id="paint31_linear_17_1195" x1="256.981" y1="187.38" x2="256.072" y2="215.43" gradientUnits="userSpaceOnUse">
<stop offset="0.247573" stop-color="#5CC7FF"/>
<stop offset="1" stop-color="#0FEDBE"/>
</linearGradient>
<linearGradient id="paint32_linear_17_1195" x1="264.946" y1="196.65" x2="264.946" y2="320.67" gradientUnits="userSpaceOnUse">
<stop stop-color="#5CC7FF"/>
<stop offset="1" stop-color="#0FEDBE"/>
</linearGradient>
<linearGradient id="paint33_linear_17_1195" x1="249.016" y1="196.65" x2="249.016" y2="320.67" gradientUnits="userSpaceOnUse">
<stop stop-color="#38A7E1"/>
<stop offset="1" stop-color="#0FEDBE"/>
</linearGradient>
<radialGradient id="paint34_radial_17_1195" cx="0" cy="0" r="1" gradientUnits="userSpaceOnUse" gradientTransform="translate(28764.2 24086.9) scale(1600.29 6229.4)">
<stop stop-color="white"/>
<stop offset="1"/>
</radialGradient>
<linearGradient id="paint35_linear_17_1195" x1="228.182" y1="226.26" x2="227.281" y2="254.174" gradientUnits="userSpaceOnUse">
<stop offset="0.247573" stop-color="#5CC7FF"/>
<stop offset="1" stop-color="#0FEDBE"/>
</linearGradient>
<linearGradient id="paint36_linear_17_1195" x1="236.146" y1="235.44" x2="236.146" y2="336.87" gradientUnits="userSpaceOnUse">
<stop stop-color="#5CC7FF"/>
<stop offset="1" stop-color="#0FEDBE"/>
</linearGradient>
<linearGradient id="paint37_linear_17_1195" x1="220.217" y1="235.44" x2="220.217" y2="336.87" gradientUnits="userSpaceOnUse">
<stop stop-color="#38A7E1"/>
<stop offset="1" stop-color="#0FEDBE"/>
</linearGradient>
<radialGradient id="paint38_radial_17_1195" cx="0" cy="0" r="1" gradientUnits="userSpaceOnUse" gradientTransform="translate(22835 21822.9) scale(1337.04 4256.61)">
<stop stop-color="white"/>
<stop offset="1"/>
</radialGradient>
<linearGradient id="paint39_linear_17_1195" x1="199.204" y1="286.11" x2="198.294" y2="314.16" gradientUnits="userSpaceOnUse">
<stop offset="0.247573" stop-color="#5CC7FF"/>
<stop offset="1" stop-color="#0FEDBE"/>
</linearGradient>
<linearGradient id="paint40_linear_17_1195" x1="207.168" y1="295.29" x2="207.168" y2="353.43" gradientUnits="userSpaceOnUse">
<stop stop-color="#5CC7FF"/>
<stop offset="1" stop-color="#0FEDBE"/>
</linearGradient>
<linearGradient id="paint41_linear_17_1195" x1="191.239" y1="295.29" x2="191.239" y2="353.43" gradientUnits="userSpaceOnUse">
<stop stop-color="#38A7E1"/>
<stop offset="1" stop-color="#0FEDBE"/>
</linearGradient>
<radialGradient id="paint42_radial_17_1195" cx="0" cy="0" r="1" gradientUnits="userSpaceOnUse" gradientTransform="translate(13953.1 15794.4) scale(859.996 1569.37)">
<stop stop-color="white"/>
<stop offset="1"/>
</radialGradient>
</defs>
</svg>
