<svg width="100%" height="100%" viewBox="0 0 508 333" fill="none" xmlns="http://www.w3.org/2000/svg">
<g opacity="0.2">
<path style="mix-blend-mode:lighten" opacity="0.6" d="M0 181.75L156.632 91.3098L414.568 240.438C416.808 241.726 416.808 244.974 414.568 246.262L269.192 330.15C265.384 332.39 260.624 332.39 256.76 330.15L0 181.75Z" fill="url(#paint0_linear_17_1343)"/>
</g>
<g opacity="0.5">
<path style="mix-blend-mode:lighten" opacity="0.6" d="M0 165.734L156.632 75.3499L414.568 224.422C416.808 225.71 416.808 228.958 414.568 230.246L269.192 314.19C265.384 316.374 260.624 316.374 256.76 314.19L0 165.734Z" fill="url(#paint1_linear_17_1343)"/>
</g>
<g opacity="0.1">
<path d="M0.000976562 149.774L156.633 59.3338L414.569 208.462C416.809 209.75 416.809 212.998 414.569 214.286L269.193 298.174C265.385 300.414 260.625 300.414 256.761 298.174L0.000976562 149.774Z" fill="url(#paint2_linear_17_1343)" style="mix-blend-mode:lighten"/>
</g>
<path opacity="0.3" d="M125.162 119.366L96.0417 102.566L125.162 85.7659L154.226 102.566L125.162 119.366Z" fill="#42E8E0"/>
<path opacity="0.5" d="M125.162 99.9898L96.0417 83.1898L125.162 66.3898L154.226 83.1898L125.162 99.9898Z" fill="#42E8E0"/>
<path opacity="0.7" d="M125.162 84.4777L96.0417 67.6777L125.162 50.8777L154.226 67.6777L125.162 84.4777Z" fill="#42E8E0"/>
<path fill-rule="evenodd" clip-rule="evenodd" d="M125.161 85.3178C125.012 85.3178 124.862 85.2805 124.713 85.2058L95.6489 68.4058C95.3689 68.2378 95.2009 67.9578 95.2009 67.6778C95.2009 67.3978 95.3689 67.1178 95.6489 66.9498L124.713 50.1498C124.993 50.0378 125.273 50.0378 125.553 50.1498L154.673 66.9498C154.897 67.1178 155.065 67.3978 155.065 67.6778C155.065 67.9578 154.897 68.2378 154.673 68.4058L125.553 85.2058C125.441 85.2805 125.31 85.3178 125.161 85.3178ZM97.6649 67.6778L125.161 83.5258L152.601 67.6778L125.161 51.8298L97.6649 67.6778Z" fill="#42E8E0"/>
<path opacity="0.4" d="M359.747 318.222C393.571 337.766 448.395 337.766 482.219 318.222C516.043 298.678 516.043 267.038 482.219 247.494C448.395 228.006 393.571 228.006 359.747 247.494C325.923 267.038 325.923 298.678 359.747 318.222Z" fill="black" fill-opacity="0.6"/>
<g style="mix-blend-mode:lighten">
<path fill-rule="evenodd" clip-rule="evenodd" d="M263.145 300.526C260.569 300.526 258.049 299.854 255.865 298.566L172.201 250.238C170.857 249.454 170.073 248.11 170.073 246.598C170.073 245.086 170.857 243.742 172.201 242.958L323.625 155.542C323.849 155.43 324.185 155.43 324.409 155.542L414.961 207.846C416.305 208.574 417.089 209.918 417.089 211.43C417.089 212.942 416.305 214.342 414.961 215.07L270.369 298.566C268.185 299.854 265.665 300.526 263.145 300.526ZM324.017 157.222L172.985 244.414C172.201 244.862 171.753 245.702 171.753 246.598C171.753 247.55 172.201 248.334 172.985 248.782L256.705 297.11C260.569 299.35 265.665 299.35 269.585 297.11L414.177 213.67C414.961 213.222 415.409 212.382 415.409 211.43C415.409 210.534 414.961 209.694 414.177 209.246L324.017 157.222Z" fill="#42E8E0"/>
</g>
<path d="M324.187 121.774L304.083 2.26976L305.707 1.59776L303.243 0.197759C302.795 -0.0822411 302.123 -0.0822428 301.395 0.309757L140.395 93.2698C139.107 94.0538 138.099 96.0138 138.323 97.3578L158.595 217.814C158.707 218.43 159.043 218.878 159.491 219.046H159.435L161.843 220.446L162.235 218.206L162.123 218.262L322.115 125.862C323.459 125.078 324.467 123.118 324.187 121.774Z" fill="url(#paint3_linear_17_1343)"/>
<path d="M141.288 96.5737L138.656 95.3977C138.376 96.0697 138.208 96.7417 138.32 97.3577L158.592 217.814C158.704 218.43 159.04 218.878 159.488 219.046H159.432L161.84 220.446L162.232 218.206L162.12 218.262L170.184 213.558L141.288 96.5737Z" fill="url(#paint4_linear_17_1343)"/>
<path d="M324.186 121.774L304.082 2.26992L305.314 1.76592C304.866 0.981922 304.026 0.813918 303.018 1.42992L142.018 94.3339C140.674 95.1179 139.722 97.0779 139.946 98.4219L160.218 218.878C160.293 219.214 160.405 219.475 160.554 219.662L161.506 220.222C161.618 220.222 161.749 220.222 161.898 220.222L162.234 218.206L162.122 218.262L322.114 125.862C323.458 125.078 324.466 123.118 324.186 121.774Z" fill="#42E8E0"/>
<path d="M324.634 127.318L163.69 220.278C162.402 220.95 161.338 220.558 161.114 219.27L140.842 98.8139C140.618 97.4699 141.626 95.5099 142.914 94.7259L303.914 1.76589C305.146 1.09389 306.21 1.48589 306.434 2.77389L326.762 123.23C326.986 124.574 325.978 126.534 324.634 127.318Z" fill="#010710"/>
<g opacity="0.51">
<path d="M301.785 9.49371L146.609 99.0377L165.873 212.494L320.937 122.95L301.785 9.49371Z" fill="#07152A"/>
</g>
<path d="M425.825 184.326L417.033 188.918L328.945 138.07C327.489 137.23 324.913 137.342 323.233 138.294L171.249 226.046C169.849 225.206 163.185 222.014 163.185 222.014L166.433 230.414C166.545 230.75 166.825 231.086 167.329 231.366L260.121 284.958C261.577 285.798 264.153 285.686 265.833 284.734L421.345 194.966C422.017 194.574 422.465 194.07 422.633 193.566L425.825 184.326Z" fill="#0CC7B3"/>
<path d="M424.48 185.782L265.16 277.79C263.368 278.798 260.736 278.91 259.224 278.014L164.136 223.134C162.624 222.238 162.848 220.726 164.584 219.718L323.904 127.71C325.64 126.702 328.328 126.59 329.84 127.486L424.928 182.366C426.44 183.262 426.216 184.774 424.48 185.782Z" fill="url(#paint5_linear_17_1343)"/>
<path d="M424.481 184.886L265.161 276.838C263.369 277.846 260.737 277.958 259.225 277.118L164.137 222.182C163.689 221.902 163.353 221.566 163.241 221.174C163.017 221.902 163.297 222.63 164.137 223.134L259.225 278.014C260.737 278.91 263.369 278.798 265.161 277.79L424.481 185.782C425.657 185.11 426.105 184.214 425.825 183.43C425.657 183.934 425.209 184.438 424.481 184.886Z" fill="white"/>
<path d="M217.057 257.854V256.118C217.057 255.95 217.169 255.894 217.281 255.95L223.441 259.534C223.609 259.59 223.665 259.758 223.665 259.926V261.718C223.665 261.886 223.609 261.942 223.441 261.886L217.281 258.302C217.169 258.246 217.057 258.022 217.057 257.854Z" fill="#2842A2"/>
<path d="M226.298 263.174V261.438C226.298 261.27 226.41 261.214 226.522 261.27L232.682 264.854C232.794 264.91 232.906 265.134 232.906 265.246V267.038C232.906 267.206 232.794 267.262 232.682 267.206L226.522 263.622C226.41 263.566 226.298 263.342 226.298 263.174Z" fill="#2842A2"/>
<path d="M188.946 217.982L321.386 141.542C322.226 141.038 323.346 141.038 324.242 141.542L371.394 168.814C372.066 169.206 372.066 170.214 371.394 170.55L239.01 246.99C238.114 247.494 237.05 247.494 236.154 246.99L188.946 219.718C188.274 219.382 188.274 218.374 188.946 217.982Z" fill="url(#paint6_linear_17_1343)"/>
<path d="M188.946 219.718L189.45 219.998L321.386 143.838C322.226 143.334 323.346 143.334 324.242 143.838L370.89 170.83L371.394 170.55C372.066 170.214 372.066 169.206 371.394 168.814L324.242 141.542C323.346 141.038 322.226 141.038 321.386 141.542L188.946 217.982C188.274 218.374 188.274 219.382 188.946 219.718Z" fill="#0DAD9B"/>
<path d="M327.771 148.43L212.747 214.846L207.651 211.878L322.675 145.518L327.771 148.43Z" fill="white" fill-opacity="0.5"/>
<path d="M340.312 155.71L232.4 217.982L227.304 215.014L335.216 152.742L340.312 155.71Z" fill="white" fill-opacity="0.35"/>
<path d="M348.489 160.414L221.481 233.718L216.329 230.806L343.337 157.446L348.489 160.414Z" fill="white" fill-opacity="0.35"/>
<path d="M356.664 165.118L229.6 238.478L224.504 235.51L351.512 162.15L356.664 165.118Z" fill="white" fill-opacity="0.35"/>
<path d="M364.786 169.822L237.778 243.182L232.682 240.214L359.69 166.854L364.786 169.822Z" fill="white" fill-opacity="0.35"/>
<path d="M205.802 218.878L200.706 221.846L195.554 218.878L200.706 215.91L205.802 218.878Z" fill="white" fill-opacity="0.35"/>
<path d="M223.834 222.91L213.25 229.07L208.098 226.102L218.738 219.998L223.834 222.91Z" fill="white" fill-opacity="0.35"/>
<path d="M326.482 236.462L362.154 215.854C363.554 215.07 363.554 213.782 362.154 212.942L337.738 198.886C336.338 198.046 334.098 198.046 332.698 198.886L296.97 219.494C295.57 220.278 295.57 221.566 296.97 222.406L321.386 236.462C322.786 237.302 325.082 237.302 326.482 236.462Z" fill="url(#paint7_linear_17_1343)"/>
<path d="M296.969 220.67L332.697 200.062C334.097 199.222 336.337 199.222 337.737 200.062L362.153 214.174C362.601 214.398 362.881 214.678 363.049 215.014C363.385 214.286 363.105 213.502 362.153 212.942L337.737 198.886C336.337 198.046 334.097 198.046 332.697 198.886L296.969 219.494C296.017 220.054 295.737 220.838 296.129 221.51C296.297 221.23 296.577 220.894 296.969 220.67Z" fill="#0DAC9B"/>
<g opacity="0.11">
<path d="M324.072 127.542L164.752 219.55C163.016 220.558 160.328 220.67 158.816 219.774L63.784 164.894C62.272 163.998 62.44 162.486 64.176 161.478L223.496 69.4697C225.288 68.4617 227.92 68.3497 229.432 69.2457L324.52 124.126C326.032 125.022 325.808 126.534 324.072 127.542Z" fill="url(#paint8_linear_17_1343)"/>
<path d="M164.246 144.006L199.974 123.398C201.374 122.614 201.374 121.326 199.974 120.486L175.558 106.43C174.158 105.59 171.918 105.59 170.518 106.43L134.79 127.038C133.39 127.822 133.39 129.11 134.79 129.95L159.206 144.006C160.606 144.846 162.846 144.846 164.246 144.006Z" fill="url(#paint9_linear_17_1343)"/>
<path d="M134.792 128.214L170.52 107.606C171.92 106.766 174.16 106.766 175.56 107.606L199.976 121.718C200.424 121.942 200.704 122.222 200.816 122.558C201.208 121.83 200.928 121.046 199.976 120.486L175.56 106.43C174.16 105.59 171.92 105.59 170.52 106.43L134.792 127.038C133.84 127.598 133.56 128.382 133.896 129.054C134.064 128.774 134.344 128.438 134.792 128.214Z" fill="#1EDDCB"/>
<path d="M119.113 176.262L251.497 99.8217C252.393 99.2617 253.457 99.2617 254.353 99.8217L301.505 127.094C302.177 127.486 302.177 128.438 301.505 128.83L169.177 205.27C168.281 205.774 167.217 205.774 166.321 205.27L119.113 177.998C118.441 177.606 118.441 176.654 119.113 176.262Z" fill="#ADB1F2"/>
<path d="M119.113 177.998L119.561 178.278L251.497 102.118C252.393 101.614 253.457 101.614 254.353 102.118L301.057 129.11L301.505 128.83C302.177 128.438 302.177 127.486 301.505 127.094L254.353 99.8217C253.457 99.2617 252.393 99.2617 251.497 99.8217L119.113 176.262C118.441 176.654 118.441 177.606 119.113 177.998Z" fill="#1EDDCB"/>
<path d="M289.182 125.19L173.822 191.83L178.414 194.462L293.774 127.878L289.182 125.19Z" fill="#0AA3BE"/>
<path d="M277.032 118.19L167.384 181.526L171.976 184.158L281.568 120.822L277.032 118.19Z" fill="#0AA3BE"/>
<path d="M159.207 186.23L148.959 192.166L153.495 194.798L163.743 188.862L159.207 186.23Z" fill="#0AA3BE"/>
<path d="M168.224 195.022L161.112 199.166L165.704 201.798L172.816 197.654L168.224 195.022Z" fill="#0AA3BE"/>
<path d="M269.415 113.822L141.344 187.742L145.88 190.374L273.952 116.454L269.415 113.822Z" fill="#0AA3BE"/>
<path d="M261.8 109.398L133.728 183.374L138.264 186.006L266.336 112.03L261.8 109.398Z" fill="#0AA3BE"/>
<path d="M254.184 105.03L126.112 178.95L130.648 181.582L258.72 107.662L254.184 105.03Z" fill="#0AA3BE"/>
</g>
<path d="M205.073 169.262L217.617 161.982L218.009 164.166L205.409 171.446L205.073 169.262Z" fill="#42E8E0"/>
<path d="M219.632 160.862L226.464 156.886L226.856 159.07L220.024 163.046L219.632 160.862Z" fill="#42E8E0"/>
<path d="M237.104 150.726L242.088 147.87L242.424 150.054L237.496 152.91L237.104 150.726Z" fill="#42E8E0"/>
<path d="M233.523 152.854L235.203 151.846L235.595 154.03L233.859 154.982L233.523 152.854Z" fill="#42E8E0"/>
<path d="M228.539 155.71L231.619 153.918L231.955 156.102L228.875 157.894L228.539 155.71Z" fill="#42E8E0"/>
<path d="M214.985 152.574L219.969 149.718L220.305 151.902L215.377 154.758L214.985 152.574Z" fill="#42E8E0"/>
<path d="M203.395 159.294L213.083 153.694L213.419 155.878L203.731 161.478L203.395 159.294Z" fill="#42E8E0"/>
<path d="M217.282 123.958L226.97 118.358L227.362 120.542L217.674 126.142L217.282 123.958Z" fill="#42E8E0"/>
<path d="M212.298 126.87L215.378 125.078L215.714 127.262L212.634 128.998L212.298 126.87Z" fill="#42E8E0"/>
<path d="M218.904 133.926L228.592 128.326L228.984 130.51L219.24 136.11L218.904 133.926Z" fill="#42E8E0"/>
<path d="M213.923 136.838L217.003 135.046L217.339 137.23L214.259 139.022L213.923 136.838Z" fill="#42E8E0"/>
<path d="M210.112 80.9499L191.856 91.4779L191.464 89.2939L209.776 78.7659L210.112 80.9499Z" fill="#42E8E0"/>
<path d="M216.554 77.1978L212.018 79.8298L211.682 77.6458L216.218 75.0138L216.554 77.1978Z" fill="#42E8E0"/>
<path d="M248.643 75.0699L230.387 85.6539L230.051 83.4699L248.307 72.8859L248.643 75.0699Z" fill="#42E8E0"/>
<path d="M255.082 71.3738L250.602 73.9498L250.21 71.8218L254.746 69.1898L255.082 71.3738Z" fill="#42E8E0"/>
<path d="M197.624 93.6059L192.696 96.4619L192.304 94.2779L197.288 91.4219L197.624 93.6059Z" fill="#42E8E0"/>
<path d="M227.752 87.1659L222.824 90.0219L222.432 87.8379L227.416 84.9819L227.752 87.1659Z" fill="#42E8E0"/>
<path d="M209.275 86.8859L199.587 92.4859L199.195 90.3019L208.883 84.7019L209.275 86.8859Z" fill="#42E8E0"/>
<path d="M214.257 84.0299L211.177 85.7659L210.785 83.582L213.865 81.8459L214.257 84.0299Z" fill="#42E8E0"/>
<path d="M225.962 77.2538L216.274 82.8538L215.882 80.6698L225.57 75.0698L225.962 77.2538Z" fill="#42E8E0"/>
<path d="M230.945 74.3418L227.865 76.1337L227.529 73.9497L230.553 72.2137L230.945 74.3418Z" fill="#42E8E0"/>
<path d="M226.915 82.1817L221.987 85.0377L221.595 82.8537L226.523 79.9977L226.915 82.1817Z" fill="#42E8E0"/>
<path d="M238.506 75.4617L228.818 81.0617L228.482 78.8777L238.17 73.2777L238.506 75.4617Z" fill="#42E8E0"/>
<path d="M243.545 72.5498L240.465 74.3418L240.073 72.1578L243.153 70.3658L243.545 72.5498Z" fill="#42E8E0"/>
<path d="M203.673 95.566L193.537 101.446L193.145 99.262L203.281 93.382L203.673 95.566Z" fill="#42E8E0"/>
<path d="M212.914 90.2459L205.578 94.5019L205.242 92.3179L212.522 88.0619L212.914 90.2459Z" fill="#42E8E0"/>
<path d="M219.746 86.2698L214.818 89.1258L214.482 86.9418L219.41 84.0858L219.746 86.2698Z" fill="#42E8E0"/>
<path d="M267.791 64.0377L257.655 69.9177L257.263 67.7337L267.399 61.8537L267.791 64.0377Z" fill="#42E8E0"/>
<path d="M277.032 58.7178L269.696 62.9738L269.304 60.7898L276.64 56.5338L277.032 58.7178Z" fill="#42E8E0"/>
<path d="M283.865 54.7418L278.937 57.5977L278.545 55.4137L283.529 52.5577L283.865 54.7418Z" fill="#42E8E0"/>
<path d="M263.82 129.838L273.956 124.014L274.292 126.198L264.212 132.022L263.82 129.838Z" fill="#42E8E0"/>
<path d="M254.579 135.214L261.915 130.958L262.251 133.142L254.971 137.398L254.579 135.214Z" fill="#42E8E0"/>
<path d="M247.692 139.19L252.676 136.334L253.012 138.518L248.084 141.374L247.692 139.19Z" fill="#42E8E0"/>
<path d="M260.457 137.286L270.593 131.462L270.929 133.59L260.849 139.47L260.457 137.286Z" fill="#42E8E0"/>
<path d="M251.22 142.606L258.556 138.406L258.892 140.59L251.612 144.79L251.22 142.606Z" fill="#42E8E0"/>
<path d="M244.329 146.582L249.313 143.726L249.649 145.91L244.721 148.766L244.329 146.582Z" fill="#42E8E0"/>
<path d="M219.579 128.102L222.995 126.086L223.331 128.27L219.915 130.286L219.579 128.102Z" fill="#42E8E0"/>
<path d="M213.138 131.798L217.674 129.166L218.01 131.35L213.474 133.982L213.138 131.798Z" fill="#42E8E0"/>
<path d="M204.57 100.55L194.434 106.374L194.098 104.19L204.178 98.3658L204.57 100.55Z" fill="#42E8E0"/>
<path d="M213.81 95.1739L206.474 99.4299L206.138 97.2459L213.418 92.9899L213.81 95.1739Z" fill="#42E8E0"/>
<path d="M220.699 91.2538L215.715 94.1098L215.379 91.9258L220.307 89.0698L220.699 91.2538Z" fill="#42E8E0"/>
<path d="M198.69 109.398L195.274 111.358L194.938 109.174L198.354 107.214L198.69 109.398Z" fill="#42E8E0"/>
<path d="M205.129 105.646L200.649 108.278L200.257 106.094L204.793 103.518L205.129 105.646Z" fill="#42E8E0"/>
<path d="M214.37 100.382L207.09 104.582L206.698 102.398L213.978 98.1976L214.37 100.382Z" fill="#42E8E0"/>
<path d="M224.226 141.822L227.642 139.806L228.034 141.99L224.562 144.006L224.226 141.822Z" fill="#42E8E0"/>
<path d="M217.785 145.518L222.321 142.942L222.657 145.126L218.177 147.702L217.785 145.518Z" fill="#42E8E0"/>
<path d="M208.601 150.838L215.881 146.638L216.217 148.822L208.937 153.022L208.601 150.838Z" fill="#42E8E0"/>
<path d="M229.432 133.702L236.712 129.502L237.104 131.686L229.824 135.886L229.432 133.702Z" fill="#42E8E0"/>
<path d="M217.504 140.198L227.36 134.542L227.696 136.726L217.896 142.382L217.504 140.198Z" fill="#42E8E0"/>
<path d="M212.523 143.11L215.603 141.318L215.995 143.502L212.915 145.294L212.523 143.11Z" fill="#42E8E0"/>
<path d="M207.76 145.854L210.784 144.118L211.177 146.302L208.097 148.038L207.76 145.854Z" fill="#42E8E0"/>
<path d="M208.379 117.742L218.123 112.142L218.459 114.326L208.771 119.926L208.379 117.742Z" fill="#42E8E0"/>
<path d="M203.395 120.598L206.475 118.862L206.867 121.046L203.787 122.782L203.395 120.598Z" fill="#42E8E0"/>
<path d="M209.051 111.862L212.467 109.902L212.859 112.086L209.443 114.046L209.051 111.862Z" fill="#42E8E0"/>
<path d="M221.145 115.894L224.561 113.878L224.953 116.062L221.537 118.022L221.145 115.894Z" fill="#42E8E0"/>
<path d="M226.02 113.038L234.252 108.334L234.588 110.518L226.412 115.222L226.02 113.038Z" fill="#42E8E0"/>
<path d="M235.704 107.494L240.576 104.638L240.912 106.822L236.04 109.678L235.704 107.494Z" fill="#42E8E0"/>
<path d="M202.61 115.614L207.146 112.982L207.538 115.166L203.002 117.798L202.61 115.614Z" fill="#42E8E0"/>
<path d="M202.22 110.462L205.636 108.502L205.972 110.686L202.556 112.646L202.22 110.462Z" fill="#42E8E0"/>
<path d="M195.779 114.214L200.259 111.582L200.651 113.766L196.115 116.398L195.779 114.214Z" fill="#42E8E0"/>
<path d="M216.16 118.75L219.24 116.958L219.632 119.142L216.552 120.934L216.16 118.75Z" fill="#42E8E0"/>
<path d="M211.401 121.494L214.481 119.702L214.817 121.886L211.737 123.678L211.401 121.494Z" fill="#42E8E0"/>
<path d="M234.979 146.526L245.451 140.478L245.843 142.662L235.371 148.71L234.979 146.526Z" fill="#42E8E0"/>
<path d="M223.273 153.302L233.073 147.646L233.409 149.83L223.609 155.486L223.273 153.302Z" fill="#42E8E0"/>
<path d="M218.232 156.214L221.312 154.422L221.704 156.606L218.624 158.398L218.232 156.214Z" fill="#42E8E0"/>
<path d="M213.473 158.958L216.553 157.166L216.889 159.35L213.865 161.142L213.473 158.958Z" fill="#42E8E0"/>
<path d="M210.84 160.47L204.232 164.278L204.568 166.462L211.232 162.654L210.84 160.47Z" fill="#42E8E0"/>
<path opacity="0.7" d="M356.665 307.638L327.545 290.838L356.665 274.038L385.729 290.838L356.665 307.638Z" fill="#42E8E0"/>
<path fill-rule="evenodd" clip-rule="evenodd" d="M356.664 308.478C356.515 308.478 356.365 308.441 356.216 308.366L327.152 291.566C326.872 291.398 326.704 291.174 326.704 290.838C326.704 290.558 326.872 290.278 327.152 290.166L356.216 273.366C356.496 273.198 356.776 273.198 357.056 273.366L386.176 290.166C386.4 290.278 386.568 290.558 386.568 290.838C386.568 291.174 386.4 291.398 386.176 291.566L357.056 308.366C356.944 308.441 356.813 308.478 356.664 308.478ZM329.168 290.838L356.664 306.686L384.104 290.838L356.664 274.99L329.168 290.838Z" fill="#42E8E0"/>
<path opacity="0.7" d="M421.011 291.678L405.723 282.886L421.011 274.038L436.243 282.886L421.011 291.678Z" fill="#42E8E0"/>
<path opacity="0.5" d="M421.011 282.886L405.723 274.038L421.011 265.246L436.243 274.038L421.011 282.886Z" fill="#42E8E0"/>
<path opacity="0.3" d="M421.011 274.038L405.723 265.246L421.011 256.398L436.243 265.246L421.011 274.038Z" fill="#42E8E0"/>
<path fill-rule="evenodd" clip-rule="evenodd" d="M421.01 292.518C420.861 292.518 420.712 292.481 420.562 292.406L405.33 283.558C405.05 283.446 404.882 283.166 404.882 282.886C404.882 282.55 405.05 282.326 405.33 282.158L420.562 273.366C420.842 273.198 421.122 273.198 421.402 273.366L436.69 282.158C436.914 282.326 437.082 282.55 437.082 282.886C437.082 283.166 436.914 283.446 436.69 283.558L421.402 292.406C421.29 292.481 421.16 292.518 421.01 292.518ZM407.346 282.886L421.01 290.726L434.618 282.886L421.01 274.99L407.346 282.886Z" fill="#42E8E0"/>
<path opacity="0.7" d="M86.8018 237.862L71.5698 229.07L86.8018 220.222L102.09 229.07L86.8018 237.862Z" fill="#42E8E0"/>
<path fill-rule="evenodd" clip-rule="evenodd" d="M86.8012 238.702C86.6519 238.702 86.5212 238.664 86.4092 238.59L71.1212 229.798C70.8972 229.63 70.7292 229.35 70.7292 229.07C70.7292 228.734 70.8972 228.51 71.1212 228.342L86.4092 219.55C86.6332 219.382 86.9692 219.382 87.2492 219.55L102.481 228.342C102.761 228.51 102.929 228.734 102.929 229.07C102.929 229.35 102.761 229.63 102.481 229.798L87.2492 238.59C87.0999 238.664 86.9506 238.702 86.8012 238.702ZM73.1932 229.07L86.8012 236.91L100.409 229.07L86.8012 221.174L73.1932 229.07Z" fill="#42E8E0"/>
<defs>
<linearGradient id="paint0_linear_17_1343" x1="-5930.58" y1="-61579.1" x2="-201519" y2="-174502" gradientUnits="userSpaceOnUse">
<stop stop-color="#42E8E0"/>
<stop offset="1" stop-color="#180D5B"/>
</linearGradient>
<linearGradient id="paint1_linear_17_1343" x1="-7663.23" y1="-58594" x2="-203252" y2="-171517" gradientUnits="userSpaceOnUse">
<stop stop-color="#42E8E0"/>
<stop offset="1" stop-color="#180D5B"/>
</linearGradient>
<linearGradient id="paint2_linear_17_1343" x1="-9401.96" y1="-55598.4" x2="-204990" y2="-168521" gradientUnits="userSpaceOnUse">
<stop stop-color="#42E8E0"/>
<stop offset="1" stop-color="#180D5B"/>
</linearGradient>
<linearGradient id="paint3_linear_17_1343" x1="68377.6" y1="55206.6" x2="130126" y2="55206.6" gradientUnits="userSpaceOnUse">
<stop stop-color="#C0BFF6"/>
<stop offset="1" stop-color="#E9E9FD"/>
</linearGradient>
<linearGradient id="paint4_linear_17_1343" x1="11855.4" y1="52715.8" x2="13674.4" y2="52715.8" gradientUnits="userSpaceOnUse">
<stop stop-color="#5761D7"/>
<stop offset="1" stop-color="#BCBEFF"/>
</linearGradient>
<linearGradient id="paint5_linear_17_1343" x1="108335" y1="72499.2" x2="231659" y2="72499.2" gradientUnits="userSpaceOnUse">
<stop stop-color="#92DEEE"/>
<stop offset="0.8" stop-color="white"/>
</linearGradient>
<linearGradient id="paint6_linear_17_1343" x1="372" y1="169" x2="188" y2="222" gradientUnits="userSpaceOnUse">
<stop stop-color="#1CE0C8"/>
<stop offset="0.826116" stop-color="#2BCAE6"/>
</linearGradient>
<linearGradient id="paint7_linear_17_1343" x1="329.562" y1="198.256" x2="329.562" y2="237.092" gradientUnits="userSpaceOnUse">
<stop stop-color="#0DB9DE"/>
<stop offset="1" stop-color="#17C1AB"/>
</linearGradient>
<linearGradient id="paint8_linear_17_1343" x1="61132.6" y1="56662.2" x2="184442" y2="56662.2" gradientUnits="userSpaceOnUse">
<stop stop-color="#C0BFF6"/>
<stop offset="1" stop-color="#E9E9FD"/>
</linearGradient>
<linearGradient id="paint9_linear_17_1343" x1="24269.9" y1="17168.9" x2="32351.7" y2="17168.9" gradientUnits="userSpaceOnUse">
<stop stop-color="#C0BFF6"/>
<stop offset="1" stop-color="#E9E9FD"/>
</linearGradient>
</defs>
</svg>
