<svg width="100%" height="100%" viewBox="0 0 465 347" fill="none" xmlns="http://www.w3.org/2000/svg">
<g opacity="0.5">
<path d="M144.044 84.6256C144.044 86.1936 142.789 87.448 141.221 87.448C139.653 87.448 138.354 86.1936 138.354 84.6256C138.354 83.0576 139.653 81.7584 141.221 81.7584C142.789 81.7584 144.044 83.0576 144.044 84.6256Z" fill="#81DAFE"/>
<path opacity="0.8" d="M153.228 84.6256C153.228 86.1936 151.974 87.448 150.406 87.448C148.838 87.448 147.539 86.1936 147.539 84.6256C147.539 83.0576 148.838 81.7584 150.406 81.7584C151.974 81.7584 153.228 83.0576 153.228 84.6256Z" fill="#81DAFE"/>
<path opacity="0.6" d="M162.412 84.6256C162.412 86.1936 161.113 87.448 159.545 87.448C157.977 87.448 156.723 86.1936 156.723 84.6256C156.723 83.0576 157.977 81.7584 159.545 81.7584C161.113 81.7584 162.412 83.0576 162.412 84.6256Z" fill="#81DAFE"/>
<path opacity="0.4" d="M171.597 84.6256C171.597 86.1936 170.298 87.448 168.73 87.448C167.162 87.448 165.907 86.1936 165.907 84.6256C165.907 83.0576 167.162 81.7584 168.73 81.7584C170.298 81.7584 171.597 83.0576 171.597 84.6256Z" fill="#81DAFE"/>
<path opacity="0.2" d="M180.734 84.6256C180.734 86.1936 179.48 87.448 177.912 87.448C176.344 87.448 175.045 86.1936 175.045 84.6256C175.045 83.0576 176.344 81.7584 177.912 81.7584C179.48 81.7584 180.734 83.0576 180.734 84.6256Z" fill="#81DAFE"/>
<path d="M144.044 61.5089C144.044 63.0769 142.789 64.3313 141.221 64.3313C139.653 64.3313 138.354 63.0769 138.354 61.5089C138.354 59.9409 139.653 58.6417 141.221 58.6417C142.789 58.6417 144.044 59.9409 144.044 61.5089Z" fill="#81DAFE"/>
<path opacity="0.8" d="M153.228 61.5089C153.228 63.0769 151.974 64.3313 150.406 64.3313C148.838 64.3313 147.539 63.0769 147.539 61.5089C147.539 59.9409 148.838 58.6417 150.406 58.6417C151.974 58.6417 153.228 59.9409 153.228 61.5089Z" fill="#81DAFE"/>
<path opacity="0.6" d="M162.412 61.5089C162.412 63.0769 161.113 64.3313 159.545 64.3313C157.977 64.3313 156.723 63.0769 156.723 61.5089C156.723 59.9409 157.977 58.6417 159.545 58.6417C161.113 58.6417 162.412 59.9409 162.412 61.5089Z" fill="#81DAFE"/>
<path opacity="0.4" d="M171.597 61.5089C171.597 63.0769 170.298 64.3313 168.73 64.3313C167.162 64.3313 165.907 63.0769 165.907 61.5089C165.907 59.9409 167.162 58.6417 168.73 58.6417C170.298 58.6417 171.597 59.9409 171.597 61.5089Z" fill="#81DAFE"/>
<path opacity="0.2" d="M180.734 61.5089C180.734 63.0769 179.48 64.3313 177.912 64.3313C176.344 64.3313 175.045 63.0769 175.045 61.5089C175.045 59.9409 176.344 58.6417 177.912 58.6417C179.48 58.6417 180.734 59.9409 180.734 61.5089Z" fill="#81DAFE"/>
<path d="M129.035 61.5089C129.035 59.9409 130.335 58.6417 131.903 58.6417C133.471 58.6417 134.725 59.9409 134.725 61.5089C134.725 63.0769 133.471 64.3313 131.903 64.3313C130.335 64.3313 129.035 63.0769 129.035 61.5089Z" fill="#81DAFE"/>
<path opacity="0.8" d="M119.851 61.5089C119.851 59.9409 121.15 58.6417 122.718 58.6417C124.286 58.6417 125.541 59.9409 125.541 61.5089C125.541 63.0769 124.286 64.3313 122.718 64.3313C121.15 64.3313 119.851 63.0769 119.851 61.5089Z" fill="#81DAFE"/>
<path opacity="0.6" d="M110.713 61.5089C110.713 59.9409 111.968 58.6417 113.536 58.6417C115.104 58.6417 116.403 59.9409 116.403 61.5089C116.403 63.0769 115.104 64.3313 113.536 64.3313C111.968 64.3313 110.713 63.0769 110.713 61.5089Z" fill="#81DAFE"/>
<path opacity="0.4" d="M101.529 61.5089C101.529 59.9409 102.783 58.6417 104.351 58.6417C105.919 58.6417 107.219 59.9409 107.219 61.5089C107.219 63.0769 105.919 64.3313 104.351 64.3313C102.783 64.3313 101.529 63.0769 101.529 61.5089Z" fill="#81DAFE"/>
<path opacity="0.2" d="M92.3447 61.5089C92.3447 59.9409 93.6439 58.6417 95.2119 58.6417C96.7799 58.6417 98.0343 59.9409 98.0343 61.5089C98.0343 63.0769 96.7799 64.3313 95.2119 64.3313C93.6439 64.3313 92.3447 63.0769 92.3447 61.5089Z" fill="#81DAFE"/>
<path d="M129.035 84.6256C129.035 83.0576 130.335 81.7584 131.903 81.7584C133.471 81.7584 134.725 83.0576 134.725 84.6256C134.725 86.1936 133.471 87.448 131.903 87.448C130.335 87.448 129.035 86.1936 129.035 84.6256Z" fill="#81DAFE"/>
<path opacity="0.8" d="M119.851 84.6256C119.851 83.0576 121.15 81.7584 122.718 81.7584C124.286 81.7584 125.541 83.0576 125.541 84.6256C125.541 86.1936 124.286 87.448 122.718 87.448C121.15 87.448 119.851 86.1936 119.851 84.6256Z" fill="#81DAFE"/>
<path opacity="0.6" d="M110.713 84.6256C110.713 83.0576 111.968 81.7584 113.536 81.7584C115.104 81.7584 116.403 83.0576 116.403 84.6256C116.403 86.1936 115.104 87.448 113.536 87.448C111.968 87.448 110.713 86.1936 110.713 84.6256Z" fill="#81DAFE"/>
<path opacity="0.4" d="M101.529 84.6256C101.529 83.0576 102.783 81.7584 104.351 81.7584C105.919 81.7584 107.219 83.0576 107.219 84.6256C107.219 86.1936 105.919 87.448 104.351 87.448C102.783 87.448 101.529 86.1936 101.529 84.6256Z" fill="#81DAFE"/>
<path opacity="0.2" d="M92.3447 84.6256C92.3447 83.0576 93.6439 81.7584 95.2119 81.7584C96.7799 81.7584 98.0343 83.0576 98.0343 84.6256C98.0343 86.1936 96.7799 87.448 95.2119 87.448C93.6439 87.448 92.3447 86.1936 92.3447 84.6256Z" fill="#81DAFE"/>
</g>
<path opacity="0.3" d="M396.939 307.237C306.13 359.653 158.917 359.653 68.1072 307.237C-22.7024 254.821 -22.7024 169.835 68.1072 117.419C158.917 64.9585 306.13 65.0033 396.894 117.419C487.704 169.835 487.704 254.821 396.939 307.237Z" fill="#0C2335"/>
<path d="M329.291 303.384C275.352 334.565 187.857 334.565 133.873 303.384C79.9339 272.248 79.9339 221.714 133.873 190.578C187.857 159.397 275.352 159.397 329.291 190.578C383.275 221.714 383.275 272.248 329.291 303.384Z" fill="url(#paint0_linear_17_1036)"/>
<path d="M364 165V0H101V164.377L129.759 133.51L191.493 78.4324H244.12L281.224 90.5378L330.71 110.623L343.766 148.846L364 165Z" fill="url(#paint1_linear_17_1036)"/>
<path d="M311.415 130.904C309.444 121.81 305.546 113.567 300.35 106.399C295.332 99.4993 289.015 93.5409 281.892 88.7025C274.948 83.9985 267.108 80.2801 258.775 77.7713C250.577 75.2625 241.706 73.9185 232.522 73.9185C231.477 73.9185 230.432 73.9484 229.386 74.0081C229.207 74.0081 229.028 74.0081 228.849 74.0081C228.699 74.0081 228.55 74.0081 228.401 74.0081C227.535 74.0678 226.698 74.1276 225.892 74.1873C225.713 74.1873 225.548 74.1873 225.399 74.1873C225.041 74.2172 224.682 74.247 224.324 74.2769C222.98 74.3964 221.636 74.5457 220.292 74.7249C219.963 74.7846 219.62 74.8295 219.262 74.8593C219.112 74.8892 218.963 74.919 218.814 74.9489C218.007 75.0684 217.186 75.2028 216.35 75.3521C216.2 75.382 216.066 75.4118 215.946 75.4417C215.767 75.4716 215.588 75.5015 215.409 75.5313C214.543 75.6807 213.676 75.8598 212.81 76.0689C212.661 76.0988 212.527 76.1287 212.407 76.1585C212.347 76.1585 212.273 76.1735 212.183 76.2033C211.317 76.3825 210.466 76.5916 209.63 76.8305C209.42 76.8903 209.211 76.935 209.002 76.9649C208.704 77.0545 208.405 77.1441 208.106 77.2337C207.569 77.383 207.016 77.5324 206.449 77.6817C206.389 77.7116 206.329 77.7415 206.27 77.7713C206.24 77.7713 206.21 77.7713 206.18 77.7713C205.493 77.9804 204.806 78.2044 204.119 78.4433C203.91 78.5031 203.686 78.5777 203.447 78.6673C203.238 78.7271 203.029 78.7868 202.82 78.8465C201.954 79.1751 201.073 79.5036 200.177 79.8321C200.177 79.8321 200.162 79.847 200.132 79.8769C200.072 79.8769 200.027 79.8918 199.998 79.9217C199.131 80.2502 198.265 80.5937 197.399 80.9521C197.22 81.0417 197.041 81.1164 196.862 81.1761C196.682 81.2657 196.503 81.3404 196.324 81.4001C195.637 81.7286 194.95 82.0572 194.263 82.3857C194.144 82.4156 194.039 82.4604 193.95 82.5201C193.502 82.7292 193.054 82.9532 192.606 83.1921C192.277 83.3414 191.948 83.5057 191.62 83.6849C191.441 83.7745 191.276 83.8492 191.127 83.9089C190.38 84.2972 189.649 84.7004 188.932 85.1185C188.842 85.1783 188.753 85.238 188.663 85.2977C188.514 85.3574 188.364 85.4321 188.215 85.5217C187.498 85.9398 186.796 86.358 186.11 86.7761C185.96 86.8657 185.811 86.9702 185.662 87.0897C185.572 87.1196 185.482 87.1644 185.393 87.2241C184.945 87.5228 184.497 87.8214 184.049 88.1201C183.75 88.2993 183.451 88.4935 183.153 88.7025C183.093 88.7324 183.048 88.7622 183.018 88.7921C182.331 89.27 181.644 89.7628 180.958 90.2705C180.808 90.3601 180.644 90.4646 180.465 90.5841C180.465 90.5841 180.45 90.599 180.42 90.6289C179.614 91.2262 178.807 91.8534 178.001 92.5105C177.822 92.6598 177.642 92.8092 177.463 92.9585C176.896 93.4065 176.328 93.8695 175.761 94.3473C175.701 94.4071 175.656 94.4668 175.626 94.5265C175.358 94.7654 175.089 95.0044 174.82 95.2433C174.312 95.6913 173.804 96.1393 173.297 96.5873C172.998 96.886 172.714 97.1697 172.446 97.4385C172.087 97.7969 171.729 98.1553 171.37 98.4689C171.281 98.5884 171.191 98.6929 171.102 98.7825C170.803 99.111 170.504 99.4396 170.206 99.7681C169.787 100.186 169.384 100.619 168.996 101.067C168.697 101.426 168.399 101.769 168.1 102.098C167.831 102.411 167.562 102.68 167.338 102.994C167.219 103.143 167.099 103.292 166.98 103.442C166.651 103.83 166.323 104.248 165.994 104.696C165.666 105.114 165.337 105.532 165.009 105.951C164.889 106.1 164.785 106.249 164.695 106.399C164.307 106.936 163.934 107.474 163.575 108.011C163.545 108.041 163.515 108.071 163.486 108.101C163.456 108.161 163.411 108.22 163.351 108.28C162.814 109.087 162.291 109.908 161.783 110.744C161.723 110.834 161.664 110.923 161.604 111.013C161.096 111.849 160.603 112.7 160.126 113.567C160.096 113.596 160.081 113.626 160.081 113.656C159.931 113.925 159.782 114.194 159.633 114.463C159.543 114.642 159.454 114.821 159.364 115C159.185 115.329 159.02 115.657 158.871 115.986C158.782 116.165 158.692 116.329 158.602 116.479C158.453 116.837 158.289 117.195 158.11 117.554C158.05 117.703 157.975 117.837 157.886 117.957C157.736 118.345 157.572 118.733 157.393 119.122C157.333 119.241 157.273 119.376 157.214 119.525C157.214 119.555 157.199 119.585 157.169 119.615C157.049 119.943 156.915 120.287 156.766 120.645C156.706 120.794 156.646 120.944 156.586 121.093C156.437 121.451 156.303 121.81 156.183 122.168C156.123 122.347 156.064 122.512 156.004 122.661C155.884 123.019 155.75 123.378 155.601 123.736C155.541 123.915 155.481 124.095 155.422 124.274C155.332 124.632 155.227 124.976 155.108 125.304C155.048 125.513 154.988 125.722 154.929 125.931C154.899 125.931 154.884 125.946 154.884 125.976C154.764 126.394 154.645 126.797 154.526 127.186C154.526 127.245 154.511 127.32 154.481 127.41C154.451 127.529 154.421 127.649 154.391 127.768C154.331 127.977 154.272 128.186 154.212 128.395C154.182 128.575 154.137 128.754 154.078 128.933C154.048 129.082 154.018 129.232 153.988 129.381C153.958 129.471 153.928 129.56 153.898 129.65C153.809 130.068 153.719 130.486 153.63 130.904C153.48 131.651 153.331 132.397 153.182 133.144C153.152 133.383 153.122 133.607 153.092 133.816C153.002 134.384 152.913 134.936 152.823 135.474C152.793 135.623 152.778 135.757 152.778 135.877C152.748 135.996 152.734 136.101 152.734 136.191C152.644 136.848 152.569 137.49 152.51 138.117C152.51 138.236 152.495 138.356 152.465 138.475C152.405 139.222 152.36 139.969 152.33 140.715C152.33 140.775 152.33 140.85 152.33 140.939C152.33 141.059 152.315 141.193 152.286 141.343C152.286 141.91 152.271 142.477 152.241 143.045C152.241 143.284 152.241 143.523 152.241 143.762C152.241 144.389 152.256 145.016 152.286 145.643C152.286 145.763 152.286 145.867 152.286 145.957C152.286 145.987 152.286 146.017 152.286 146.047C152.286 146.076 152.286 146.106 152.286 146.136C152.315 146.883 152.36 147.615 152.42 148.331C152.45 148.54 152.465 148.749 152.465 148.959C152.524 149.526 152.584 150.093 152.644 150.661C152.644 150.78 152.659 150.9 152.689 151.019C152.689 151.169 152.704 151.303 152.734 151.423C152.793 151.871 152.853 152.319 152.913 152.767C152.972 153.035 153.017 153.289 153.047 153.528C153.137 154.036 153.226 154.544 153.316 155.051C153.346 155.201 153.376 155.365 153.406 155.544C153.406 155.574 153.406 155.604 153.406 155.634C153.555 156.351 153.704 157.052 153.854 157.739C153.883 157.859 153.913 157.978 153.943 158.098C154.092 158.665 154.242 159.233 154.391 159.8C154.421 159.86 154.436 159.935 154.436 160.024C154.496 160.173 154.555 160.338 154.615 160.517C154.705 160.816 154.794 161.114 154.884 161.413C154.914 161.562 154.959 161.712 155.018 161.861C155.108 162.13 155.198 162.399 155.287 162.667C155.407 163.115 155.541 163.548 155.69 163.967C155.75 164.116 155.81 164.265 155.87 164.415C155.899 164.534 155.944 164.653 156.004 164.773C156.153 165.221 156.318 165.669 156.497 166.117C156.586 166.356 156.676 166.595 156.766 166.834C157.004 167.371 157.228 167.909 157.438 168.447C157.497 168.566 157.557 168.685 157.617 168.805C157.617 168.835 157.617 168.85 157.617 168.85C157.945 169.537 158.274 170.224 158.602 170.911C158.692 171.12 158.782 171.314 158.871 171.493C159.14 172.001 159.394 172.493 159.633 172.971C159.692 173.061 159.752 173.165 159.812 173.285C159.872 173.404 159.946 173.539 160.036 173.688C160.275 174.136 160.529 174.584 160.798 175.032C160.947 175.271 161.081 175.51 161.201 175.749C161.29 175.868 161.365 175.988 161.425 176.107C161.634 176.466 161.858 176.824 162.097 177.183C162.186 177.332 162.276 177.481 162.366 177.631C162.395 177.66 162.425 177.705 162.455 177.765C162.873 178.422 163.306 179.079 163.754 179.736C163.844 179.826 163.934 179.93 164.023 180.05C164.382 180.587 164.755 181.125 165.143 181.663C165.203 181.722 165.263 181.782 165.322 181.842C165.412 181.991 165.516 182.14 165.636 182.29C165.964 182.708 166.308 183.141 166.666 183.589C166.846 183.798 167.025 184.022 167.204 184.261C167.532 184.679 167.891 185.097 168.279 185.515C168.399 185.665 168.503 185.799 168.593 185.919C168.682 186.038 168.772 186.143 168.862 186.232C168.951 186.322 169.026 186.411 169.086 186.501C169.205 186.62 169.31 186.74 169.399 186.859C169.698 187.158 169.982 187.457 170.25 187.755C170.28 187.785 170.325 187.83 170.385 187.89C170.444 187.949 170.504 188.009 170.564 188.069C170.743 188.248 170.922 188.442 171.102 188.651C171.37 188.92 171.654 189.204 171.953 189.502L184.497 202.046C184.108 201.658 183.72 201.27 183.332 200.882C183.302 200.822 183.257 200.777 183.198 200.747C182.839 200.359 182.496 199.971 182.167 199.582C182.107 199.523 182.033 199.448 181.943 199.358C181.794 199.179 181.63 198.985 181.45 198.776C181.152 198.448 180.868 198.104 180.599 197.746C180.42 197.567 180.271 197.387 180.151 197.208C179.852 196.85 179.569 196.491 179.3 196.133C179.151 195.954 179.016 195.789 178.897 195.64C178.568 195.192 178.255 194.744 177.956 194.296C177.866 194.206 177.792 194.117 177.732 194.027C177.344 193.49 176.97 192.952 176.612 192.414C176.522 192.265 176.433 192.101 176.343 191.922C176.074 191.533 175.82 191.145 175.582 190.757C175.462 190.548 175.343 190.354 175.223 190.174C175.014 189.786 174.805 189.413 174.596 189.054C174.476 188.845 174.372 188.651 174.282 188.472C174.043 188.054 173.819 187.636 173.61 187.218C173.521 187.068 173.446 186.904 173.386 186.725C173.088 186.157 172.804 185.59 172.535 185.023C172.475 184.903 172.431 184.784 172.401 184.664C172.192 184.216 171.983 183.768 171.774 183.32C171.684 183.141 171.609 182.947 171.55 182.738C171.4 182.379 171.251 182.006 171.102 181.618C171.012 181.409 170.922 181.185 170.833 180.946C170.713 180.587 170.579 180.229 170.43 179.871C170.37 179.632 170.295 179.408 170.206 179.199C170.086 178.81 169.967 178.422 169.847 178.034C169.787 177.855 169.728 177.66 169.668 177.451C169.519 176.973 169.384 176.496 169.265 176.018C169.235 175.928 169.205 175.824 169.175 175.704C169.026 175.107 168.876 174.524 168.727 173.957C168.697 173.778 168.667 173.613 168.638 173.464C168.548 173.016 168.458 172.583 168.369 172.165C168.339 171.956 168.294 171.747 168.234 171.538C168.175 171.149 168.115 170.761 168.055 170.373C168.025 170.164 167.995 169.955 167.966 169.746C167.876 169.238 167.816 168.745 167.786 168.267C167.756 168.088 167.727 167.924 167.697 167.775C167.637 167.117 167.577 166.46 167.518 165.803C167.518 165.714 167.518 165.609 167.518 165.49C167.488 164.952 167.458 164.415 167.428 163.877C167.428 163.668 167.413 163.459 167.383 163.25C167.383 162.772 167.383 162.294 167.383 161.816C167.383 161.637 167.383 161.458 167.383 161.279C167.383 160.621 167.398 159.964 167.428 159.307C167.428 159.218 167.443 159.128 167.473 159.039C167.503 158.501 167.532 157.948 167.562 157.381C167.592 157.172 167.607 156.963 167.607 156.754C167.667 156.276 167.727 155.813 167.786 155.365C167.786 155.156 167.801 154.947 167.831 154.738C167.921 154.111 168.025 153.468 168.145 152.811C168.204 152.363 168.279 151.915 168.369 151.467C168.399 151.348 168.414 151.228 168.414 151.109C168.503 150.78 168.578 150.437 168.638 150.079C168.667 149.989 168.697 149.884 168.727 149.765C168.817 149.347 168.906 148.929 168.996 148.511C169.235 147.615 169.489 146.733 169.758 145.867C169.758 145.808 169.772 145.748 169.802 145.688C170.071 144.822 170.355 143.971 170.654 143.135C170.654 143.075 170.668 143 170.698 142.911C170.997 142.104 171.311 141.298 171.639 140.491C171.669 140.402 171.699 140.327 171.729 140.267C172.087 139.461 172.446 138.669 172.804 137.893C172.834 137.833 172.864 137.759 172.894 137.669C173.282 136.922 173.67 136.176 174.058 135.429C174.088 135.339 174.133 135.265 174.193 135.205C174.581 134.458 174.984 133.727 175.402 133.01C175.462 132.92 175.522 132.845 175.582 132.786C175.94 132.159 176.328 131.546 176.746 130.949C176.985 130.561 177.239 130.187 177.508 129.829C177.747 129.441 178.001 129.067 178.27 128.709C178.568 128.321 178.867 127.932 179.166 127.544C179.404 127.216 179.643 126.902 179.882 126.603C180.181 126.215 180.51 125.827 180.868 125.439C181.077 125.14 181.316 124.856 181.585 124.587C181.943 124.169 182.302 123.766 182.66 123.378C182.869 123.139 183.093 122.885 183.332 122.616C183.75 122.198 184.153 121.795 184.542 121.407C184.78 121.168 185.004 120.944 185.214 120.735C185.691 120.257 186.184 119.794 186.692 119.346C186.841 119.196 186.991 119.062 187.14 118.943C187.797 118.345 188.469 117.778 189.156 117.24C189.305 117.121 189.455 117.001 189.604 116.882C190.142 116.434 190.694 116.001 191.262 115.583C191.53 115.403 191.799 115.209 192.068 115C192.516 114.672 192.964 114.358 193.412 114.059C193.531 113.97 193.651 113.88 193.77 113.791C194.338 113.402 194.92 113.014 195.518 112.626C195.637 112.566 195.756 112.491 195.876 112.402C196.563 111.984 197.25 111.58 197.937 111.192C198.056 111.132 198.191 111.058 198.34 110.968C198.967 110.61 199.609 110.251 200.266 109.893C200.356 109.863 200.446 109.818 200.535 109.759C201.252 109.4 201.969 109.057 202.686 108.728C202.835 108.639 202.984 108.564 203.134 108.504C203.85 108.176 204.567 107.847 205.284 107.519C205.314 107.519 205.344 107.519 205.374 107.519C206.12 107.19 206.882 106.876 207.658 106.578C207.808 106.518 207.972 106.458 208.151 106.399C208.898 106.13 209.659 105.861 210.436 105.592C210.526 105.562 210.6 105.547 210.66 105.547C211.377 105.308 212.094 105.084 212.81 104.875C212.96 104.816 213.124 104.771 213.303 104.741C214.08 104.502 214.856 104.293 215.633 104.114C215.752 104.084 215.872 104.054 215.991 104.024C216.708 103.845 217.425 103.681 218.142 103.531C218.291 103.501 218.44 103.472 218.59 103.442C219.396 103.292 220.202 103.158 221.009 103.039C221.158 103.009 221.292 102.979 221.412 102.949C223.084 102.68 224.787 102.471 226.519 102.322C226.668 102.322 226.803 102.322 226.922 102.322C227.759 102.232 228.595 102.172 229.431 102.143C229.58 102.143 229.745 102.143 229.924 102.143C230.79 102.113 231.656 102.098 232.522 102.098C240.228 102.098 247.665 103.307 254.519 105.592C261.508 107.877 267.959 111.237 273.694 115.538C279.518 119.883 284.625 125.215 288.567 131.352C292.644 137.669 295.601 144.927 296.9 152.811C297.617 157.202 297.796 161.592 297.482 165.893C297.169 170.328 296.317 174.629 294.929 178.795C293.54 183.096 291.614 187.173 289.239 191.07C286.82 195.013 283.908 198.686 280.548 202.046C284.729 197.865 288.911 193.684 293.092 189.502C297.169 185.381 300.708 180.901 303.575 176.107C306.398 171.448 308.637 166.52 310.161 161.413C311.639 156.44 312.535 151.333 312.714 146.136C312.938 141.118 312.49 136.011 311.415 130.904Z" fill="url(#paint2_linear_17_1036)"/>
<path fill-rule="evenodd" clip-rule="evenodd" d="M363.071 178.168C361.055 195.237 354.872 211.858 344.658 226.866C333.727 242.949 318.495 256.792 299.634 266.872C280.011 277.355 257.119 283.314 232.523 283.314C207.928 283.314 185.035 277.355 165.368 266.872C146.507 256.792 131.275 242.949 120.344 226.866C110.175 211.858 103.947 195.237 101.931 178.168C100.095 162.398 101.797 146.45 107.173 130.994C112.101 116.792 119.717 104.248 128.991 93.6305C137.682 83.6401 147.986 75.1729 159.231 68.3633C170.027 61.9121 181.81 56.8497 194.175 53.4897C206.271 50.1745 219.173 48.3825 232.523 48.3825C245.874 48.3825 258.731 50.1745 270.827 53.4897C283.192 56.8497 295.019 61.9121 305.771 68.3633C317.016 75.1729 327.365 83.6401 336.056 93.6305C345.33 104.248 352.901 116.792 357.829 130.994C363.205 146.45 364.952 162.398 363.071 178.168ZM310.162 130.994C308.235 122.078 304.427 113.97 299.275 106.891C294.347 100.127 288.12 94.2577 281.087 89.4641C274.277 84.8497 266.571 81.1761 258.373 78.7121C250.264 76.2481 241.573 74.9489 232.523 74.9489C223.474 74.9489 214.738 76.2481 206.674 78.7121C198.431 81.1761 190.77 84.8497 183.915 89.4641C176.882 94.2577 170.655 100.127 165.727 106.891C160.619 113.97 156.767 122.078 154.885 130.994C152.824 140.402 153.093 149.855 155.467 158.815C157.931 168.267 162.68 177.182 169.4 184.933C176.389 193.042 185.483 199.807 196.146 204.645C207.032 209.573 219.397 212.306 232.523 212.306C245.65 212.306 258.015 209.573 268.901 204.645C279.563 199.807 288.613 193.042 295.602 184.933C302.367 177.182 307.115 168.267 309.579 158.815C311.909 149.855 312.178 140.402 310.162 130.994Z" fill="url(#paint3_linear_17_1036)"/>
<path fill-rule="evenodd" clip-rule="evenodd" d="M268.9 204.645C258.014 209.573 245.649 212.306 232.523 212.306C219.396 212.306 207.031 209.573 196.145 204.645C185.483 199.806 176.388 193.042 169.399 184.933C162.679 177.182 157.931 168.267 155.467 158.814C153.092 149.854 152.823 140.402 154.884 130.994C156.766 122.078 160.619 113.97 165.726 106.891C170.654 100.126 176.881 94.2576 183.915 89.464C190.769 84.8496 198.43 81.176 206.673 78.712C214.737 76.248 223.473 74.9489 232.523 74.9489C241.572 74.9489 250.263 76.248 258.372 78.712C266.571 81.176 274.276 84.8496 281.086 89.464C288.164 94.2576 294.347 100.126 299.275 106.891C304.427 113.97 308.235 122.078 310.161 130.994C312.177 140.402 311.908 149.854 309.579 158.814C307.115 168.267 302.366 177.182 295.601 184.933C288.612 193.042 279.563 199.806 268.9 204.645ZM268.139 203.838C278.577 199.134 287.492 192.504 294.347 184.574C300.932 176.958 305.591 168.222 308.011 158.994C310.295 150.168 310.564 140.939 308.593 131.71C306.711 122.974 302.948 115 297.931 108.101C293.092 101.47 286.999 95.6912 280.1 91.032C273.425 86.4624 265.899 82.8785 257.835 80.4593C249.905 78.0849 241.393 76.7857 232.523 76.7857C223.652 76.7857 215.095 78.0849 207.166 80.4593C199.147 82.8785 191.62 86.4624 184.9 91.032C178.001 95.6912 171.953 101.47 167.115 108.101C162.052 115 158.334 122.974 156.452 131.71C154.481 140.939 154.705 150.168 157.035 158.994C159.454 168.222 164.068 176.958 170.699 184.574C177.553 192.504 186.423 199.134 196.862 203.838C207.524 208.677 219.665 211.365 232.523 211.365C245.38 211.365 257.476 208.677 268.139 203.838Z" fill="#A7F4FE"/>
<path d="M234.361 273.413V272.338H235.436V273.413H234.361ZM218.054 272.651C217.696 272.621 217.337 272.577 216.979 272.517L217.068 271.442C217.427 271.501 217.785 271.546 218.144 271.576L218.054 272.651ZM251.788 272.069L251.654 270.994L252.729 270.814L252.864 271.89L251.788 272.069ZM200.896 269.694L199.82 269.426L200.089 268.395L201.164 268.619L200.896 269.694ZM268.857 268.485L268.544 267.454L269.619 267.141L269.888 268.171L268.857 268.485ZM184.275 264.453L183.289 264.05L183.692 263.064L184.678 263.467L184.275 264.453ZM285.299 262.616L284.851 261.63C285.179 261.481 285.508 261.332 285.836 261.182L286.284 262.168C285.956 262.317 285.627 262.467 285.299 262.616ZM168.55 256.971C168.222 256.792 167.893 256.613 167.564 256.434L168.102 255.493C168.431 255.672 168.744 255.851 169.043 256.03L168.55 256.971ZM300.755 254.507L300.217 253.566C300.516 253.387 300.815 253.208 301.113 253.029L301.696 253.925C301.397 254.134 301.083 254.328 300.755 254.507ZM154.035 247.294C153.736 247.085 153.452 246.861 153.184 246.622L153.856 245.816C154.124 246.025 154.408 246.234 154.707 246.443L154.035 247.294ZM314.912 244.248L314.195 243.442C314.464 243.203 314.747 242.964 315.046 242.725L315.718 243.576C315.449 243.815 315.18 244.039 314.912 244.248ZM141.088 235.602L140.326 234.84L141.132 234.078L141.894 234.885L141.088 235.602ZM327.321 232.018L326.515 231.301C326.724 231.032 326.948 230.748 327.187 230.45L328.038 231.166C327.799 231.435 327.56 231.719 327.321 232.018ZM130.112 222.027L129.484 221.131L130.38 220.504L130.963 221.355L130.56 221.714L130.112 222.027ZM337.67 217.95L336.729 217.413L337.312 216.472L338.252 217.01L337.67 217.95ZM121.465 206.885C121.316 206.556 121.167 206.213 121.017 205.854L122.003 205.451C122.152 205.78 122.302 206.108 122.451 206.437L121.465 206.885ZM345.555 202.405L344.569 202.002C344.689 201.673 344.808 201.345 344.928 201.016L345.958 201.374C345.809 201.733 345.674 202.076 345.555 202.405ZM115.552 190.443C115.462 190.085 115.372 189.726 115.283 189.368L116.358 189.144C116.418 189.473 116.507 189.816 116.627 190.174L115.552 190.443ZM350.617 185.694L349.542 185.47C349.632 185.112 349.706 184.769 349.766 184.44L350.841 184.619C350.752 184.978 350.677 185.336 350.617 185.694ZM112.64 173.24C112.61 172.882 112.58 172.508 112.55 172.12L113.625 172.075C113.655 172.434 113.685 172.792 113.715 173.15L112.64 173.24ZM352.633 168.357H351.558C351.588 167.998 351.603 167.64 351.603 167.282H352.678C352.678 167.64 352.663 167.998 352.633 168.357ZM113.939 155.902L112.864 155.768C112.923 155.41 112.968 155.051 112.998 154.693L114.073 154.827C114.043 155.186 113.999 155.544 113.939 155.902ZM350.438 151.109C350.378 150.78 350.319 150.437 350.259 150.078L351.334 149.899C351.394 150.258 351.454 150.616 351.513 150.974L350.438 151.109ZM117.299 138.923L116.268 138.61C116.358 138.281 116.463 137.938 116.582 137.579L117.612 137.893C117.523 138.251 117.418 138.595 117.299 138.923ZM346.227 134.354V134.219C346.107 133.891 345.988 133.562 345.868 133.234L346.854 132.875C346.974 133.204 347.093 133.547 347.212 133.906L347.257 133.995L346.227 134.354ZM123.571 122.84L122.585 122.347C122.735 122.019 122.899 121.705 123.078 121.406L124.019 121.854C123.87 122.183 123.72 122.512 123.571 122.84ZM339.148 118.494C338.969 118.166 338.79 117.852 338.611 117.554L339.552 117.016C339.731 117.315 339.91 117.628 340.089 117.957L339.148 118.494ZM132.441 108.056L131.59 107.429C131.799 107.13 132.008 106.832 132.217 106.533L133.113 107.205C132.874 107.474 132.65 107.757 132.441 108.056ZM329.561 104.114C329.352 103.845 329.128 103.561 328.889 103.262L329.74 102.59C329.979 102.889 330.203 103.173 330.412 103.442L329.561 104.114ZM143.641 94.9297L142.88 94.1233L143.686 93.3617L144.403 94.1681L143.641 94.9297ZM317.779 91.4801C317.51 91.2411 317.241 91.0022 316.972 90.7633L317.689 89.9569C317.958 90.1958 318.227 90.4497 318.496 90.7185L317.779 91.4801ZM156.768 83.5953L156.14 82.7441C156.439 82.535 156.738 82.3259 157.036 82.1169L157.664 82.9681C157.365 83.1771 157.066 83.3862 156.768 83.5953ZM304.204 80.7729C303.906 80.5638 303.607 80.3697 303.308 80.1905L303.891 79.2497C304.219 79.4587 304.533 79.6678 304.832 79.8769L304.204 80.7729ZM171.372 74.4113L170.88 73.4257C171.208 73.2763 171.522 73.1121 171.82 72.9329L172.358 73.8737C172.03 74.0529 171.701 74.2321 171.372 74.4113ZM289.196 72.1713C288.868 71.9921 288.539 71.8278 288.211 71.6785L288.704 70.6929C289.032 70.8422 289.361 71.0065 289.689 71.1857L289.196 72.1713ZM187.142 67.3329L186.784 66.3025L187.769 65.9441L188.172 66.9297L187.142 67.3329ZM273.158 65.7201C272.8 65.6305 272.456 65.5259 272.128 65.4065L272.441 64.3761C272.77 64.4955 273.113 64.6001 273.472 64.6897L273.158 65.7201ZM203.718 62.4945L203.494 61.4193L204.569 61.1953L204.793 62.2257L203.718 62.4945ZM256.358 61.5537L255.328 61.3297L255.507 60.2993L256.582 60.4785L256.358 61.5537ZM220.787 59.8961L220.697 58.8209L221.772 58.7313L221.862 59.8065L220.787 59.8961ZM239.155 59.5377C238.796 59.5377 238.438 59.5227 238.08 59.4929L238.124 58.4177C238.483 58.4475 238.841 58.4625 239.2 58.4625L239.155 59.5377Z" fill="#66C6FE"/>
<path d="M135.534 74.1425C135.534 75.1281 134.683 75.9793 133.652 75.9793C132.667 75.9793 131.816 75.1281 131.816 74.1425C131.816 73.1121 132.667 72.2609 133.652 72.2609C134.683 72.2609 135.534 73.1121 135.534 74.1425Z" fill="#63BDFE"/>
<path d="M129.933 79.2048C129.933 80.2352 129.082 81.0416 128.096 81.0416C127.066 81.0416 126.259 80.2352 126.259 79.2048C126.259 78.1744 127.066 77.368 128.096 77.368C129.082 77.368 129.933 78.1744 129.933 79.2048Z" fill="#63BDFE"/>
<path d="M124.556 84.6704C124.556 85.656 123.705 86.5072 122.719 86.5072C121.689 86.5072 120.837 85.656 120.837 84.6704C120.837 83.64 121.689 82.7888 122.719 82.7888C123.705 82.7888 124.556 83.64 124.556 84.6704Z" fill="#63BDFE"/>
<path d="M115.059 96.3185C115.059 97.3489 114.208 98.2001 113.222 98.2001C112.192 98.2001 111.341 97.3489 111.341 96.3185C111.341 95.3329 112.192 94.4817 113.222 94.4817C114.208 94.4817 115.059 95.3329 115.059 96.3185Z" fill="#63BDFE"/>
<path d="M110.711 102.635C110.711 103.621 109.905 104.472 108.874 104.472C107.844 104.472 107.038 103.621 107.038 102.635C107.038 101.605 107.844 100.754 108.874 100.754C109.905 100.754 110.711 101.605 110.711 102.635Z" fill="#63BDFE"/>
<path d="M106.905 108.997C106.905 109.982 106.098 110.834 105.068 110.834C104.038 110.834 103.231 109.982 103.231 108.997C103.231 107.966 104.038 107.16 105.068 107.16C106.098 107.16 106.905 107.966 106.905 108.997Z" fill="#63BDFE"/>
<path d="M119.674 90.3601C119.674 91.3905 118.867 92.1969 117.837 92.1969C116.806 92.1969 116 91.3905 116 90.3601C116 89.3297 116.806 88.5233 117.837 88.5233C118.867 88.5233 119.674 89.3297 119.674 90.3601Z" fill="#63BDFE"/>
<path d="M338.34 252.984C338.34 254.015 337.489 254.821 336.503 254.821C335.473 254.821 334.622 254.015 334.622 252.984C334.622 251.999 335.473 251.147 336.503 251.147C337.489 251.147 338.34 251.999 338.34 252.984Z" fill="#99F1FE"/>
<path d="M343.627 247.518C343.627 248.504 342.82 249.355 341.79 249.355C340.76 249.355 339.953 248.504 339.953 247.518C339.953 246.488 340.76 245.637 341.79 245.637C342.82 245.637 343.627 246.488 343.627 247.518Z" fill="#99F1FE"/>
<path d="M332.696 258.002C332.696 259.032 331.889 259.838 330.859 259.838C329.828 259.838 329.022 259.032 329.022 258.002C329.022 256.971 329.828 256.165 330.859 256.165C331.889 256.165 332.696 256.971 332.696 258.002Z" fill="#99F1FE"/>
<path d="M233.645 221.31C233.645 222.878 232.39 224.178 230.822 224.178C229.254 224.178 228 222.878 228 221.31C228 219.787 229.254 218.488 230.822 218.488C232.39 218.488 233.645 219.787 233.645 221.31Z" fill="#A7F4FE"/>
<path opacity="0.8" d="M232.969 228.478C232.969 229.643 231.984 230.629 230.819 230.629C229.609 230.629 228.669 229.643 228.669 228.478C228.669 227.269 229.609 226.328 230.819 226.328C231.984 226.328 232.969 227.269 232.969 228.478Z" fill="#A7F4FE"/>
<path opacity="0.5" d="M232.523 234.123C232.523 235.064 231.762 235.826 230.821 235.826C229.88 235.826 229.119 235.064 229.119 234.123C229.119 233.182 229.88 232.421 230.821 232.421C231.762 232.421 232.523 233.182 232.523 234.123Z" fill="#A7F4FE"/>
<path opacity="0.4" d="M232.032 238.693C232.032 239.365 231.494 239.903 230.822 239.903C230.15 239.903 229.613 239.365 229.613 238.693C229.613 238.021 230.15 237.483 230.822 237.483C231.494 237.483 232.032 238.021 232.032 238.693Z" fill="#A7F4FE"/>
<path opacity="0.2" d="M231.584 242.411C231.584 242.859 231.27 243.218 230.822 243.218C230.374 243.218 230.016 242.859 230.016 242.411C230.016 241.963 230.374 241.65 230.822 241.65C231.27 241.65 231.584 241.963 231.584 242.411Z" fill="#A7F4FE"/>
<path d="M146.554 142.462C144.986 142.462 143.731 141.163 143.731 139.64C143.731 138.072 144.986 136.773 146.554 136.773C148.122 136.773 149.376 138.072 149.376 139.64C149.376 141.163 148.122 142.462 146.554 142.462Z" fill="#A7F4FE"/>
<path opacity="0.8" d="M139.428 141.746C138.219 141.746 137.278 140.805 137.278 139.64C137.278 138.43 138.219 137.49 139.428 137.49C140.593 137.49 141.579 138.43 141.579 139.64C141.579 140.805 140.593 141.746 139.428 141.746Z" fill="#A7F4FE"/>
<path opacity="0.5" d="M133.74 141.298C132.799 141.298 132.038 140.536 132.038 139.64C132.038 138.699 132.799 137.938 133.74 137.938C134.681 137.938 135.442 138.699 135.442 139.64C135.442 140.536 134.681 141.298 133.74 141.298Z" fill="#A7F4FE"/>
<path opacity="0.4" d="M129.169 140.805C128.497 140.805 127.959 140.267 127.959 139.64C127.959 138.968 128.497 138.431 129.169 138.431C129.841 138.431 130.379 138.968 130.379 139.64C130.379 140.267 129.841 140.805 129.169 140.805Z" fill="#A7F4FE"/>
<path opacity="0.2" d="M125.452 140.402C125.049 140.402 124.691 140.043 124.691 139.64C124.691 139.192 125.049 138.834 125.452 138.834C125.9 138.834 126.259 139.192 126.259 139.64C126.259 140.043 125.9 140.402 125.452 140.402Z" fill="#A7F4FE"/>
<path d="M318.719 136.773C320.287 136.773 321.542 138.072 321.542 139.64C321.542 141.163 320.287 142.462 318.719 142.462C317.151 142.462 315.897 141.163 315.897 139.64C315.897 138.072 317.151 136.773 318.719 136.773Z" fill="#A7F4FE"/>
<path opacity="0.8" d="M325.841 137.49C327.051 137.49 327.991 138.43 327.991 139.64C327.991 140.805 327.051 141.746 325.841 141.746C324.676 141.746 323.691 140.805 323.691 139.64C323.691 138.43 324.676 137.49 325.841 137.49Z" fill="#A7F4FE"/>
<path opacity="0.5" d="M331.531 137.938C332.471 137.938 333.233 138.699 333.233 139.64C333.233 140.536 332.471 141.298 331.531 141.298C330.59 141.298 329.828 140.536 329.828 139.64C329.828 138.699 330.59 137.938 331.531 137.938Z" fill="#A7F4FE"/>
<path opacity="0.4" d="M336.1 138.431C336.772 138.431 337.31 138.968 337.31 139.64C337.31 140.267 336.772 140.805 336.1 140.805C335.428 140.805 334.891 140.267 334.891 139.64C334.891 138.968 335.428 138.431 336.1 138.431Z" fill="#A7F4FE"/>
<path opacity="0.2" d="M339.822 138.834C340.225 138.834 340.584 139.192 340.584 139.64C340.584 140.043 340.225 140.402 339.822 140.402C339.374 140.402 339.016 140.043 339.016 139.64C339.016 139.192 339.374 138.834 339.822 138.834Z" fill="#A7F4FE"/>
<path d="M356.843 197.074C356.455 196.446 356.082 195.789 355.723 195.102C355.723 195.102 335.653 159.531 334.578 154.29C333.458 149.003 329.067 146.584 327.365 146.226C327.365 146.226 324.498 143.717 320.869 143.627C320.869 143.627 317.419 138.744 305.055 139.685C292.69 140.67 292.959 139.954 292.959 139.954C292.959 139.954 275.397 117.106 271.096 116.03C266.795 114.91 265.541 116.21 260.434 115.896C255.327 115.582 249.055 114.642 244.619 116.389C240.184 118.136 238.795 118.091 238.795 118.091C238.795 118.091 231.627 118.763 233.599 124.05C235.57 129.291 241.483 130.053 242.603 129.784C243.768 129.56 248.069 128.619 249.099 128.978C250.13 129.291 255.013 133.458 261.778 132.83C261.778 132.83 263.794 139.371 267.691 143.358C267.691 143.358 263.973 145.061 264.287 151.557C264.6 158.053 270.693 177.496 271.679 178.392C272.664 179.288 273.112 180.408 278.757 181.842C278.757 181.842 278.13 185.784 270.335 187.397C270.335 187.397 261.778 187.621 251.474 185.381C251.474 185.381 249.816 183.499 246.187 182.693C242.559 181.886 234.584 179.781 229.343 183.186C224.101 186.59 223.922 189.861 227.864 192.728C231.807 195.64 237.093 195.371 237.093 195.371C237.093 195.371 240.677 200.434 242.962 201.957C245.202 203.48 260.747 206.168 271.007 212.53C271.007 212.53 272.44 213.694 279.16 216.293C285.88 218.936 291.301 224.85 291.301 224.85C291.301 224.85 302.859 233.854 315.09 237.214C317.061 237.752 318.898 238.379 320.645 239.051C327.096 221.042 341.925 204.107 356.843 197.074Z" fill="url(#paint4_linear_17_1036)"/>
<path d="M281.624 175.48L281.534 172.523L279.249 164.415L276.472 156.44L274.59 151.691L271.499 147.704L267.377 143.538C266.481 144.12 264.017 146.181 264.286 151.557C264.6 158.053 270.692 177.496 271.678 178.392C272.664 179.243 273.112 180.363 278.488 181.752L278.846 181.349L280.593 178.661L281.624 175.48Z" fill="#67E2E8"/>
<path d="M267.691 143.359C267.691 143.359 273.515 148.824 275.038 152.095C276.561 155.365 281.31 168.939 281.4 170.507C281.534 172.075 283.729 176.018 278.756 181.842L278.04 181.618C278.04 181.618 281.937 177.407 281.131 173.016C279.966 166.744 275.038 153.17 274.187 151.602C273.336 150.034 267.288 143.627 267.288 143.627L267.691 143.359Z" fill="#42D3D3"/>
<path d="M277.95 161.144C277.95 161.144 270.558 155.903 269.169 155.231C269.169 155.231 276.426 160.383 276.382 161.637C276.337 162.847 275.172 163.384 275.172 163.384C275.172 163.384 277.86 162.13 278.711 163.115C279.518 164.146 277.95 161.144 277.95 161.144Z" fill="#42D3D3"/>
<path d="M280.37 168.715C280.37 168.715 273.695 172.21 272.709 174.002C272.709 174.002 278.757 170.552 280.684 170.955L280.37 168.715Z" fill="#42D3D3"/>
<path d="M262.091 133.771C262.091 133.771 261.374 130.949 261.15 127.947L261.24 132.875L261.688 133.055L262.091 133.771Z" fill="#67E2E8"/>
<path d="M311.055 231.211C311.055 231.211 295.913 226.373 289.372 220.325C282.787 214.322 276.739 214.994 271.631 212.933C272.572 213.47 274.678 214.546 279.158 216.293C285.878 218.936 291.299 224.85 291.299 224.85C291.299 224.85 302.006 233.182 313.699 236.811L311.055 231.211Z" fill="#4B95FA"/>
<path d="M346.671 182.245C353.436 180.632 358.767 181.976 362.306 185.56L369.967 193.669C368.175 193.714 366.294 193.938 364.233 194.43C346.134 198.731 326.108 220.235 319.522 242.411C317.82 248.146 317.193 253.342 317.462 257.822L309.666 249.579C305.097 244.651 303.887 235.736 307.202 224.626C313.026 205.048 330.722 186.053 346.671 182.245Z" fill="white"/>
<path d="M431.796 252.133V252.088C431.766 252.058 431.736 252.028 431.706 251.998L381.933 198.149C377.946 194.117 371.898 192.594 364.237 194.43C346.138 198.731 326.112 220.235 319.527 242.411C315.764 255 317.152 265.08 322.349 270.68L371.584 324.037C371.614 324.067 371.659 324.112 371.719 324.171L372.167 324.619C376.154 328.562 382.157 330.04 389.728 328.248C407.828 323.947 427.853 302.443 434.439 280.223C438.157 267.813 436.858 257.778 431.796 252.133Z" fill="url(#paint5_linear_17_1036)"/>
<path d="M234.764 180.946L234.63 178.93C235.287 178.9 235.929 178.84 236.556 178.751L236.87 180.722C236.153 180.841 235.451 180.916 234.764 180.946ZM229.478 180.767C228.761 180.647 228.059 180.513 227.372 180.363L227.82 178.392C228.477 178.541 229.12 178.661 229.747 178.751L229.478 180.767ZM241.977 179.467L241.305 177.541C241.903 177.332 242.5 177.093 243.097 176.824L243.948 178.661C243.291 178.96 242.634 179.228 241.977 179.467ZM222.4 178.706C221.772 178.407 221.145 178.079 220.518 177.72L221.504 175.973C222.071 176.301 222.653 176.6 223.251 176.869L222.4 178.706ZM248.473 175.973L247.264 174.36C247.801 173.972 248.309 173.569 248.787 173.151L250.131 174.674C249.593 175.122 249.041 175.555 248.473 175.973ZM216.172 174.719C215.635 174.241 215.127 173.748 214.649 173.24L216.083 171.851C216.531 172.299 217.009 172.732 217.516 173.151L216.172 174.719ZM253.715 170.866L252.102 169.611C252.52 169.104 252.893 168.581 253.222 168.043L254.924 169.119C254.566 169.716 254.163 170.298 253.715 170.866ZM211.334 169.163C210.946 168.566 210.587 167.969 210.259 167.371L212.051 166.386C212.349 166.953 212.678 167.521 213.036 168.088L211.334 169.163ZM257.344 164.415L255.417 163.653C255.656 163.056 255.865 162.443 256.044 161.816L258.016 162.399C257.807 163.085 257.583 163.757 257.344 164.415ZM208.243 162.443C208.034 161.756 207.869 161.069 207.75 160.383L209.721 159.979C209.841 160.607 209.99 161.234 210.169 161.861L208.243 162.443ZM258.956 157.202L256.94 157.067C257 156.41 257.03 155.753 257.03 155.096V155.007H259.046V155.096C259.046 155.813 259.016 156.515 258.956 157.202ZM207.212 155.141V155.096C207.212 154.409 207.242 153.722 207.302 153.035L209.318 153.215C209.258 153.842 209.228 154.469 209.228 155.096L207.212 155.141ZM256.537 150.168C256.388 149.511 256.224 148.869 256.044 148.242L258.016 147.659C258.195 148.346 258.359 149.033 258.508 149.72L256.537 150.168ZM210.214 148.421L208.243 147.883C208.452 147.196 208.676 146.524 208.915 145.867L210.796 146.584C210.587 147.181 210.393 147.794 210.214 148.421ZM254.208 143.807C253.909 143.239 253.58 142.672 253.222 142.104L254.924 141.029C255.313 141.596 255.671 142.194 256 142.821L254.208 143.807ZM212.992 142.283L211.289 141.163C211.677 140.566 212.081 139.999 212.499 139.461L214.112 140.671C213.723 141.178 213.35 141.716 212.992 142.283ZM250.176 138.341C249.698 137.893 249.22 137.46 248.742 137.042L250.041 135.474C250.579 135.952 251.101 136.444 251.609 136.952L250.176 138.341ZM217.427 137.087L216.128 135.563C216.665 135.115 217.218 134.667 217.785 134.219L218.95 135.877C218.442 136.265 217.935 136.668 217.427 137.087ZM244.755 134.219C244.187 133.891 243.605 133.592 243.008 133.323L243.859 131.487C244.486 131.785 245.113 132.099 245.74 132.427L244.755 134.219ZM223.161 133.413L222.31 131.576C222.937 131.277 223.579 131.009 224.236 130.77L224.953 132.651C224.356 132.89 223.759 133.144 223.161 133.413ZM238.393 131.8C237.766 131.651 237.124 131.531 236.467 131.442L236.736 129.471C237.452 129.56 238.154 129.68 238.841 129.829L238.393 131.8ZM229.657 131.487L229.388 129.471C230.075 129.381 230.777 129.306 231.494 129.247L231.584 131.263C230.956 131.322 230.314 131.397 229.657 131.487Z" fill="#73CFFE"/>
<path d="M224.638 149.586V160.562L215.409 155.051L224.638 149.586Z" fill="#9CF5FE"/>
<path opacity="0.5" d="M241.619 160.562V149.586L250.847 155.051L241.619 160.562Z" fill="#81DAFE"/>
<g opacity="0.5">
<path d="M227.642 163.563H238.618L233.152 172.792L227.642 163.563Z" fill="#81DAFE"/>
<path d="M238.618 146.584H227.642L233.152 137.355L238.618 146.584Z" fill="#81DAFE"/>
</g>
<path d="M348.555 72.5298C348.555 74.0978 347.256 75.3522 345.733 75.3522C344.165 75.3522 342.866 74.0978 342.866 72.5298C342.866 70.9618 344.165 69.7074 345.733 69.7074C347.256 69.7074 348.555 70.9618 348.555 72.5298Z" fill="#81DAFE"/>
<path d="M361.412 72.5298C361.412 74.0978 360.112 75.3522 358.589 75.3522C357.021 75.3522 355.722 74.0978 355.722 72.5298C355.722 70.9618 357.021 69.7074 358.589 69.7074C360.112 69.7074 361.412 70.9618 361.412 72.5298Z" fill="#81DAFE"/>
<path d="M354.964 62.5841C354.964 64.1521 353.709 65.4065 352.141 65.4065C350.573 65.4065 349.319 64.1521 349.319 62.5841C349.319 61.0161 350.573 59.7617 352.141 59.7617C353.709 59.7617 354.964 61.0161 354.964 62.5841Z" fill="#81DAFE"/>
<defs>
<linearGradient id="paint0_linear_17_1036" x1="231.599" y1="167.192" x2="231.599" y2="326.77" gradientUnits="userSpaceOnUse">
<stop stop-color="#05424C" stop-opacity="0"/>
<stop offset="1" stop-color="#05424C"/>
</linearGradient>
<linearGradient id="paint1_linear_17_1036" x1="232.5" y1="0" x2="232.5" y2="351.014" gradientUnits="userSpaceOnUse">
<stop stop-color="#2DC6EB" stop-opacity="0"/>
<stop offset="1" stop-color="#2DC6EB"/>
</linearGradient>
<linearGradient id="paint2_linear_17_1036" x1="232.506" y1="73.9185" x2="232.506" y2="202.046" gradientUnits="userSpaceOnUse">
<stop stop-color="#0A8DA5"/>
<stop offset="1" stop-color="#22D7D3"/>
</linearGradient>
<linearGradient id="paint3_linear_17_1036" x1="232.511" y1="48.3825" x2="232.511" y2="283.314" gradientUnits="userSpaceOnUse">
<stop stop-color="#2DC6EB"/>
<stop offset="1" stop-color="#1BE1C5"/>
</linearGradient>
<linearGradient id="paint4_linear_17_1036" x1="251.499" y1="115" x2="330.499" y2="221" gradientUnits="userSpaceOnUse">
<stop stop-color="#1BE1C6"/>
<stop offset="1" stop-color="white"/>
</linearGradient>
<linearGradient id="paint5_linear_17_1036" x1="297" y1="155" x2="405.5" y2="287.5" gradientUnits="userSpaceOnUse">
<stop stop-color="#1DDFC8" stop-opacity="0.956374"/>
<stop offset="0.0883711" stop-color="#1DDFC8"/>
<stop offset="1" stop-color="#1DDFC8" stop-opacity="0"/>
</linearGradient>
</defs>
</svg>
