<svg width="100%" height="100%" viewBox="0 0 1920 1217" fill="none" xmlns="http://www.w3.org/2000/svg">
<g filter="url(#filter0_d_17_8247)">
<mask id="path-1-outside-1_17_8247" maskUnits="userSpaceOnUse" x="-288" y="-233" width="2348" height="1413" fill="black">
<rect fill="white" x="-288" y="-233" width="2348" height="1413"/>
</mask>
<g clip-path="url(#paint0_diamond_17_8247_clip_path)" data-figma-skip-parse="true" mask="url(#path-1-outside-1_17_8247)"><g transform="matrix(1.04965 0.0148927 0.0424008 -2.98574 2.16056 269.884)"><rect x="0" y="0" width="1973.38" height="306.473" fill="url(#paint0_diamond_17_8247)" opacity="0.4" shape-rendering="crispEdges"/><rect x="0" y="0" width="1973.38" height="306.473" transform="scale(1 -1)" fill="url(#paint0_diamond_17_8247)" opacity="0.4" shape-rendering="crispEdges"/><rect x="0" y="0" width="1973.38" height="306.473" transform="scale(-1 1)" fill="url(#paint0_diamond_17_8247)" opacity="0.4" shape-rendering="crispEdges"/><rect x="0" y="0" width="1973.38" height="306.473" transform="scale(-1)" fill="url(#paint0_diamond_17_8247)" opacity="0.4" shape-rendering="crispEdges"/></g></g><path d="M1706.72 487.757L1705.79 488.128L1705.79 488.128L1706.72 487.757ZM1245.52 349.443L1245.24 348.483L1245.24 348.483L1245.52 349.443ZM942.302 245.311L942.124 244.327L942.124 244.327L942.302 245.311ZM390.286 1160.47L390.474 1159.48L390.286 1160.47ZM-216.858 434.448L-216.725 433.457L-216.725 433.457L-216.858 434.448ZM2058.1 690.296C2054.46 682.84 2044.2 668.903 2029.17 650.794C2014.17 632.719 1994.49 610.573 1972.12 586.732C1927.38 539.048 1871.88 484.616 1821.46 442.447C1796.24 421.361 1772.32 403.361 1751.66 390.805C1741.33 384.526 1731.83 379.622 1723.42 376.372C1714.99 373.118 1707.71 371.551 1701.78 371.874C1695.89 372.196 1691.38 374.376 1688.32 378.627C1685.23 382.924 1683.53 389.472 1683.61 398.714C1683.78 417.204 1691.1 445.942 1707.64 487.386L1705.79 488.128C1689.23 446.65 1681.79 417.618 1681.61 398.732C1681.53 389.286 1683.25 382.246 1686.7 377.459C1690.18 372.625 1695.3 370.225 1701.67 369.877C1708 369.532 1715.58 371.205 1724.14 374.506C1732.7 377.813 1742.31 382.78 1752.7 389.095C1773.48 401.726 1797.49 419.797 1822.74 440.913C1873.25 483.149 1928.8 537.642 1973.58 585.364C1995.97 609.226 2015.67 631.403 2030.71 649.516C2045.71 667.595 2056.14 681.712 2059.9 689.419L2058.1 690.296ZM1707.64 487.386C1719.97 518.253 1716.82 541.06 1702.12 556.903C1687.51 572.642 1661.72 581.244 1629.35 584.334C1564.57 590.52 1472.58 574.694 1388 548.176C1345.7 534.912 1305.21 518.963 1270.87 501.728C1236.55 484.502 1208.3 465.959 1190.53 447.486C1172.78 429.044 1165.23 410.379 1173.1 393.107C1177.01 384.526 1184.67 376.43 1196.51 368.961C1208.36 361.49 1224.43 354.612 1245.24 348.483L1245.8 350.402C1225.1 356.499 1209.22 363.313 1197.58 370.652C1185.94 377.993 1178.61 385.824 1174.92 393.936C1167.57 410.05 1174.39 427.835 1191.97 446.1C1209.51 464.334 1237.53 482.755 1271.77 499.941C1306 517.118 1346.38 533.029 1388.6 546.267C1473.07 572.752 1564.76 588.492 1629.16 582.344C1661.39 579.267 1686.56 570.728 1700.65 555.542C1714.65 540.46 1717.94 518.56 1705.79 488.128L1707.64 487.386ZM1245.24 348.483C1277.97 338.843 1304.12 328.841 1324.03 318.871C1343.95 308.893 1357.55 298.984 1365.27 289.561C1372.96 280.166 1374.72 271.385 1371.3 263.454C1367.83 255.42 1358.93 247.967 1344.59 241.595C1315.96 228.867 1266.38 220.778 1198.41 220.516C1130.48 220.254 1044.28 227.81 942.481 246.295L942.124 244.327C1044.01 225.825 1130.34 218.253 1198.42 218.516C1266.46 218.779 1316.38 226.868 1345.41 239.768C1359.9 246.21 1369.37 253.933 1373.13 262.662C1376.95 271.494 1374.81 281.062 1366.82 290.828C1358.84 300.567 1344.95 310.629 1324.93 320.659C1304.88 330.698 1278.61 340.739 1245.8 350.402L1245.24 348.483ZM942.481 246.295C848.303 263.396 782.293 293.002 737.178 331.333C692.079 369.65 667.793 416.742 657.152 468.955C646.507 521.192 649.517 578.565 659.048 637.404C668.579 696.242 684.619 756.476 699.993 814.44C715.361 872.379 730.068 928.066 736.891 977.718C743.712 1027.35 742.681 1071.13 726.417 1105.17C710.115 1139.28 678.599 1163.45 624.892 1174.02C571.233 1184.58 495.345 1181.61 390.098 1161.45L390.474 1159.48C495.628 1179.62 571.219 1182.55 624.506 1172.06C677.745 1161.58 708.643 1137.72 724.612 1104.3C740.618 1070.8 741.715 1027.51 734.91 977.99C728.107 928.484 713.436 872.923 698.06 814.953C682.691 757.009 666.624 696.677 657.074 637.724C647.524 578.771 644.478 521.128 655.193 468.555C665.912 415.96 690.401 368.451 735.883 329.809C781.347 291.18 847.723 261.468 942.124 244.327L942.481 246.295ZM390.098 1161.45C216.947 1128.29 121.045 1070.12 67.5062 1000.41C13.9754 930.705 2.93303 849.623 -0.886823 770.978C-2.79959 731.597 -2.89909 692.949 -5.58497 656.45C-8.2681 619.988 -13.5254 585.858 -25.7017 555.697C-37.8692 525.558 -56.951 499.368 -87.3216 478.78C-117.708 458.181 -159.45 443.151 -216.991 435.439L-216.725 433.457C-158.983 441.196 -116.918 456.3 -86.1993 477.124C-55.4656 497.959 -36.1469 524.482 -23.8471 554.949C-11.5561 585.394 -6.27911 619.765 -3.59037 656.303C-0.904369 692.804 -0.794344 731.656 1.11082 770.881C4.92684 849.447 15.9539 929.997 69.0924 999.191C122.223 1068.37 217.59 1126.37 390.474 1159.48L390.098 1161.45ZM-216.991 435.439C-239.701 432.395 -256.362 427.841 -267.715 421.885C-279.085 415.92 -285.249 408.479 -286.677 399.653C-288.096 390.884 -284.789 381.025 -277.876 370.308C-270.951 359.573 -260.317 347.837 -246.831 335.259C-219.854 310.101 -181.3 281.429 -137.699 250.491C-94.0709 219.534 -45.4 186.315 1.92176 151.999C49.2338 117.69 95.1379 82.3255 133.174 47.1277C171.224 11.9175 201.33 -23.0631 217.123 -56.5924C232.896 -90.0787 234.358 -122.018 215.307 -151.365C196.199 -180.798 156.343 -207.809 88.9949 -231.055L89.6474 -232.945C157.137 -209.651 197.51 -182.45 216.984 -152.454C236.514 -122.37 234.911 -89.6627 218.932 -55.7402C202.974 -21.8608 172.643 13.3292 134.533 48.5956C96.4087 83.8745 50.4291 119.293 3.09588 153.618C-44.2276 187.935 -92.9635 221.2 -136.542 252.122C-180.147 283.063 -218.599 311.666 -245.466 336.722C-258.901 349.251 -269.399 360.857 -276.195 371.392C-283.002 381.945 -286.005 391.283 -284.703 399.333C-283.409 407.326 -277.821 414.325 -266.786 420.114C-255.736 425.911 -239.342 430.425 -216.725 433.457L-216.991 435.439Z" data-figma-gradient-fill="{&#34;type&#34;:&#34;GRADIENT_DIAMOND&#34;,&#34;stops&#34;:[{&#34;color&#34;:{&#34;r&#34;:1.0,&#34;g&#34;:1.0,&#34;b&#34;:1.0,&#34;a&#34;:1.0},&#34;position&#34;:0.0},{&#34;color&#34;:{&#34;r&#34;:0.41701436042785645,&#34;g&#34;:0.43189704418182373,&#34;b&#34;:0.77419888973236084,&#34;a&#34;:1.0},&#34;position&#34;:0.64847844839096069}],&#34;stopsVar&#34;:[{&#34;color&#34;:{&#34;r&#34;:1.0,&#34;g&#34;:1.0,&#34;b&#34;:1.0,&#34;a&#34;:1.0},&#34;position&#34;:0.0},{&#34;color&#34;:{&#34;r&#34;:0.41701436042785645,&#34;g&#34;:0.43189704418182373,&#34;b&#34;:0.77419888973236084,&#34;a&#34;:1.0},&#34;position&#34;:0.64847844839096069}],&#34;transform&#34;:{&#34;m00&#34;:2099.302246093750,&#34;m01&#34;:84.801544189453125,&#34;m02&#34;:-1089.8913574218750,&#34;m10&#34;:29.785346984863281,&#34;m11&#34;:-5971.472656250,&#34;m12&#34;:3240.7272949218750},&#34;opacity&#34;:0.40000000596046448,&#34;blendMode&#34;:&#34;NORMAL&#34;,&#34;visible&#34;:true}" mask="url(#path-1-outside-1_17_8247)"/>
</g>
<defs>
<filter id="filter0_d_17_8247" x="-296" y="-251.945" width="2402.9" height="1468.95" filterUnits="userSpaceOnUse" color-interpolation-filters="sRGB">
<feFlood flood-opacity="0" result="BackgroundImageFix"/>
<feColorMatrix in="SourceAlpha" type="matrix" values="0 0 0 0 0 0 0 0 0 0 0 0 0 0 0 0 0 0 127 0" result="hardAlpha"/>
<feOffset dx="19" dy="9"/>
<feGaussianBlur stdDeviation="14"/>
<feComposite in2="hardAlpha" operator="out"/>
<feColorMatrix type="matrix" values="0 0 0 0 0.167015 0 0 0 0 0.0581983 0 0 0 0 0.366126 0 0 0 0.8 0"/>
<feBlend mode="normal" in2="BackgroundImageFix" result="effect1_dropShadow_17_8247"/>
<feBlend mode="normal" in="SourceGraphic" in2="effect1_dropShadow_17_8247" result="shape"/>
</filter>
<clipPath id="paint0_diamond_17_8247_clip_path"><path d="M1706.72 487.757L1705.79 488.128L1705.79 488.128L1706.72 487.757ZM1245.52 349.443L1245.24 348.483L1245.24 348.483L1245.52 349.443ZM942.302 245.311L942.124 244.327L942.124 244.327L942.302 245.311ZM390.286 1160.47L390.474 1159.48L390.286 1160.47ZM-216.858 434.448L-216.725 433.457L-216.725 433.457L-216.858 434.448ZM2058.1 690.296C2054.46 682.84 2044.2 668.903 2029.17 650.794C2014.17 632.719 1994.49 610.573 1972.12 586.732C1927.38 539.048 1871.88 484.616 1821.46 442.447C1796.24 421.361 1772.32 403.361 1751.66 390.805C1741.33 384.526 1731.83 379.622 1723.42 376.372C1714.99 373.118 1707.71 371.551 1701.78 371.874C1695.89 372.196 1691.38 374.376 1688.32 378.627C1685.23 382.924 1683.53 389.472 1683.61 398.714C1683.78 417.204 1691.1 445.942 1707.64 487.386L1705.79 488.128C1689.23 446.65 1681.79 417.618 1681.61 398.732C1681.53 389.286 1683.25 382.246 1686.7 377.459C1690.18 372.625 1695.3 370.225 1701.67 369.877C1708 369.532 1715.58 371.205 1724.14 374.506C1732.7 377.813 1742.31 382.78 1752.7 389.095C1773.48 401.726 1797.49 419.797 1822.74 440.913C1873.25 483.149 1928.8 537.642 1973.58 585.364C1995.97 609.226 2015.67 631.403 2030.71 649.516C2045.71 667.595 2056.14 681.712 2059.9 689.419L2058.1 690.296ZM1707.64 487.386C1719.97 518.253 1716.82 541.06 1702.12 556.903C1687.51 572.642 1661.72 581.244 1629.35 584.334C1564.57 590.52 1472.58 574.694 1388 548.176C1345.7 534.912 1305.21 518.963 1270.87 501.728C1236.55 484.502 1208.3 465.959 1190.53 447.486C1172.78 429.044 1165.23 410.379 1173.1 393.107C1177.01 384.526 1184.67 376.43 1196.51 368.961C1208.36 361.49 1224.43 354.612 1245.24 348.483L1245.8 350.402C1225.1 356.499 1209.22 363.313 1197.58 370.652C1185.94 377.993 1178.61 385.824 1174.92 393.936C1167.57 410.05 1174.39 427.835 1191.97 446.1C1209.51 464.334 1237.53 482.755 1271.77 499.941C1306 517.118 1346.38 533.029 1388.6 546.267C1473.07 572.752 1564.76 588.492 1629.16 582.344C1661.39 579.267 1686.56 570.728 1700.65 555.542C1714.65 540.46 1717.94 518.56 1705.79 488.128L1707.64 487.386ZM1245.24 348.483C1277.97 338.843 1304.12 328.841 1324.03 318.871C1343.95 308.893 1357.55 298.984 1365.27 289.561C1372.96 280.166 1374.72 271.385 1371.3 263.454C1367.83 255.42 1358.93 247.967 1344.59 241.595C1315.96 228.867 1266.38 220.778 1198.41 220.516C1130.48 220.254 1044.28 227.81 942.481 246.295L942.124 244.327C1044.01 225.825 1130.34 218.253 1198.42 218.516C1266.46 218.779 1316.38 226.868 1345.41 239.768C1359.9 246.21 1369.37 253.933 1373.13 262.662C1376.95 271.494 1374.81 281.062 1366.82 290.828C1358.84 300.567 1344.95 310.629 1324.93 320.659C1304.88 330.698 1278.61 340.739 1245.8 350.402L1245.24 348.483ZM942.481 246.295C848.303 263.396 782.293 293.002 737.178 331.333C692.079 369.65 667.793 416.742 657.152 468.955C646.507 521.192 649.517 578.565 659.048 637.404C668.579 696.242 684.619 756.476 699.993 814.44C715.361 872.379 730.068 928.066 736.891 977.718C743.712 1027.35 742.681 1071.13 726.417 1105.17C710.115 1139.28 678.599 1163.45 624.892 1174.02C571.233 1184.58 495.345 1181.61 390.098 1161.45L390.474 1159.48C495.628 1179.62 571.219 1182.55 624.506 1172.06C677.745 1161.58 708.643 1137.72 724.612 1104.3C740.618 1070.8 741.715 1027.51 734.91 977.99C728.107 928.484 713.436 872.923 698.06 814.953C682.691 757.009 666.624 696.677 657.074 637.724C647.524 578.771 644.478 521.128 655.193 468.555C665.912 415.96 690.401 368.451 735.883 329.809C781.347 291.18 847.723 261.468 942.124 244.327L942.481 246.295ZM390.098 1161.45C216.947 1128.29 121.045 1070.12 67.5062 1000.41C13.9754 930.705 2.93303 849.623 -0.886823 770.978C-2.79959 731.597 -2.89909 692.949 -5.58497 656.45C-8.2681 619.988 -13.5254 585.858 -25.7017 555.697C-37.8692 525.558 -56.951 499.368 -87.3216 478.78C-117.708 458.181 -159.45 443.151 -216.991 435.439L-216.725 433.457C-158.983 441.196 -116.918 456.3 -86.1993 477.124C-55.4656 497.959 -36.1469 524.482 -23.8471 554.949C-11.5561 585.394 -6.27911 619.765 -3.59037 656.303C-0.904369 692.804 -0.794344 731.656 1.11082 770.881C4.92684 849.447 15.9539 929.997 69.0924 999.191C122.223 1068.37 217.59 1126.37 390.474 1159.48L390.098 1161.45ZM-216.991 435.439C-239.701 432.395 -256.362 427.841 -267.715 421.885C-279.085 415.92 -285.249 408.479 -286.677 399.653C-288.096 390.884 -284.789 381.025 -277.876 370.308C-270.951 359.573 -260.317 347.837 -246.831 335.259C-219.854 310.101 -181.3 281.429 -137.699 250.491C-94.0709 219.534 -45.4 186.315 1.92176 151.999C49.2338 117.69 95.1379 82.3255 133.174 47.1277C171.224 11.9175 201.33 -23.0631 217.123 -56.5924C232.896 -90.0787 234.358 -122.018 215.307 -151.365C196.199 -180.798 156.343 -207.809 88.9949 -231.055L89.6474 -232.945C157.137 -209.651 197.51 -182.45 216.984 -152.454C236.514 -122.37 234.911 -89.6627 218.932 -55.7402C202.974 -21.8608 172.643 13.3292 134.533 48.5956C96.4087 83.8745 50.4291 119.293 3.09588 153.618C-44.2276 187.935 -92.9635 221.2 -136.542 252.122C-180.147 283.063 -218.599 311.666 -245.466 336.722C-258.901 349.251 -269.399 360.857 -276.195 371.392C-283.002 381.945 -286.005 391.283 -284.703 399.333C-283.409 407.326 -277.821 414.325 -266.786 420.114C-255.736 425.911 -239.342 430.425 -216.725 433.457L-216.991 435.439Z" mask="url(#path-1-outside-1_17_8247)"/></clipPath><linearGradient id="paint0_diamond_17_8247" x1="0" y1="0" x2="500" y2="500" gradientUnits="userSpaceOnUse">
<stop stop-color="white"/>
<stop offset="0.648478" stop-color="#6A6EC5"/>
</linearGradient>
</defs>
</svg>
