<svg width="100%" height="100%" viewBox="0 0 100 100" fill="none" xmlns="http://www.w3.org/2000/svg">
<path d="M53.9859 78.5077C53.9445 78.0957 53.7412 77.7169 53.4207 77.4547C53.1001 77.1925 52.6886 77.0682 52.2766 77.1092L42.0312 78.1327C41.6458 78.1714 41.2886 78.3519 41.0287 78.6392C40.7689 78.9265 40.625 79.3 40.625 79.6874V86.3217L30.8203 89.1217C30.4938 89.2151 30.2066 89.4124 30.0022 89.6836C29.7978 89.9548 29.6873 90.2853 29.6875 90.6249V95.3124C29.6875 95.7268 29.8521 96.1242 30.1451 96.4172C30.4382 96.7103 30.8356 96.8749 31.25 96.8749C31.6644 96.8749 32.0618 96.7103 32.3549 96.4172C32.6479 96.1242 32.8125 95.7268 32.8125 95.3124V91.803L42.6172 89.003C42.9437 88.9096 43.2309 88.7124 43.4353 88.4411C43.6397 88.1699 43.7502 87.8395 43.75 87.4999V81.1014L52.5875 80.2186C52.7917 80.1981 52.9898 80.1376 53.1706 80.0405C53.3513 79.9434 53.5112 79.8117 53.6411 79.6528C53.7709 79.4939 53.8682 79.311 53.9274 79.1145C53.9866 78.9181 54.0065 78.7118 53.9859 78.5077Z" fill="#414A57"/>
<path d="M89 90.5L85 95L81.5 88.5L83 84.5H89V90.5Z" fill="url(#paint0_linear_17_17467)" stroke="black"/>
<path d="M50.5 71L46 72L43 69L44.5 65L48.5 66L50.5 71Z" fill="url(#paint1_linear_17_17467)"/>
<path d="M33.5 83L29 84L26 81L27.5 77L31.5 78L33.5 83Z" fill="url(#paint2_linear_17_17467)"/>
<path d="M95.5 57L91 58L88 55L89.5 51L93.5 52L95.5 57Z" fill="url(#paint3_linear_17_17467)"/>
<path d="M57.5 92L53 93L50 90L51.5 86L55.5 87L57.5 92Z" fill="url(#paint4_linear_17_17467)"/>
<path d="M59 17L47 29L56.5 39L69 27.5L59 17Z" fill="#D9D9D9"/>
<path d="M59 17L47 29L56.5 39L69 27.5L59 17Z" fill="url(#paint5_linear_17_17467)"/>
<path d="M59 17L47 29L56.5 39L69 27.5L59 17Z" stroke="black"/>
<path d="M82.7491 63.2467L84.2959 41.7764L87.9944 40.5436C88.2816 40.4497 88.5354 40.2746 88.725 40.0394C88.9147 39.8043 89.0322 39.5192 89.0631 39.2186L90.5803 24.053L96.5412 16.6014C96.6695 16.4412 96.7649 16.2572 96.8221 16.0601C96.8792 15.863 96.897 15.6565 96.8744 15.4525C96.8517 15.2485 96.7891 15.051 96.6902 14.8712C96.5912 14.6913 96.4577 14.5328 96.2975 14.4046C96.1372 14.2763 95.9533 14.1809 95.7562 14.1237C95.559 14.0666 95.3526 14.0488 95.1486 14.0714C94.9446 14.0941 94.747 14.1567 94.5672 14.2556C94.3874 14.3546 94.2289 14.488 94.1006 14.6483L87.8506 22.4608C87.6624 22.6963 87.5462 22.9811 87.5162 23.2811L86.0537 37.8999L82.3272 39.1499C82.0342 39.2472 81.7766 39.4292 81.587 39.6728C81.3973 39.9164 81.2841 40.2107 81.2616 40.5186L80.685 48.5327C78.0726 41.6758 74.361 35.2901 69.6959 29.6264C70.1107 28.9589 70.351 28.1978 70.3947 27.4131C70.4384 26.6284 70.2841 25.8453 69.9459 25.1358L71.2553 23.828C72.427 22.6559 73.0852 21.0665 73.0852 19.4092C73.0852 17.752 72.427 16.1625 71.2553 14.9905C70.064 13.8552 68.4814 13.2219 66.8358 13.2219C65.1901 13.2219 63.6076 13.8552 62.4162 14.9905L61.0944 16.3124C60.2227 15.9112 59.2509 15.7802 58.3041 15.9362C57.3573 16.0921 56.4789 16.5279 55.7819 17.1874L49.4225 23.5436C42.3066 17.1567 34.665 11.381 26.5787 6.27799C33.7772 6.62799 42.6241 10.1983 51.2209 16.3546C51.558 16.5957 51.9772 16.6931 52.3861 16.6253C52.795 16.5574 53.1602 16.3299 53.4014 15.9928C53.6426 15.6557 53.74 15.2366 53.6721 14.8277C53.6043 14.4188 53.3768 14.0535 53.0397 13.8124C41.7506 5.72955 29.8553 1.87486 21.2397 3.4983C20.927 3.55703 20.6397 3.70982 20.4162 3.93623C20.1927 4.16264 20.0436 4.4519 19.9889 4.76531C19.9342 5.07873 19.9765 5.40138 20.1101 5.69012C20.2437 5.97887 20.4623 6.21994 20.7366 6.38111C30.1795 11.9498 39.05 18.4364 47.2194 25.7467L46.9397 26.0249C46.2596 26.7107 45.8079 27.59 45.6466 28.5423C45.4852 29.4946 45.6219 30.4735 46.0381 31.3452L30.7553 46.6452C30.6102 46.7906 30.4952 46.9631 30.4168 47.1529C30.3384 47.3427 30.2982 47.5461 30.2984 47.7515C30.2986 47.9569 30.3393 48.1602 30.4181 48.3499C30.4969 48.5395 30.6123 48.7118 30.7577 48.8569C31.0513 49.1499 31.4492 49.3142 31.864 49.3138C32.0694 49.3136 32.2727 49.2729 32.4624 49.1941C32.652 49.1153 32.8243 48.9999 32.9694 48.8546L48.0491 33.7592L52.4631 38.1749L11.5787 79.0624C10.9874 79.635 10.1965 79.9552 9.37328 79.9552C8.55008 79.9552 7.75917 79.635 7.16781 79.0624C6.58292 78.4765 6.25441 77.6824 6.25441 76.8546C6.25441 76.0267 6.58292 75.2326 7.16781 74.6467L28.5428 53.2811C28.692 53.137 28.8111 52.9646 28.893 52.7739C28.9749 52.5833 29.018 52.3783 29.0198 52.1708C29.0216 51.9633 28.982 51.7576 28.9035 51.5656C28.8249 51.3735 28.7089 51.1991 28.5622 51.0524C28.4155 50.9057 28.241 50.7896 28.049 50.7111C27.857 50.6325 27.6512 50.593 27.4437 50.5948C27.2363 50.5966 27.0312 50.6397 26.8406 50.7216C26.65 50.8035 26.4776 50.9225 26.3334 51.0717L4.95687 72.4264C3.78757 73.5982 3.13086 75.1859 3.13086 76.8413C3.13086 78.4966 3.78757 80.0844 4.95687 81.2561C5.53516 81.8405 6.22359 82.3044 6.98232 82.621C7.74106 82.9376 8.55504 83.1007 9.37719 83.1007C10.1993 83.1007 11.0133 82.9376 11.772 82.621C12.5308 82.3044 13.2192 81.8405 13.7975 81.2561L54.8772 40.178C55.7475 40.6041 56.7295 40.7466 57.685 40.5854C58.6405 40.4243 59.5214 39.9675 60.2038 39.2796L60.4772 39.0046C62.5663 41.3483 64.5631 43.678 66.3741 45.9639C66.4999 46.129 66.6574 46.2673 66.8373 46.3708C67.0172 46.4743 67.2159 46.5409 67.4219 46.5668C67.6278 46.5926 67.8368 46.5772 68.0368 46.5214C68.2367 46.4655 68.4234 46.3704 68.5862 46.2416C68.749 46.1128 68.8844 45.9529 68.9847 45.7711C69.0849 45.5894 69.1479 45.3895 69.1701 45.1831C69.1922 44.9768 69.173 44.7681 69.1136 44.5692C69.0542 44.3703 68.9558 44.1853 68.8241 44.0249C66.856 41.5503 64.8107 39.1382 62.6913 36.7921L67.5506 31.9311C74.9209 41.2046 79.4022 51.0983 79.9053 59.3046L79.885 59.5874C77.6069 55.9639 75.1975 52.4171 72.6662 49.0171C72.5437 48.8523 72.39 48.7133 72.2138 48.6079C72.0375 48.5026 71.8423 48.433 71.6392 48.4031C71.436 48.3732 71.229 48.3836 71.0299 48.4337C70.8308 48.4838 70.6435 48.5727 70.4787 48.6952C70.314 48.8177 70.1749 48.9714 70.0696 49.1477C69.9643 49.3239 69.8947 49.5191 69.8648 49.7223C69.8349 49.9254 69.8453 50.1324 69.8954 50.3315C69.9455 50.5306 70.0344 50.7179 70.1569 50.8827C72.8897 54.5639 75.4694 58.4264 77.9084 62.3655L58.985 67.2358C58.6932 67.3111 58.4294 67.4691 58.2253 67.6909C58.0213 67.9127 57.8857 68.1887 57.835 68.4858L56.2725 77.8608C56.2047 78.2691 56.3017 78.6877 56.5422 79.0246C56.7827 79.3615 57.1471 79.5892 57.5553 79.6577C57.6402 79.6751 57.7265 79.6851 57.8131 79.6874C58.1827 79.6868 58.5401 79.5553 58.8219 79.3161C59.1037 79.077 59.2916 78.7457 59.3522 78.3811L60.7475 70.0108L81.5788 64.6467C81.8959 64.5654 82.1795 64.3865 82.3895 64.1353C82.5995 63.8841 82.7253 63.5733 82.7491 63.2467ZM69.0381 17.1874C69.624 17.7734 69.9531 18.5681 69.9531 19.3967C69.9531 20.2254 69.624 21.0201 69.0381 21.6061L67.9334 22.7108L63.5131 18.2921L64.6178 17.1874C65.2131 16.6188 66.0047 16.3015 66.828 16.3015C67.6512 16.3015 68.4428 16.6188 69.0381 17.1874ZM55.7819 37.0749L49.1537 30.4452C49.0085 30.3001 48.8932 30.1277 48.8146 29.9381C48.736 29.7484 48.6955 29.545 48.6955 29.3397C48.6955 29.1344 48.736 28.931 48.8146 28.7414C48.8932 28.5517 49.0085 28.3794 49.1537 28.2342L57.9928 19.3967C58.2858 19.1038 58.6832 18.9393 59.0975 18.9393C59.5118 18.9393 59.9092 19.1038 60.2022 19.3967L66.8319 26.0249C66.9771 26.17 67.0924 26.3423 67.171 26.532C67.2497 26.7217 67.2901 26.925 67.2901 27.1303C67.2901 27.3357 67.2497 27.539 67.171 27.7287C67.0924 27.9184 66.9771 28.0907 66.8319 28.2358L57.9928 37.0749C57.8477 37.2201 57.6754 37.3354 57.4857 37.414C57.296 37.4926 57.0927 37.5331 56.8873 37.5331C56.682 37.5331 56.4787 37.4926 56.289 37.414C56.0993 37.3354 55.927 37.2201 55.7819 37.0749ZM95.8944 70.4233L88.0819 67.2983C87.7978 67.1847 87.4865 67.157 87.1868 67.2187C86.8871 67.2803 86.6121 67.4286 86.3959 67.6452L78.5834 75.4577C78.3928 75.6484 78.2548 75.8852 78.1828 76.145C78.1108 76.4048 78.1072 76.6789 78.1725 76.9405L79.3147 81.5108L70.0959 82.828C69.8087 82.8691 69.5386 82.9894 69.3159 83.1755C69.0932 83.3615 68.9267 83.6058 68.835 83.8811L67.3897 88.2186L61.4006 94.2077C61.2514 94.3518 61.1324 94.5242 61.0505 94.7149C60.9686 94.9055 60.9255 95.1105 60.9237 95.318C60.9219 95.5255 60.9614 95.7312 61.04 95.9232C61.1185 96.1153 61.2345 96.2897 61.3813 96.4364C61.528 96.5831 61.7024 96.6992 61.8944 96.7777C62.0865 96.8563 62.2922 96.8958 62.4997 96.894C62.7072 96.8922 62.9122 96.8491 63.1028 96.7672C63.2934 96.6853 63.4659 96.5663 63.61 96.4171L69.86 90.1671C70.0318 89.9955 70.1612 89.7864 70.2381 89.5561L71.4881 85.7842L81.1537 84.4046L79.7662 88.5686C79.6944 88.7843 79.6704 89.013 79.696 89.2389C79.7217 89.4648 79.7963 89.6824 79.9147 89.8764L83.7256 96.1264C83.8542 96.3371 84.0307 96.5143 84.241 96.6436C84.4512 96.7729 84.689 96.8505 84.935 96.8702H85.06C85.2861 96.8702 85.5095 96.8212 85.7148 96.7265C85.92 96.6318 86.1023 96.4937 86.2491 96.3217L90.2506 91.6342C90.4913 91.3528 90.6242 90.9951 90.6256 90.6249V84.3749C90.6256 83.9605 90.461 83.563 90.168 83.27C89.875 82.977 89.4775 82.8124 89.0631 82.8124H82.7803C82.7913 82.6847 82.7866 82.5561 82.7663 82.4296L81.4178 77.0374L87.8772 70.5796L94.7319 73.3217C95.1169 73.4759 95.5473 73.4708 95.9285 73.3076C96.3098 73.1444 96.6105 72.8364 96.7647 72.4514C96.9188 72.0665 96.9138 71.636 96.7505 71.2548C96.5873 70.8736 96.2794 70.5728 95.8944 70.4186V70.4233ZM83.9397 85.9374H87.5006V90.0483L85.2725 92.6561L82.9694 88.8686L83.9397 85.9374ZM54.2303 83.2702C54.0669 83.1067 53.8692 82.9816 53.6516 82.9037C53.434 82.8259 53.2018 82.7973 52.9718 82.82C52.7418 82.8427 52.5197 82.9162 52.3215 83.0351C52.1233 83.154 51.9539 83.3154 51.8256 83.5077L48.7006 88.1952C48.5212 88.4642 48.4296 88.7822 48.4386 89.1055C48.4476 89.4287 48.5566 89.7412 48.7506 89.9999L53.3616 96.0936C53.5071 96.2877 53.6958 96.4452 53.9128 96.5537C54.1297 96.6621 54.369 96.7186 54.6116 96.7186H54.7397C55.0011 96.6961 55.2526 96.6082 55.471 96.4629C55.6895 96.3177 55.8679 96.1197 55.9897 95.8874L59.1912 89.7936C59.3462 89.4986 59.4028 89.1618 59.3528 88.8323C59.3027 88.5029 59.1487 88.1981 58.9131 87.9624L54.2303 83.2702ZM54.3725 92.253L51.9163 89.0061L53.3678 86.8264L55.8944 89.3546L54.3725 92.253Z" fill="#414A57"/>
<path d="M45.3133 73.4374C45.4413 73.4373 45.5688 73.4215 45.693 73.3906L51.943 71.8281C52.1929 71.7655 52.4235 71.642 52.6142 71.4687C52.8049 71.2954 52.9497 71.0777 53.0359 70.8348C53.122 70.592 53.1468 70.3317 53.108 70.0769C53.0691 69.8222 52.9679 69.5811 52.8133 69.3749L48.1258 63.1249C47.8862 62.8053 47.5332 62.5896 47.1394 62.5222C46.7456 62.4548 46.341 62.5407 46.0086 62.7624L41.3211 65.8874C41.1504 66.0013 41.0038 66.1477 40.8896 66.3182C40.7754 66.4888 40.696 66.6801 40.6558 66.8814C40.6156 67.0826 40.6155 67.2898 40.6554 67.4911C40.6953 67.6924 40.7744 67.8839 40.8883 68.0546L44.0133 72.7421C44.1561 72.9561 44.3494 73.1315 44.5762 73.2527C44.8029 73.374 45.0562 73.4375 45.3133 73.4374ZM46.5133 66.1812L48.9071 69.3749L46.0086 70.0984L44.3618 67.6265L46.5133 66.1812ZM35.7821 83.5109C35.9106 83.2506 35.964 82.9597 35.9364 82.6707C35.9088 82.3818 35.8013 82.1062 35.6258 81.8749L30.9383 75.6249C30.72 75.3308 30.4053 75.1227 30.0492 75.0371C29.693 74.9514 29.3181 74.9935 28.9899 75.1562L22.7399 78.2812C22.4949 78.4034 22.2863 78.588 22.135 78.8162C21.9838 79.0445 21.8951 79.3085 21.878 79.5818C21.861 79.8551 21.916 80.1281 22.0376 80.3734C22.1593 80.6187 22.3433 80.8278 22.5711 80.9796L27.2586 84.1046C27.5148 84.2781 27.8165 84.3721 28.1258 84.3749H34.3758C34.6675 84.3765 34.9538 84.2964 35.2023 84.1437C35.4509 83.991 35.6517 83.7718 35.7821 83.5109ZM28.5946 81.2499L26.5399 79.8812L29.2164 78.5437L31.2508 81.2499H28.5946ZM91.7305 48.8953C91.5671 48.7318 91.3694 48.6066 91.1518 48.5288C90.9342 48.4509 90.702 48.4223 90.472 48.4451C90.242 48.4678 90.0199 48.5412 89.8217 48.6602C89.6235 48.7791 89.4541 48.9405 89.3258 49.1328L86.2008 53.8203C86.0285 54.0775 85.9365 54.3802 85.9365 54.6898C85.9365 54.9994 86.0285 55.3021 86.2008 55.5593L89.2493 60.0906C89.3762 60.2793 89.5427 60.438 89.7373 60.5556C89.9319 60.6733 90.1498 60.7471 90.3758 60.7718C90.6022 60.7971 90.8314 60.7726 91.0473 60.7C91.2633 60.6274 91.4607 60.5084 91.6258 60.3515L96.3883 55.8203C96.5395 55.6766 96.6603 55.5041 96.7438 55.313C96.8272 55.1218 96.8715 54.916 96.8742 54.7074C96.8768 54.4989 96.8376 54.292 96.759 54.0988C96.6804 53.9057 96.5639 53.7302 96.4165 53.5828L91.7305 48.8953ZM90.8133 56.814L89.3758 54.6874L90.8618 52.4546L93.0696 54.6624L90.8133 56.814Z" fill="#414A57"/>
<path d="M65.625 75C66.4879 75 67.1875 74.3004 67.1875 73.4375C67.1875 72.5746 66.4879 71.875 65.625 71.875C64.7621 71.875 64.0625 72.5746 64.0625 73.4375C64.0625 74.3004 64.7621 75 65.625 75Z" fill="#414A57"/>
<path d="M57.8125 50C58.6754 50 59.375 49.3004 59.375 48.4375C59.375 47.5746 58.6754 46.875 57.8125 46.875C56.9496 46.875 56.25 47.5746 56.25 48.4375C56.25 49.3004 56.9496 50 57.8125 50Z" fill="#414A57"/>
<path d="M75 90.625C75.8629 90.625 76.5625 89.9254 76.5625 89.0625C76.5625 88.1996 75.8629 87.5 75 87.5C74.1371 87.5 73.4375 88.1996 73.4375 89.0625C73.4375 89.9254 74.1371 90.625 75 90.625Z" fill="#414A57"/>
<path d="M64.0625 84.375C64.9254 84.375 65.625 83.6754 65.625 82.8125C65.625 81.9496 64.9254 81.25 64.0625 81.25C63.1996 81.25 62.5 81.9496 62.5 82.8125C62.5 83.6754 63.1996 84.375 64.0625 84.375Z" fill="#414A57"/>
<path d="M75 73.4375C75.8629 73.4375 76.5625 72.7379 76.5625 71.875C76.5625 71.0121 75.8629 70.3125 75 70.3125C74.1371 70.3125 73.4375 71.0121 73.4375 71.875C73.4375 72.7379 74.1371 73.4375 75 73.4375Z" fill="#414A57"/>
<path d="M76.5625 25C77.4254 25 78.125 24.3004 78.125 23.4375C78.125 22.5746 77.4254 21.875 76.5625 21.875C75.6996 21.875 75 22.5746 75 23.4375C75 24.3004 75.6996 25 76.5625 25Z" fill="#414A57"/>
<path d="M54.6875 59.375C55.5504 59.375 56.25 58.6754 56.25 57.8125C56.25 56.9496 55.5504 56.25 54.6875 56.25C53.8246 56.25 53.125 56.9496 53.125 57.8125C53.125 58.6754 53.8246 59.375 54.6875 59.375Z" fill="#414A57"/>
<path d="M89.0625 78.125C89.9254 78.125 90.625 77.4254 90.625 76.5625C90.625 75.6996 89.9254 75 89.0625 75C88.1996 75 87.5 75.6996 87.5 76.5625C87.5 77.4254 88.1996 78.125 89.0625 78.125Z" fill="#414A57"/>
<path d="M59.4234 58.9968C59.3232 59.3986 59.3865 59.8237 59.5995 60.1787C59.8125 60.5338 60.1577 60.7898 60.5594 60.8906L66.8094 62.4531C66.9336 62.4838 67.0611 62.4995 67.189 62.4999C67.5702 62.4995 67.938 62.3598 68.2233 62.1071C68.5086 61.8545 68.6917 61.5062 68.7382 61.1279C68.7846 60.7497 68.6912 60.3675 68.4756 60.0533C68.2599 59.739 67.9368 59.5145 67.5672 59.4218L61.3172 57.8593C60.9152 57.7591 60.4899 57.8227 60.1348 58.036C59.7797 58.2493 59.5238 58.5949 59.4234 58.9968ZM76.6109 30.0656L78.1734 36.3156C78.2578 36.6537 78.4528 36.954 78.7274 37.1686C79.002 37.3832 79.3405 37.4998 79.689 37.4999C79.8175 37.4997 79.9455 37.4839 80.0703 37.4531C80.4719 37.3523 80.8171 37.0963 81.0301 36.7412C81.2431 36.3862 81.3064 35.9611 81.2062 35.5593L79.6437 29.3093C79.598 29.1062 79.5122 28.9142 79.3912 28.7447C79.2702 28.5752 79.1166 28.4316 78.9394 28.3223C78.7621 28.213 78.5648 28.1403 78.359 28.1083C78.1532 28.0764 77.9432 28.0859 77.7411 28.1363C77.5391 28.1867 77.3492 28.277 77.1825 28.4019C77.0158 28.5267 76.8758 28.6836 76.7707 28.8634C76.6655 29.0431 76.5974 29.242 76.5702 29.4485C76.543 29.6549 76.5558 29.8647 76.6109 30.0656ZM66.3219 55.9874C66.4926 56.1013 66.6841 56.1805 66.8854 56.2203C67.0867 56.2602 67.2938 56.2601 67.4951 56.2199C67.6963 56.1797 67.8877 56.1003 68.0582 55.9861C68.2288 55.872 68.3752 55.7253 68.489 55.5546C68.6029 55.3839 68.6821 55.1924 68.7219 54.9911C68.7618 54.7898 68.7617 54.5826 68.7215 54.3814C68.6813 54.1802 68.6019 53.9888 68.4877 53.8183C68.3736 53.6477 68.2269 53.5013 68.0562 53.3874L63.3687 50.2624C63.0239 50.0324 62.6019 49.9488 62.1955 50.03C61.7891 50.1112 61.4315 50.3505 61.2015 50.6953C60.9715 51.04 60.8879 51.4621 60.9691 51.8685C61.0503 52.2749 61.2896 52.6325 61.6344 52.8624L66.3219 55.9874Z" fill="#414A57"/>
<defs>
<linearGradient id="paint0_linear_17_17467" x1="83.8533" y1="84.5" x2="89.0552" y2="84.5891" gradientUnits="userSpaceOnUse">
<stop stop-color="#2DC5EC"/>
<stop offset="1" stop-color="#1BE1C5"/>
</linearGradient>
<linearGradient id="paint1_linear_17_17467" x1="45.3533" y1="65" x2="50.5552" y2="65.0891" gradientUnits="userSpaceOnUse">
<stop stop-color="#2DC5EC"/>
<stop offset="1" stop-color="#1BE1C5"/>
</linearGradient>
<linearGradient id="paint2_linear_17_17467" x1="28.3533" y1="77" x2="33.5552" y2="77.0891" gradientUnits="userSpaceOnUse">
<stop stop-color="#2DC5EC"/>
<stop offset="1" stop-color="#1BE1C5"/>
</linearGradient>
<linearGradient id="paint3_linear_17_17467" x1="90.3533" y1="51" x2="95.5552" y2="51.0891" gradientUnits="userSpaceOnUse">
<stop stop-color="#2DC5EC"/>
<stop offset="1" stop-color="#1BE1C5"/>
</linearGradient>
<linearGradient id="paint4_linear_17_17467" x1="52.3533" y1="86" x2="57.5552" y2="86.0891" gradientUnits="userSpaceOnUse">
<stop stop-color="#2DC5EC"/>
<stop offset="1" stop-color="#1BE1C5"/>
</linearGradient>
<linearGradient id="paint5_linear_17_17467" x1="53.903" y1="17" x2="69.1575" y2="17.366" gradientUnits="userSpaceOnUse">
<stop stop-color="#2DC5EC"/>
<stop offset="1" stop-color="#1BE1C5"/>
</linearGradient>
</defs>
</svg>
