<svg width="73" height="73" viewBox="0 0 73 73" fill="none" xmlns="http://www.w3.org/2000/svg">
<g filter="url(#filter0_d_17_26471)">
<path d="M30.5944 36.4933C30.5625 36.4931 30.531 36.4931 30.5 36.4933C30.531 36.4936 30.5625 36.4936 30.5944 36.4933C32.623 36.5112 36.5 37.678 36.5 42.2711C36.5 40.3452 37.7 36.4933 42.5 36.4933C40.5 36.4933 36.5 35.3378 36.5 30.7156C36.5 35.3087 32.623 36.4754 30.5944 36.4933Z" fill="white"/>
<path d="M30.5 36.4933C32.5 36.4753 36.5 37.6057 36.5 42.2711C36.5 40.3452 37.7 36.4933 42.5 36.4933C40.5 36.4933 36.5 35.3378 36.5 30.7156C36.5 35.381 32.5 36.5113 30.5 36.4933Z" stroke="white" strokeWidth="3"/>
</g>
<defs>
<filter id="filter0_d_17_26471" x="0.48645" y="0.715576" width="72.0135" height="71.5555" filterUnits="userSpaceOnUse" color-interpolation-filters="sRGB">
<feFlood flood-opacity="0" result="BackgroundImageFix"/>
<feColorMatrix in="SourceAlpha" type="matrix" values="0 0 0 0 0 0 0 0 0 0 0 0 0 0 0 0 0 0 127 0" result="hardAlpha"/>
<feOffset/>
<feGaussianBlur stdDeviation="15"/>
<feComposite in2="hardAlpha" operator="out"/>
<feColorMatrix type="matrix" values="0 0 0 0 1 0 0 0 0 1 0 0 0 0 1 0 0 0 1 0"/>
<feBlend mode="normal" in2="BackgroundImageFix" result="effect1_dropShadow_17_26471"/>
<feBlend mode="normal" in="SourceGraphic" in2="effect1_dropShadow_17_26471" result="shape"/>
</filter>
</defs>
</svg>
