<svg width="100%" height="100%" viewBox="0 0 100 100" fill="none" xmlns="http://www.w3.org/2000/svg">
<g clip-path="url(#clip0_17_17453)">
<rect x="58" y="24" width="17" height="14" fill="#0FEDBE"/>
<rect x="58" y="24" width="17" height="14" fill="url(#paint0_linear_17_17453)"/>
<rect x="81" y="13" width="14" height="16" fill="#0FEDBE"/>
<rect x="81" y="13" width="14" height="16" fill="url(#paint1_linear_17_17453)"/>
<rect x="66" y="1" width="9" height="10" fill="#0FEDBE"/>
<rect x="66" y="1" width="9" height="10" fill="url(#paint2_linear_17_17453)"/>
<rect x="82" y="36" width="9" height="10" fill="#0FEDBE"/>
<rect x="82" y="36" width="9" height="10" fill="url(#paint3_linear_17_17453)"/>
<rect x="55" y="45" width="9" height="10" fill="#0FEDBE"/>
<rect x="55" y="45" width="9" height="10" fill="url(#paint4_linear_17_17453)"/>
<path d="M62.8901 22.0449H59.0918C58.8561 22.045 58.6301 22.1386 58.4634 22.3053C58.2967 22.472 58.203 22.6981 58.203 22.9338V37.4224C58.203 37.6581 58.2967 37.8842 58.4634 38.0509C58.6301 38.2176 58.8561 38.3112 59.0918 38.3113H73.5805C73.8162 38.3112 74.0422 38.2176 74.2089 38.0509C74.3756 37.8842 74.4693 37.6581 74.4693 37.4224V22.9338C74.4693 22.6981 74.3756 22.472 74.2089 22.3053C74.0422 22.1386 73.8162 22.045 73.5805 22.0449H69.7261M63.088 45.4618H55.6619C55.4262 45.4618 55.2001 45.5555 55.0334 45.7222C54.8668 45.8888 54.7731 46.1149 54.7731 46.3506V53.7767C54.773 53.8934 54.796 54.009 54.8407 54.1169C54.8853 54.2247 54.9508 54.3227 55.0333 54.4053C55.1159 54.4878 55.2139 54.5533 55.3217 54.598C55.4296 54.6426 55.5452 54.6656 55.6619 54.6656H63.088C63.2047 54.6656 63.3203 54.6426 63.4282 54.598C63.536 54.5533 63.634 54.4878 63.7166 54.4053C63.7991 54.3227 63.8646 54.2247 63.9092 54.1169C63.9539 54.009 63.9769 53.8934 63.9769 53.7767V46.3506C63.9768 46.1149 63.8831 45.8888 63.7164 45.7222C63.5498 45.5555 63.3237 45.4618 63.088 45.4618ZM74.623 1.46484H67.197C66.9613 1.4649 66.7352 1.55856 66.5685 1.72525C66.4018 1.89193 66.3082 2.11799 66.3081 2.35372V9.77977C66.3081 9.8965 66.3311 10.0121 66.3757 10.12C66.4204 10.2278 66.4859 10.3258 66.5684 10.4084C66.651 10.4909 66.749 10.5564 66.8568 10.601C66.9647 10.6457 67.0803 10.6687 67.197 10.6686H74.623C74.7398 10.6687 74.8554 10.6457 74.9632 10.601C75.0711 10.5564 75.1691 10.4909 75.2516 10.4084C75.3342 10.3258 75.3997 10.2278 75.4443 10.12C75.489 10.0121 75.5119 9.8965 75.5119 9.77977V2.35372C75.5119 2.11799 75.4182 1.89193 75.2515 1.72525C75.0848 1.55856 74.8588 1.4649 74.623 1.46484ZM90.3591 36.6486H82.9329C82.6972 36.6486 82.4711 36.7423 82.3044 36.909C82.1377 37.0757 82.0441 37.3017 82.044 37.5375V44.9635C82.044 45.0802 82.067 45.1958 82.1116 45.3037C82.1563 45.4116 82.2218 45.5096 82.3043 45.5921C82.3869 45.6746 82.4849 45.7401 82.5927 45.7848C82.7006 45.8294 82.8162 45.8524 82.9329 45.8524H90.3589C90.4757 45.8524 90.5913 45.8294 90.6991 45.7848C90.807 45.7401 90.905 45.6746 90.9875 45.5921C91.0701 45.5096 91.1356 45.4116 91.1802 45.3037C91.2249 45.1958 91.2478 45.0802 91.2478 44.9635V37.5375C91.2478 37.4207 91.2249 37.3052 91.1802 37.1973C91.1356 37.0895 91.0701 36.9915 90.9876 36.9089C90.9051 36.8264 90.8071 36.7609 90.6993 36.7163C90.5914 36.6716 90.4759 36.6486 90.3591 36.6486ZM94.666 13.2614H81.7401C81.6234 13.2614 81.5078 13.2844 81.3999 13.3291C81.2921 13.3737 81.1941 13.4392 81.1115 13.5217C81.029 13.6043 80.9635 13.7023 80.9188 13.8101C80.8742 13.918 80.8512 14.0336 80.8512 14.1503V27.0762C80.8512 27.193 80.8742 27.3086 80.9188 27.4164C80.9635 27.5243 81.029 27.6223 81.1115 27.7048C81.1941 27.7874 81.2921 27.8528 81.3999 27.8975C81.5078 27.9422 81.6234 27.9651 81.7401 27.9651H94.666C94.7828 27.9651 94.8984 27.9422 95.0062 27.8975C95.1141 27.8528 95.2121 27.7874 95.2946 27.7048C95.3771 27.6223 95.4426 27.5243 95.4873 27.4164C95.5319 27.3086 95.5549 27.193 95.5549 27.0762V14.1503C95.5548 13.9146 95.4612 13.6885 95.2945 13.5218C95.1278 13.3552 94.9017 13.2615 94.666 13.2614ZM42.4114 52.6007C38.0069 52.6007 34.4238 56.1839 34.4238 60.5883C34.4238 64.9928 38.0071 68.5759 42.4114 68.5759C46.8157 68.5759 50.399 64.9926 50.399 60.5883C50.399 56.1839 46.8157 52.6007 42.4114 52.6007Z" stroke="#414A57" strokeWidth="4" stroke-miterlimit="10" strokeLinecap="round" stroke-linejoin="round"/>
<path d="M49.2825 28.8108V24.6459C49.2825 23.5184 48.3684 22.6045 47.241 22.6045H37.5804C36.4529 22.6045 35.539 23.5186 35.539 24.6459V29.8444C35.539 30.7534 34.9376 31.5518 34.0644 31.8048C31.9483 32.4181 29.9069 33.2646 27.9778 34.3286C27.5901 34.5431 27.1433 34.6257 26.7046 34.5639C26.2659 34.5022 25.8591 34.2995 25.5457 33.9864L21.8679 30.3087C21.0707 29.5114 19.7781 29.5114 18.9808 30.3087L12.1497 37.1398C11.3524 37.9371 11.3524 39.2297 12.1497 40.0269L15.8275 43.7047C16.1405 44.0182 16.3431 44.4249 16.4048 44.8636C16.4665 45.3022 16.384 45.7491 16.1696 46.1368C15.1057 48.0659 14.2593 50.1073 13.646 52.2233C13.5232 52.6484 13.2656 53.022 12.912 53.288C12.5585 53.5539 12.128 53.6978 11.6856 53.698H6.48674C5.35919 53.698 4.44531 54.612 4.44531 55.7394V65.4C4.44531 66.5276 5.35938 67.4417 6.48693 67.4417H11.6852C12.1277 67.4418 12.5581 67.5856 12.9117 67.8516C13.2652 68.1176 13.5228 68.4912 13.6456 68.9163C14.2589 71.0322 15.1054 73.0735 16.1693 75.0027C16.3837 75.3903 16.4662 75.8372 16.4045 76.2759C16.3428 76.7146 16.1401 77.1213 15.8271 77.4347L12.1493 81.1127C11.352 81.91 11.352 83.2026 12.1493 83.9998L18.9804 90.8309C19.7777 91.6282 21.0703 91.6282 21.8676 90.8309L25.5455 87.1532C25.859 86.8402 26.2657 86.6375 26.7044 86.5758C27.1431 86.5141 27.5899 86.5967 27.9776 86.8112C29.9068 87.8751 31.9481 88.7215 34.0642 89.3348C34.4892 89.4576 34.8628 89.7152 35.1288 90.0688C35.3948 90.4224 35.5386 90.8528 35.5388 91.2952V96.4937C35.5388 97.6213 36.4529 98.5351 37.5802 98.5351H47.2408C48.3684 98.5351 49.2823 97.6211 49.2823 96.4937V91.2952C49.2823 90.3862 49.8836 89.5878 50.7569 89.3348C52.8729 88.7215 54.9143 87.8751 56.8435 86.8112C57.2311 86.5967 57.678 86.5141 58.1166 86.5758C58.5553 86.6375 58.9621 86.8402 59.2755 87.1532L62.9533 90.8309C63.7506 91.6282 65.0432 91.6282 65.8404 90.8309L72.6716 83.9998C73.4688 83.2026 73.4688 81.91 72.6716 81.1127L68.9938 77.4349C68.6808 77.1214 68.4782 76.7146 68.4165 76.2759C68.3548 75.8372 68.4374 75.3903 68.6518 75.0027C69.7157 73.0735 70.5621 71.0322 71.1755 68.9163C71.2983 68.4912 71.5559 68.1176 71.9094 67.8516C72.263 67.5857 72.6934 67.4418 73.1358 67.4417H78.3341C79.4617 67.4417 80.3755 66.5276 80.3755 65.4V55.7394C80.3755 54.6118 79.4615 53.698 78.3341 53.698H70.3528C70.0945 53.698 69.8467 53.8006 69.664 53.9833C69.4814 54.1659 69.3788 54.4137 69.3788 54.672V59.5957C69.3788 59.7236 69.3536 59.8502 69.3046 59.9684C69.2557 60.0866 69.1839 60.194 69.0935 60.2844C69.003 60.3749 68.8956 60.4466 68.7775 60.4956C68.6593 60.5445 68.5326 60.5697 68.4047 60.5697H63.0885C62.5642 60.5697 62.1398 60.9849 62.1154 61.5088C61.6211 72.0601 52.8374 80.4435 42.1297 80.2945C31.5048 80.1467 22.8336 71.4755 22.6857 60.8506C22.5324 49.827 31.4221 40.843 42.4105 40.843C44.3621 40.843 46.2473 41.1269 48.0274 41.6551C48.6536 41.8408 49.2825 41.3771 49.2825 40.7238V35.6468" stroke="#414A57" strokeWidth="4" stroke-miterlimit="10" strokeLinecap="round" stroke-linejoin="round"/>
</g>
<defs>
<linearGradient id="paint0_linear_17_17453" x1="63.3341" y1="24" x2="75.1185" y2="24.3433" gradientUnits="userSpaceOnUse">
<stop stop-color="#2DC5EC"/>
<stop offset="1" stop-color="#1BE1C5"/>
</linearGradient>
<linearGradient id="paint1_linear_17_17453" x1="85.3928" y1="13" x2="95.1015" y2="13.2038" gradientUnits="userSpaceOnUse">
<stop stop-color="#2DC5EC"/>
<stop offset="1" stop-color="#1BE1C5"/>
</linearGradient>
<linearGradient id="paint2_linear_17_17453" x1="68.8239" y1="1" x2="75.0651" y2="1.13475" gradientUnits="userSpaceOnUse">
<stop stop-color="#2DC5EC"/>
<stop offset="1" stop-color="#1BE1C5"/>
</linearGradient>
<linearGradient id="paint3_linear_17_17453" x1="84.8239" y1="36" x2="91.0651" y2="36.1348" gradientUnits="userSpaceOnUse">
<stop stop-color="#2DC5EC"/>
<stop offset="1" stop-color="#1BE1C5"/>
</linearGradient>
<linearGradient id="paint4_linear_17_17453" x1="57.8239" y1="45" x2="64.0651" y2="45.1348" gradientUnits="userSpaceOnUse">
<stop stop-color="#2DC5EC"/>
<stop offset="1" stop-color="#1BE1C5"/>
</linearGradient>
<clipPath id="clip0_17_17453">
<rect width="100" height="100" fill="white"/>
</clipPath>
</defs>
</svg>
