<svg width="100%" height="100%" viewBox="0 0 1812 245" fill="none" xmlns="http://www.w3.org/2000/svg">
<path d="M129.6 274.4C86 274.4 53.6 267.2 32.4 252.8C11.2 238.4 0.6 214.333 0.6 180.6V3H81.4V172C81.4 188.933 85.0667 201.133 92.4 208.6C99.8667 216.067 112.267 219.8 129.6 219.8C146.933 219.8 159.333 216.133 166.8 208.8C174.267 201.333 178 189.067 178 172V3H258.8V180.6C258.8 214.333 248.2 238.4 227 252.8C205.8 267.2 173.333 274.4 129.6 274.4ZM293.178 273V3H421.378L506.178 211.8H506.778L507.578 3H587.978V273H460.978L374.378 60H373.378V273H293.178ZM634.6 273V3H715V273H634.6ZM758.022 273V3H838.822V218.6H944.422V273H758.022ZM968.856 273L1052.86 2.79999H1166.86L1251.06 273H1167.86L1152.26 211.6H1068.06L1052.06 273H968.856ZM1081.06 158.8H1139.46L1110.66 49.8H1109.86L1081.06 158.8ZM1275.21 273V3H1438.41C1474.41 3 1496.74 10.0667 1505.41 24.2C1514.08 38.2 1518.41 52.8 1518.41 68C1518.41 83.3333 1514.94 97.2 1508.01 109.6C1501.08 121.867 1489.14 128.267 1472.21 128.8C1489.28 129.733 1502.34 136.4 1511.41 148.8C1520.48 161.2 1525.01 176.667 1525.01 195.2C1525.01 216.8 1520.81 235.2 1512.41 250.4C1504.14 265.467 1481.61 273 1444.81 273H1275.21ZM1356.01 218.4H1424.21C1433.01 218.4 1438.54 216 1440.81 211.2C1443.08 206.267 1444.21 198.133 1444.21 186.8C1444.21 175.733 1442.94 167.6 1440.41 162.4C1438.01 157.067 1432.01 154.4 1422.41 154.4H1356.01V218.4ZM1356.01 105.8H1417.21C1425.34 105.8 1430.68 103.533 1433.21 99C1435.74 94.3333 1437.01 88 1437.01 80C1437.01 72.2667 1435.81 66.6 1433.41 63C1431.01 59.2667 1425.94 57.4 1418.21 57.4H1356.01V105.8ZM1684.39 274.4C1632.93 274.4 1598.46 265.533 1580.99 247.8C1563.53 229.933 1554.79 206.267 1554.79 176.8H1635.39C1635.39 196.267 1639.99 208.4 1649.19 213.2C1658.39 217.867 1669.93 220.2 1683.79 220.2C1697.53 220.2 1708.93 218.467 1717.99 215C1727.19 211.4 1731.79 205.267 1731.79 196.6C1731.79 186.467 1725.19 179.667 1711.99 176.2C1698.79 172.733 1680.73 169.067 1657.79 165.2C1618.46 157.333 1591.46 148.333 1576.79 138.2C1562.26 127.933 1554.99 111.067 1554.99 87.6C1554.99 63.7333 1563.86 43.2667 1581.59 26.2C1599.33 8.99999 1633.06 0.399993 1682.79 0.399993C1732.66 0.399993 1766.46 9.66666 1784.19 28.2C1802.06 46.6 1810.99 69.6667 1810.99 97.4H1730.19C1730.19 78.2 1725.39 66.3333 1715.79 61.8C1706.33 57.1333 1695.06 54.8 1681.99 54.8C1667.59 54.8 1655.79 56.7333 1646.59 60.6C1637.53 64.4667 1632.99 70.3333 1632.99 78.2C1632.99 89.1333 1639.79 96.3333 1653.39 99.8C1666.99 103.133 1685.13 106.867 1707.79 111C1748.46 118.867 1775.86 127.467 1789.99 136.8C1804.26 146 1811.39 162.133 1811.39 185.2C1811.39 209.867 1802.73 230.933 1785.39 248.4C1768.19 265.733 1734.53 274.4 1684.39 274.4Z" fill="#191F27"/>
</svg>
