<svg width="16" height="16" viewBox="0 0 16 16" fill="none" xmlns="http://www.w3.org/2000/svg">
<path fill-rule="evenodd" clip-rule="evenodd" d="M8.39545 15.5053L8.38811 15.5066L8.34078 15.53L8.32745 15.5326L8.31811 15.53L8.27078 15.5066C8.26367 15.5044 8.25834 15.5055 8.25478 15.51L8.25211 15.5166L8.24078 15.802L8.24411 15.8153L8.25078 15.824L8.32011 15.8733L8.33011 15.876L8.33811 15.8733L8.40745 15.824L8.41545 15.8133L8.41811 15.802L8.40678 15.5173C8.405 15.5102 8.40123 15.5062 8.39545 15.5053ZM8.57211 15.43L8.56345 15.4313L8.44011 15.4933L8.43345 15.5L8.43145 15.5073L8.44345 15.794L8.44678 15.802L8.45211 15.8066L8.58611 15.8686C8.59456 15.8709 8.601 15.8691 8.60545 15.8633L8.60811 15.854L8.58545 15.4446C8.58323 15.4366 8.57878 15.4318 8.57211 15.43ZM8.09545 15.4313C8.09251 15.4295 8.089 15.429 8.08565 15.4297C8.08229 15.4304 8.07936 15.4325 8.07745 15.4353L8.07345 15.4446L8.05078 15.854C8.05123 15.862 8.055 15.8673 8.06211 15.87L8.07211 15.8686L8.20611 15.8066L8.21278 15.8013L8.21545 15.794L8.22678 15.5073L8.22478 15.4993L8.21811 15.4926L8.09545 15.4313Z" fill="currentColor"/>
<path fill-rule="evenodd" clip-rule="evenodd" d="M8.39545 15.5053L8.38811 15.5066L8.34078 15.53L8.32745 15.5326L8.31811 15.53L8.27078 15.5066C8.26367 15.5044 8.25834 15.5055 8.25478 15.51L8.25211 15.5166L8.24078 15.802L8.24411 15.8153L8.25078 15.824L8.32011 15.8733L8.33011 15.876L8.33811 15.8733L8.40745 15.824L8.41545 15.8133L8.41811 15.802L8.40678 15.5173C8.405 15.5102 8.40123 15.5062 8.39545 15.5053ZM8.57211 15.43L8.56345 15.4313L8.44011 15.4933L8.43345 15.5L8.43145 15.5073L8.44345 15.794L8.44678 15.802L8.45211 15.8066L8.58611 15.8686C8.59456 15.8709 8.601 15.8691 8.60545 15.8633L8.60811 15.854L8.58545 15.4446C8.58323 15.4366 8.57878 15.4318 8.57211 15.43ZM8.09545 15.4313C8.09251 15.4295 8.089 15.429 8.08565 15.4297C8.08229 15.4304 8.07936 15.4325 8.07745 15.4353L8.07345 15.4446L8.05078 15.854C8.05123 15.862 8.055 15.8673 8.06211 15.87L8.07211 15.8686L8.20611 15.8066L8.21278 15.8013L8.21545 15.794L8.22678 15.5073L8.22478 15.4993L8.21811 15.4926L8.09545 15.4313Z" fill="url(#paint0_linear_17_26448)"/>
<path fill-rule="evenodd" clip-rule="evenodd" d="M11.6133 2C11.8298 1.99998 12.043 2.05265 12.2345 2.15347C12.426 2.25429 12.5901 2.40023 12.7126 2.57867L12.7706 2.672L14.9933 6.56C15.129 6.79731 15.1885 7.0706 15.1637 7.34284C15.1389 7.61508 15.031 7.87312 14.8546 8.082L14.7786 8.164L8.58998 14.3527C8.44482 14.4978 8.2512 14.5842 8.04625 14.5954C7.84129 14.6066 7.63941 14.5418 7.47931 14.4133L7.41131 14.3533L1.22264 8.164C1.02933 7.97077 0.900067 7.72279 0.852369 7.45366C0.804671 7.18452 0.840839 6.90723 0.955976 6.65933L1.00798 6.55933L3.22998 2.67133C3.33737 2.48338 3.48891 2.32441 3.6715 2.20814C3.85409 2.09187 4.06224 2.02181 4.27798 2.004L4.38664 2H11.6133ZM11.6133 3.33333H4.38664L2.16464 7.222L7.99998 13.0573L13.8353 7.222L11.6133 3.33333ZM9.99998 4C10.1768 4 10.3464 4.07024 10.4714 4.19526C10.5964 4.32029 10.6666 4.48986 10.6666 4.66667C10.6666 4.84348 10.5964 5.01305 10.4714 5.13807C10.3464 5.2631 10.1768 5.33333 9.99998 5.33333H8.66664V6.36333C9.17198 6.41 9.63131 6.508 10.0026 6.64733C10.266 6.746 10.502 6.87133 10.678 7.028C10.854 7.18467 11 7.39933 11 7.66667C11 7.934 10.854 8.14933 10.678 8.30533C10.502 8.462 10.266 8.58733 10.0026 8.68533C9.60664 8.834 9.11064 8.93667 8.56464 8.97867C8.63134 9.08494 8.66669 9.20787 8.66664 9.33333V10.6667C8.66664 10.8435 8.5964 11.013 8.47138 11.1381C8.34636 11.2631 8.17679 11.3333 7.99998 11.3333C7.82316 11.3333 7.6536 11.2631 7.52857 11.1381C7.40355 11.013 7.33331 10.8435 7.33331 10.6667V9.33333C7.33331 9.20267 7.37064 9.08133 7.43531 8.97867C6.88931 8.93667 6.39331 8.83467 5.99731 8.68533C5.73398 8.58733 5.49798 8.462 5.32198 8.30533C5.14598 8.14867 4.99998 7.934 4.99998 7.66667C4.99998 7.39933 5.14598 7.184 5.32198 7.028C5.49798 6.87133 5.73398 6.746 5.99731 6.648C6.36798 6.508 6.82731 6.41 7.33331 6.36333V5.33333H5.99998C5.82316 5.33333 5.6536 5.2631 5.52857 5.13807C5.40355 5.01305 5.33331 4.84348 5.33331 4.66667C5.33331 4.48986 5.40355 4.32029 5.52857 4.19526C5.6536 4.07024 5.82316 4 5.99998 4H9.99998ZM8.66598 7.03333C8.6583 7.20481 8.58478 7.36672 8.46072 7.48535C8.33666 7.60398 8.17163 7.67019 7.99998 7.67019C7.82832 7.67019 7.66329 7.60398 7.53923 7.48535C7.41517 7.36672 7.34165 7.20481 7.33398 7.03333C6.95794 7.06645 6.58752 7.1464 6.23131 7.27133C6.01131 7.354 5.85798 7.444 5.76398 7.52667C5.68598 7.596 5.67064 7.64133 5.66731 7.65933L5.66664 7.66667C5.66664 7.67533 5.66998 7.72333 5.76398 7.80667C5.85798 7.89 6.01198 7.98 6.23131 8.06133C6.66798 8.22533 7.29264 8.33333 7.99998 8.33333C8.70731 8.33333 9.33198 8.22533 9.76864 8.06133C9.98798 7.97933 10.142 7.88933 10.2353 7.80667C10.2758 7.77551 10.3079 7.73471 10.3286 7.688L10.3333 7.66667L10.3286 7.64533C10.3079 7.59862 10.2758 7.55783 10.2353 7.52667C10.142 7.444 9.98798 7.35333 9.76864 7.272C9.47531 7.162 9.09664 7.07667 8.66598 7.03333Z" fill="currentColor"/>
<path fill-rule="evenodd" clip-rule="evenodd" d="M11.6133 2C11.8298 1.99998 12.043 2.05265 12.2345 2.15347C12.426 2.25429 12.5901 2.40023 12.7126 2.57867L12.7706 2.672L14.9933 6.56C15.129 6.79731 15.1885 7.0706 15.1637 7.34284C15.1389 7.61508 15.031 7.87312 14.8546 8.082L14.7786 8.164L8.58998 14.3527C8.44482 14.4978 8.2512 14.5842 8.04625 14.5954C7.84129 14.6066 7.63941 14.5418 7.47931 14.4133L7.41131 14.3533L1.22264 8.164C1.02933 7.97077 0.900067 7.72279 0.852369 7.45366C0.804671 7.18452 0.840839 6.90723 0.955976 6.65933L1.00798 6.55933L3.22998 2.67133C3.33737 2.48338 3.48891 2.32441 3.6715 2.20814C3.85409 2.09187 4.06224 2.02181 4.27798 2.004L4.38664 2H11.6133ZM11.6133 3.33333H4.38664L2.16464 7.222L7.99998 13.0573L13.8353 7.222L11.6133 3.33333ZM9.99998 4C10.1768 4 10.3464 4.07024 10.4714 4.19526C10.5964 4.32029 10.6666 4.48986 10.6666 4.66667C10.6666 4.84348 10.5964 5.01305 10.4714 5.13807C10.3464 5.2631 10.1768 5.33333 9.99998 5.33333H8.66664V6.36333C9.17198 6.41 9.63131 6.508 10.0026 6.64733C10.266 6.746 10.502 6.87133 10.678 7.028C10.854 7.18467 11 7.39933 11 7.66667C11 7.934 10.854 8.14933 10.678 8.30533C10.502 8.462 10.266 8.58733 10.0026 8.68533C9.60664 8.834 9.11064 8.93667 8.56464 8.97867C8.63134 9.08494 8.66669 9.20787 8.66664 9.33333V10.6667C8.66664 10.8435 8.5964 11.013 8.47138 11.1381C8.34636 11.2631 8.17679 11.3333 7.99998 11.3333C7.82316 11.3333 7.6536 11.2631 7.52857 11.1381C7.40355 11.013 7.33331 10.8435 7.33331 10.6667V9.33333C7.33331 9.20267 7.37064 9.08133 7.43531 8.97867C6.88931 8.93667 6.39331 8.83467 5.99731 8.68533C5.73398 8.58733 5.49798 8.462 5.32198 8.30533C5.14598 8.14867 4.99998 7.934 4.99998 7.66667C4.99998 7.39933 5.14598 7.184 5.32198 7.028C5.49798 6.87133 5.73398 6.746 5.99731 6.648C6.36798 6.508 6.82731 6.41 7.33331 6.36333V5.33333H5.99998C5.82316 5.33333 5.6536 5.2631 5.52857 5.13807C5.40355 5.01305 5.33331 4.84348 5.33331 4.66667C5.33331 4.48986 5.40355 4.32029 5.52857 4.19526C5.6536 4.07024 5.82316 4 5.99998 4H9.99998ZM8.66598 7.03333C8.6583 7.20481 8.58478 7.36672 8.46072 7.48535C8.33666 7.60398 8.17163 7.67019 7.99998 7.67019C7.82832 7.67019 7.66329 7.60398 7.53923 7.48535C7.41517 7.36672 7.34165 7.20481 7.33398 7.03333C6.95794 7.06645 6.58752 7.1464 6.23131 7.27133C6.01131 7.354 5.85798 7.444 5.76398 7.52667C5.68598 7.596 5.67064 7.64133 5.66731 7.65933L5.66664 7.66667C5.66664 7.67533 5.66998 7.72333 5.76398 7.80667C5.85798 7.89 6.01198 7.98 6.23131 8.06133C6.66798 8.22533 7.29264 8.33333 7.99998 8.33333C8.70731 8.33333 9.33198 8.22533 9.76864 8.06133C9.98798 7.97933 10.142 7.88933 10.2353 7.80667C10.2758 7.77551 10.3079 7.73471 10.3286 7.688L10.3333 7.66667L10.3286 7.64533C10.3079 7.59862 10.2758 7.55783 10.2353 7.52667C10.142 7.444 9.98798 7.35333 9.76864 7.272C9.47531 7.162 9.09664 7.07667 8.66598 7.03333Z" fill="currentColor"/>
<defs>
<linearGradient id="paint0_linear_17_26448" x1="8.2747" y1="15.539" x2="8.69863" y2="15.7226" gradientUnits="userSpaceOnUse">
<stop offset="0.119715" stop-color="#42BDDD"/>
<stop offset="1" stop-color="#0FEDBE"/>
</linearGradient>
<linearGradient id="paint1_linear_17_26448" x1="6.59205" y1="5.09191" x2="17.7952" y2="9.51627" gradientUnits="userSpaceOnUse">
<stop offset="0.119715" stop-color="#42BDDD"/>
<stop offset="1" stop-color="#0FEDBE"/>
</linearGradient>
</defs>
</svg>
