<svg width="441" height="1469" viewBox="0 0 441 1469" fill="none" xmlns="http://www.w3.org/2000/svg">
<g filter="url(#filter0_d_17_26499)">
<mask id="path-1-outside-1_17_26499" maskUnits="userSpaceOnUse" x="8" y="19" width="2348" height="1413" fill="black">
<rect fill="white" x="8" y="19" width="2348" height="1413"/>
</mask>
<g clip-path="url(#paint0_diamond_17_26499_clip_path)" data-figma-skip-parse="true" mask="url(#path-1-outside-1_17_26499)"><g transform="matrix(1.04965 -0.0148927 0.0424008 2.98574 298.161 929.116)"><rect x="0" y="0" width="1973.38" height="306.473" fill="url(#paint0_diamond_17_26499)" opacity="1" shape-rendering="crispEdges"/><rect x="0" y="0" width="1973.38" height="306.473" transform="scale(1 -1)" fill="url(#paint0_diamond_17_26499)" opacity="1" shape-rendering="crispEdges"/><rect x="0" y="0" width="1973.38" height="306.473" transform="scale(-1 1)" fill="url(#paint0_diamond_17_26499)" opacity="1" shape-rendering="crispEdges"/><rect x="0" y="0" width="1973.38" height="306.473" transform="scale(-1)" fill="url(#paint0_diamond_17_26499)" opacity="1" shape-rendering="crispEdges"/></g></g><path d="M2002.72 711.243L2001.79 710.872L2002.72 711.243ZM1541.52 849.557L1541.24 850.517L1541.52 849.557ZM1238.3 953.689L1238.12 954.673L1238.3 953.689ZM686.286 38.5337L686.474 39.5159L686.286 38.5337ZM79.1418 764.552L79.2747 765.543L79.1418 764.552ZM2354.1 508.704C2350.46 516.16 2340.2 530.097 2325.17 548.206C2310.17 566.281 2290.49 588.427 2268.12 612.268C2223.38 659.952 2167.88 714.384 2117.46 756.553C2092.24 777.639 2068.32 795.639 2047.66 808.195C2037.33 814.474 2027.83 819.378 2019.42 822.628C2010.99 825.882 2003.71 827.449 1997.78 827.126C1991.89 826.804 1987.38 824.624 1984.32 820.373C1981.23 816.076 1979.53 809.528 1979.61 800.286C1979.78 781.796 1987.1 753.058 2003.64 711.614L2001.79 710.872C1985.23 752.35 1977.79 781.382 1977.61 800.268C1977.53 809.714 1979.25 816.754 1982.7 821.541C1986.18 826.375 1991.3 828.775 1997.67 829.123C2004 829.468 2011.58 827.795 2020.14 824.494C2028.7 821.187 2038.31 816.22 2048.7 809.905C2069.48 797.274 2093.49 779.203 2118.74 758.087C2169.25 715.851 2224.8 661.358 2269.58 613.636C2291.97 589.774 2311.67 567.597 2326.71 549.484C2341.71 531.405 2352.14 517.288 2355.9 509.581L2354.1 508.704ZM2003.64 711.614C2015.97 680.747 2012.82 657.94 1998.12 642.097C1983.51 626.358 1957.72 617.755 1925.35 614.666C1860.57 608.48 1768.58 624.306 1684 650.824C1641.7 664.088 1601.21 680.037 1566.87 697.272C1532.55 714.498 1504.3 733.041 1486.53 751.514C1468.78 769.956 1461.23 788.621 1469.1 805.893C1473.01 814.474 1480.67 822.57 1492.51 830.039C1504.36 837.51 1520.43 844.388 1541.24 850.517L1541.8 848.598C1521.1 842.501 1505.22 835.687 1493.58 828.348C1481.94 821.007 1474.61 813.176 1470.92 805.064C1463.57 788.95 1470.39 771.165 1487.97 752.9C1505.51 734.666 1533.53 716.245 1567.77 699.059C1602 681.882 1642.38 665.971 1684.6 652.733C1769.07 626.248 1860.76 610.508 1925.16 616.656C1957.39 619.733 1982.56 628.272 1996.65 643.458C2010.65 658.54 2013.94 680.44 2001.79 710.872L2003.64 711.614ZM1541.24 850.517C1573.97 860.157 1600.12 870.159 1620.03 880.129C1639.95 890.107 1653.55 900.016 1661.27 909.439C1668.96 918.834 1670.72 927.615 1667.3 935.546C1663.83 943.58 1654.93 951.033 1640.59 957.405C1611.96 970.133 1562.38 978.222 1494.41 978.484C1426.48 978.746 1340.28 971.19 1238.48 952.705L1238.12 954.673C1340.01 973.175 1426.34 980.747 1494.42 980.484C1562.46 980.221 1612.38 972.132 1641.41 959.232C1655.9 952.79 1665.37 945.067 1669.13 936.338C1672.95 927.506 1670.81 917.938 1662.82 908.172C1654.84 898.433 1640.95 888.371 1620.93 878.341C1600.88 868.302 1574.61 858.261 1541.8 848.598L1541.24 850.517ZM1238.48 952.705C1144.3 935.604 1078.29 905.998 1033.18 867.667C988.079 829.35 963.793 782.258 953.152 730.045C942.507 677.808 945.517 620.435 955.048 561.596C964.579 502.758 980.619 442.524 995.993 384.56C1011.36 326.621 1026.07 270.934 1032.89 221.282C1039.71 171.648 1038.68 127.874 1022.42 93.8345C1006.11 59.7163 974.599 35.5538 920.892 24.9802C867.233 14.416 791.344 17.3947 686.098 37.5515L686.474 39.5159C791.628 19.3767 867.219 16.4517 920.506 26.9425C973.745 37.4241 1004.64 61.2755 1020.61 94.6968C1036.62 128.196 1037.72 171.487 1030.91 221.01C1024.11 270.516 1009.44 326.077 994.06 384.047C978.691 441.991 962.624 502.323 953.074 561.276C943.524 620.229 940.479 677.872 951.193 730.445C961.911 783.04 986.401 830.549 1031.88 869.191C1077.35 907.82 1143.72 937.532 1238.12 954.673L1238.48 952.705ZM686.098 37.5515C512.947 70.7134 417.045 128.876 363.506 198.591C309.975 268.295 298.933 349.377 295.113 428.022C293.2 467.403 293.101 506.051 290.415 542.55C287.732 579.012 282.475 613.142 270.298 643.303C258.131 673.442 239.049 699.632 208.678 720.22C178.292 740.819 136.55 755.849 79.009 763.561L79.2747 765.543C137.017 757.804 179.082 742.7 209.801 721.876C240.534 701.041 259.853 674.518 272.153 644.051C284.444 613.606 289.721 579.235 292.41 542.697C295.096 506.196 295.206 467.344 297.111 428.119C300.927 349.553 311.954 269.003 365.092 199.809C418.223 130.627 513.59 72.6265 686.474 39.5159L686.098 37.5515ZM79.009 763.561C56.2991 766.605 39.6377 771.159 28.2847 777.115C16.9155 783.08 10.7512 790.521 9.32324 799.347C7.9043 808.116 11.2109 817.975 18.1243 828.692C25.0493 839.427 35.6826 851.163 49.1694 863.741C76.146 888.899 114.7 917.57 158.301 948.509C201.929 979.466 250.6 1012.69 297.922 1047C345.234 1081.31 391.138 1116.67 429.174 1151.87C467.224 1187.08 497.33 1222.06 513.123 1255.59C528.896 1289.08 530.358 1321.02 511.307 1350.36C492.199 1379.8 452.344 1406.81 384.995 1430.05L385.647 1431.95C453.137 1408.65 493.51 1381.45 512.984 1351.45C532.514 1321.37 530.911 1288.66 514.932 1254.74C498.974 1220.86 468.643 1185.67 430.533 1150.4C392.409 1115.13 346.429 1079.71 299.096 1045.38C251.772 1011.06 203.037 977.8 159.458 946.878C115.853 915.937 77.4009 887.334 50.5334 862.278C37.0986 849.749 26.6006 838.143 19.8049 827.608C12.998 817.055 9.99487 807.717 11.2976 799.667C12.5908 791.674 18.179 784.675 29.2136 778.886C40.2644 773.089 56.658 768.575 79.2747 765.543L79.009 763.561Z" data-figma-gradient-fill="{&#34;type&#34;:&#34;GRADIENT_DIAMOND&#34;,&#34;stops&#34;:[{&#34;color&#34;:{&#34;r&#34;:1.0,&#34;g&#34;:1.0,&#34;b&#34;:1.0,&#34;a&#34;:1.0},&#34;position&#34;:0.0},{&#34;color&#34;:{&#34;r&#34;:0.41701436042785645,&#34;g&#34;:0.43189704418182373,&#34;b&#34;:0.77419888973236084,&#34;a&#34;:1.0},&#34;position&#34;:0.64847844839096069}],&#34;stopsVar&#34;:[{&#34;color&#34;:{&#34;r&#34;:1.0,&#34;g&#34;:1.0,&#34;b&#34;:1.0,&#34;a&#34;:1.0},&#34;position&#34;:0.0},{&#34;color&#34;:{&#34;r&#34;:0.41701436042785645,&#34;g&#34;:0.43189704418182373,&#34;b&#34;:0.77419888973236084,&#34;a&#34;:1.0},&#34;position&#34;:0.64847844839096069}],&#34;transform&#34;:{&#34;m00&#34;:2099.302246093750,&#34;m01&#34;:84.801544189453125,&#34;m02&#34;:-793.89129638671875,&#34;m10&#34;:-29.785346984863281,&#34;m11&#34;:5971.472656250,&#34;m12&#34;:-2041.7272949218750},&#34;opacity&#34;:1.0,&#34;blendMode&#34;:&#34;NORMAL&#34;,&#34;visible&#34;:true}" mask="url(#path-1-outside-1_17_26499)"/>
</g>
<defs>
<filter id="filter0_d_17_26499" x="-0.000183105" y="0" width="2402.9" height="1468.95" filterUnits="userSpaceOnUse" color-interpolation-filters="sRGB">
<feFlood flood-opacity="0" result="BackgroundImageFix"/>
<feColorMatrix in="SourceAlpha" type="matrix" values="0 0 0 0 0 0 0 0 0 0 0 0 0 0 0 0 0 0 127 0" result="hardAlpha"/>
<feOffset dx="19" dy="9"/>
<feGaussianBlur stdDeviation="14"/>
<feComposite in2="hardAlpha" operator="out"/>
<feColorMatrix type="matrix" values="0 0 0 0 0.167015 0 0 0 0 0.0581983 0 0 0 0 0.366126 0 0 0 0.8 0"/>
<feBlend mode="normal" in2="BackgroundImageFix" result="effect1_dropShadow_17_26499"/>
<feBlend mode="normal" in="SourceGraphic" in2="effect1_dropShadow_17_26499" result="shape"/>
</filter>
<clipPath id="paint0_diamond_17_26499_clip_path"><path d="M2002.72 711.243L2001.79 710.872L2002.72 711.243ZM1541.52 849.557L1541.24 850.517L1541.52 849.557ZM1238.3 953.689L1238.12 954.673L1238.3 953.689ZM686.286 38.5337L686.474 39.5159L686.286 38.5337ZM79.1418 764.552L79.2747 765.543L79.1418 764.552ZM2354.1 508.704C2350.46 516.16 2340.2 530.097 2325.17 548.206C2310.17 566.281 2290.49 588.427 2268.12 612.268C2223.38 659.952 2167.88 714.384 2117.46 756.553C2092.24 777.639 2068.32 795.639 2047.66 808.195C2037.33 814.474 2027.83 819.378 2019.42 822.628C2010.99 825.882 2003.71 827.449 1997.78 827.126C1991.89 826.804 1987.38 824.624 1984.32 820.373C1981.23 816.076 1979.53 809.528 1979.61 800.286C1979.78 781.796 1987.1 753.058 2003.64 711.614L2001.79 710.872C1985.23 752.35 1977.79 781.382 1977.61 800.268C1977.53 809.714 1979.25 816.754 1982.7 821.541C1986.18 826.375 1991.3 828.775 1997.67 829.123C2004 829.468 2011.58 827.795 2020.14 824.494C2028.7 821.187 2038.31 816.22 2048.7 809.905C2069.48 797.274 2093.49 779.203 2118.74 758.087C2169.25 715.851 2224.8 661.358 2269.58 613.636C2291.97 589.774 2311.67 567.597 2326.71 549.484C2341.71 531.405 2352.14 517.288 2355.9 509.581L2354.1 508.704ZM2003.64 711.614C2015.97 680.747 2012.82 657.94 1998.12 642.097C1983.51 626.358 1957.72 617.755 1925.35 614.666C1860.57 608.48 1768.58 624.306 1684 650.824C1641.7 664.088 1601.21 680.037 1566.87 697.272C1532.55 714.498 1504.3 733.041 1486.53 751.514C1468.78 769.956 1461.23 788.621 1469.1 805.893C1473.01 814.474 1480.67 822.57 1492.51 830.039C1504.36 837.51 1520.43 844.388 1541.24 850.517L1541.8 848.598C1521.1 842.501 1505.22 835.687 1493.58 828.348C1481.94 821.007 1474.61 813.176 1470.92 805.064C1463.57 788.95 1470.39 771.165 1487.97 752.9C1505.51 734.666 1533.53 716.245 1567.77 699.059C1602 681.882 1642.38 665.971 1684.6 652.733C1769.07 626.248 1860.76 610.508 1925.16 616.656C1957.39 619.733 1982.56 628.272 1996.65 643.458C2010.65 658.54 2013.94 680.44 2001.79 710.872L2003.64 711.614ZM1541.24 850.517C1573.97 860.157 1600.12 870.159 1620.03 880.129C1639.95 890.107 1653.55 900.016 1661.27 909.439C1668.96 918.834 1670.72 927.615 1667.3 935.546C1663.83 943.58 1654.93 951.033 1640.59 957.405C1611.96 970.133 1562.38 978.222 1494.41 978.484C1426.48 978.746 1340.28 971.19 1238.48 952.705L1238.12 954.673C1340.01 973.175 1426.34 980.747 1494.42 980.484C1562.46 980.221 1612.38 972.132 1641.41 959.232C1655.9 952.79 1665.37 945.067 1669.13 936.338C1672.95 927.506 1670.81 917.938 1662.82 908.172C1654.84 898.433 1640.95 888.371 1620.93 878.341C1600.88 868.302 1574.61 858.261 1541.8 848.598L1541.24 850.517ZM1238.48 952.705C1144.3 935.604 1078.29 905.998 1033.18 867.667C988.079 829.35 963.793 782.258 953.152 730.045C942.507 677.808 945.517 620.435 955.048 561.596C964.579 502.758 980.619 442.524 995.993 384.56C1011.36 326.621 1026.07 270.934 1032.89 221.282C1039.71 171.648 1038.68 127.874 1022.42 93.8345C1006.11 59.7163 974.599 35.5538 920.892 24.9802C867.233 14.416 791.344 17.3947 686.098 37.5515L686.474 39.5159C791.628 19.3767 867.219 16.4517 920.506 26.9425C973.745 37.4241 1004.64 61.2755 1020.61 94.6968C1036.62 128.196 1037.72 171.487 1030.91 221.01C1024.11 270.516 1009.44 326.077 994.06 384.047C978.691 441.991 962.624 502.323 953.074 561.276C943.524 620.229 940.479 677.872 951.193 730.445C961.911 783.04 986.401 830.549 1031.88 869.191C1077.35 907.82 1143.72 937.532 1238.12 954.673L1238.48 952.705ZM686.098 37.5515C512.947 70.7134 417.045 128.876 363.506 198.591C309.975 268.295 298.933 349.377 295.113 428.022C293.2 467.403 293.101 506.051 290.415 542.55C287.732 579.012 282.475 613.142 270.298 643.303C258.131 673.442 239.049 699.632 208.678 720.22C178.292 740.819 136.55 755.849 79.009 763.561L79.2747 765.543C137.017 757.804 179.082 742.7 209.801 721.876C240.534 701.041 259.853 674.518 272.153 644.051C284.444 613.606 289.721 579.235 292.41 542.697C295.096 506.196 295.206 467.344 297.111 428.119C300.927 349.553 311.954 269.003 365.092 199.809C418.223 130.627 513.59 72.6265 686.474 39.5159L686.098 37.5515ZM79.009 763.561C56.2991 766.605 39.6377 771.159 28.2847 777.115C16.9155 783.08 10.7512 790.521 9.32324 799.347C7.9043 808.116 11.2109 817.975 18.1243 828.692C25.0493 839.427 35.6826 851.163 49.1694 863.741C76.146 888.899 114.7 917.57 158.301 948.509C201.929 979.466 250.6 1012.69 297.922 1047C345.234 1081.31 391.138 1116.67 429.174 1151.87C467.224 1187.08 497.33 1222.06 513.123 1255.59C528.896 1289.08 530.358 1321.02 511.307 1350.36C492.199 1379.8 452.344 1406.81 384.995 1430.05L385.647 1431.95C453.137 1408.65 493.51 1381.45 512.984 1351.45C532.514 1321.37 530.911 1288.66 514.932 1254.74C498.974 1220.86 468.643 1185.67 430.533 1150.4C392.409 1115.13 346.429 1079.71 299.096 1045.38C251.772 1011.06 203.037 977.8 159.458 946.878C115.853 915.937 77.4009 887.334 50.5334 862.278C37.0986 849.749 26.6006 838.143 19.8049 827.608C12.998 817.055 9.99487 807.717 11.2976 799.667C12.5908 791.674 18.179 784.675 29.2136 778.886C40.2644 773.089 56.658 768.575 79.2747 765.543L79.009 763.561Z" mask="url(#path-1-outside-1_17_26499)"/></clipPath><linearGradient id="paint0_diamond_17_26499" x1="0" y1="0" x2="500" y2="500" gradientUnits="userSpaceOnUse">
<stop stop-color="white"/>
<stop offset="0.648478" stop-color="#6A6EC5"/>
</linearGradient>
</defs>
</svg>
