<svg width="100%" height="100%" viewBox="0 0 70 70" fill="none" xmlns="http://www.w3.org/2000/svg">
<g clip-path="url(#clip0_17_2072)">
<path d="M15.5439 20.1383C15.7912 20.1383 16.0328 20.065 16.2384 19.9277C16.444 19.7903 16.6042 19.5951 16.6988 19.3667C16.7934 19.1383 16.8182 18.887 16.7699 18.6445C16.7217 18.402 16.6026 18.1793 16.4278 18.0045C16.253 17.8296 16.0303 17.7106 15.7878 17.6624C15.5453 17.6141 15.294 17.6389 15.0656 17.7335C14.8372 17.8281 14.642 17.9883 14.5046 18.1939C14.3673 18.3994 14.2939 18.6411 14.2939 18.8883C14.2943 19.2198 14.4261 19.5375 14.6604 19.7719C14.8948 20.0062 15.2125 20.138 15.5439 20.1383ZM15.5439 18.2633C15.6676 18.2633 15.7884 18.3 15.8912 18.3687C15.994 18.4374 16.0741 18.535 16.1214 18.6492C16.1687 18.7634 16.1811 18.889 16.1569 19.0103C16.1328 19.1315 16.0733 19.2429 15.9859 19.3303C15.8985 19.4177 15.7871 19.4772 15.6659 19.5013C15.5446 19.5255 15.419 19.5131 15.3048 19.4658C15.1906 19.4185 15.093 19.3384 15.0243 19.2356C14.9556 19.1328 14.9189 19.012 14.9189 18.8883C14.9191 18.7226 14.9849 18.5637 15.1021 18.4465C15.2193 18.3293 15.3782 18.2635 15.5439 18.2633ZM55.9606 2.22168C55.7958 2.22168 55.6347 2.27055 55.4976 2.36212C55.3606 2.45369 55.2538 2.58384 55.1907 2.73611C55.1276 2.88838 55.1111 3.05594 55.1433 3.21759C55.1754 3.37924 55.2548 3.52773 55.3714 3.64427C55.4879 3.76081 55.6364 3.84018 55.798 3.87233C55.9597 3.90449 56.1272 3.88799 56.2795 3.82491C56.4318 3.76184 56.5619 3.65503 56.6535 3.51799C56.7451 3.38095 56.7939 3.21983 56.7939 3.05501C56.7937 2.83407 56.7059 2.62223 56.5496 2.466C56.3934 2.30977 56.1816 2.2219 55.9606 2.22168ZM55.9606 3.47168C55.8782 3.47168 55.7976 3.44724 55.7291 3.40146C55.6606 3.35567 55.6072 3.2906 55.5757 3.21446C55.5441 3.13833 55.5359 3.05455 55.552 2.97373C55.568 2.8929 55.6077 2.81866 55.666 2.76039C55.7243 2.70211 55.7985 2.66243 55.8793 2.64635C55.9602 2.63028 56.0439 2.63853 56.1201 2.67006C56.1962 2.7016 56.2613 2.75501 56.3071 2.82353C56.3528 2.89205 56.3773 2.9726 56.3773 3.05501C56.3772 3.16549 56.3332 3.2714 56.2551 3.34952C56.177 3.42764 56.0711 3.47157 55.9606 3.47168ZM55.1273 27.2217C54.9625 27.2217 54.8013 27.2706 54.6643 27.3621C54.5273 27.4537 54.4205 27.5838 54.3574 27.7361C54.2943 27.8884 54.2778 28.0559 54.31 28.2176C54.3421 28.3792 54.4215 28.5277 54.538 28.6443C54.6546 28.7608 54.8031 28.8402 54.9647 28.8723C55.1264 28.9045 55.2939 28.888 55.4462 28.8249C55.5985 28.7618 55.7286 28.655 55.8202 28.518C55.9117 28.3809 55.9606 28.2198 55.9606 28.055C55.9604 27.8341 55.8725 27.6222 55.7163 27.466C55.5601 27.3098 55.3482 27.2219 55.1273 27.2217ZM55.1273 28.4717C55.0449 28.4717 54.9643 28.4472 54.8958 28.4015C54.8273 28.3557 54.7739 28.2906 54.7423 28.2145C54.7108 28.1383 54.7025 28.0546 54.7186 27.9737C54.7347 27.8929 54.7744 27.8187 54.8327 27.7604C54.8909 27.7021 54.9652 27.6624 55.046 27.6464C55.1268 27.6303 55.2106 27.6385 55.2867 27.6701C55.3629 27.7016 55.4279 27.755 55.4737 27.8235C55.5195 27.892 55.5439 27.9726 55.5439 28.055C55.5438 28.1655 55.4999 28.2714 55.4218 28.3495C55.3437 28.4276 55.2378 28.4716 55.1273 28.4717ZM67.6273 13.055C67.4625 13.055 67.3014 13.1039 67.1643 13.1955C67.0273 13.287 66.9205 13.4172 66.8574 13.5694C66.7943 13.7217 66.7778 13.8893 66.81 14.0509C66.8421 14.2126 66.9215 14.3611 67.038 14.4776C67.1546 14.5941 67.3031 14.6735 67.4647 14.7057C67.6264 14.7378 67.7939 14.7213 67.9462 14.6582C68.0985 14.5952 68.2286 14.4884 68.3202 14.3513C68.4117 14.2143 68.4606 14.0532 68.4606 13.8883C68.4604 13.6674 68.3725 13.4556 68.2163 13.2993C68.0601 13.1431 67.8482 13.0552 67.6273 13.055ZM67.6273 14.305C67.5449 14.305 67.4643 14.2806 67.3958 14.2348C67.3273 14.189 67.2739 14.1239 67.2423 14.0478C67.2108 13.9717 67.2025 13.8879 67.2186 13.8071C67.2347 13.7262 67.2744 13.652 67.3327 13.5937C67.3909 13.5354 67.4652 13.4958 67.546 13.4797C67.6268 13.4636 67.7106 13.4719 67.7867 13.5034C67.8629 13.5349 67.9279 13.5883 67.9737 13.6569C68.0195 13.7254 68.0439 13.8059 68.0439 13.8883C68.0438 13.9988 67.9999 14.1047 67.9218 14.1829C67.8437 14.261 67.7378 14.3049 67.6273 14.305ZM7.21061 12.6383C7.21061 12.4735 7.16174 12.3124 7.07017 12.1754C6.9786 12.0383 6.84845 11.9315 6.69618 11.8684C6.54391 11.8054 6.37635 11.7889 6.2147 11.821C6.05305 11.8532 5.90457 11.9325 5.78802 12.0491C5.67148 12.1656 5.59211 12.3141 5.55996 12.4758C5.5278 12.6374 5.54431 12.805 5.60738 12.9572C5.67045 13.1095 5.77726 13.2397 5.9143 13.3312C6.05134 13.4228 6.21246 13.4717 6.37728 13.4717C6.59823 13.4715 6.81006 13.3836 6.96629 13.2274C7.12252 13.0711 7.21039 12.8593 7.21061 12.6383ZM5.96061 12.6383C5.96061 12.5559 5.98505 12.4754 6.03083 12.4069C6.07662 12.3383 6.14169 12.2849 6.21783 12.2534C6.29396 12.2219 6.37774 12.2136 6.45857 12.2297C6.53939 12.2458 6.61363 12.2854 6.67191 12.3437C6.73018 12.402 6.76986 12.4762 6.78594 12.5571C6.80202 12.6379 6.79377 12.7217 6.76223 12.7978C6.73069 12.8739 6.67729 12.939 6.60877 12.9848C6.54025 13.0306 6.45969 13.055 6.37728 13.055C6.26681 13.0549 6.16089 13.011 6.08277 12.9329C6.00466 12.8547 5.96072 12.7488 5.96061 12.6383Z" fill="#21DBCF"/>
<path d="M4.53647 29.7262L5.15605 28.9112L4.7648 28.69L4.36689 29.6025H4.35397L3.9498 28.6962L3.55189 28.9246L4.1648 29.72V29.7329L3.20605 29.6087V30.0521L4.17105 29.9283V29.9417L3.55189 30.7367L3.92314 30.9717L4.3473 30.0521H4.36022L4.75147 30.965L5.1623 30.7304L4.53647 29.9479V29.935L5.52064 30.0521V29.6087L4.53647 29.7392V29.7262ZM22.9502 2.24915L22.5936 2.70707L22.8077 2.84249L23.0519 2.3129H23.059L23.2844 2.83874L23.5211 2.70332L23.1606 2.2529V2.2454L23.7273 2.3129V2.0579L23.1606 2.1329V2.1254L23.5173 1.65624L23.2923 1.52832L23.0631 2.05374H23.0556L22.8227 1.53207L22.5936 1.66374L22.9465 2.12165V2.12915L22.3944 2.0579V2.3129L22.9502 2.24165V2.24915ZM57.6269 14.6021V14.1675L56.6615 14.295V14.2825L57.269 13.4833L56.8852 13.2658L56.4952 14.1608H56.4823L56.0861 13.2721L55.6956 13.4958L56.2969 14.2762V14.2887L55.3565 14.1675V14.6021L56.3031 14.4808V14.4937L55.6956 15.2733L56.0602 15.5037L56.4761 14.6021H56.4886L56.8723 15.4975L57.2752 15.2671L56.6615 14.5V14.4871L57.6269 14.6021ZM43.6448 6.2154L44.169 5.52624L43.8377 5.33874L43.5015 6.11082H43.4902L43.1486 5.34415L42.8115 5.53707L43.3302 6.2104V6.22124L42.5194 6.11624V6.49124L43.3356 6.38665V6.3979L42.8115 7.0704L43.1261 7.26915L43.4848 6.49124H43.4956L43.8269 7.26374L44.1744 7.06499L43.6448 6.40332V6.39207L44.4773 6.49124V6.11624L43.6448 6.22665V6.2154Z" fill="#0BCEB2"/>
<path d="M0.833333 62.6383C1.29357 62.6383 1.66667 62.2653 1.66667 61.805C1.66667 61.3448 1.29357 60.9717 0.833333 60.9717C0.373096 60.9717 0 61.3448 0 61.805C0 62.2653 0.373096 62.6383 0.833333 62.6383Z" fill="#2BCAE7"/>
<path d="M4.58333 60.9717H3.33333C3.11232 60.9717 2.90036 61.0595 2.74408 61.2158C2.5878 61.372 2.5 61.584 2.5 61.805C2.5 62.026 2.5878 62.238 2.74408 62.3943C2.90036 62.5505 3.11232 62.6383 3.33333 62.6383H4.58333C4.80435 62.6383 5.01631 62.5505 5.17259 62.3943C5.32887 62.238 5.41667 62.026 5.41667 61.805C5.41667 61.584 5.32887 61.372 5.17259 61.2158C5.01631 61.0595 4.80435 60.9717 4.58333 60.9717Z" fill="#2BCAE7"/>
<path d="M49.2309 64.3051H45.7693C45.5594 64.3214 45.3634 64.4162 45.2204 64.5707C45.0775 64.7252 44.998 64.928 44.998 65.1385C44.998 65.349 45.0775 65.5517 45.2204 65.7062C45.3634 65.8607 45.5594 65.9555 45.7693 65.9718H49.2309C49.4408 65.9555 49.6368 65.8607 49.7798 65.7062C49.9228 65.5517 50.0022 65.349 50.0022 65.1385C50.0022 64.928 49.9228 64.7252 49.7798 64.5707C49.6368 64.4162 49.4408 64.3214 49.2309 64.3051ZM24.2309 64.3051H20.7693C20.5594 64.3214 20.3634 64.4162 20.2204 64.5707C20.0775 64.7252 19.998 64.928 19.998 65.1385C19.998 65.349 20.0775 65.5517 20.2204 65.7062C20.3634 65.8607 20.5594 65.9555 20.7693 65.9718H24.2309C24.4408 65.9555 24.6368 65.8607 24.7798 65.7062C24.9228 65.5517 25.0022 65.349 25.0022 65.1385C25.0022 64.928 24.9228 64.7252 24.7798 64.5707C24.6368 64.4162 24.4408 64.3214 24.2309 64.3051ZM43.3334 64.3051H26.6668C26.4458 64.3051 26.2338 64.3929 26.0775 64.5492C25.9212 64.7055 25.8334 64.9174 25.8334 65.1385C25.8334 65.3595 25.9212 65.5714 26.0775 65.7277C26.2338 65.884 26.4458 65.9718 26.6668 65.9718H33.3084V66.8051H30.0001C29.7791 66.8051 29.5671 66.8929 29.4109 67.0492C29.2546 67.2055 29.1668 67.4174 29.1668 67.6385C29.1668 67.8595 29.2546 68.0714 29.4109 68.2277C29.5671 68.384 29.7791 68.4718 30.0001 68.4718H40.4168C40.6378 68.4718 40.8498 68.384 41.006 68.2277C41.1623 68.0714 41.2501 67.8595 41.2501 67.6385C41.2501 67.4174 41.1623 67.2055 41.006 67.0492C40.8498 66.8929 40.6378 66.8051 40.4168 66.8051H36.6918V65.9718H43.3334C43.5545 65.9718 43.7664 65.884 43.9227 65.7277C44.079 65.5714 44.1668 65.3595 44.1668 65.1385C44.1668 64.9174 44.079 64.7055 43.9227 64.5492C43.7664 64.3929 43.5545 64.3051 43.3334 64.3051ZM35.1055 49.7376C34.3222 49.7376 33.6026 49.366 32.8414 48.568C32.4708 48.1228 31.9707 47.8042 31.4106 47.6565C30.8505 47.5089 30.2583 47.5395 29.7164 47.7442C29.1746 47.9489 28.71 48.3175 28.3875 48.7986C28.0649 49.2797 27.9004 49.8494 27.9168 50.4285C27.918 50.9477 28.0578 51.4572 28.3218 51.9043C29.2791 53.4122 30.7527 54.5201 32.4672 55.021C32.4748 55.7143 32.7539 56.377 33.2448 56.8669C33.7356 57.3567 34.3989 57.6345 35.0922 57.6406C35.7856 57.6468 36.4538 57.3808 36.9532 56.8998C37.4526 56.4188 37.7435 55.7611 37.7634 55.068C40.4968 54.3005 42.0834 52.248 42.0834 49.3639C42.0834 46.1955 40.1701 44.6476 38.2743 43.7451C38.5026 43.8128 38.7395 43.8471 38.9776 43.8468C39.7267 43.8415 40.443 43.5394 40.9696 43.0067C41.4962 42.474 41.7901 41.7542 41.7868 41.0051C41.7856 40.4355 41.6213 39.8781 41.3134 39.3989L41.2897 39.3622C40.4321 38.1722 39.1857 37.3192 37.7659 36.9505C37.7551 36.2559 37.472 35.5933 36.9774 35.1053C36.4828 34.6174 35.8164 34.3432 35.1217 34.3418C34.4269 34.3404 33.7594 34.6118 33.2629 35.0977C32.7663 35.5836 32.4804 36.2451 32.4668 36.9397C31.3208 37.2741 30.3175 37.9781 29.6131 38.9419C28.9087 39.9058 28.5428 41.0754 28.5722 42.2689C28.5722 46.4605 32.1414 47.696 34.2739 48.4343C34.9564 48.6705 36.0922 49.0635 36.2951 49.3451L36.2959 49.3639C36.2977 49.4262 36.2917 49.4885 36.278 49.5493C35.9092 49.7096 35.506 49.7747 35.1055 49.7376ZM30.2389 42.2689C30.2389 40.2955 31.4239 38.5885 34.1322 38.278V37.0139C34.1249 36.8801 34.145 36.7463 34.1911 36.6206C34.2373 36.4949 34.3086 36.3799 34.4007 36.2827C34.4927 36.1855 34.6037 36.108 34.7267 36.0551C34.8497 36.0022 34.9822 35.9749 35.1162 35.9749C35.2501 35.9749 35.3826 36.0022 35.5056 36.0551C35.6286 36.108 35.7396 36.1855 35.8316 36.2827C35.9237 36.3799 35.995 36.4949 36.0412 36.6206C36.0873 36.7463 36.1074 36.8801 36.1001 37.0139V38.2997C37.7926 38.5218 39.1893 39.231 39.9084 40.2955C40.0452 40.507 40.1187 40.7533 40.1201 41.0051C40.124 41.3123 40.0059 41.6085 39.7918 41.8288C39.5776 42.0491 39.2848 42.1754 38.9776 42.1801C38.6227 42.1415 38.2967 41.9667 38.068 41.6926C37.2697 40.9325 36.2078 40.5114 35.1055 40.5176C33.3493 40.5176 32.6939 41.3818 32.6939 42.2689C32.6939 45.1735 40.4168 43.821 40.4168 49.3643C40.4168 51.803 38.9351 53.3997 36.1001 53.688V54.9297C36.1074 55.0634 36.0873 55.1972 36.0412 55.3229C35.995 55.4487 35.9237 55.5636 35.8316 55.6609C35.7396 55.7581 35.6286 55.8356 35.5056 55.8885C35.3826 55.9414 35.2501 55.9687 35.1162 55.9687C34.9822 55.9687 34.8497 55.9414 34.7267 55.8885C34.6037 55.8356 34.4927 55.7581 34.4007 55.6609C34.3086 55.5636 34.2373 55.4487 34.1911 55.3229C34.145 55.1972 34.1249 55.0634 34.1322 54.9297V53.688C32.0801 53.4214 30.4718 52.2689 29.753 51.0493C29.6425 50.861 29.584 50.6468 29.5834 50.4285C29.5741 50.1212 29.6868 49.8228 29.897 49.5985C30.1071 49.3741 30.3975 49.2421 30.7047 49.2314C30.8863 49.2383 31.0642 49.2856 31.2252 49.37C31.3862 49.4543 31.5264 49.5735 31.6355 49.7189C32.5247 50.6501 33.6459 51.4039 35.1055 51.4039C37.0309 51.4039 37.9626 50.7389 37.9626 49.3643C37.9626 46.1268 30.2389 47.613 30.2389 42.2689ZM37.6472 43.4676C37.1255 43.2522 36.6222 43.0789 36.1784 42.926C35.6005 42.7459 35.0375 42.5214 34.4943 42.2543C34.6937 42.2022 34.8995 42.1785 35.1055 42.1839C35.7623 42.1762 36.3973 42.4191 36.8814 42.863L36.9022 42.8835C37.1263 43.1071 37.3766 43.3032 37.6472 43.4676Z" fill="#20DCCD"/>
<path d="M66.6668 60.9717H65.4168C65.1958 60.9717 64.9839 61.0595 64.8276 61.2158C64.6713 61.372 64.5835 61.584 64.5835 61.805C64.5835 62.026 64.6713 62.238 64.8276 62.3943C64.9839 62.5505 65.1958 62.6383 65.4168 62.6383H66.6668C66.8878 62.6383 67.0998 62.5505 67.2561 62.3943C67.4124 62.238 67.5002 62.026 67.5002 61.805C67.5002 61.584 67.4124 61.372 67.2561 61.2158C67.0998 61.0595 66.8878 60.9717 66.6668 60.9717Z" fill="#2BCAE7"/>
<path d="M69.1668 62.6383C69.6271 62.6383 70.0002 62.2653 70.0002 61.805C70.0002 61.3448 69.6271 60.9717 69.1668 60.9717C68.7066 60.9717 68.3335 61.3448 68.3335 61.805C68.3335 62.2653 68.7066 62.6383 69.1668 62.6383Z" fill="#2BCAE7"/>
<path d="M62.8006 60.9715H50.4485C55.191 59.0956 57.5002 55.3619 57.5002 49.554C57.5092 44.7686 55.9163 40.118 52.9752 36.3431C50.2073 32.7905 46.4442 30.1424 42.1656 28.7365L46.8948 19.2415C47.1793 18.7163 47.3242 18.1269 47.3156 17.5296C47.307 16.9324 47.1452 16.3474 46.8456 15.8306C46.5866 15.3866 46.2203 15.0146 45.7804 14.7486C45.3404 14.4826 44.8409 14.3312 44.3273 14.3081L43.6544 14.1973C43.5648 14.1826 43.4743 14.1752 43.3835 14.1752C43.0965 14.1752 42.839 14.1777 42.6073 14.1802L42.3227 14.1827C41.9215 12.6785 40.5035 11.316 38.0215 10.0285C37.0857 9.5524 36.0506 9.3042 35.0006 9.3042C33.9507 9.3042 32.9156 9.5524 31.9798 10.0285C29.4906 11.319 28.0719 12.6852 27.6748 14.1827L27.3931 14.1802C27.1345 14.1772 26.8759 14.1755 26.6173 14.1752H25.884C25.2925 14.1715 24.7103 14.3215 24.1943 14.6104C23.6782 14.8994 23.2461 15.3174 22.9402 15.8235C22.6629 16.2879 22.5114 16.8165 22.5006 17.3572C22.4898 17.898 22.62 18.4322 22.8785 18.9073L25.6606 24.4252C24.6922 24.0325 23.6499 23.8555 22.6061 23.9066C21.5624 23.9576 20.5423 24.2356 19.6169 24.721C19.5167 24.7696 19.4272 24.8377 19.3537 24.9214C19.2803 25.0051 19.2243 25.1026 19.1892 25.2083C19.1541 25.3139 19.1405 25.4256 19.1493 25.5366C19.158 25.6476 19.1889 25.7557 19.2402 25.8546C19.2914 25.9534 19.3619 26.041 19.4476 26.1122C19.5333 26.1833 19.6323 26.2365 19.7389 26.2688C19.8455 26.301 19.9574 26.3115 20.0682 26.2997C20.1789 26.288 20.2861 26.2541 20.3835 26.2002C22.8377 24.9285 25.0785 25.7598 26.5877 26.7498C24.429 26.6823 21.5665 27.069 20.0523 29.2448C19.9278 29.4262 19.8801 29.6496 19.9196 29.8661C19.9591 30.0826 20.0827 30.2746 20.2633 30.4003C20.4439 30.5261 20.667 30.5752 20.8837 30.5371C21.1004 30.499 21.2933 30.3767 21.4202 30.1969C22.7785 28.2465 25.9465 28.301 27.7181 28.506L27.8344 28.7369C23.5559 30.1429 19.793 32.7909 17.0252 36.3435C14.0842 40.1184 12.4912 44.7691 12.5002 49.5544C12.5002 55.3619 14.8094 59.096 19.5519 60.971H7.19979C7.08124 60.9556 6.96074 60.9655 6.84636 61.0003C6.73197 61.0351 6.62632 61.0939 6.53647 61.1728C6.44662 61.2517 6.37463 61.3488 6.32532 61.4577C6.276 61.5666 6.25049 61.6848 6.25049 61.8044C6.25049 61.9239 6.276 62.0421 6.32532 62.151C6.37463 62.26 6.44662 62.3571 6.53647 62.436C6.62632 62.5148 6.73197 62.5736 6.84636 62.6084C6.96074 62.6432 7.08124 62.6532 7.19979 62.6377H62.8002C62.9188 62.6532 63.0393 62.6432 63.1536 62.6084C63.268 62.5736 63.3737 62.5148 63.4635 62.436C63.5534 62.3571 63.6254 62.26 63.6747 62.151C63.724 62.0421 63.7495 61.9239 63.7495 61.8044C63.7495 61.6848 63.724 61.5666 63.6747 61.4577C63.6254 61.3488 63.5534 61.2517 63.4635 61.1728C63.3737 61.0939 63.268 61.0351 63.1536 61.0003C63.0393 60.9655 62.9188 60.9556 62.8002 60.971L62.8006 60.9715ZM27.5594 24.4902L24.3552 18.134C23.776 17.0881 24.6052 15.8423 25.884 15.8423H26.6173C27.1256 15.8423 27.541 15.8506 27.8785 15.8506C28.9335 15.8506 29.2256 15.7673 29.2256 15.0756C29.2256 13.5298 31.3881 12.2131 32.7465 11.509C33.4453 11.1556 34.2174 10.9715 35.0004 10.9715C35.7835 10.9715 36.5556 11.1556 37.2544 11.509C38.6127 12.2131 40.7752 13.5298 40.7752 15.0756C40.7752 15.7673 41.0669 15.8506 42.1219 15.8506C42.4594 15.8506 42.8748 15.8423 43.3831 15.8423L44.1669 15.9715C45.446 15.9715 45.996 17.4256 45.4169 18.4715L42.314 24.701C42.2103 24.7244 42.1121 24.7676 42.0248 24.8281C40.6394 25.7906 37.9485 26.3881 35.0027 26.3881C31.2869 26.3881 28.5165 25.4494 27.5594 24.4902ZM41.1081 27.1223L40.6373 28.0673C40.4728 28.2301 40.281 28.3626 40.0706 28.459C39.0706 28.9673 37.1706 29.3048 35.0002 29.3048C32.3002 29.3048 30.0252 28.7798 29.3627 28.0673L28.8781 27.1056C30.8515 27.7651 32.9223 28.086 35.0027 28.0548C37.0757 28.0875 39.1394 27.7723 41.1081 27.1223ZM14.1669 49.554C14.1658 47.3813 14.5225 45.2232 15.2227 43.1665C15.2862 43.092 15.3358 43.0067 15.3694 42.9148C15.3848 42.8719 16.939 38.5731 20.8256 36.7406C23.149 35.6452 25.8598 35.6498 28.8806 36.7535C28.9834 36.7911 29.0926 36.8081 29.2019 36.8034C29.3113 36.7988 29.4186 36.7727 29.5179 36.7266C29.6171 36.6804 29.7063 36.6152 29.7803 36.5346C29.8544 36.4541 29.9118 36.3597 29.9494 36.2569C29.9869 36.1541 30.0039 36.0449 29.9993 35.9356C29.9946 35.8262 29.9685 35.7189 29.9224 35.6196C29.8763 35.5204 29.811 35.4312 29.7305 35.3572C29.6499 35.2831 29.5555 35.2257 29.4527 35.1881C26.0956 33.9611 23.0352 33.944 20.3506 35.1298C22.768 32.8019 25.71 31.0897 28.9281 30.1377H29.6102C31.4731 30.8952 34.0702 30.971 35.0002 30.971C36.8329 31.024 38.6599 30.7416 40.391 30.1377H41.0723C49.614 32.6665 55.8335 40.4031 55.8335 49.554C55.8335 59.731 48.1435 60.8394 38.1152 60.9569C42.7298 59.9794 47.7394 58.2602 51.6231 55.2398C51.7106 55.173 51.7841 55.0896 51.8392 54.9942C51.8942 54.8989 51.9299 54.7936 51.9441 54.6844C51.9582 54.5753 51.9506 54.4644 51.9216 54.3581C51.8927 54.2519 51.843 54.1525 51.7754 54.0656C51.7078 53.9787 51.6236 53.9061 51.5278 53.8519C51.432 53.7977 51.3263 53.763 51.217 53.7499C51.1077 53.7368 50.9969 53.7454 50.8909 53.7754C50.785 53.8053 50.686 53.856 50.5998 53.9244C41.5748 60.9436 25.394 60.5581 25.2331 60.5548C25.1667 60.5539 25.1004 60.5609 25.0356 60.5756C18.5606 59.7573 14.1669 57.246 14.1669 49.554Z" fill="black"/>
</g>
<defs>
<clipPath id="clip0_17_2072">
<rect width="70" height="70" fill="white"/>
</clipPath>
</defs>
</svg>
