<svg width="100%" height="100%" viewBox="0 0 80 80" fill="none" xmlns="http://www.w3.org/2000/svg">
<g clip-path="url(#clip0_17_2009)">
<rect x="19.9985" y="27" width="11" height="34" fill="url(#paint0_linear_17_2009)"/>
<rect x="56.9985" y="38" width="11" height="34" fill="url(#paint1_linear_17_2009)"/>
<path d="M25.4998 17.3333C25.1462 17.3333 24.8071 17.4738 24.557 17.7239C24.307 17.9739 24.1665 18.313 24.1665 18.6667V25.3333H20.1665C19.8129 25.3333 19.4737 25.4738 19.2237 25.7239C18.9736 25.9739 18.8332 26.313 18.8332 26.6667V61.3333C18.8332 61.687 18.9736 62.0261 19.2237 62.2761C19.4737 62.5262 19.8129 62.6667 20.1665 62.6667H24.1665V68C24.1665 68.3536 24.307 68.6928 24.557 68.9428C24.8071 69.1929 25.1462 69.3333 25.4998 69.3333C25.8535 69.3333 26.1926 69.1929 26.4426 68.9428C26.6927 68.6928 26.8332 68.3536 26.8332 68V62.6667H30.8332C31.1868 62.6667 31.5259 62.5262 31.776 62.2761C32.026 62.0261 32.1665 61.687 32.1665 61.3333V26.6667C32.1665 26.313 32.026 25.9739 31.776 25.7239C31.5259 25.4738 31.1868 25.3333 30.8332 25.3333H26.8332V18.6667C26.8332 18.313 26.6927 17.9739 26.4426 17.7239C26.1926 17.4738 25.8535 17.3333 25.4998 17.3333ZM29.4998 28V60H21.4998V28H29.4998ZM44.1665 12C43.8129 12 43.4737 12.1405 43.2237 12.3905C42.9736 12.6406 42.8332 12.9797 42.8332 13.3333V20H38.8332C38.4795 20 38.1404 20.1405 37.8904 20.3905C37.6403 20.6406 37.4998 20.9797 37.4998 21.3333V56C37.4998 56.3536 37.6403 56.6928 37.8904 56.9428C38.1404 57.1929 38.4795 57.3333 38.8332 57.3333H42.8332V62.6667C42.8332 63.0203 42.9736 63.3594 43.2237 63.6095C43.4737 63.8595 43.8129 64 44.1665 64C44.5201 64 44.8593 63.8595 45.1093 63.6095C45.3594 63.3594 45.4998 63.0203 45.4998 62.6667V57.3333H49.4998C49.8535 57.3333 50.1926 57.1929 50.4426 56.9428C50.6927 56.6928 50.8332 56.3536 50.8332 56V21.3333C50.8332 20.9797 50.6927 20.6406 50.4426 20.3905C50.1926 20.1405 49.8535 20 49.4998 20H45.4998V13.3333C45.4998 12.9797 45.3594 12.6406 45.1093 12.3905C44.8593 12.1405 44.5201 12 44.1665 12ZM48.1665 22.6667V54.6667H40.1665V22.6667H48.1665ZM62.8332 28C62.4795 28 62.1404 28.1405 61.8904 28.3905C61.6403 28.6406 61.4998 28.9797 61.4998 29.3333V36H57.4998C57.1462 36 56.8071 36.1405 56.557 36.3905C56.307 36.6406 56.1665 36.9797 56.1665 37.3333V72C56.1665 72.3536 56.307 72.6928 56.557 72.9428C56.8071 73.1929 57.1462 73.3333 57.4998 73.3333H61.4998V78.6667C61.4998 79.0203 61.6403 79.3594 61.8904 79.6095C62.1404 79.8595 62.4795 80 62.8332 80C63.1868 80 63.5259 79.8595 63.776 79.6095C64.026 79.3594 64.1665 79.0203 64.1665 78.6667V73.3333H68.1665C68.5201 73.3333 68.8593 73.1929 69.1093 72.9428C69.3594 72.6928 69.4998 72.3536 69.4998 72V37.3333C69.4998 36.9797 69.3594 36.6406 69.1093 36.3905C68.8593 36.1405 68.5201 36 68.1665 36H64.1665V29.3333C64.1665 28.9797 64.026 28.6406 63.776 28.3905C63.5259 28.1405 63.1868 28 62.8332 28ZM66.8332 38.6667V70.6667H58.8332V38.6667H66.8332ZM6.83317 0C6.47955 0 6.14041 0.140476 5.89036 0.390524C5.64031 0.640573 5.49984 0.979711 5.49984 1.33333V8H1.49984C1.14622 8 0.807077 8.14048 0.557028 8.39052C0.30698 8.64057 0.166504 8.97971 0.166504 9.33333V44C0.166504 44.3536 0.30698 44.6928 0.557028 44.9428C0.807077 45.1929 1.14622 45.3333 1.49984 45.3333H5.49984V50.6667C5.49984 51.0203 5.64031 51.3594 5.89036 51.6095C6.14041 51.8595 6.47955 52 6.83317 52C7.18679 52 7.52593 51.8595 7.77598 51.6095C8.02603 51.3594 8.1665 51.0203 8.1665 50.6667V45.3333H12.1665C12.5201 45.3333 12.8593 45.1929 13.1093 44.9428C13.3594 44.6928 13.4998 44.3536 13.4998 44V9.33333C13.4998 8.97971 13.3594 8.64057 13.1093 8.39052C12.8593 8.14048 12.5201 8 12.1665 8H8.1665V1.33333C8.1665 0.979711 8.02603 0.640573 7.77598 0.390524C7.52593 0.140476 7.18679 0 6.83317 0ZM10.8332 10.6667V42.6667H2.83317V10.6667H10.8332Z" fill="black"/>
</g>
<defs>
<linearGradient id="paint0_linear_17_2009" x1="25.4985" y1="27" x2="25.4985" y2="61" gradientUnits="userSpaceOnUse">
<stop stop-color="#2DC5EC"/>
<stop offset="1" stop-color="#1CE0C6"/>
</linearGradient>
<linearGradient id="paint1_linear_17_2009" x1="62.4985" y1="38" x2="62.4985" y2="72" gradientUnits="userSpaceOnUse">
<stop stop-color="#2DC5EC"/>
<stop offset="1" stop-color="#1CE0C6"/>
</linearGradient>
<clipPath id="clip0_17_2009">
<rect width="80" height="80" fill="white"/>
</clipPath>
</defs>
</svg>
