<svg width="100%" height="100%" viewBox="0 0 80 80" fill="none" xmlns="http://www.w3.org/2000/svg">
<g clip-path="url(#clip0_17_2046)">
<path d="M17.5 1.5L3.5 15.5L17.5 16.5V1.5Z" fill="url(#paint0_linear_17_2046)"/>
<path fill-rule="evenodd" clip-rule="evenodd" d="M40.1881 72.5018H4.27845C2.79344 72.5018 1.58594 71.2934 1.58594 69.8079V16.0557C1.58594 15.7243 1.71719 15.4064 1.95203 15.1725L16.7463 0.366076C16.9807 0.131231 17.299 -0.000488281 17.6304 -0.000488281H54.7958C56.2808 -0.000488281 57.4893 1.20795 57.4893 2.69296V36.8936C57.4893 37.584 56.9301 38.1437 56.2391 38.1437C39.4944 38.1437 30.5271 57.7755 41.1467 70.4492C41.8269 71.261 41.2466 72.5018 40.1881 72.5018ZM4.08579 16.5736V69.8084C4.08579 69.9115 4.17626 70.0024 4.27845 70.0024H37.7042C28.3695 55.7932 37.9414 36.6306 54.9885 35.6795V2.69437C54.9885 2.59171 54.898 2.50077 54.7949 2.50077H18.1479L4.08532 16.5736H4.08579Z" fill="black"/>
<path fill-rule="evenodd" clip-rule="evenodd" d="M16.1864 17.2951H2.83638C1.72637 17.2951 1.16809 15.946 1.95231 15.1609L16.7456 0.366581C17.5303 -0.41811 18.8799 0.140642 18.8799 1.25065V14.6016C18.8799 16.0866 17.6724 17.2951 16.1864 17.2951ZM5.85373 14.7952H16.1864C16.2891 14.7952 16.38 14.7048 16.38 14.6016V4.26847L5.85373 14.7952ZM49.2255 22.3464H14.2247C12.5789 22.3464 12.5789 19.8465 14.2247 19.8465H49.2255C50.8713 19.8465 50.8713 22.3464 49.2255 22.3464ZM49.2255 29.9237H14.2247C12.5789 29.9237 12.5789 27.4239 14.2247 27.4239H49.2255C50.8713 27.4239 50.8713 29.9237 49.2255 29.9237ZM35.1535 37.5016H14.2252C12.5794 37.5016 12.5794 35.0017 14.2252 35.0017H35.1535C36.7993 35.0017 36.7989 37.5016 35.1535 37.5016ZM30.2818 45.0789H14.2252C12.5794 45.0789 12.5794 42.5791 14.2252 42.5791H30.2818C31.9276 42.5791 31.9276 45.0789 30.2818 45.0789ZM30.2818 52.6558H14.2252C12.5794 52.6558 12.5794 50.156 14.2252 50.156H30.2818C31.9276 50.156 31.9276 52.6558 30.2818 52.6558ZM56.2385 80C44.0092 80 34.0609 70.0512 34.0609 57.8229C34.0609 45.5936 44.0097 35.6444 56.2385 35.6444C68.4677 35.6444 78.416 45.5936 78.416 57.8229C78.417 70.0517 68.4682 80 56.2385 80ZM56.2385 38.1447C45.3883 38.1447 36.5598 46.9722 36.5598 57.8234C36.5598 68.6736 45.3883 77.5011 56.2385 77.5011C67.0887 77.5011 75.9167 68.6736 75.9167 57.8234C75.9167 46.9722 67.0887 38.1447 56.2385 38.1447Z" fill="black"/>
<path d="M65 56L57 41.5L56 41L47.5 55.5V57L56.5 61.5L65 56Z" fill="url(#paint1_linear_17_2046)"/>
<path fill-rule="evenodd" clip-rule="evenodd" d="M56.2247 62.989C56.011 62.989 55.7977 62.9342 55.6055 62.825L46.4119 57.5848C45.8095 57.2412 45.6033 56.4729 45.9483 55.8738L55.1419 39.9503C55.6219 39.1188 56.8271 39.1188 57.3071 39.9503L66.5007 55.8738C66.8471 56.4738 66.6381 57.2421 66.0371 57.5848L56.8435 62.825C56.6513 62.9346 56.438 62.989 56.2247 62.989ZM48.7421 56.0351L56.2247 60.2998L63.7074 56.0351L56.2247 43.0746L48.7421 56.0351Z" fill="black"/>
<path fill-rule="evenodd" clip-rule="evenodd" d="M65.4184 57.7494L56.2253 53.9056L47.5262 57.6472C46.0201 58.2964 45.0329 55.9977 46.5385 55.3508L55.7321 51.3969C56.0471 51.2609 56.4048 51.2609 56.7203 51.3969L65.9139 55.3508C67.1594 55.8866 66.7642 57.7494 65.4189 57.7494H65.4184Z" fill="black"/>
<path fill-rule="evenodd" clip-rule="evenodd" d="M56.2267 62.989C55.5358 62.989 54.9766 62.4298 54.9766 61.7388V40.5747C54.9766 38.9289 57.4764 38.9289 57.4764 40.5747V61.7388C57.4764 62.4288 56.9163 62.989 56.2263 62.989H56.2267Z" fill="black"/>
<path fill-rule="evenodd" clip-rule="evenodd" d="M56.2254 76.3198C55.8129 76.3198 55.4271 76.1159 55.1951 75.777L45.9598 62.3107C45.2131 61.2227 46.466 59.8638 47.6107 60.5182L56.2512 65.4597L64.8645 60.5191C66.0102 59.8633 67.2645 61.2236 66.5164 62.3121L57.2539 75.7784C57.0218 76.1182 56.6365 76.3198 56.2254 76.3198ZM51.1095 65.3993L56.2268 72.8618L61.3447 65.4213L56.8747 67.9849C56.4898 68.2043 56.0168 68.2062 55.6325 67.9858L51.1095 65.3993Z" fill="black"/>
<path fill-rule="evenodd" clip-rule="evenodd" d="M56.2267 76.3199C55.5358 76.3199 54.9766 75.7607 54.9766 75.0698V66.9004C54.9766 65.2546 57.4764 65.2546 57.4764 66.9004V75.0698C57.4764 75.7607 56.9163 76.3199 56.2263 76.3199H56.2267Z" fill="black"/>
</g>
<defs>
<linearGradient id="paint0_linear_17_2046" x1="14.5" y1="3" x2="5" y2="16.5" gradientUnits="userSpaceOnUse">
<stop stop-color="#2CC7E9"/>
<stop offset="1" stop-color="#1EDECA"/>
</linearGradient>
<linearGradient id="paint1_linear_17_2046" x1="56.25" y1="41" x2="56.25" y2="61.5" gradientUnits="userSpaceOnUse">
<stop stop-color="#2DC6EB"/>
<stop offset="1" stop-color="#1DDEC9"/>
</linearGradient>
<clipPath id="clip0_17_2046">
<rect width="80" height="80" fill="white"/>
</clipPath>
</defs>
</svg>
