<svg width="100%" height="100%" viewBox="0 0 89 89" fill="none" xmlns="http://www.w3.org/2000/svg">
<path d="M44.9006 43.7894L20.2739 17.897L9.42682 54.9119L34.0535 80.8043L69.5135 69.6555L80.3606 32.6406L44.9006 43.7894Z" fill="#42E8E0"/>
<path d="M33.4401 79.8721L9.31617 54.363L19.9419 17.897L44.0658 43.406L33.4401 79.8721Z" fill="#42E8E0"/>
<path d="M69.7307 69.9297L34.9952 80.9124L45.6207 44.4467L80.3562 33.464L69.7307 69.9297Z" fill="#2FD3C7"/>
<path d="M43.9064 44.9431L19.0611 18.7402L54.8564 7.46304L79.6816 33.6609L43.9064 44.9431Z" fill="#42E8E0"/>
<path d="M44.2519 44.6712L19.1753 17.897L18.6989 19.5477L43.7755 46.3219L79.8848 34.7952L80.3612 33.1446L44.2519 44.6712Z" fill="#50F4E8"/>
</svg>
