<svg width="100%" height="100%" viewBox="0 0 72 72" fill="none" xmlns="http://www.w3.org/2000/svg">
<g clip-path="url(#clip0_17_3315)">
<path d="M55.5 47.5005L49.5 55.5005H47.5L46 52.5005L49.5 44.0005L64 19.0005L71 22.5005L55.5 47.5005Z" fill="#25D3D9"/>
<circle cx="15" cy="57.0005" r="9" fill="#25D3D9"/>
<path d="M71.8673 17.0732C71.7444 16.6169 71.5328 16.1892 71.2446 15.8146C70.9564 15.44 70.5973 15.1258 70.1876 14.8901C69.7778 14.6531 69.3252 14.4994 68.8559 14.4376C68.3865 14.3757 67.9096 14.4071 67.4524 14.5298C66.5304 14.778 65.7448 15.3822 65.2683 16.2095L64.6684 17.2534C64.3943 17.096 64.0692 17.0532 63.7637 17.1341C63.4583 17.2151 63.197 17.4133 63.0369 17.6857L59.9894 22.8803L58.9456 22.2804C58.8086 22.2011 58.6574 22.1497 58.5005 22.1291C58.3436 22.1085 58.1842 22.1191 58.0315 22.1602C57.8787 22.2016 57.7355 22.2727 57.6103 22.3695C57.485 22.4663 57.3801 22.5869 57.3015 22.7243C56.9764 23.2979 57.1744 24.0267 57.7456 24.356L58.7896 24.9559L48.5913 42.6289L46.0718 49.36L44.872 51.6032C44.5279 52.2014 44.3631 52.8859 44.3972 53.5752C44.4312 54.2645 44.6626 54.9294 45.0639 55.4908L42.3644 58.802L41.6087 56.9067C41.4417 56.4927 41.1626 56.1335 40.8026 55.8695C40.4426 55.6055 40.0162 55.4471 39.5711 55.4123C39.126 55.3772 38.68 55.4671 38.2832 55.6717C37.8865 55.8763 37.5546 56.1876 37.3251 56.5705L36.8933 57.3024L36.4855 52.5032C36.44 51.9525 36.2058 51.4343 35.8226 51.0362C35.4393 50.6381 34.9304 50.3844 34.3818 50.3179C33.8332 50.2517 33.2785 50.3769 32.8114 50.6724C32.3443 50.9678 31.9935 51.4153 31.8182 51.9394L28.8667 60.7939C28.7677 61.0947 28.7916 61.4224 28.9332 61.7056C29.0748 61.9888 29.3226 62.2045 29.6226 62.3058C29.7395 62.3605 29.8657 62.3929 29.9945 62.4014C30.246 62.4021 30.4914 62.3238 30.696 62.1775C30.9006 62.0311 31.054 61.8242 31.1346 61.5859L34.0737 52.7315L34.4937 57.6023C34.5358 58.1087 34.7375 58.5887 35.0698 58.9731C35.4022 59.3575 35.848 59.6265 36.343 59.7413C36.838 59.8561 37.3567 59.8108 37.8243 59.6119C38.2919 59.413 38.6843 59.0708 38.945 58.6346L39.3889 57.9023L40.1331 59.7864C40.2882 60.1767 40.5431 60.5194 40.8723 60.7802C41.2014 61.0411 41.5933 61.211 42.0087 61.2729C42.424 61.3348 42.8484 61.2866 43.2393 61.133C43.6302 60.9795 43.974 60.726 44.2362 60.398L47.0317 56.8589C47.3412 56.9397 47.6598 56.9801 47.9796 56.9789C48.6115 56.9838 49.2336 56.8222 49.7833 56.5104C50.333 56.1986 50.7909 55.7476 51.111 55.2027L52.3108 53.1991L56.8821 47.6443L67.1881 29.7549L68.232 30.3548C68.3697 30.4335 68.4905 30.5388 68.5872 30.6645C68.684 30.7902 68.7549 30.9339 68.7957 31.0872C68.8368 31.2395 68.8474 31.3984 68.8269 31.5549C68.8064 31.7113 68.7552 31.8621 68.6762 31.9987L63.877 40.3136C63.7873 40.4487 63.726 40.6005 63.6968 40.76C63.6675 40.9195 63.6709 41.0832 63.7068 41.2413C63.7426 41.3994 63.8102 41.5486 63.9054 41.6799C64.0006 41.8111 64.1215 41.9217 64.2606 42.0048C64.3975 42.0844 64.5488 42.136 64.7057 42.1567C64.8627 42.1774 65.0222 42.1669 65.175 42.1257C65.3278 42.0844 65.471 42.0133 65.5962 41.9165C65.7214 41.8196 65.8262 41.6989 65.9045 41.5614L70.7037 33.2466C70.9407 32.8368 71.0945 32.3842 71.1562 31.9148C71.218 31.4454 71.1865 30.9684 71.0635 30.5113C70.8153 29.5894 70.2111 28.8038 69.3838 28.3273L68.3399 27.7274L71.3394 22.5323C71.6668 21.9621 71.4741 21.2346 70.9075 20.9006L71.5074 19.8568C71.7508 19.4406 71.9081 18.9797 71.97 18.5016C72.0318 18.0234 71.9969 17.5377 71.8673 17.0732ZM67.3441 17.4092C67.4228 17.2715 67.5281 17.1508 67.6537 17.054C67.7794 16.9572 67.923 16.8863 68.0763 16.8454C68.3844 16.7692 68.71 16.8121 68.9878 16.9656C69.1255 17.0442 69.2463 17.1494 69.3431 17.275C69.44 17.4006 69.511 17.5441 69.552 17.6973C69.6283 18.0054 69.5854 18.331 69.4319 18.6088L68.832 19.6528L66.7441 18.453L67.3441 17.4092ZM50.9909 50.9076L50.391 50.5597L48.6153 49.5274L50.319 44.9685L54.0982 47.1518L50.9909 50.9076ZM47.3915 54.3747C47.1469 54.2043 46.9746 53.9489 46.9081 53.6583C46.8416 53.3677 46.8857 53.0628 47.0319 52.803L47.6318 51.7595L49.7191 52.9593L49.1192 53.9909C49.0361 54.1352 48.924 54.2605 48.7898 54.3591C48.6556 54.4576 48.5024 54.5271 48.34 54.5632C48.1775 54.5993 48.0092 54.6012 47.8459 54.5688C47.6827 54.5363 47.5279 54.4702 47.3915 54.3747ZM55.4661 45.1846L51.3149 42.785L60.9132 26.1554L65.0645 28.555L55.4661 45.1846ZM66.2643 26.4795L62.113 24.0799L64.5126 19.9286L68.6639 22.3282L66.2643 26.4795ZM18.9321 53.775L14.6854 58.0106L12.1415 55.4667C11.9167 55.2433 11.6126 55.1178 11.2956 55.1178C10.9786 55.1178 10.6745 55.2433 10.4497 55.4667C10.3372 55.5782 10.2479 55.7109 10.187 55.8571C10.1261 56.0033 10.0947 56.1602 10.0947 56.3185C10.0947 56.4769 10.1261 56.6338 10.187 56.78C10.2479 56.9262 10.3372 57.0589 10.4497 57.1704L12.9933 59.714C13.4432 60.1604 14.0513 60.4106 14.6853 60.4098C15.3227 60.4134 15.936 60.1633 16.389 59.714L20.6239 55.4667C20.8204 55.2371 20.9229 54.9419 20.9112 54.64C20.8995 54.3381 20.7743 54.0517 20.5607 53.8381C20.347 53.6245 20.0607 53.4993 19.7588 53.4876C19.4569 53.4758 19.1617 53.5786 18.9321 53.775Z" fill="black"/>
<path d="M4.79883 57.0024C4.79883 62.6352 9.3648 67.2007 14.9971 67.2007C20.6294 67.2007 25.1953 62.6352 25.1953 57.0024C25.1953 56.6842 25.0689 56.3791 24.8439 56.1541C24.6189 55.929 24.3138 55.8026 23.9955 55.8026C23.6773 55.8026 23.3722 55.929 23.1472 56.1541C22.9222 56.3791 22.7958 56.6842 22.7958 57.0024C22.7958 61.3094 19.3042 64.8011 14.9971 64.8011C10.69 64.8011 7.19842 61.3094 7.19842 57.0024C7.19842 52.6955 10.69 49.2038 14.9971 49.2038C16.6853 49.1989 18.3287 49.7467 19.6763 50.7636C19.8023 50.8582 19.9457 50.927 20.0983 50.9661C20.251 51.0052 20.4098 51.0138 20.5657 50.9915C20.7217 50.9692 20.8717 50.9164 21.0073 50.8361C21.1428 50.7558 21.2612 50.6496 21.3557 50.5235C21.4503 50.3975 21.5192 50.2541 21.5583 50.1015C21.5975 49.9489 21.6062 49.79 21.584 49.6341C21.5617 49.4781 21.509 49.328 21.4287 49.1924C21.3484 49.0568 21.2423 48.9384 21.1162 48.8438C19.601 47.7074 17.7994 47.0154 15.9131 46.8453C14.0268 46.6752 12.1304 47.0337 10.4364 47.8807C8.74238 48.7277 7.31769 50.0296 6.32197 51.6407C5.32625 53.2518 4.79884 55.1083 4.79883 57.0023V57.0024ZM43.1923 9.61053C43.5105 9.61053 43.8156 9.48412 44.0407 9.25912C44.2657 9.03411 44.3921 8.72894 44.3921 8.41073C44.3921 8.09253 44.2657 7.78735 44.0407 7.56235C43.8156 7.33734 43.5105 7.21094 43.1923 7.21094H11.9976C11.6794 7.21094 11.3742 7.33734 11.1492 7.56235C10.9242 7.78735 10.7978 8.09253 10.7978 8.41073V13.2099C10.7978 13.8728 11.335 14.4097 11.9976 14.4097H43.1923C43.5105 14.4097 43.8156 14.2833 44.0407 14.0583C44.2657 13.8333 44.3921 13.5281 44.3921 13.2099C44.3921 12.8917 44.2657 12.5865 44.0407 12.3615C43.8156 12.1365 43.5105 12.0101 43.1923 12.0101H13.1974V9.61053H43.1923ZM15.597 16.8093C15.2788 16.8093 14.9736 16.9357 14.7486 17.1607C14.5236 17.3857 14.3972 17.6909 14.3972 18.0091C14.3972 18.3273 14.5236 18.6325 14.7486 18.8575C14.9736 19.0825 15.2788 19.2089 15.597 19.2089H39.5929C39.9111 19.2089 40.2163 19.0825 40.4413 18.8575C40.6663 18.6325 40.7927 18.3273 40.7927 18.0091C40.7927 17.6909 40.6663 17.3857 40.4413 17.1607C40.2163 16.9357 39.9111 16.8093 39.5929 16.8093H15.597ZM46.7917 25.2079H20.3962C20.078 25.2079 19.7728 25.3343 19.5478 25.5593C19.3228 25.7843 19.1964 26.0895 19.1964 26.4077C19.1964 26.7259 19.3228 27.031 19.5478 27.256C19.7728 27.481 20.078 27.6075 20.3962 27.6075H46.7917C47.1099 27.6075 47.415 27.481 47.64 27.256C47.865 27.031 47.9914 26.7259 47.9914 26.4077C47.9914 26.0895 47.865 25.7843 47.64 25.5593C47.415 25.3343 47.1099 25.2079 46.7917 25.2079ZM34.7937 33.6064C34.7937 33.2882 34.6673 32.9831 34.4423 32.758C34.2173 32.533 33.9121 32.4066 33.5939 32.4066H9.59801C9.2798 32.4066 8.97463 32.533 8.74963 32.758C8.52462 32.9831 8.39821 33.2882 8.39821 33.6064C8.39821 33.9246 8.52462 34.2298 8.74963 34.4548C8.97463 34.6798 9.2798 34.8062 9.59801 34.8062H33.5939C34.2565 34.8062 34.7937 34.2693 34.7937 33.6064ZM46.7917 32.4066H38.3931C38.0749 32.4066 37.7697 32.533 37.5447 32.758C37.3197 32.9831 37.1933 33.2882 37.1933 33.6064C37.1933 33.9246 37.3197 34.2298 37.5447 34.4548C37.7697 34.6798 38.0749 34.8062 38.3931 34.8062H46.7917C47.1099 34.8062 47.415 34.6798 47.64 34.4548C47.865 34.2298 47.9914 33.9246 47.9914 33.6064C47.9914 33.2882 47.865 32.9831 47.64 32.758C47.415 32.533 47.1099 32.4066 46.7917 32.4066ZM21.596 40.8052C21.9142 40.8052 22.2193 40.6788 22.4443 40.4538C22.6693 40.2288 22.7958 39.9236 22.7958 39.6054C22.7958 39.2872 22.6693 38.982 22.4443 38.757C22.2193 38.532 21.9142 38.4056 21.596 38.4056H9.59801C9.2798 38.4056 8.97463 38.532 8.74963 38.757C8.52462 38.982 8.39821 39.2872 8.39821 39.6054C8.39821 39.9236 8.52462 40.2288 8.74963 40.4538C8.97463 40.6788 9.2798 40.8052 9.59801 40.8052H21.596ZM26.3951 40.8052H34.7937C35.1119 40.8052 35.4171 40.6788 35.6421 40.4538C35.8671 40.2288 35.9935 39.9236 35.9935 39.6054C35.9935 39.2872 35.8671 38.982 35.6421 38.757C35.4171 38.532 35.1119 38.4056 34.7937 38.4056H26.3951C26.0769 38.4056 25.7718 38.532 25.5468 38.757C25.3217 38.982 25.1953 39.2872 25.1953 39.6054C25.1953 39.9236 25.3217 40.2288 25.5468 40.4538C25.7718 40.6788 26.0769 40.8052 26.3951 40.8052Z" fill="black"/>
<path d="M53.9908 55.2028C53.6726 55.2028 53.3674 55.3292 53.1424 55.5542C52.9174 55.7792 52.791 56.0844 52.791 56.4026V68.4005C52.791 69.0634 52.2538 69.6003 51.5912 69.6003H3.59939C2.9368 69.6003 2.39959 69.0634 2.39959 68.4005V3.61159C2.39959 3.29339 2.526 2.98821 2.751 2.76321C2.97601 2.5382 3.28118 2.4118 3.59939 2.4118H51.5912C51.9094 2.4118 52.2146 2.5382 52.4396 2.76321C52.6646 2.98821 52.791 3.29339 52.791 3.61159V26.1437C52.791 26.4619 52.9174 26.7671 53.1424 26.9921C53.3674 27.2171 53.6726 27.3435 53.9908 27.3435C54.309 27.3435 54.6142 27.2171 54.8392 26.9921C55.0642 26.7671 55.1906 26.4619 55.1906 26.1437V3.61159C55.1906 1.62383 53.5789 0.012207 51.5912 0.012207H3.59939C1.61162 0.012207 0 1.62383 0 3.61159V68.4005C0 70.3889 1.61162 71.9999 3.59939 71.9999H51.5912C53.5789 71.9999 55.1906 70.3889 55.1906 68.4005V56.4026C55.1906 56.0844 55.0642 55.7792 54.8392 55.5542C54.6142 55.3292 54.309 55.2028 53.9908 55.2028Z" fill="black"/>
</g>
<defs>
<clipPath id="clip0_17_3315">
<rect width="72" height="72" fill="white"/>
</clipPath>
</defs>
</svg>
