<svg width="100%" height="100%" viewBox="0 0 80 80" fill="none" xmlns="http://www.w3.org/2000/svg">
<path d="M68.9504 41.2502C69.4879 43.0502 71.1504 44.3752 73.1254 44.3752C75.5379 44.3752 77.5004 42.4127 77.5004 40.0002C77.5004 37.5877 75.5379 35.6252 73.1254 35.6252C71.1504 35.6252 69.5004 36.9502 68.9504 38.7502H59.9379C59.8254 37.0127 59.5129 35.3377 58.9879 33.7502H65.0004C65.3379 33.7502 65.6504 33.6127 65.8879 33.3877L69.6504 29.6252C70.1379 29.8627 70.6754 30.0002 71.2629 30.0002C73.3254 30.0002 75.0129 28.3127 75.0129 26.2502C75.0129 24.1877 73.3254 22.5002 71.2629 22.5002C69.2004 22.5002 67.5129 24.1877 67.5129 26.2502C67.5129 26.8252 67.6504 27.3627 67.8879 27.8627L64.5004 31.2502H57.9754C56.0129 27.2502 52.7754 24.0002 48.7629 22.0377V15.5127L52.1504 12.1252C52.6379 12.3627 53.1754 12.5002 53.7629 12.5002C55.8254 12.5002 57.5129 10.8127 57.5129 8.7502C57.5129 6.6877 55.8254 5.0002 53.7629 5.0002C51.7004 5.0002 50.0129 6.6877 50.0129 8.7502C50.0129 9.32519 50.1504 9.86269 50.3879 10.3627L46.6254 14.1252C46.509 14.2416 46.417 14.38 46.3547 14.5324C46.2925 14.6848 46.2612 14.8481 46.2629 15.0127V21.0252C44.6754 20.5002 43.0004 20.1877 41.2629 20.0752V11.0627C43.0629 10.5252 44.3879 8.8627 44.3879 6.8877C44.3879 4.4752 42.4254 2.5127 40.0129 2.5127C37.6004 2.5127 35.6379 4.4752 35.6379 6.8877C35.6379 8.8627 36.9629 10.5127 38.7629 11.0627V20.0752C37.0254 20.1877 35.3504 20.5002 33.7629 21.0252V15.0127C33.7629 14.6752 33.6254 14.3627 33.4004 14.1252L29.6379 10.3627C29.8754 9.8752 30.0129 9.3377 30.0129 8.7502C30.0129 6.6877 28.3254 5.0002 26.2629 5.0002C24.2004 5.0002 22.5129 6.6877 22.5129 8.7502C22.5129 10.8127 24.2004 12.5002 26.2629 12.5002C26.8379 12.5002 27.3754 12.3627 27.8754 12.1252L31.2629 15.5127V22.0377C27.2629 24.0002 24.0129 27.2377 22.0504 31.2502H15.5254L12.1379 27.8627C12.3754 27.3752 12.5129 26.8377 12.5129 26.2502C12.5129 24.1877 10.8254 22.5002 8.76289 22.5002C6.70039 22.5002 5.01289 24.1877 5.01289 26.2502C5.01289 28.3127 6.70039 30.0002 8.76289 30.0002C9.33789 30.0002 9.87539 29.8627 10.3754 29.6252L14.1379 33.3877C14.3754 33.6252 14.6879 33.7502 15.0254 33.7502H21.0379C20.5129 35.3377 20.2004 37.0127 20.0879 38.7502H11.0754C10.808 37.8497 10.2574 37.0593 9.50532 36.4964C8.75326 35.9335 7.83978 35.628 6.90039 35.6252C4.48789 35.6252 2.52539 37.5877 2.52539 40.0002C2.52539 42.4127 4.48789 44.3752 6.90039 44.3752C8.87539 44.3752 10.5254 43.0502 11.0754 41.2502H20.0879C20.2004 42.9877 20.5129 44.6627 21.0379 46.2502H15.0254C14.6879 46.2502 14.3754 46.3877 14.1379 46.6127L10.3754 50.3752C9.88789 50.1377 9.35039 50.0002 8.76289 50.0002C6.70039 50.0002 5.01289 51.6877 5.01289 53.7502C5.01289 55.8127 6.70039 57.5002 8.76289 57.5002C10.8254 57.5002 12.5129 55.8127 12.5129 53.7502C12.5129 53.1752 12.3754 52.6377 12.1379 52.1377L15.5254 48.7502H22.0504C24.0129 52.7502 27.2504 56.0002 31.2629 57.9627V64.4877L27.8754 67.8752C27.3879 67.6377 26.8504 67.5002 26.2629 67.5002C24.2004 67.5002 22.5129 69.1877 22.5129 71.2502C22.5129 73.3127 24.2004 75.0002 26.2629 75.0002C28.3254 75.0002 30.0129 73.3127 30.0129 71.2502C30.0129 70.6752 29.8754 70.1377 29.6379 69.6377L33.4004 65.8752C33.5168 65.7588 33.6088 65.6204 33.6711 65.468C33.7333 65.3156 33.7645 65.1523 33.7629 64.9877V58.9752C35.3504 59.5002 37.0254 59.8127 38.7629 59.9252V68.9377C36.9629 69.4752 35.6379 71.1377 35.6379 73.1127C35.6379 75.5252 37.6004 77.4877 40.0129 77.4877C42.4254 77.4877 44.3879 75.5252 44.3879 73.1127C44.3879 71.1377 43.0629 69.4877 41.2629 68.9377V59.9252C43.0004 59.8127 44.6754 59.5002 46.2629 58.9752V64.9877C46.2629 65.3252 46.4004 65.6377 46.6254 65.8752L50.3879 69.6377C50.1504 70.1252 50.0129 70.6627 50.0129 71.2502C50.0129 73.3127 51.7004 75.0002 53.7629 75.0002C55.8254 75.0002 57.5129 73.3127 57.5129 71.2502C57.5129 69.1877 55.8254 67.5002 53.7629 67.5002C53.1879 67.5002 52.6504 67.6377 52.1504 67.8752L48.7629 64.4877V57.9627C52.7629 56.0002 56.0129 52.7627 57.9754 48.7502H64.5004L67.8879 52.1377C67.6504 52.6252 67.5129 53.1627 67.5129 53.7502C67.5129 55.8127 69.2004 57.5002 71.2629 57.5002C73.3254 57.5002 75.0129 55.8127 75.0129 53.7502C75.0129 51.6877 73.3254 50.0002 71.2629 50.0002C70.6879 50.0002 70.1504 50.1377 69.6504 50.3752L65.8879 46.6127C65.7715 46.4963 65.6331 46.4043 65.4807 46.342C65.3283 46.2798 65.165 46.2486 65.0004 46.2502H58.9879C59.5129 44.6627 59.8254 42.9877 59.9379 41.2502H68.9504ZM71.2504 25.0002C71.9379 25.0002 72.5004 25.5627 72.5004 26.2502C72.5004 26.9377 71.9379 27.5002 71.2504 27.5002C70.9222 27.5002 70.6074 27.3698 70.3754 27.1377V27.1252C70.3754 27.1127 70.3754 27.1252 70.3629 27.1252C70.247 27.011 70.1552 26.8747 70.093 26.7244C70.0307 26.5741 69.9992 26.4129 70.0004 26.2502C70.0004 25.5627 70.5629 25.0002 71.2504 25.0002ZM53.7504 7.5002C54.4379 7.5002 55.0004 8.0627 55.0004 8.7502C55.0004 9.4377 54.4379 10.0002 53.7504 10.0002C53.4222 10.0002 53.1074 9.86978 52.8754 9.6377V9.62519C52.8754 9.61269 52.8754 9.62519 52.8629 9.62519C52.747 9.511 52.6552 9.37473 52.593 9.22443C52.5307 9.07414 52.4992 8.91287 52.5004 8.7502C52.5004 8.0627 53.0629 7.5002 53.7504 7.5002ZM25.0004 8.7502C25.0004 8.0627 25.5629 7.5002 26.2504 7.5002C26.9379 7.5002 27.5004 8.0627 27.5004 8.7502C27.5004 9.0877 27.3629 9.40019 27.1379 9.62519H27.1254C27.1129 9.62519 27.1254 9.6252 27.1254 9.6377C26.9004 9.8627 26.6004 10.0002 26.2504 10.0002C25.5629 10.0002 25.0004 9.4377 25.0004 8.7502ZM7.50039 26.2502C7.50039 25.5627 8.06289 25.0002 8.75039 25.0002C9.43789 25.0002 10.0004 25.5627 10.0004 26.2502C10.0004 26.5877 9.86289 26.9002 9.63789 27.1252H9.62539C9.61289 27.1252 9.62539 27.1252 9.62539 27.1377C9.40039 27.3627 9.10039 27.5002 8.75039 27.5002C8.06289 27.5002 7.50039 26.9377 7.50039 26.2502ZM8.75039 55.0002C8.06289 55.0002 7.50039 54.4377 7.50039 53.7502C7.50039 53.0627 8.06289 52.5002 8.75039 52.5002C9.08789 52.5002 9.40039 52.6377 9.62539 52.8627V52.8752H9.63789C9.86289 53.1002 10.0004 53.4002 10.0004 53.7502C10.0004 54.4377 9.43789 55.0002 8.75039 55.0002ZM26.2504 72.5002C25.5629 72.5002 25.0004 71.9377 25.0004 71.2502C25.0004 70.5627 25.5629 70.0002 26.2504 70.0002C26.5879 70.0002 26.9004 70.1377 27.1254 70.3627V70.3752H27.1379C27.3629 70.6002 27.5004 70.9002 27.5004 71.2502C27.5004 71.9377 26.9379 72.5002 26.2504 72.5002ZM55.0004 71.2502C55.0004 71.9377 54.4379 72.5002 53.7504 72.5002C53.0629 72.5002 52.5004 71.9377 52.5004 71.2502C52.5004 70.9127 52.6379 70.6002 52.8629 70.3752H52.8754V70.3627C53.1004 70.1377 53.4004 70.0002 53.7504 70.0002C54.4379 70.0002 55.0004 70.5627 55.0004 71.2502ZM72.5004 53.7502C72.5004 54.4377 71.9379 55.0002 71.2504 55.0002C70.5629 55.0002 70.0004 54.4377 70.0004 53.7502C70.0004 53.4127 70.1379 53.1002 70.3629 52.8752H70.3754V52.8627C70.6004 52.6377 70.9004 52.5002 71.2504 52.5002C71.9379 52.5002 72.5004 53.0627 72.5004 53.7502ZM73.1254 38.1252C74.1629 38.1252 75.0004 38.9627 75.0004 40.0002C75.0004 41.0377 74.1629 41.8752 73.1254 41.8752C72.0879 41.8752 71.2504 41.0377 71.2504 40.0002C71.2504 38.9627 72.0879 38.1252 73.1254 38.1252ZM38.1254 6.8752C38.1254 5.8377 38.9629 5.0002 40.0004 5.0002C41.0379 5.0002 41.8754 5.8377 41.8754 6.8752C41.8754 7.9127 41.0379 8.7502 40.0004 8.7502C38.9629 8.7502 38.1254 7.9127 38.1254 6.8752ZM6.87539 41.8752C5.83789 41.8752 5.00039 41.0377 5.00039 40.0002C5.00039 38.9627 5.83789 38.1252 6.87539 38.1252C7.91289 38.1252 8.75039 38.9627 8.75039 40.0002C8.75039 41.0377 7.91289 41.8752 6.87539 41.8752ZM41.8754 73.1252C41.8754 74.1627 41.0379 75.0002 40.0004 75.0002C38.9629 75.0002 38.1254 74.1627 38.1254 73.1252C38.1254 72.0877 38.9629 71.2502 40.0004 71.2502C41.0379 71.2502 41.8754 72.0877 41.8754 73.1252ZM40.0004 57.5002C30.3504 57.5002 22.5004 49.6502 22.5004 40.0002C22.5004 30.3502 30.3504 22.5002 40.0004 22.5002C49.6504 22.5002 57.5004 30.3502 57.5004 40.0002C57.5004 49.6502 49.6504 57.5002 40.0004 57.5002Z" fill="black"/>
<path d="M40 39.001L50 33.001L51 33.501V46.501L40 52.501V39.001Z" fill="url(#paint0_linear_17_2516)"/>
<path d="M40 40.001L30 34.001L29 34.501V47.501L40 53.501V40.001Z" fill="url(#paint1_linear_17_2516)"/>
<path d="M52.4133 33.325C52.4133 33.325 52.3883 33.25 52.3633 33.225C52.3008 33.1125 52.2383 33 52.1508 32.9C52.1508 32.9 52.1383 32.875 52.1258 32.875C52.0449 32.7946 51.9522 32.7272 51.8508 32.675L40.6008 26.425C40.4158 26.3205 40.207 26.2656 39.9945 26.2656C39.7821 26.2656 39.5732 26.3205 39.3883 26.425L28.1383 32.675C28.0383 32.725 27.9508 32.8 27.8633 32.875C27.8633 32.875 27.8508 32.9 27.8383 32.9C27.7508 33 27.6758 33.1 27.6258 33.225C27.6142 33.2607 27.5974 33.2944 27.5758 33.325C27.5258 33.4625 27.4883 33.6 27.4883 33.75V46.25C27.4883 46.7 27.7383 47.125 28.1258 47.3375L39.3758 53.5875L39.4508 53.625C39.4883 53.6375 39.5133 53.65 39.5508 53.6625C39.6883 53.7125 39.8383 53.75 39.9758 53.75C40.1133 53.75 40.2633 53.7125 40.4008 53.6625C40.4383 53.65 40.4633 53.6375 40.5008 53.625C40.5258 53.625 40.5508 53.6125 40.5758 53.5875L51.8258 47.3375C52.2258 47.1125 52.4633 46.7 52.4633 46.25V33.75C52.4633 33.6 52.4258 33.45 52.3758 33.325H52.4133ZM40.0008 28.9375L48.6758 33.7625L40.0008 38.5875L31.3258 33.7625L40.0008 28.9375ZM30.0008 35.8875L38.7508 40.75V50.3875L30.0008 45.525V35.8875ZM41.2508 50.3875V40.75L50.0008 35.8875V45.525L41.2508 50.3875Z" fill="black"/>
<defs>
<linearGradient id="paint0_linear_17_2516" x1="45.5" y1="33.001" x2="45.5" y2="52.501" gradientUnits="userSpaceOnUse">
<stop stop-color="#2CC8E9"/>
<stop offset="1" stop-color="#1EDEC9"/>
</linearGradient>
<linearGradient id="paint1_linear_17_2516" x1="34.5" y1="34.001" x2="34.5" y2="53.501" gradientUnits="userSpaceOnUse">
<stop stop-color="#2CC8E9"/>
<stop offset="1" stop-color="#1EDEC9"/>
</linearGradient>
</defs>
</svg>
