<svg width="100%" height="100%" viewBox="0 0 80 80" fill="none" xmlns="http://www.w3.org/2000/svg">
<g clip-path="url(#clip0_17_7685)">
<path d="M57 1.5L38 12.5V35.5L57 46.5L77.5 34.5V12.5L57 1.5Z" fill="#25D3D9"/>
<path d="M47.5 47.5H31.25V18.75C31.25 18.4185 31.1183 18.1005 30.8839 17.8661C30.6495 17.6317 30.3315 17.5 30 17.5H26.25V13.75C26.25 13.4185 26.1183 13.1005 25.8839 12.8661C25.6495 12.6317 25.3315 12.5 25 12.5H24.375V8.75C24.375 8.41848 24.2433 8.10054 24.0089 7.86612C23.7745 7.6317 23.4565 7.5 23.125 7.5H17.5V5C17.5 4.66848 17.3683 4.35054 17.1339 4.11612C16.8995 3.8817 16.5815 3.75 16.25 3.75C15.9185 3.75 15.6005 3.8817 15.3661 4.11612C15.1317 4.35054 15 4.66848 15 5V7.5H9.375C9.04348 7.5 8.72554 7.6317 8.49112 7.86612C8.2567 8.10054 8.125 8.41848 8.125 8.75V12.5H7.5C7.16848 12.5 6.85054 12.6317 6.61612 12.8661C6.3817 13.1005 6.25 13.4185 6.25 13.75V17.5H2.5C2.16848 17.5 1.85054 17.6317 1.61612 17.8661C1.3817 18.1005 1.25 18.4185 1.25 18.75V78.75C1.25 79.0815 1.3817 79.3995 1.61612 79.6339C1.85054 79.8683 2.16848 80 2.5 80H47.5C47.8315 80 48.1495 79.8683 48.3839 79.6339C48.6183 79.3995 48.75 79.0815 48.75 78.75V48.75C48.75 48.4185 48.6183 48.1005 48.3839 47.8661C48.1495 47.6317 47.8315 47.5 47.5 47.5ZM23.75 15V17.5H8.75V15H23.75ZM10.625 10H21.875V12.5H10.625V10ZM23.75 77.5H8.75V71.25H23.75V77.5ZM28.75 77.5H26.25V70C26.25 69.6685 26.1183 69.3505 25.8839 69.1161C25.6495 68.8817 25.3315 68.75 25 68.75H7.5C7.16848 68.75 6.85054 68.8817 6.61612 69.1161C6.3817 69.3505 6.25 69.6685 6.25 70V77.5H3.75V20H28.75V77.5ZM46.25 77.5H31.25V50H46.25V77.5Z" fill="black"/>
<path d="M18.75 31.25H25C25.3315 31.25 25.6495 31.1183 25.8839 30.8839C26.1183 30.6494 26.25 30.3315 26.25 30V25C26.25 24.6684 26.1183 24.3505 25.8839 24.1161C25.6495 23.8817 25.3315 23.75 25 23.75H18.75C18.4185 23.75 18.1005 23.8817 17.8661 24.1161C17.6317 24.3505 17.5 24.6684 17.5 25V30C17.5 30.3315 17.6317 30.6494 17.8661 30.8839C18.1005 31.1183 18.4185 31.25 18.75 31.25ZM20 26.25H23.75V28.75H20V26.25ZM7.5 31.25H13.75C14.0815 31.25 14.3995 31.1183 14.6339 30.8839C14.8683 30.6494 15 30.3315 15 30V25C15 24.6684 14.8683 24.3505 14.6339 24.1161C14.3995 23.8817 14.0815 23.75 13.75 23.75H7.5C7.16848 23.75 6.85054 23.8817 6.61612 24.1161C6.3817 24.3505 6.25 24.6684 6.25 25V30C6.25 30.3315 6.3817 30.6494 6.61612 30.8839C6.85054 31.1183 7.16848 31.25 7.5 31.25ZM8.75 26.25H12.5V28.75H8.75V26.25ZM18.75 42.5H25C25.3315 42.5 25.6495 42.3683 25.8839 42.1339C26.1183 41.8994 26.25 41.5815 26.25 41.25V36.25C26.25 35.9184 26.1183 35.6005 25.8839 35.3661C25.6495 35.1317 25.3315 35 25 35H18.75C18.4185 35 18.1005 35.1317 17.8661 35.3661C17.6317 35.6005 17.5 35.9184 17.5 36.25V41.25C17.5 41.5815 17.6317 41.8994 17.8661 42.1339C18.1005 42.3683 18.4185 42.5 18.75 42.5ZM20 37.5H23.75V40H20V37.5ZM35 61.25H42.5C42.8315 61.25 43.1495 61.1183 43.3839 60.8839C43.6183 60.6494 43.75 60.3315 43.75 60V55C43.75 54.6684 43.6183 54.3505 43.3839 54.1161C43.1495 53.8817 42.8315 53.75 42.5 53.75H35C34.6685 53.75 34.3505 53.8817 34.1161 54.1161C33.8817 54.3505 33.75 54.6684 33.75 55V60C33.75 60.3315 33.8817 60.6494 34.1161 60.8839C34.3505 61.1183 34.6685 61.25 35 61.25ZM36.25 56.25H41.25V58.75H36.25V56.25ZM35 72.5H42.5C42.8315 72.5 43.1495 72.3683 43.3839 72.1339C43.6183 71.8994 43.75 71.5815 43.75 71.25V66.25C43.75 65.9184 43.6183 65.6005 43.3839 65.3661C43.1495 65.1317 42.8315 65 42.5 65H35C34.6685 65 34.3505 65.1317 34.1161 65.3661C33.8817 65.6005 33.75 65.9184 33.75 66.25V71.25C33.75 71.5815 33.8817 71.8994 34.1161 72.1339C34.3505 72.3683 34.6685 72.5 35 72.5ZM36.25 67.5H41.25V70H36.25V67.5ZM7.5 42.5H13.75C14.0815 42.5 14.3995 42.3683 14.6339 42.1339C14.8683 41.8994 15 41.5815 15 41.25V36.25C15 35.9184 14.8683 35.6005 14.6339 35.3661C14.3995 35.1317 14.0815 35 13.75 35H7.5C7.16848 35 6.85054 35.1317 6.61612 35.3661C6.3817 35.6005 6.25 35.9184 6.25 36.25V41.25C6.25 41.5815 6.3817 41.8994 6.61612 42.1339C6.85054 42.3683 7.16848 42.5 7.5 42.5ZM8.75 37.5H12.5V40H8.75V37.5ZM18.75 53.75H25C25.3315 53.75 25.6495 53.6183 25.8839 53.3839C26.1183 53.1494 26.25 52.8315 26.25 52.5V47.5C26.25 47.1684 26.1183 46.8505 25.8839 46.6161C25.6495 46.3817 25.3315 46.25 25 46.25H18.75C18.4185 46.25 18.1005 46.3817 17.8661 46.6161C17.6317 46.8505 17.5 47.1684 17.5 47.5V52.5C17.5 52.8315 17.6317 53.1494 17.8661 53.3839C18.1005 53.6183 18.4185 53.75 18.75 53.75ZM20 48.75H23.75V51.25H20V48.75ZM7.5 53.75H13.75C14.0815 53.75 14.3995 53.6183 14.6339 53.3839C14.8683 53.1494 15 52.8315 15 52.5V47.5C15 47.1684 14.8683 46.8505 14.6339 46.6161C14.3995 46.3817 14.0815 46.25 13.75 46.25H7.5C7.16848 46.25 6.85054 46.3817 6.61612 46.6161C6.3817 46.8505 6.25 47.1684 6.25 47.5V52.5C6.25 52.8315 6.3817 53.1494 6.61612 53.3839C6.85054 53.6183 7.16848 53.75 7.5 53.75ZM8.75 48.75H12.5V51.25H8.75V48.75ZM18.75 65H25C25.3315 65 25.6495 64.8683 25.8839 64.6339C26.1183 64.3994 26.25 64.0815 26.25 63.75V58.75C26.25 58.4184 26.1183 58.1005 25.8839 57.8661C25.6495 57.6317 25.3315 57.5 25 57.5H18.75C18.4185 57.5 18.1005 57.6317 17.8661 57.8661C17.6317 58.1005 17.5 58.4184 17.5 58.75V63.75C17.5 64.0815 17.6317 64.3994 17.8661 64.6339C18.1005 64.8683 18.4185 65 18.75 65ZM20 60H23.75V62.5H20V60ZM7.5 65H13.75C14.0815 65 14.3995 64.8683 14.6339 64.6339C14.8683 64.3994 15 64.0815 15 63.75V58.75C15 58.4184 14.8683 58.1005 14.6339 57.8661C14.3995 57.6317 14.0815 57.5 13.75 57.5H7.5C7.16848 57.5 6.85054 57.6317 6.61612 57.8661C6.3817 58.1005 6.25 58.4184 6.25 58.75V63.75C6.25 64.0815 6.3817 64.3994 6.61612 64.6339C6.85054 64.8683 7.16848 65 7.5 65ZM8.75 60H12.5V62.5H8.75V60ZM63.125 9.92997L58.125 7.04247C57.935 6.93276 57.7194 6.875 57.5 6.875C57.2806 6.875 57.065 6.93276 56.875 7.04247L55.625 7.76372C55.435 7.87343 55.2772 8.03122 55.1675 8.22124C55.0578 8.41125 55 8.6268 55 8.84622V38.75C55 39.0815 55.1317 39.3994 55.3661 39.6339C55.6005 39.8683 55.9185 40 56.25 40C56.5815 40 56.8995 39.8683 57.1339 39.6339C57.3683 39.3994 57.5 39.0815 57.5 38.75V25.625H61.875C62.2065 25.625 62.5245 25.4933 62.7589 25.2589C62.9933 25.0244 63.125 24.7065 63.125 24.375C63.125 24.0434 62.9933 23.7255 62.7589 23.4911C62.5245 23.2567 62.2065 23.125 61.875 23.125H57.5V9.56872L61.875 12.095C62.1621 12.2607 62.5033 12.3056 62.8235 12.2198C63.1437 12.134 63.4167 11.9246 63.5825 11.6375C63.7483 11.3504 63.7932 11.0092 63.7074 10.689C63.6216 10.3688 63.4121 10.0957 63.125 9.92997ZM73.125 15.7025L66.875 12.095C66.7328 12.0116 66.5755 11.9572 66.4122 11.9348C66.2488 11.9125 66.0827 11.9227 65.9233 11.9648C65.764 12.007 65.6145 12.0802 65.4835 12.1804C65.3526 12.2805 65.2427 12.4055 65.1603 12.5483C65.0779 12.6911 65.0245 12.8487 65.0033 13.0122C64.982 13.1757 64.9933 13.3417 65.0365 13.5008C65.0797 13.6599 65.1539 13.8089 65.2549 13.9392C65.3559 14.0695 65.4817 14.1785 65.625 14.26L67.5 15.3425V33.75C67.5 34.0815 67.6317 34.3994 67.8661 34.6339C68.1005 34.8683 68.4185 35 68.75 35C69.0815 35 69.3995 34.8683 69.6339 34.6339C69.8683 34.3994 70 34.0815 70 33.75V16.7862L71.875 17.8687C72.0172 17.9508 72.1743 18.0041 72.3371 18.0254C72.4999 18.0468 72.6653 18.036 72.824 17.9934C72.9826 17.9509 73.1312 17.8775 73.2615 17.7775C73.3918 17.6775 73.5011 17.5528 73.5831 17.4106C73.6652 17.2684 73.7185 17.1113 73.7399 16.9485C73.7613 16.7857 73.7504 16.6203 73.7078 16.4616C73.6653 16.303 73.5919 16.1544 73.4919 16.0241C73.3919 15.8938 73.2672 15.7845 73.125 15.7025ZM50.625 11.875C50.2935 11.875 49.9755 12.0067 49.7411 12.2411C49.5067 12.4755 49.375 12.7934 49.375 13.125V29.135L44.285 16.4112C44.1769 16.1419 43.9784 15.9186 43.7237 15.7796C43.4689 15.6406 43.1738 15.5946 42.8888 15.6495C42.6038 15.7043 42.3468 15.8566 42.1618 16.0802C41.9769 16.3038 41.8755 16.5848 41.875 16.875V33.125C41.875 33.4565 42.0067 33.7744 42.2411 34.0089C42.4755 34.2433 42.7935 34.375 43.125 34.375C43.4565 34.375 43.7745 34.2433 44.0089 34.0089C44.2433 33.7744 44.375 33.4565 44.375 33.125V23.3662L49.465 36.0887C49.5731 36.358 49.7716 36.5813 50.0263 36.7203C50.2811 36.8593 50.5762 36.9053 50.8612 36.8505C51.1462 36.7956 51.4032 36.6434 51.5882 36.4198C51.7731 36.1962 51.8745 35.9152 51.875 35.625V13.125C51.875 12.7934 51.7433 12.4755 51.5089 12.2411C51.2745 12.0067 50.9565 11.875 50.625 11.875Z" fill="black"/>
<path d="M76.875 10.6067L59.375 0.500452C58.8049 0.17132 58.1583 -0.00195312 57.5 -0.00195312C56.8417 -0.00195313 56.1951 0.17132 55.625 0.500452L38.125 10.6042C37.5546 10.9335 37.081 11.4073 36.7518 11.9778C36.4227 12.5484 36.2496 13.1955 36.25 13.8542V33.6467C36.2496 34.3054 36.4227 34.9525 36.7518 35.5231C37.081 36.0936 37.5546 36.5674 38.125 36.8967L55.625 47.0017C56.1951 47.3308 56.8417 47.5041 57.5 47.5041C58.1583 47.5041 58.8049 47.3308 59.375 47.0017L76.875 36.8967C77.4454 36.5674 77.919 36.0936 78.2482 35.5231C78.5773 34.9525 78.7504 34.3054 78.75 33.6467V13.8542C78.75 13.196 78.5767 12.5493 78.2476 11.9793C77.9184 11.4092 77.4451 10.9358 76.875 10.6067ZM76.25 33.6467C76.2502 33.8663 76.1926 34.0821 76.0828 34.2724C75.9731 34.4627 75.8152 34.6206 75.625 34.7305L58.125 44.833C57.935 44.9427 57.7194 45.0004 57.5 45.0004C57.2806 45.0004 57.065 44.9427 56.875 44.833L39.375 34.7305C39.1848 34.6206 39.0269 34.4627 38.9172 34.2724C38.8074 34.0821 38.7498 33.8663 38.75 33.6467V13.8542C38.75 13.6348 38.8078 13.4192 38.9175 13.2292C39.0272 13.0392 39.185 12.8814 39.375 12.7717L56.875 2.66795C57.065 2.55824 57.2806 2.50048 57.5 2.50048C57.7194 2.50048 57.935 2.55824 58.125 2.66795L75.625 12.7717C75.815 12.8814 75.9728 13.0392 76.0825 13.2292C76.1922 13.4192 76.25 13.6348 76.25 13.8542V33.6467Z" fill="black"/>
</g>
<defs>
<clipPath id="clip0_17_7685">
<rect width="80" height="80" fill="white"/>
</clipPath>
</defs>
</svg>
