<svg width="100%" height="100%" viewBox="0 0 80 80" fill="none" xmlns="http://www.w3.org/2000/svg">
<circle cx="59.5" cy="61.5" r="13.5" fill="#26D1DC"/>
<path d="M49.6246 25.5751V12.8751C49.6246 12.1876 50.1871 11.6251 50.8746 11.6251H56.4871C57.1746 11.6251 57.7371 12.1876 57.7371 12.8751C57.7371 13.5626 57.1746 14.1251 56.4871 14.1251H52.1246V17.9751H56.4871C57.1746 17.9751 57.7371 18.5376 57.7371 19.2251C57.7371 19.9126 57.1746 20.4751 56.4871 20.4751H52.1246V24.3251H56.4871C57.1746 24.3251 57.7371 24.8876 57.7371 25.5751C57.7371 26.2626 57.1746 26.8251 56.4871 26.8251H50.8746C50.1871 26.8251 49.6246 26.2626 49.6246 25.5751ZM39.9746 26.8251H45.5871C46.2746 26.8251 46.8371 26.2626 46.8371 25.5751C46.8371 24.8876 46.2746 24.3251 45.5871 24.3251H41.2246V20.4751H45.5871C46.2746 20.4751 46.8371 19.9126 46.8371 19.2251C46.8371 18.5376 46.2746 17.9751 45.5871 17.9751H41.2246V14.1251H45.5871C46.2746 14.1251 46.8371 13.5626 46.8371 12.8751C46.8371 12.1876 46.2746 11.6251 45.5871 11.6251H39.9746C39.2871 11.6251 38.7246 12.1876 38.7246 12.8751V25.5751C38.7246 26.2626 39.2871 26.8251 39.9746 26.8251ZM29.0621 26.8251C29.7496 26.8251 30.3121 26.2626 30.3121 25.5751V20.4751H34.6746C35.3621 20.4751 35.9246 19.9126 35.9246 19.2251C35.9246 18.5376 35.3621 17.9751 34.6746 17.9751H30.3121V14.1251H34.6746C35.3621 14.1251 35.9246 13.5626 35.9246 12.8751C35.9246 12.1876 35.3621 11.6251 34.6746 11.6251H29.0621C28.3746 11.6251 27.8121 12.1876 27.8121 12.8751V25.5751C27.8121 26.2626 28.3746 26.8251 29.0621 26.8251ZM27.7246 41.9376H59.2371C59.9246 41.9376 60.4871 41.3751 60.4871 40.6876C60.4871 40.0001 59.9246 39.4376 59.2371 39.4376H27.7246C27.0371 39.4376 26.4746 40.0001 26.4746 40.6876C26.4746 41.3751 27.0371 41.9376 27.7246 41.9376ZM46.7371 48.2001C46.7371 47.5126 46.1746 46.9501 45.4871 46.9501H27.7246C27.0371 46.9501 26.4746 47.5126 26.4746 48.2001C26.4746 48.8876 27.0371 49.4501 27.7246 49.4501H45.4871C46.1746 49.4501 46.7371 48.8876 46.7371 48.2001ZM40.4871 54.5126H27.7246C27.0371 54.5126 26.4746 55.0751 26.4746 55.7626C26.4746 56.4501 27.0371 57.0126 27.7246 57.0126H40.4871C41.1746 57.0126 41.7371 56.4501 41.7371 55.7626C41.7371 55.0751 41.1746 54.5126 40.4871 54.5126ZM27.7621 34.3876H59.2746C59.9621 34.3876 60.5246 33.8251 60.5246 33.1376C60.5246 32.4501 59.9621 31.8876 59.2746 31.8876H27.7621C27.0746 31.8876 26.5121 32.4501 26.5121 33.1376C26.5121 33.8251 27.0746 34.3876 27.7621 34.3876ZM74.4496 61.4501C74.4496 69.6001 67.8121 76.2376 59.6621 76.2376C55.2621 76.2376 51.3121 74.2876 48.5996 71.2376L42.4121 66.3126L34.9621 72.2501C34.7371 72.4376 34.4621 72.5251 34.1871 72.5251C33.9121 72.5251 33.6371 72.4376 33.4121 72.2501L25.9371 66.3001L18.4746 71.8251C18.2905 71.9644 18.0708 72.0489 17.8408 72.0688C17.6108 72.0887 17.3799 72.0433 17.1746 71.9376C16.9674 71.8351 16.7931 71.6765 16.6715 71.4798C16.55 71.2831 16.4861 71.0563 16.4871 70.8251L16.4246 20.0251H9.38711C7.26211 20.0251 5.53711 18.3001 5.53711 16.1751V10.7376C5.53711 7.0126 8.46211 3.9626 12.1996 3.8126L60.5371 3.7876C62.6246 3.7876 64.5871 4.6001 66.0621 6.0751C67.5371 7.5501 68.3496 9.5126 68.3496 11.6126V49.5501C72.0246 52.2376 74.4371 56.5751 74.4371 61.4751L74.4496 61.4501ZM8.04961 10.7251V16.1626C8.04961 16.9126 8.66211 17.5126 9.39961 17.5126H16.4371V10.8751C16.4371 8.6001 14.8121 6.7126 12.6121 6.3376C12.3621 6.3001 12.0996 6.3001 11.8496 6.3376C10.8121 6.4876 8.31211 7.2251 8.04961 10.7251ZM45.4746 65.5376C45.0996 64.2376 44.8871 62.8751 44.8871 61.4501C44.8871 53.3001 51.5246 46.6626 59.6746 46.6626C61.8871 46.6626 63.9871 47.1626 65.8746 48.0376V11.5876C65.8746 10.1626 65.3246 8.8251 64.3121 7.8251C63.3121 6.8251 61.9746 6.2626 60.5496 6.2626L17.2371 6.2876C18.2871 7.5251 18.9246 9.1251 18.9246 10.8751L18.9871 68.3376L25.2246 63.7126C25.6746 63.3751 26.2996 63.3876 26.7496 63.7376L34.1996 69.6751L41.6496 63.7376C42.1121 63.3751 42.7496 63.3751 43.2121 63.7376L45.4746 65.5376ZM71.9496 61.4501C71.9496 54.6751 66.4371 49.1626 59.6621 49.1626C52.8871 49.1626 47.3746 54.6751 47.3746 61.4501C47.3746 68.2251 52.8871 73.7376 59.6621 73.7376C66.4371 73.7376 71.9496 68.2251 71.9496 61.4501ZM66.9121 57.9501V58.5626C66.9121 59.6751 66.4621 60.6876 65.7371 61.4251C66.4621 62.1626 66.9121 63.1751 66.9121 64.3001V64.9126C66.9121 67.0376 65.2996 68.7626 63.2371 68.9876V70.3001C63.2371 70.9876 62.6746 71.5501 61.9871 71.5501C61.2996 71.5501 60.7371 70.9876 60.7371 70.3001V69.0376H59.4871V70.3001C59.4871 70.9876 58.9246 71.5501 58.2371 71.5501C57.5496 71.5501 56.9871 70.9876 56.9871 70.3001V69.0501H54.5621C53.8746 69.0501 53.3121 68.4876 53.3121 67.8001C53.3121 67.1126 53.8621 66.5501 54.5621 66.5501H54.9996V56.3501H54.5746C53.8871 56.3501 53.3246 55.7876 53.3246 55.1001C53.3246 54.4126 53.8746 53.8501 54.5746 53.8501H56.9996V52.6126C56.9996 51.9251 57.5621 51.3626 58.2496 51.3626C58.9371 51.3626 59.4996 51.9251 59.4996 52.6126V53.8376H60.7496V52.6126C60.7496 51.9251 61.3121 51.3626 61.9996 51.3626C62.6871 51.3626 63.2496 51.9251 63.2496 52.6126V53.8751C65.3121 54.1001 66.9246 55.8251 66.9246 57.9501H66.9121ZM57.4871 56.3501V60.1876H62.7871C63.6746 60.1876 64.3996 59.4626 64.3996 58.5751V57.9626C64.3996 57.0751 63.6746 56.3501 62.7871 56.3501H57.4871ZM64.4121 64.3001C64.4121 63.4126 63.6871 62.6876 62.7996 62.6876H57.4996V66.5501H62.7996C63.6996 66.5376 64.4246 65.8126 64.4246 64.9126V64.3001H64.4121Z" fill="black"/>
</svg>
