<svg width="100%" height="100%" viewBox="0 0 80 80" fill="none" xmlns="http://www.w3.org/2000/svg">
<g clip-path="url(#clip0_17_2019)">
<g clip-path="url(#clip1_17_2019)">
<path d="M39.5 60.9995L29.5 54.9995L28.5 55.4995V68.4995L39.5 74.4995V60.9995Z" fill="url(#paint0_linear_17_2019)"/>
<path d="M67 38.9995L57 32.9995L56 33.4995V46.4995L67 52.4995V38.9995Z" fill="url(#paint1_linear_17_2019)"/>
<path d="M40 60.9995L50 54.9995L51 55.4995V68.4995L40 74.4995V60.9995Z" fill="url(#paint2_linear_17_2019)"/>
<path d="M13 38.9995L23 32.9995L24 33.4995V46.4995L13 52.4995V38.9995Z" fill="url(#paint3_linear_17_2019)"/>
<path d="M52.275 53.568L40.625 46.8414C40.435 46.7317 40.2195 46.6739 40 46.6739C39.7806 46.6739 39.5651 46.7317 39.375 46.8414L27.725 53.568C27.535 53.6775 27.3772 53.8352 27.2675 54.0251C27.1578 54.215 27.1 54.4304 27.1 54.6497V68.068C27.1001 68.2876 27.1578 68.5032 27.2675 68.6934C27.3772 68.8835 27.535 69.0415 27.725 69.1514L39.375 75.8764C39.5649 75.9866 39.7805 76.0446 40 76.0446C40.2196 76.0446 40.4352 75.9866 40.625 75.8764L52.275 69.1514C52.4651 69.0415 52.6228 68.8835 52.7325 68.6934C52.8422 68.5032 52.9 68.2876 52.9 68.068V54.6497C52.9 54.4304 52.8423 54.215 52.7326 54.0251C52.6228 53.8352 52.465 53.6775 52.275 53.568ZM40 49.368L49.15 54.6497L40 59.933L30.85 54.6497L40 49.368ZM29.6 56.8147L38.75 62.098V72.6297L29.6 67.3464V56.8147ZM50.4 67.3464L41.25 72.6297V62.098L50.4 56.8147V67.3464ZM22.4317 28.033C22.6506 28.0339 22.8658 27.9764 23.055 27.8664L28.3634 24.803L39.375 31.1664C39.5649 31.2766 39.7805 31.3346 40 31.3346C40.2196 31.3346 40.4352 31.2766 40.625 31.1664L51.6367 24.8097L56.945 27.873C57.1343 27.9831 57.3495 28.0406 57.5684 28.0397C57.8439 28.0404 58.112 27.95 58.3309 27.7825C58.5498 27.6151 58.7072 27.3801 58.7786 27.1139C58.8501 26.8478 58.8317 26.5655 58.7261 26.3109C58.6206 26.0564 58.4339 25.8438 58.195 25.7064L52.9 22.6447V9.93137C52.9 9.71184 52.8422 9.49619 52.7325 9.30604C52.6228 9.11589 52.4651 8.95794 52.275 8.84803L40.625 2.12303C40.435 2.01332 40.2195 1.95557 40 1.95557C39.7806 1.95557 39.5651 2.01332 39.375 2.12303L27.725 8.84803C27.535 8.95794 27.3772 9.11589 27.2675 9.30604C27.1578 9.49619 27.1001 9.71184 27.1 9.93137V22.6447L21.805 25.7014C21.5662 25.8388 21.3795 26.0514 21.274 26.3059C21.1684 26.5605 21.1499 26.8428 21.2214 27.1089C21.2929 27.3751 21.4503 27.6101 21.6692 27.7775C21.8881 27.945 22.1561 28.0337 22.4317 28.033ZM46.765 19.098C46.6228 19.016 46.4657 18.9627 46.3029 18.9413C46.14 18.9199 45.9746 18.9308 45.8159 18.9734C45.6573 19.016 45.5086 19.0893 45.3783 19.1894C45.2481 19.2894 45.1388 19.4141 45.0567 19.5564C44.9746 19.6986 44.9214 19.8557 44.9 20.0185C44.8786 20.1814 44.8895 20.3468 44.9321 20.5055C44.9746 20.6641 45.048 20.8128 45.148 20.9431C45.2481 21.0733 45.3728 21.1826 45.515 21.2647L49.1417 23.3597L41.25 27.9114V17.378L47.73 13.638L50.3967 12.0947V21.1997L46.765 19.098ZM40 4.64803L49.15 9.93137L40 15.213L30.85 9.93137L40 4.64803ZM29.6 12.0947L32.2667 13.638L38.7467 17.378V27.9114L30.86 23.358L34.4867 21.263C34.629 21.181 34.7537 21.0717 34.8537 20.9414C34.9537 20.8111 35.0271 20.6624 35.0697 20.5038C35.1122 20.3452 35.1231 20.1797 35.1017 20.0169C35.0804 19.854 35.0271 19.697 34.945 19.5547C34.863 19.4124 34.7537 19.2877 34.6234 19.1877C34.4931 19.0877 34.3444 19.0143 34.1858 18.9717C34.0272 18.9292 33.8617 18.9183 33.6988 18.9397C33.536 18.961 33.379 19.0143 33.2367 19.0964L29.6 21.1997V12.0947ZM29.3017 50.2514C29.4909 50.3614 29.7061 50.4189 29.925 50.418C30.2006 50.4187 30.4687 50.3283 30.6875 50.1609C30.9064 49.9935 31.0638 49.7584 31.1353 49.4923C31.2068 49.2261 31.1883 48.9438 31.0828 48.6893C30.9772 48.4347 30.7905 48.2222 30.5517 48.0847L25.8 45.3447V32.6664C25.8 32.4468 25.7422 32.2312 25.6325 32.041C25.5228 31.8509 25.3651 31.6929 25.175 31.583L13.525 24.8564C13.335 24.7467 13.1194 24.6889 12.9 24.6889C12.6806 24.6889 12.4651 24.7467 12.275 24.8564L0.625027 31.5747C0.43377 31.6853 0.2752 31.8446 0.165426 32.0363C0.0556524 32.2281 -0.00141337 32.4454 2.65915e-05 32.6664V46.0847C9.44712e-06 46.304 0.057768 46.5195 0.167488 46.7093C0.277207 46.8992 0.435016 47.0569 0.625027 47.1664L12.275 53.893C12.4649 54.0032 12.6805 54.0613 12.9 54.0613C13.1195 54.0613 13.3352 54.0032 13.525 53.893L24.5584 47.523L29.3017 50.2514ZM12.9 27.3747L22.05 32.658L12.9 37.9397L3.75003 32.6664L12.9 27.3747ZM2.50003 34.823L5.16669 36.3647L11.65 40.1064V50.6364L2.50003 45.353V34.823ZM14.15 50.6364V40.1064L20.63 36.3647L23.2967 34.823V43.9014L19.0317 41.4397C18.7444 41.2739 18.403 41.2291 18.0826 41.3151C17.7622 41.401 17.4891 41.6107 17.3234 41.898C17.1576 42.1854 17.1128 42.5267 17.1987 42.8471C17.2847 43.1675 17.4944 43.4406 17.7817 43.6064L22.055 46.073L14.15 50.6364ZM79.375 31.5747L67.725 24.848C67.535 24.7383 67.3195 24.6806 67.1 24.6806C66.8806 24.6806 66.6651 24.7383 66.475 24.848L54.8334 31.5747C54.6433 31.6846 54.4856 31.8426 54.3759 32.0327C54.2662 32.2229 54.2084 32.4385 54.2084 32.658V45.3447L49.4567 48.088C49.2179 48.2255 49.0312 48.4381 48.9256 48.6926C48.8201 48.9472 48.8016 49.2295 48.8731 49.4956C48.9446 49.7617 49.102 49.9968 49.3209 50.1642C49.5397 50.3316 49.8078 50.422 50.0834 50.4214C50.3023 50.4223 50.5175 50.3647 50.7067 50.2547L55.45 47.518L66.4834 53.888C66.6732 53.9982 66.8888 54.0563 67.1084 54.0563C67.3279 54.0563 67.5435 53.9982 67.7334 53.888L79.3834 47.1614C79.5723 47.0505 79.7288 46.8919 79.837 46.7015C79.9453 46.511 80.0015 46.2954 80 46.0764V32.6664C80.0015 32.4454 79.9444 32.2281 79.8346 32.0363C79.7249 31.8446 79.5663 31.6853 79.375 31.5747ZM67.1 27.3747L76.25 32.658L67.1 37.9397L57.95 32.6664L67.1 27.3747ZM62.6667 41.8964C62.5847 41.7542 62.4755 41.6297 62.3453 41.5298C62.2151 41.4299 62.0666 41.3566 61.908 41.3142C61.7495 41.2718 61.5842 41.261 61.4215 41.2826C61.2589 41.3041 61.102 41.3575 60.96 41.4397L56.7 43.9014V34.823L59.3667 36.3647L65.8467 40.1064V50.6364L57.9384 46.0714L62.2117 43.6047C62.3538 43.5224 62.4782 43.413 62.578 43.2826C62.6777 43.1522 62.7508 43.0034 62.793 42.8448C62.8353 42.6861 62.8459 42.5207 62.8242 42.358C62.8025 42.1953 62.749 42.0384 62.6667 41.8964ZM68.345 50.6364V40.1064L74.8334 36.3647L77.5 34.823V45.353L68.345 50.6364Z" fill="black"/>
</g>
</g>
<defs>
<linearGradient id="paint0_linear_17_2019" x1="34" y1="54.9995" x2="34" y2="74.4995" gradientUnits="userSpaceOnUse">
<stop stop-color="#2CC8E9"/>
<stop offset="1" stop-color="#1EDEC9"/>
</linearGradient>
<linearGradient id="paint1_linear_17_2019" x1="61.5" y1="32.9995" x2="61.5" y2="52.4995" gradientUnits="userSpaceOnUse">
<stop stop-color="#2CC8E9"/>
<stop offset="1" stop-color="#1EDEC9"/>
</linearGradient>
<linearGradient id="paint2_linear_17_2019" x1="45.5" y1="54.9995" x2="45.5" y2="74.4995" gradientUnits="userSpaceOnUse">
<stop stop-color="#2CC8E9"/>
<stop offset="1" stop-color="#1EDEC9"/>
</linearGradient>
<linearGradient id="paint3_linear_17_2019" x1="18.5" y1="32.9995" x2="18.5" y2="52.4995" gradientUnits="userSpaceOnUse">
<stop stop-color="#2CC8E9"/>
<stop offset="1" stop-color="#1EDEC9"/>
</linearGradient>
<clipPath id="clip0_17_2019">
<rect width="80" height="80" fill="white" transform="translate(0 -0.000488281)"/>
</clipPath>
<clipPath id="clip1_17_2019">
<rect width="80" height="80" fill="white" transform="translate(0 -1.00049)"/>
</clipPath>
</defs>
</svg>
