<svg width="100%" height="100%" viewBox="0 0 80 80" fill="none" xmlns="http://www.w3.org/2000/svg">
<path d="M72.5 13H6V5.5L8 2.5H71L72.5 4V13Z" fill="#25D3D9"/>
<path d="M12.2422 6.42383H14.3755V8.84807H12.2422V6.42383ZM18.6179 6.42383H20.7634V8.84807H18.6179V6.42383ZM24.9937 6.42383H27.127V8.84807H24.9937V6.42383ZM44.2664 6.42383H66.8119V8.84807H44.2664V6.42383Z" fill="black"/>
<path d="M4.95784 35.321V78.9331H74.0972V35.6119C75.5681 35.2793 76.882 34.456 77.8227 33.2774C78.7634 32.0987 79.2749 30.635 79.273 29.127V27.3088L74.0972 13.4543V4.72701C74.0972 2.71489 72.4609 1.06641 70.4366 1.06641H8.61845C6.60633 1.06641 4.95784 2.70277 4.95784 4.72701V11.7694H4.89724L0.763903 27.2119L0.727539 29.127C0.727539 31.9149 2.42451 34.3391 4.95784 35.321ZM71.673 76.4967H7.38208V35.7694C9.35784 35.7694 11.4912 34.8119 12.8124 32.9452C14.0003 34.63 16.0245 35.7694 18.2427 35.7694C20.4609 35.7694 22.4366 34.7028 23.6851 32.9452C24.8972 34.6664 26.9336 35.7694 29.1275 35.7694C31.3457 35.7694 33.3215 34.6907 34.5578 32.9452C35.7821 34.6664 37.8185 35.7694 40.0003 35.7694C42.1821 35.7694 44.1578 34.7391 45.4306 32.9452C46.6427 34.6543 48.6791 35.7694 50.873 35.7694C53.1033 35.7694 55.0791 34.6907 56.3154 32.9452C57.5154 34.6422 59.5397 35.7694 61.7457 35.7694C63.976 35.7694 65.9639 34.6785 67.1881 32.9452C68.2063 34.3876 69.8548 35.4422 71.673 35.6967V76.4967ZM14.0245 27.6361L16.4003 14.2058H23.6003L22.473 27.527V29.127C22.473 31.4179 20.6063 33.3573 18.2427 33.3573C15.9154 33.3573 14.0245 31.4543 14.0245 29.127V27.6361ZM65.976 27.6967V29.127C65.976 31.4907 64.0609 33.3573 61.7457 33.3573C59.4184 33.3573 57.5275 31.4543 57.5275 29.127V27.527L55.0063 14.2058H62.17L65.976 27.6967ZM55.1033 27.6361V29.1149C55.1033 31.4058 53.2366 33.3452 50.873 33.3452C49.752 33.342 48.6779 32.8953 47.8853 32.1026C47.0926 31.31 46.6459 30.2359 46.6427 29.1149V27.3937L45.3336 14.2058H52.5336L55.1033 27.6361ZM44.2185 27.5876V29.127C44.2185 31.4058 42.3881 33.3573 40.0003 33.3573C38.8793 33.3541 37.8052 32.9074 37.0125 32.1148C36.2199 31.3221 35.7732 30.248 35.77 29.127L35.6851 14.2058H42.9094L44.2185 27.5876ZM33.3336 26.424L33.3457 27.527V29.127C33.3457 31.5028 31.4063 33.3573 29.1275 33.3573C28.0066 33.3541 26.9324 32.9074 26.1398 32.1148C25.3472 31.3221 24.9004 30.248 24.8972 29.127V27.6361L26.0366 14.2058H33.2609L33.3336 26.424ZM76.8488 29.127C76.8488 33.224 72.7397 33.2967 72.6185 33.3573C70.2912 33.3573 68.4003 31.4543 68.4003 29.127V27.527L64.6912 14.2058H71.7942L76.8488 27.7452V29.127ZM7.38208 4.72701C7.38208 4.04822 7.93966 3.49065 8.61845 3.49065H70.4366C71.1154 3.49065 71.673 4.04822 71.673 4.72701V11.7694H7.38208V4.72701ZM3.15178 27.6846L6.7639 14.2058H13.9397L11.6245 27.3088L11.6003 29.1149C11.6003 31.7816 9.1639 33.83 6.42451 33.2361C5.48937 33.0262 4.65396 32.5032 4.05659 31.7538C3.45922 31.0043 3.13573 30.0733 3.13966 29.1149V27.6846H3.15178Z" fill="black"/>
<path d="M57 45.5H29.5L33 59.5H52.5L57 45.5Z" fill="#25D3D9"/>
<path d="M29.3703 40.2305H22.0127V42.6547H27.4551L27.9036 44.5456L31.54 59.7699L33.043 66.0608H35.7218C34.9041 66.1606 34.151 66.5557 33.6042 67.1718C33.0573 67.7879 32.7543 68.5825 32.7521 69.4062C32.7521 71.2729 34.2672 72.788 36.146 72.788C38.0127 72.788 39.5278 71.2729 39.5278 69.4062C39.5278 67.685 38.2309 66.2668 36.5582 66.0608H49.4672C48.6495 66.1606 47.8965 66.5557 47.3496 67.1718C46.8028 67.7879 46.4997 68.5825 46.4975 69.4062C46.4975 71.2729 48.0127 72.788 49.8915 72.788C51.7582 72.788 53.2733 71.2729 53.2733 69.4062C53.2733 67.685 51.9763 66.2668 50.3036 66.0608H53.1521V63.6365H34.946L34.243 60.7032H54.0733L58.6551 44.5577H30.3885L29.3703 40.2305ZM37.0915 69.4062C37.0915 69.9396 36.6551 70.3638 36.1339 70.3638C35.6127 70.3638 35.1642 69.9274 35.1642 69.4062C35.1642 68.885 35.6006 68.4365 36.1339 68.4365C36.6672 68.4365 37.0915 68.8729 37.0915 69.4062ZM50.8491 69.4062C50.8491 69.9396 50.4127 70.3638 49.8915 70.3638C49.3703 70.3638 48.9218 69.9274 48.9218 69.4062C48.9218 68.885 49.3582 68.4365 49.8915 68.4365C50.4248 68.4365 50.8491 68.8729 50.8491 69.4062ZM55.443 46.9699L52.2309 58.2668H33.6612L30.9703 46.9699H55.443Z" fill="black"/>
<path d="M36.5098 49.1387H38.934V56.1084H36.5098V49.1387ZM42.037 49.1387H44.4613V56.1084H42.037V49.1387ZM47.5522 49.1387H49.9764V56.1084H47.5522V49.1387Z" fill="black"/>
</svg>
