<svg width="100%" height="100%" viewBox="0 0 80 80" fill="none" xmlns="http://www.w3.org/2000/svg">
<path d="M25.0001 57.9997C21.0001 57.1997 17.0001 62.333 15.5001 64.9997C15.5001 63.9994 7.50006 57.9997 5.00006 57C3.00006 47.5 8.00006 42 15.0001 39C24.0001 39.5 24.5001 50.9997 25.0001 57.9997Z" fill="#25D3D9"/>
<path d="M70 25H29C29.1667 24.3333 29.7 22.7 30.5 21.5C31.5 20 32 20 33.5 17.5C35 15 35 16 38 14.5C41 13 40.5 11 42 8.5C43.5 6 46.5 6.5 48.5 4.5C50.1 2.9 51.5 2.5 52 2.5C52.5 3.16667 53.9 4.7 55.5 5.5C57.5 6.5 59 9 60 11.5C62.5 12 63.5 15.5 64 16.5C64.5 17.5 67 19.5 68.5 20C69.7 20.4 70 23.5 70 25Z" fill="#25D3D9"/>
<path d="M8.75 52.5H11.25V55H8.75V52.5ZM8.75 47.5H11.25V50H8.75V47.5ZM13.75 52.5H16.25V55H13.75V52.5ZM13.75 57.5H16.25V60H13.75V57.5ZM18.75 52.5H21.25V55H18.75V52.5ZM13.75 47.5H16.25V50H13.75V47.5ZM18.75 47.5H21.25V50H18.75V47.5ZM13.75 42.5H16.25V45H13.75V42.5Z" fill="black"/>
<path d="M77.9625 54.6888L71.5737 33.3925C72.2221 33.0932 72.7714 32.6149 73.157 32.0139C73.5425 31.4128 73.7483 30.7141 73.75 30V27.5C73.75 25.7863 72.5875 24.3538 71.015 23.9075L70.2563 20.8725C70.121 20.3287 69.8693 19.8208 69.5186 19.3838C69.1679 18.9468 68.7265 18.5911 68.225 18.3413L65.3913 16.9238C65.2129 16.8346 65.0559 16.7079 64.9312 16.5524C64.8064 16.3968 64.7169 16.216 64.6688 16.0225L64.0625 13.6C63.9059 12.9654 63.5909 12.3809 63.1469 11.9013C62.7029 11.4216 62.1444 11.0625 61.5238 10.8575L60 10.3488V9.1275C60 7.64625 59.1775 6.315 57.8538 5.655L57.19 5.3225C57.0574 5.25588 56.9363 5.16853 56.8312 5.06375L54.155 2.3875C53.4249 1.66182 52.4382 1.25312 51.4087 1.25C50.7694 1.24941 50.1398 1.40694 49.576 1.70856C49.0122 2.01018 48.5318 2.44653 48.1775 2.97875L47.025 4.71C46.8341 4.99615 46.5436 5.20109 46.21 5.285L43.5025 5.96125C42.9065 6.11081 42.3545 6.39949 41.8917 6.80364C41.4289 7.20779 41.0685 7.71588 40.84 8.28625L39.3388 12.0363C39.2573 12.2394 39.1289 12.4203 38.9639 12.5641C38.799 12.708 38.6023 12.8107 38.39 12.8638L36.1 13.4375C35.4654 13.5941 34.8809 13.9091 34.4013 14.3531C33.9216 14.7971 33.5625 15.3556 33.3575 15.9763L32.9813 17.1063C32.845 17.5175 32.5175 17.8438 32.1062 17.98L31.4062 18.2138C31.3525 18.2313 31.3037 18.26 31.25 18.28V15C31.25 12.6188 27.0837 11.7488 23.75 11.4313V5C23.75 1.43125 14.3787 1.25 12.5 1.25C10.6213 1.25 1.25 1.43125 1.25 5V50C1.25 51.4238 2.705 52.1912 3.83625 52.5962C3.7875 53.18 3.75 53.765 3.75 54.3563V56.3125C3.3375 56.275 2.9225 56.25 2.5 56.25H1.25V65C1.25 72.5813 7.41875 78.75 15 78.75H60.06C70.365 78.75 78.75 70.365 78.75 60.06C78.75 58.24 78.485 56.4325 77.9625 54.6888ZM71.25 30C71.25 30.6888 70.6888 31.25 70 31.25H30C29.3113 31.25 28.75 30.6888 28.75 30V27.5C28.75 26.8113 29.3113 26.25 30 26.25H70C70.6888 26.25 71.25 26.8113 71.25 27.5V30ZM16.25 70C16.25 64.2188 20.6325 59.4425 26.25 58.8187V65C26.25 70.78 21.8662 75.5513 16.25 76.1763V70ZM21.5788 41.2163C23.1383 41.1654 24.692 41.0008 26.2275 40.7238L24.5863 46.195C23.8231 44.4021 22.8106 42.726 21.5788 41.2163ZM27.0513 37.9788C25.28 38.4638 22.7125 38.75 20 38.75C19.6812 38.75 19.37 38.7413 19.0588 38.7338C17.8594 37.9263 16.4458 37.4966 15 37.5C14.1888 37.5 13.4 37.6388 12.6525 37.8925C11.7863 37.63 11.3962 37.395 11.25 37.2825V32.55C14.165 33.6638 18.7463 33.75 20 33.75C22.9275 33.75 25.66 33.445 27.6575 32.905C27.8937 33.0963 28.1487 33.2625 28.4262 33.3925L27.0513 37.9788ZM6.94 43.3063C4.945 42.9513 4.0225 42.4975 3.75 42.2825V37.5563C5.22875 38.1213 7.12125 38.4188 8.75 38.575V40.8462C8.08664 41.6203 7.48164 42.4426 6.94 43.3063ZM3.75 30.055C5.22875 30.62 7.12125 30.9175 8.75 31.0738V36.0588C5.71875 35.7388 4.1375 35.1063 3.75 34.7763V30.055ZM3.75 22.555C5.22875 23.12 7.12125 23.4175 8.75 23.5738V28.5588C5.71875 28.2388 4.1375 27.6063 3.75 27.2763V22.555ZM3.75 15.0563C5.22875 15.6213 7.12125 15.9188 8.75 16.075V21.06C5.71875 20.74 4.1375 20.1075 3.75 19.7775V15.0563ZM26.3162 30.6563C24.6025 31.0325 22.355 31.25 20 31.25C14.8925 31.25 11.8375 30.305 11.25 29.7725V25.05C14.165 26.1638 18.7463 26.25 20 26.25C20.995 26.25 24.0837 26.1938 26.7762 25.6175C26.4351 26.1864 26.2534 26.8367 26.25 27.5V30C26.25 30.225 26.2787 30.4425 26.3162 30.6563ZM28.75 22.2725C28.1625 22.805 25.1075 23.75 20 23.75C14.8925 23.75 11.8375 22.805 11.25 22.2725V17.5588C14.1663 18.67 18.7475 18.75 20 18.75C21.2537 18.75 25.835 18.6638 28.75 17.55V22.2725ZM32.1963 20.5863L32.8962 20.3525C33.4675 20.1609 33.9866 19.8395 34.4128 19.4136C34.839 18.9876 35.1606 18.4687 35.3525 17.8975L35.7288 16.7675C35.8787 16.3163 36.245 15.9775 36.7062 15.8625L38.9975 15.29C39.5935 15.1404 40.1455 14.8518 40.6083 14.4476C41.0711 14.0435 41.4315 13.5354 41.66 12.965L43.1612 9.215C43.325 8.80375 43.68 8.495 44.1087 8.3875L46.8162 7.71125C47.7534 7.47691 48.5695 6.9015 49.105 6.0975L50.2588 4.3675C50.7175 3.67875 51.8025 3.57125 52.3887 4.1575L55.065 6.83375C55.3612 7.13 55.7013 7.375 56.0738 7.56125L56.7375 7.89375C57.2075 8.12625 57.5 8.6 57.5 9.1275V9.51625L55.395 8.815L54.6037 11.1863L60.7325 13.2288C61.1837 13.3788 61.5225 13.745 61.6375 14.2063L62.2437 16.6288C62.5187 17.73 63.2587 18.6538 64.275 19.16L67.1087 20.5775C67.47 20.7588 67.7337 21.0863 67.8313 21.4788L68.3988 23.75H53.4013L52.8312 22.04C52.6459 21.4883 52.3352 20.9871 51.9236 20.5757C51.5119 20.1642 51.0105 19.8538 50.4588 19.6688L47.895 18.8138L47.105 21.185L49.6688 22.04C50.04 22.1638 50.3363 22.4588 50.46 22.83L50.7663 23.75H31.25V21.8988C31.25 21.3025 31.63 20.775 32.1963 20.5863ZM20 16.25C15.5725 16.25 12.6688 15.5375 11.59 15C12.6675 14.4625 15.5725 13.75 20 13.75C24.4275 13.75 27.3313 14.4625 28.41 15C27.3313 15.5375 24.4275 16.25 20 16.25ZM12.5 3.75C16.9275 3.75 19.8313 4.4625 20.91 5C19.8313 5.5375 16.9275 6.25 12.5 6.25C8.0725 6.25 5.16875 5.5375 4.09 5C5.16875 4.4625 8.0725 3.75 12.5 3.75ZM12.5 8.75C13.7537 8.75 18.335 8.66375 21.25 7.55V11.2738C20.8335 11.2588 20.4168 11.2509 20 11.25C18.405 11.25 11.43 11.3888 9.3525 13.6113C5.94125 13.315 4.16125 12.6275 3.75 12.2763V7.55875C6.66625 8.67 11.2475 8.75 12.5 8.75ZM3.75 49.7825V45.065C4.3025 45.2712 4.9525 45.4525 5.69125 45.61C5.02916 47.0263 4.53053 48.5134 4.205 50.0425C4.04532 49.9707 3.89294 49.8836 3.75 49.7825ZM6.25 54.3563C6.25 49.4625 8.155 44.8612 11.6163 41.4012C13.4237 39.5937 16.5763 39.5937 18.3837 41.4012C20.0904 43.0985 21.4435 45.1175 22.3646 47.3412C23.2857 49.5649 23.7566 51.9493 23.75 54.3563V56.7763C21.8378 57.322 20.066 58.2744 18.5558 59.5682C17.0456 60.8619 15.8327 62.4666 15 64.2725C14.1673 62.4666 12.9544 60.8619 11.4442 59.5682C9.93403 58.2744 8.16224 57.322 6.25 56.7763V54.3563ZM3.75 65V58.8187C9.3675 59.4425 13.75 64.2188 13.75 70V76.1763C8.13375 75.5513 3.75 70.78 3.75 65ZM28.75 65V61.25H29.9925C30.47 61.25 30.9187 61.4362 31.2562 61.7738L32.2712 62.7887C32.8212 63.3387 33.51 63.7287 34.2625 63.9162L37.0913 64.6238C37.5975 64.75 38.0225 65.0913 38.2562 65.56C38.5325 66.1133 38.9255 66.6002 39.408 66.9871C39.8905 67.3741 40.4511 67.6518 41.0513 67.8013L43.3413 68.3737C43.8475 68.5 44.2725 68.8412 44.505 69.3063L44.5687 69.4338C44.8193 69.9383 45.1673 70.3883 45.5928 70.7575C46.0182 71.1268 46.5127 71.408 47.0475 71.585L48.2675 71.9912C48.7675 72.1575 49.1662 72.5337 49.3612 73.0238L50.6537 76.25H31.25V75.295C31.25 74.8187 31.515 74.39 31.9412 74.1775L33.06 73.6188L31.9412 71.3825L30.8225 71.9413C30.1982 72.2508 29.6731 72.729 29.3068 73.3218C28.9404 73.9146 28.7476 74.5982 28.75 75.295V76.25H22.8813C26.4237 73.76 28.75 69.65 28.75 65ZM60.06 76.25H53.3462L51.6838 72.0938C51.4528 71.5149 51.0983 70.9936 50.6449 70.5661C50.1915 70.1385 49.6501 69.8152 49.0588 69.6188L47.8387 69.2125C47.616 69.1394 47.41 69.0227 47.2328 68.8693C47.0555 68.7159 46.9105 68.5287 46.8063 68.3187L46.7425 68.1913C46.4662 67.6379 46.0733 67.151 45.5908 66.7641C45.1083 66.3772 44.5477 66.0994 43.9475 65.95L41.6575 65.3775C41.4072 65.315 41.1733 65.1989 40.9722 65.0373C40.7711 64.8756 40.6074 64.6723 40.4925 64.4413C40.2162 63.8879 39.8233 63.401 39.3408 63.0141C38.8583 62.6272 38.2977 62.3494 37.6975 62.2L34.8675 61.4925C34.5535 61.4137 34.2666 61.2513 34.0375 61.0225L33.0225 60.0075C32.626 59.6076 32.1539 59.2905 31.6337 59.0746C31.1136 58.8587 30.5557 58.7484 29.9925 58.75H28.75V56.25H27.5C27.0775 56.25 26.6625 56.275 26.25 56.3125V54.3563C26.25 53.0625 26.1212 51.79 25.8912 50.545L30.93 33.75H69.07L75.5675 55.4075C76.02 56.9175 76.25 58.4837 76.25 60.06C76.25 68.9863 68.9863 76.25 60.06 76.25Z" fill="black"/>
<path d="M63.75 43.8763V41.25H61.25V43.75H56.25V50C56.25 53.4463 59.0537 56.25 62.5 56.25C64.5675 56.25 66.25 57.9325 66.25 60V63.75H62.5C60.4325 63.75 58.75 62.0675 58.75 60V56.25H56.25V60C56.2523 61.44 56.7508 62.8352 57.6615 63.9506C58.5723 65.066 59.8395 65.8335 61.25 66.1238V68.75H63.75V66.25H68.75V60C68.75 56.5538 65.9462 53.75 62.5 53.75C60.4325 53.75 58.75 52.0675 58.75 50V46.25H62.5C64.5675 46.25 66.25 47.9325 66.25 50V53.75H68.75V50C68.7476 48.56 68.2491 47.1649 67.3384 46.0495C66.4277 44.9341 65.1604 44.1666 63.75 43.8763ZM33.005 68.8038L33.8825 70.5588L36.1187 69.44L35.2412 67.6838C34.8762 66.9601 34.2887 66.3725 33.565 66.0075L31.81 65.13L30.6912 67.3663L32.445 68.2425C32.685 68.365 32.885 68.565 33.005 68.8038ZM38.75 74.2675C39.4075 73.61 40.5925 73.61 41.25 74.2675L41.6162 74.6338L43.3837 72.8663L43.0175 72.5C41.4062 70.8875 38.5937 70.8875 36.9825 72.5L36.6162 72.8663L38.3837 74.6338L38.75 74.2675ZM46.1912 13.9275C46.9925 13.5238 48.04 13.8738 48.4412 14.6775L48.8825 15.56L51.1187 14.4413L50.6775 13.56C50.3328 12.8643 49.8001 12.279 49.1397 11.8707C48.4793 11.4624 47.7176 11.2474 46.9412 11.25C46.2926 11.2508 45.6529 11.4019 45.0725 11.6913L43.1912 12.6325L44.31 14.8688L46.1912 13.9275ZM58.3225 19.4413L58.8812 20.56L61.1175 19.4413L60.5587 18.3225C60.2492 17.6982 59.7709 17.1731 59.1781 16.8068C58.5854 16.4405 57.9018 16.2476 57.205 16.25H55V18.75H57.205C57.6812 18.75 58.11 19.015 58.3225 19.4413ZM41.5812 20.4588C41.7467 19.9609 42.0649 19.5278 42.4906 19.2211C42.9163 18.9143 43.4278 18.7495 43.9525 18.75H45V16.25H43.9525C42.9029 16.2487 41.8796 16.5784 41.0281 17.1921C40.1767 17.8059 39.5405 18.6726 39.21 19.6688L38.815 20.855L41.1862 21.6463L41.5812 20.4588ZM47.8662 40.3663L44.375 43.8575L41.7675 41.25L44.6337 38.3838L42.8662 36.6163L40 39.4825L37.1337 36.6163L35.3662 38.3838L38.2325 41.25L35.625 43.8575L32.1337 40.3663L30.3662 42.1338L33.8575 45.625L30.3662 49.1163L32.1337 50.8838L35.625 47.3925L38.2325 50L35.3662 52.8663L37.1337 54.6338L40 51.7675L42.8662 54.6338L44.6337 52.8663L41.7675 50L44.375 47.3925L47.8662 50.8838L49.6337 49.1163L46.1425 45.625L49.6337 42.1338L47.8662 40.3663ZM40 48.2325L37.3925 45.625L40 43.0175L42.6075 45.625L40 48.2325Z" fill="black"/>
</svg>
