<svg width="100%" height="100%" viewBox="0 0 80 80" fill="none" xmlns="http://www.w3.org/2000/svg">
<g clip-path="url(#clip0_17_2528)">
<path d="M53 13L50.5 16.5L45.5 12L49 9L52 10L53 13Z" fill="#23D7D4"/>
<path d="M32.0001 34.5L5.50009 60.5C1.10009 62.9 1.00009 59.5 1.50009 57.5L28.5001 29.5L32.0001 34.5Z" fill="#23D7D4"/>
<path d="M70.631 42.6327C70.1602 41.833 69.4894 41.1697 68.6845 40.708C67.8795 40.2463 66.9683 40.002 66.0404 39.9993H61.1244C59.179 33.2434 55.5999 27.0705 50.703 22.026C50.5359 21.8201 50.4339 21.5691 50.4102 21.305C50.3864 21.0409 50.442 20.7757 50.5697 20.5433C51.1225 19.3639 51.3163 18.048 51.127 16.7593L51.1404 16.75L53.027 14.8646C53.775 14.1135 54.1949 13.0967 54.1949 12.0366C54.1949 10.9766 53.775 9.95979 53.027 9.20865C52.2642 8.48217 51.2511 8.07697 50.1977 8.07697C49.1443 8.07697 48.1312 8.48217 47.3684 9.20865L45.4804 11.094L45.4724 11.1073C44.1841 10.9187 42.8688 11.1125 41.6897 11.6646C41.4572 11.7927 41.1917 11.8484 40.9273 11.8246C40.663 11.8009 40.4117 11.6987 40.2057 11.5313C30.667 2.66598 21.579 0.368648 15.6324 -0.000685752C15.0153 -0.0463774 14.402 0.128722 13.9021 0.493357C13.4021 0.857992 13.048 1.38843 12.903 1.98998C12.7406 2.59183 12.7962 3.23172 13.06 3.79655C13.3237 4.36138 13.7786 4.81479 14.3444 5.07665C21.2303 8.33785 27.5896 12.6109 33.211 17.754C33.3344 17.8677 33.4336 18.0051 33.5027 18.158C33.5718 18.3109 33.6094 18.4761 33.6133 18.6439C33.6171 18.8116 33.5872 18.9784 33.5252 19.1343C33.4632 19.2902 33.3704 19.432 33.2524 19.5513L29.2924 23.5113C28.6361 24.1685 28.1242 24.9553 27.7893 25.8215C27.4543 26.6877 27.3037 27.6143 27.347 28.542C27.3564 28.7446 27.411 28.942 27.4377 29.1367L1.17102 55.4033C0.799204 55.7746 0.50416 56.2155 0.302733 56.7008C0.101307 57.1861 -0.00255725 57.7064 -0.00292869 58.2318C-0.00330013 58.7573 0.0998283 59.2777 0.300568 59.7633C0.501308 60.2489 0.795729 60.6902 1.16702 61.062C1.53831 61.4338 1.9792 61.7288 2.46452 61.9303C2.94983 62.1317 3.47007 62.2356 3.99552 62.2359C4.52098 62.2363 5.04136 62.1332 5.52696 61.9324C6.01257 61.7317 6.45387 61.4373 6.82569 61.066L33.103 34.7847C34.1547 34.9086 35.2208 34.7931 36.2215 34.4468C37.2222 34.1004 38.1317 33.5322 38.8817 32.7847L42.6804 28.9846C42.7972 28.8652 42.9378 28.7715 43.093 28.7095C43.2482 28.6475 43.4147 28.6186 43.5817 28.6246C43.7504 28.6269 43.9169 28.6635 44.0709 28.7323C44.225 28.801 44.3634 28.9005 44.4777 29.0246C47.5944 32.4143 50.3866 36.0886 52.8177 39.9993H48.6404C47.7127 40.0017 46.8017 40.2457 45.9969 40.7072C45.1922 41.1687 44.5216 41.8319 44.051 42.6313L35.4284 57.298C34.9404 58.1158 34.6828 59.0504 34.6828 60.0027C34.6828 60.955 34.9404 61.8895 35.4284 62.7073L44.0537 77.374C44.525 78.1716 45.1957 78.8331 45.9998 79.2933C46.8039 79.7536 47.7138 79.9969 48.6404 79.9993H66.0404C66.9678 79.9967 67.8786 79.7527 68.6833 79.2915C69.4879 78.8303 70.1587 78.1676 70.6297 77.3687L79.271 62.702C79.7508 61.8826 80.0036 60.9502 80.0036 60.0007C80.0036 59.0511 79.7508 58.1187 79.271 57.2993L70.631 42.6327ZM49.2524 11.094C49.5071 10.8531 49.8444 10.7189 50.195 10.7189C50.5456 10.7189 50.8829 10.8531 51.1377 11.094C51.3877 11.344 51.5281 11.6831 51.5281 12.0366C51.5281 12.3902 51.3877 12.7293 51.1377 12.9793L50.087 14.03C49.6098 13.2666 48.9651 12.6219 48.2017 12.1446L49.2524 11.094ZM4.94035 59.178C4.81647 59.3018 4.66942 59.4 4.5076 59.4669C4.34578 59.5339 4.17235 59.5683 3.99722 59.5683C3.82208 59.5682 3.64868 59.5336 3.4869 59.4666C3.32513 59.3995 3.17815 59.3012 3.05435 59.1773C2.93056 59.0534 2.83238 58.9064 2.76542 58.7446C2.69845 58.5827 2.66402 58.4093 2.66408 58.2342C2.66414 58.0591 2.6987 57.8856 2.76578 57.7239C2.83285 57.5621 2.93114 57.4151 3.05502 57.2913L28.471 31.874C28.8271 32.4368 29.2658 32.9429 29.7724 33.3753C29.9581 33.516 30.1518 33.646 30.3524 33.7646L4.94035 59.178ZM43.6337 25.9513H43.5537C43.0412 25.9497 42.5336 26.0497 42.06 26.2456C41.5865 26.4415 41.1565 26.7294 40.795 27.0926L36.9964 30.8927C36.2888 31.6304 35.3344 32.0817 34.3153 32.1607C33.2962 32.2396 32.2837 31.9406 31.471 31.3207C31.0387 30.9666 30.6853 30.5259 30.4337 30.0269C30.1821 29.528 30.0378 28.9818 30.0102 28.4237C29.9826 27.8656 30.0722 27.3079 30.2733 26.7865C30.4743 26.2651 30.7824 25.7917 31.1777 25.3967L35.139 21.4366C35.5105 21.0634 35.8029 20.6191 35.9988 20.1303C36.1947 19.6415 36.29 19.1182 36.279 18.5917C36.2681 18.0652 36.1511 17.5464 35.9351 17.0661C35.719 16.5859 35.4084 16.1541 35.0217 15.7966C29.1983 10.4646 22.6064 6.03826 15.467 2.66598C20.9817 3.00331 29.4364 5.15398 38.391 13.4806C38.986 14.0139 39.7275 14.3558 40.5193 14.4621C41.3111 14.5684 42.1165 14.4341 42.831 14.0766C43.5772 13.7225 44.4147 13.608 45.2286 13.7489C46.0425 13.8898 46.7928 14.2792 47.3764 14.8636C47.9601 15.448 48.3486 16.1988 48.4885 17.0128C48.6284 17.8269 48.5128 18.6642 48.1577 19.41C47.7993 20.1238 47.6642 20.9291 47.77 21.7208C47.8759 22.5125 48.2177 23.254 48.751 23.8486C57.079 32.8046 59.2284 41.258 59.579 46.782C59.5742 46.7753 59.5702 46.7682 59.567 46.7607C56.1908 39.6298 51.7657 33.0448 46.439 27.2247C46.0829 26.8324 45.6503 26.5171 45.1679 26.2982C44.6855 26.0792 44.1634 25.9612 43.6337 25.9513ZM76.967 61.3487L68.3257 76.0153C68.0917 76.4142 67.758 76.7454 67.3573 76.9764C66.9567 77.2073 66.5028 77.3301 66.0404 77.3327H48.6404C48.1771 77.3312 47.7223 77.209 47.3206 76.9782C46.9189 76.7475 46.5843 76.4161 46.3497 76.0167L37.719 61.35C37.4752 60.9429 37.3465 60.4772 37.3465 60.0027C37.3465 59.5281 37.4752 59.0625 37.719 58.6553L46.347 43.9887C46.581 43.5876 46.9157 43.2546 47.318 43.0226C47.7202 42.7906 48.176 42.6677 48.6404 42.666H54.4137C55.3929 44.3717 56.3073 46.1139 57.155 47.8887C57.3666 48.3465 57.7053 48.734 58.1308 49.0049C58.5563 49.2758 59.0506 49.4187 59.555 49.4167C59.7865 49.4176 60.0172 49.3894 60.2417 49.3327C60.8405 49.1855 61.368 48.8314 61.7311 48.3329C62.0941 47.8345 62.2693 47.2238 62.2257 46.6087C62.1431 45.2855 61.9788 43.9688 61.7337 42.666H66.0404C66.5037 42.6676 66.9587 42.79 67.3603 43.021C67.762 43.252 68.0966 43.5836 68.331 43.9833L76.9697 58.65C77.2087 59.0594 77.3348 59.525 77.335 59.9991C77.3353 60.4733 77.2097 60.939 76.971 61.3487H76.967Z" fill="black"/>
<path d="M66.0401 29.332C65.6865 29.332 65.3474 29.4725 65.0973 29.7226C64.8473 29.9726 64.7068 30.3117 64.7068 30.6654C64.7068 31.019 64.8473 31.3581 65.0973 31.6082C65.3474 31.8582 65.6865 31.9987 66.0401 31.9987C68.3628 32.0037 70.6441 32.6138 72.6592 33.7688C74.6743 34.9238 76.3538 36.5838 77.5321 38.5854C77.6206 38.7365 77.7381 38.8687 77.8777 38.9744C78.0173 39.0801 78.1763 39.1573 78.3457 39.2016C78.5152 39.2459 78.6917 39.2563 78.8652 39.2324C79.0386 39.2084 79.2057 39.1505 79.3568 39.062C79.5079 38.9735 79.6401 38.8561 79.7458 38.7165C79.8516 38.5769 79.9288 38.4179 79.973 38.2484C80.0173 38.079 80.0278 37.9025 80.0038 37.729C79.9799 37.5555 79.922 37.3885 79.8335 37.2374C78.4192 34.835 76.4034 32.8425 73.9847 31.4563C71.566 30.0701 68.8279 29.3379 66.0401 29.332ZM72.9335 41.2827C73.0513 41.4835 73.2196 41.65 73.4217 41.7655C73.6238 41.8811 73.8527 41.9417 74.0855 41.9414C74.3201 41.9406 74.5503 41.877 74.7521 41.7574C75.0571 41.5785 75.2785 41.2859 75.3678 40.9439C75.457 40.6019 75.4068 40.2384 75.2281 39.9334C74.286 38.333 72.9433 37.0055 71.3322 36.0818C69.7212 35.1581 67.8972 34.6699 66.0401 34.6654C65.6865 34.6654 65.3474 34.8058 65.0973 35.0559C64.8473 35.3059 64.7068 35.6451 64.7068 35.9987C64.7068 36.3523 64.8473 36.6915 65.0973 36.9415C65.3474 37.1916 65.6865 37.332 66.0401 37.332C67.4334 37.3348 68.8018 37.7006 70.0106 38.3934C71.2194 39.0862 72.2268 40.082 72.9335 41.2827ZM51.0428 66.6134C51.321 66.5335 51.5656 66.3653 51.7397 66.1341C51.9139 65.903 52.0081 65.6214 52.0081 65.332V54.6654C52.0081 54.3117 51.8677 53.9726 51.6176 53.7226C51.3676 53.4725 51.0284 53.332 50.6748 53.332C50.3212 53.332 49.982 53.4725 49.732 53.7226C49.4819 53.9726 49.3415 54.3117 49.3415 54.6654V60.684L45.1388 53.9587C44.9854 53.7132 44.7562 53.5243 44.4859 53.4206C44.2156 53.3168 43.9189 53.3039 43.6406 53.3837C43.3623 53.4635 43.1175 53.6317 42.9433 53.863C42.769 54.0942 42.6748 54.3758 42.6748 54.6654V65.332C42.6748 65.6857 42.8153 66.0248 43.0653 66.2748C43.3154 66.5249 43.6545 66.6654 44.0081 66.6654C44.3618 66.6654 44.7009 66.5249 44.9509 66.2748C45.201 66.0248 45.3415 65.6857 45.3415 65.332V59.3134L49.5441 66.0387C49.664 66.2305 49.8306 66.3886 50.0284 66.4982C50.2262 66.6079 50.4487 66.6654 50.6748 66.6654C50.7993 66.6651 50.9231 66.6476 51.0428 66.6134ZM56.0081 66.6654C56.3618 66.6654 56.7009 66.5249 56.9509 66.2748C57.201 66.0248 57.3415 65.6857 57.3415 65.332V61.332H60.0081C60.3618 61.332 60.7009 61.1916 60.9509 60.9415C61.201 60.6915 61.3415 60.3523 61.3415 59.9987C61.3415 59.6451 61.201 59.3059 60.9509 59.0559C60.7009 58.8058 60.3618 58.6654 60.0081 58.6654H57.3415V55.9987H61.3415C61.6951 55.9987 62.0342 55.8582 62.2843 55.6082C62.5343 55.3581 62.6748 55.019 62.6748 54.6654C62.6748 54.3117 62.5343 53.9726 62.2843 53.7226C62.0342 53.4725 61.6951 53.332 61.3415 53.332H56.0081C55.6545 53.332 55.3154 53.4725 55.0653 53.7226C54.8153 53.9726 54.6748 54.3117 54.6748 54.6654V65.332C54.6748 65.6857 54.8153 66.0248 55.0653 66.2748C55.3154 66.5249 55.6545 66.6654 56.0081 66.6654ZM70.6748 53.332H65.3415C64.9879 53.332 64.6487 53.4725 64.3987 53.7226C64.1486 53.9726 64.0081 54.3117 64.0081 54.6654C64.0081 55.019 64.1486 55.3581 64.3987 55.6082C64.6487 55.8582 64.9879 55.9987 65.3415 55.9987H66.6748V65.332C66.6748 65.6857 66.8153 66.0248 67.0653 66.2748C67.3154 66.5249 67.6545 66.6654 68.0081 66.6654C68.3618 66.6654 68.7009 66.5249 68.9509 66.2748C69.201 66.0248 69.3415 65.6857 69.3415 65.332V55.9987H70.6748C71.0284 55.9987 71.3676 55.8582 71.6176 55.6082C71.8677 55.3581 72.0081 55.019 72.0081 54.6654C72.0081 54.3117 71.8677 53.9726 71.6176 53.7226C71.3676 53.4725 71.0284 53.332 70.6748 53.332ZM62.6748 69.332H52.0081C51.6545 69.332 51.3154 69.4725 51.0653 69.7226C50.8153 69.9726 50.6748 70.3117 50.6748 70.6654C50.6748 71.019 50.8153 71.3581 51.0653 71.6082C51.3154 71.8582 51.6545 71.9987 52.0081 71.9987H62.6748C63.0284 71.9987 63.3676 71.8582 63.6176 71.6082C63.8677 71.3581 64.0081 71.019 64.0081 70.6654C64.0081 70.3117 63.8677 69.9726 63.6176 69.7226C63.3676 69.4725 63.0284 69.332 62.6748 69.332Z" fill="black"/>
</g>
<defs>
<clipPath id="clip0_17_2528">
<rect width="80" height="80" fill="white"/>
</clipPath>
</defs>
</svg>
