<svg width="100%" height="100%" viewBox="0 0 80 80" fill="none" xmlns="http://www.w3.org/2000/svg">
<path d="M34.167 21.4649H34.8132V35.8499C33.9007 35.7549 32.9545 36.0249 32.9232 37.0999C32.9557 38.1712 33.8945 38.4449 34.8132 38.3499V39.2437C34.8132 39.5752 34.9449 39.8931 35.1794 40.1276C35.4138 40.362 35.7317 40.4937 36.0632 40.4937C36.3948 40.4937 36.7127 40.362 36.9471 40.1276C37.1815 39.8931 37.3132 39.5752 37.3132 39.2437V38.3499H39.267V39.2424C39.267 39.5739 39.3987 39.8919 39.6331 40.1263C39.8675 40.3607 40.1855 40.4924 40.517 40.4924C40.8485 40.4924 41.1665 40.3607 41.4009 40.1263C41.6353 39.8919 41.767 39.5739 41.767 39.2424V38.3337C43.0324 38.3033 44.2478 37.8334 45.2046 37.0046C46.1613 36.1759 46.7998 35.0399 47.0103 33.7917C47.2209 32.5436 46.9904 31.2611 46.3584 30.1643C45.7265 29.0675 44.7324 28.225 43.547 27.7812C44.045 27.1542 44.3974 26.4243 44.5788 25.6444C44.7601 24.8645 44.7658 24.054 44.5954 23.2716C44.4251 22.4892 44.0829 21.7545 43.5937 21.1205C43.1046 20.4866 42.4806 19.9694 41.767 19.6062V18.0762C41.767 17.7447 41.6353 17.4267 41.4009 17.1923C41.1665 16.9579 40.8485 16.8262 40.517 16.8262C40.1855 16.8262 39.8675 16.9579 39.6331 17.1923C39.3987 17.4267 39.267 17.7447 39.267 18.0762V18.9649C39.2532 18.9499 37.3295 18.9724 37.3132 18.9637V18.0762C37.3132 17.7447 37.1815 17.4267 36.9471 17.1923C36.7127 16.9579 36.3948 16.8262 36.0632 16.8262C35.7317 16.8262 35.4138 16.9579 35.1794 17.1923C34.9449 17.4267 34.8132 17.7447 34.8132 18.0762V18.9637H34.167C33.8355 18.9637 33.5175 19.0954 33.2831 19.3298C33.0487 19.5642 32.917 19.8822 32.917 20.2137C32.917 20.5452 33.0487 20.8631 33.2831 21.0976C33.5175 21.332 33.8355 21.4637 34.167 21.4637V21.4649ZM44.582 32.8812C44.5813 33.6687 44.2682 34.4237 43.7114 34.9805C43.1545 35.5374 42.3995 35.8505 41.612 35.8512H37.312V29.9062C37.312 29.9062 41.582 29.9062 41.612 29.9124C42.3993 29.9131 43.1541 30.226 43.7109 30.7826C44.2677 31.3392 44.581 32.0939 44.582 32.8812ZM39.247 21.4649C40.0243 21.4809 40.7644 21.8008 41.3085 22.3562C41.8526 22.9116 42.1573 23.6581 42.1573 24.4355C42.1573 25.213 41.8526 25.9595 41.3085 26.5149C40.7644 27.0702 40.0243 27.3902 39.247 27.4062H37.3132V21.4649H39.247Z" fill="black"/>
<path d="M46.5 64.9992C51.1667 66.3326 61.5 65.9992 65.5 53.9992C63 51.9992 46.5 49.4992 46.5 64.9992Z" fill="url(#paint0_linear_17_3292)"/>
<path d="M34 64.9992C29.3333 66.3326 19 65.9992 15 53.9992C17.5 51.9992 34 49.4992 34 64.9992Z" fill="url(#paint1_linear_17_3292)"/>
<path d="M66.6012 52.6178C66.4093 52.284 66.1332 52.0064 65.8005 51.8127C65.4677 51.619 65.0899 51.516 64.7049 51.5141L58.7387 51.4628C56.2472 51.4501 53.8022 52.1378 51.6827 53.4476C49.5631 54.7573 47.8543 56.6363 46.7512 58.8703L44.1062 64.2691L41.2499 65.9316V52.2603C44.9136 52.0747 48.4828 51.0331 51.6712 49.2191C57.1257 46.0835 61.1159 40.9148 62.7685 34.8442C64.421 28.7736 63.6013 22.2955 60.4887 16.8278C54.2012 5.70657 38.9587 1.50657 28.0299 8.28657C16.9687 14.4791 12.8837 29.9441 19.6649 40.6991C21.6466 44.0499 24.4261 46.8587 27.7558 48.8756C31.0856 50.8925 34.8623 52.0548 38.7499 52.2591V65.9303L35.8937 64.2678L33.2499 58.8678C32.155 56.6504 30.4631 54.7825 28.3646 53.4741C26.2661 52.1657 23.8441 51.4688 21.3712 51.4616H21.2612L15.2937 51.5116C14.9107 51.5189 14.5361 51.6248 14.206 51.8189C13.8759 52.0131 13.6013 52.289 13.4087 52.6201C13.2162 52.9512 13.1122 53.3263 13.1067 53.7092C13.1012 54.0922 13.1944 54.4701 13.3774 54.8066L16.2774 60.0216C17.4302 62.0782 19.109 63.7914 21.1419 64.9856C23.1747 66.1798 25.4885 66.8122 27.8462 66.8178C28.0962 66.7953 34.1962 66.4853 34.6362 66.4278L38.7499 68.8253V73.7503C38.7499 74.0818 38.8816 74.3998 39.116 74.6342C39.3504 74.8686 39.6684 75.0003 39.9999 75.0003C40.3314 75.0003 40.6494 74.8686 40.8838 74.6342C41.1182 74.3998 41.2499 74.0818 41.2499 73.7503V68.8253L45.3637 66.4291C45.8162 66.4878 51.8649 66.8203 52.1537 66.8191C54.5115 66.8135 56.8255 66.1812 58.8586 64.987C60.8916 63.7928 62.5707 62.0795 63.7237 60.0228L66.6224 54.8078C66.8107 54.4728 66.9078 54.0943 66.9041 53.71C66.9003 53.3257 66.7959 52.9491 66.6012 52.6178ZM28.4824 64.2991C26.4661 64.4096 24.4591 63.9538 22.6883 62.9832C20.9176 62.0125 19.4538 60.5658 18.4624 58.8066L15.7949 54.0103L21.2824 53.9628C23.3053 53.9411 25.2928 54.4941 27.0139 55.5573C28.735 56.6205 30.1189 58.1504 31.0049 59.9691L32.9924 64.0253L28.4824 64.2991ZM30.5449 47.5653L32.4074 44.3341C34.7766 45.4839 37.376 46.0807 40.0095 46.0794C42.643 46.0781 45.2418 45.4788 47.6099 44.3266L49.4762 47.5566C46.5383 49.0296 43.2974 49.7973 40.0109 49.7988C36.7245 49.8004 33.4829 49.0356 30.5437 47.5653H30.5449ZM25.0624 28.6628C25.0667 24.7025 26.6419 20.9056 29.4423 18.1052C32.2427 15.3048 36.0396 13.7296 39.9999 13.7253C59.8149 14.5466 59.8099 42.7816 39.9999 43.5991C36.0396 43.5948 32.2427 42.0196 29.4423 39.2192C26.6419 36.4188 25.0667 32.6232 25.0624 28.6628ZM51.6424 46.3128L49.7799 43.0878C51.6101 41.8425 53.1886 40.2627 54.4324 38.4316L57.6574 40.2941C56.0774 42.6846 54.0317 44.7308 51.6424 46.3128ZM58.8999 38.1228L55.6687 36.2603C56.8192 33.8914 57.4167 31.2922 57.416 28.6586C57.4154 26.0251 56.8166 23.4261 55.6649 21.0578L58.8949 19.1916C60.3671 22.1296 61.1341 25.3704 61.135 28.6566C61.1359 31.9428 60.3706 35.184 58.8999 38.1228ZM57.6524 17.0228L54.4274 18.8853C53.1826 17.0548 51.6033 15.4759 49.7724 14.2316L51.6349 11.0053C54.0247 12.586 56.0713 14.6321 57.6524 17.0216V17.0228ZM49.4649 9.76282L47.5999 12.9941C45.2287 11.8418 42.6266 11.2438 39.9903 11.2451C37.354 11.2464 34.7525 11.847 32.3824 13.0016L30.5137 9.77157C33.4539 8.29581 36.6979 7.52658 39.9876 7.52506C43.2774 7.52354 46.5234 8.28978 49.4649 9.76282ZM28.3462 11.0166L30.2124 14.2416C28.3825 15.4877 26.8044 17.0684 25.5612 18.9003L22.3349 17.0403C23.9133 14.6483 25.9578 12.6004 28.3462 11.0166ZM21.0937 19.2103L24.3262 21.0728C23.177 23.4424 22.581 26.042 22.5832 28.6755C22.5853 31.309 23.1856 33.9076 24.3387 36.2753L21.1074 38.1428C19.6338 35.2052 18.8654 31.9645 18.8633 28.678C18.8611 25.3916 19.624 22.1499 21.0937 19.2103ZM22.3512 40.3103L25.5762 38.4453C26.8218 40.276 28.402 41.8549 30.2337 43.0991L28.3737 46.3241C25.9824 44.7451 23.9341 42.6989 22.3512 40.3103ZM61.5387 58.8066C60.549 60.5676 59.0853 62.0158 57.3139 62.9866C55.5425 63.9575 53.5343 64.4122 51.5174 64.2991L47.0087 64.0241L48.9962 59.9691C49.8884 58.1556 51.2736 56.6302 52.993 55.5679C54.7124 54.5056 56.6964 53.9493 58.7174 53.9628L64.2049 54.0103L61.5387 58.8066Z" fill="black"/>
<defs>
<linearGradient id="paint0_linear_17_3292" x1="56" y1="52.5078" x2="56" y2="65.5333" gradientUnits="userSpaceOnUse">
<stop stop-color="#2CC8E9"/>
<stop offset="1" stop-color="#1EDEC9"/>
</linearGradient>
<linearGradient id="paint1_linear_17_3292" x1="24.5" y1="52.5078" x2="24.5" y2="65.5333" gradientUnits="userSpaceOnUse">
<stop stop-color="#2CC8E9"/>
<stop offset="1" stop-color="#1EDEC9"/>
</linearGradient>
</defs>
</svg>
