<svg width="100%" height="100%" viewBox="0 0 70 70" fill="none" xmlns="http://www.w3.org/2000/svg">
<circle cx="24.5005" cy="45.5" r="20.5" fill="url(#paint0_linear_17_2112)"/>
<path fill-rule="evenodd" clip-rule="evenodd" d="M44.4834 54.8677H64.0317C64.3813 54.8661 64.7161 54.7265 64.9633 54.4793C65.2105 54.2322 65.3501 53.8974 65.3517 53.5478V47.8934C65.3501 47.5438 65.2105 47.2091 64.9633 46.9619C64.7161 46.7147 64.3813 46.5751 64.0317 46.5735H46.5488C46.4108 49.4469 45.709 52.2651 44.4834 54.8677ZM49.6527 32.9927V44.386H64.0317C64.9614 44.3879 65.8524 44.7581 66.5097 45.4154C67.1671 46.0728 67.5373 46.9638 67.5392 47.8934V53.5478C67.5394 54.4468 67.1931 55.3112 66.5725 55.9615C67.1931 56.6118 67.5393 57.4762 67.5392 58.3751V64.0295C67.5373 64.9591 67.1671 65.8501 66.5098 66.5074C65.8525 67.1648 64.9615 67.5349 64.0319 67.5369H26.9321C26.7082 67.528 26.485 67.5052 26.2638 67.4685C25.688 67.5141 25.1062 67.5369 24.5184 67.5369C20.2024 67.5368 15.9814 66.2706 12.378 63.895C8.77472 61.5195 5.94748 58.139 4.24658 54.1724C2.54568 50.2058 2.04585 45.8273 2.809 41.5794C3.57216 37.3315 5.56477 33.4008 8.54 30.2743C11.5152 27.1477 15.3423 24.9627 19.5472 23.99C23.752 23.0172 28.1499 23.2994 32.196 24.8016C36.242 26.3038 39.7585 28.96 42.3097 32.4411C44.8609 35.9223 46.3348 40.0754 46.5488 44.386H47.4648V32.9927L44.6615 28.1369C39.6148 27.4154 35.1121 23.4519 32.4508 18.8423C30.9045 16.164 29.9934 13.3521 29.6926 10.695C29.3761 7.8988 29.7336 5.25726 30.7344 3.09587L30.7362 3.09683C30.8302 2.89331 30.9846 2.72371 31.1785 2.61117C31.3723 2.49862 31.5962 2.4486 31.8195 2.46792C34.1963 2.68175 36.6655 3.69429 38.9304 5.36759C43.4581 8.71296 46.7312 14.3852 47.3642 19.9768C47.6555 22.5504 47.3762 24.9929 46.5494 27.0506L48.5591 30.5314L50.5689 27.0506C49.742 24.9929 49.4627 22.5504 49.754 19.9769C50.387 14.3851 53.6601 8.71283 58.1879 5.36759C60.4528 3.69416 62.922 2.68175 65.2987 2.46792C65.522 2.4486 65.7459 2.49862 65.9398 2.61117C66.1336 2.72371 66.2881 2.89331 66.382 3.09683L66.3838 3.09587C67.3852 5.25726 67.7421 7.8988 67.4256 10.695C66.7926 16.2868 63.5194 21.959 58.9917 25.3043C56.9093 26.843 54.654 27.8227 52.4566 28.1369L49.6529 32.9931L49.6527 32.9927ZM43.1662 25.5466L37.5842 15.8783C37.5129 15.7543 37.4668 15.6175 37.4484 15.4756C37.43 15.3338 37.4397 15.1897 37.477 15.0517C37.5143 14.9136 37.5784 14.7843 37.6657 14.671C37.753 14.5577 37.8617 14.4627 37.9857 14.3914C38.1097 14.3202 38.2465 14.274 38.3883 14.2557C38.5301 14.2373 38.6742 14.247 38.8123 14.2843C38.9503 14.3216 39.0797 14.3857 39.193 14.473C39.3063 14.5602 39.4013 14.669 39.4725 14.793L45.0506 24.4541C45.8071 20.7069 44.744 16.4199 42.7178 12.9186C40.4569 9.01238 36.6694 5.50404 32.4162 4.74429C31.8167 6.40337 31.6272 8.36734 31.8636 10.456C32.4296 15.4558 35.3783 20.5624 39.4258 23.5528C40.5618 24.4077 41.8239 25.0805 43.1668 25.5473L43.1662 25.5466ZM52.0673 24.4541L57.6454 14.793C57.7907 14.5451 58.0279 14.3647 58.3056 14.2909C58.5832 14.2172 58.8787 14.2561 59.1278 14.3992C59.3769 14.5424 59.5593 14.7781 59.6354 15.0551C59.7114 15.3321 59.675 15.628 59.5339 15.8783L53.9519 25.5467C57.6001 24.3205 60.7454 21.2661 62.7788 17.7524C65.04 13.8454 66.1622 8.78365 64.7025 4.74361C60.4489 5.5039 56.6612 9.01251 54.4006 12.9186C52.3743 16.4198 51.3107 20.7072 52.0676 24.4541H52.0673ZM29.8136 41.8935C29.8136 39.5313 27.8922 37.739 25.6122 37.3134V35.3966C25.6122 35.1066 25.497 34.8284 25.2919 34.6232C25.0868 34.4181 24.8086 34.3029 24.5185 34.3029C24.2284 34.3029 23.9502 34.4181 23.7451 34.6232C23.54 34.8284 23.4247 35.1066 23.4247 35.3966V37.314C21.1448 37.7389 19.2232 39.5311 19.2232 41.8941C19.2232 44.6261 21.7662 46.5741 24.5185 46.5741C27.2255 46.5741 28.646 49.1808 26.7801 50.7734C24.8431 52.4263 21.4103 51.2957 21.4103 49.0659C21.4103 48.7758 21.2951 48.4976 21.09 48.2925C20.8849 48.0874 20.6067 47.9722 20.3166 47.9722C20.0265 47.9722 19.7483 48.0874 19.5432 48.2925C19.3381 48.4976 19.2228 48.7758 19.2228 49.0659C19.2228 51.4281 21.1445 53.2204 23.4243 53.6452V55.5626C23.4243 55.8527 23.5396 56.1309 23.7447 56.336C23.9498 56.5412 24.228 56.6564 24.5181 56.6564C24.8082 56.6564 25.0864 56.5412 25.2915 56.336C25.4966 56.1309 25.6118 55.8527 25.6118 55.5626V53.6452C27.8918 53.2204 29.8132 51.4281 29.8132 49.0659C29.8132 46.3339 27.2702 44.386 24.5181 44.386C21.811 44.386 20.3905 41.7792 22.2565 40.1866C24.1936 38.5331 27.6257 39.6638 27.6257 41.8935C27.6257 42.1836 27.7409 42.4618 27.946 42.6669C28.1512 42.872 28.4294 42.9873 28.7194 42.9873C29.0095 42.9873 29.2877 42.872 29.4928 42.6669C29.698 42.4618 29.8132 42.1836 29.8132 41.8935H29.8136ZM24.5185 29.0768C21.2743 29.0768 18.1029 30.0388 15.4055 31.8411C12.708 33.6435 10.6055 36.2053 9.36402 39.2025C8.1225 42.1998 7.79765 45.4979 8.43055 48.6798C9.06344 51.8616 10.6257 54.7844 12.9197 57.0784C15.2136 59.3724 18.1364 60.9346 21.3182 61.5676C24.5001 62.2005 27.7982 61.8757 30.7955 60.6342C33.7927 59.3927 36.3545 57.2903 38.1569 54.5928C39.9593 51.8953 40.9213 48.724 40.9213 45.4798C40.9212 41.1295 39.1931 36.9574 36.117 33.8813C33.0409 30.8051 28.8688 29.0769 24.5185 29.0768ZM34.5703 35.4278C32.5822 33.4397 30.0493 32.0858 27.2917 31.5373C24.5341 30.9887 21.6759 31.2703 19.0783 32.3462C16.4807 33.4221 14.2605 35.2442 12.6985 37.5819C11.1365 39.9197 10.3027 42.6681 10.3027 45.4797C10.3027 48.2913 11.1365 51.0397 12.6985 53.3775C14.2605 55.7152 16.4807 57.5373 19.0783 58.6132C21.6759 59.6892 24.5341 59.9707 27.2917 59.4222C30.0493 58.8736 32.5822 57.5197 34.5703 55.5316C37.2362 52.8656 38.7338 49.2499 38.7338 45.4797C38.7338 41.7095 37.2362 38.0938 34.5703 35.4278ZM44.3882 45.4798C44.3882 41.5499 43.2229 37.7083 41.0396 34.4408C38.8563 31.1732 35.7531 28.6264 32.1223 27.1225C28.4916 25.6186 24.4965 25.2251 20.6421 25.9918C16.7878 26.7585 13.2473 28.6509 10.4685 31.4297C7.68967 34.2085 5.79725 37.749 5.03055 41.6033C4.26386 45.4576 4.65733 49.4528 6.1612 53.0835C7.66507 56.7142 10.2118 59.8175 13.4794 62.0008C16.7469 64.1841 20.5885 65.3495 24.5184 65.3495C27.1277 65.3496 29.7115 64.8356 32.1222 63.8371C34.533 62.8386 36.7234 61.375 38.5685 59.5299C40.4136 57.6848 41.8772 55.4944 42.8758 53.0837C43.8743 50.6729 44.3883 48.0891 44.3882 45.4798ZM34.107 65.3494H64.0317C64.3813 65.3478 64.7161 65.2082 64.9633 64.961C65.2105 64.7139 65.3501 64.3791 65.3517 64.0295V58.3751C65.3501 58.0255 65.2105 57.6907 64.9633 57.4436C64.7161 57.1964 64.3813 57.0568 64.0317 57.0552H43.2972C41.0844 60.6374 37.8962 63.5146 34.1064 65.3494H34.107Z" fill="black"/>
<defs>
<linearGradient id="paint0_linear_17_2112" x1="24.5005" y1="25" x2="24.5005" y2="66" gradientUnits="userSpaceOnUse">
<stop stop-color="#2BCBE7"/>
<stop offset="1" stop-color="#20DCCD"/>
</linearGradient>
</defs>
</svg>
