<svg width="100%" height="100%" viewBox="0 0 70 70" fill="none" xmlns="http://www.w3.org/2000/svg">
<circle cx="51" cy="49" r="15" fill="url(#paint0_linear_17_2140)"/>
<rect x="17" y="27" width="5" height="17" fill="url(#paint1_linear_17_2140)"/>
<path d="M31.7188 48.125H6.5625C5.35938 48.125 4.375 47.1406 4.375 45.9375V8.75C4.375 7.54688 5.35938 6.5625 6.5625 6.5625H60.1562C61.3594 6.5625 62.3438 7.54688 62.3438 8.75V33.6438C62.3438 34.2453 62.8359 34.7375 63.4375 34.7375C64.0391 34.7375 64.5312 34.2453 64.5312 33.6438V8.75C64.5312 6.33281 62.5734 4.375 60.1562 4.375H6.5625C4.14531 4.375 2.1875 6.33281 2.1875 8.75V45.9375C2.1875 48.3547 4.14531 50.3125 6.5625 50.3125H31.7188C32.3203 50.3125 32.8125 49.8203 32.8125 49.2188C32.8125 48.6172 32.3203 48.125 31.7188 48.125Z" fill="black"/>
<path d="M67.8125 49.2188C67.8125 40.1734 60.4516 32.8125 51.4062 32.8125C42.3609 32.8125 35 40.1734 35 49.2188C35 58.2641 42.3609 65.625 51.4062 65.625C55.7812 65.625 59.8937 63.9188 63.0109 60.8234C66.1063 57.7172 67.8125 53.5938 67.8125 49.2188ZM62.2016 58.4719L59.0953 55.3656C60.2606 53.9157 60.9856 52.162 61.1844 50.3125H65.5812C65.3516 53.3312 64.1812 56.1641 62.2016 58.4719ZM51.4062 41.5625C55.6281 41.5625 59.0625 44.9969 59.0625 49.2188C59.0625 51.2531 58.2641 53.1781 56.8203 54.6328C56.1095 55.344 55.2655 55.9081 54.3365 56.2929C53.4075 56.6776 52.4118 56.8754 51.4062 56.875C47.1844 56.875 43.75 53.4406 43.75 49.2188C43.75 44.9969 47.1844 41.5625 51.4062 41.5625ZM65.5812 48.125H61.1844C60.6812 43.5641 57.05 39.9438 52.5 39.4406V35.0438C59.4672 35.5797 65.0453 41.1578 65.5812 48.125ZM51.4062 63.4375C43.5641 63.4375 37.1875 57.0609 37.1875 49.2188C37.1875 41.3766 42.9844 35.6016 50.3125 35.0438V39.4406C45.4016 39.9875 41.5625 44.1656 41.5625 49.2188C41.5625 54.6437 45.9813 59.0625 51.4062 59.0625C53.6594 59.0625 55.8031 58.3078 57.5531 56.9078L60.6594 60.0141C58.0849 62.2271 54.8012 63.442 51.4062 63.4375ZM36.0938 21.875C36.0938 21.2953 35.9297 20.7484 35.6562 20.2781L39.2547 16.1656C39.6266 16.3187 40.0312 16.4062 40.4578 16.4062C40.8844 16.4062 41.2891 16.3187 41.6609 16.1656L45.2594 20.2781C44.9969 20.7484 44.8219 21.2953 44.8219 21.875C44.8219 23.6797 46.2984 25.1562 48.1031 25.1562C49.9078 25.1562 51.3844 23.6797 51.3844 21.875C51.3844 21.2953 51.2203 20.7484 50.9469 20.2781L54.5453 16.1656C54.9172 16.3187 55.3219 16.4062 55.7484 16.4062C57.5531 16.4062 59.0297 14.9297 59.0297 13.125C59.0297 11.3203 57.5531 9.84375 55.7484 9.84375C53.9438 9.84375 52.4672 11.3203 52.4672 13.125C52.4672 13.7047 52.6312 14.2516 52.9047 14.7219L49.3063 18.8344C48.9344 18.6812 48.5297 18.5938 48.1031 18.5938C47.6766 18.5938 47.2719 18.6812 46.9 18.8344L43.3016 14.7219C43.5641 14.2516 43.7391 13.7047 43.7391 13.125C43.7391 11.3203 42.2625 9.84375 40.4578 9.84375C38.6531 9.84375 37.1766 11.3203 37.1766 13.125C37.1766 13.7047 37.3406 14.2516 37.6141 14.7219L34.0156 18.8344C33.6438 18.6812 33.2391 18.5938 32.8125 18.5938C31.0078 18.5938 29.5312 20.0703 29.5312 21.875C29.5312 23.6797 31.0078 25.1562 32.8125 25.1562C34.6172 25.1562 36.0938 23.6797 36.0938 21.875ZM55.7812 12.0312C56.3828 12.0312 56.875 12.5234 56.875 13.125C56.875 13.7266 56.3828 14.2188 55.7812 14.2188C55.1797 14.2188 54.6875 13.7266 54.6875 13.125C54.6875 12.5234 55.1797 12.0312 55.7812 12.0312ZM49.2188 21.875C49.2188 22.4766 48.7266 22.9688 48.125 22.9688C47.5234 22.9688 47.0312 22.4766 47.0312 21.875C47.0312 21.2734 47.5234 20.7812 48.125 20.7812C48.7266 20.7812 49.2188 21.2734 49.2188 21.875ZM40.4688 12.0312C41.0703 12.0312 41.5625 12.5234 41.5625 13.125C41.5625 13.7266 41.0703 14.2188 40.4688 14.2188C39.8672 14.2188 39.375 13.7266 39.375 13.125C39.375 12.5234 39.8672 12.0312 40.4688 12.0312ZM32.8125 22.9688C32.2109 22.9688 31.7188 22.4766 31.7188 21.875C31.7188 21.2734 32.2109 20.7812 32.8125 20.7812C33.4141 20.7812 33.9062 21.2734 33.9062 21.875C33.9062 22.4766 33.4141 22.9688 32.8125 22.9688ZM7.65625 43.75C7.65625 44.3516 8.14844 44.8438 8.75 44.8438H13.125C13.7266 44.8438 14.2188 44.3516 14.2188 43.75V31.7188C14.2188 31.1172 13.7266 30.625 13.125 30.625H8.75C8.14844 30.625 7.65625 31.1172 7.65625 31.7188V43.75ZM9.84375 32.8125H12.0312V42.6562H9.84375V32.8125ZM17.5 26.25C16.8984 26.25 16.4062 26.7422 16.4062 27.3438V43.75C16.4062 44.3516 16.8984 44.8438 17.5 44.8438H21.875C22.4766 44.8438 22.9688 44.3516 22.9688 43.75V27.3438C22.9688 26.7422 22.4766 26.25 21.875 26.25H17.5ZM20.7812 42.6562H18.5938V28.4375H20.7812V42.6562ZM26.25 44.8438H30.625C31.2266 44.8438 31.7188 44.3516 31.7188 43.75V35C31.7188 34.3984 31.2266 33.9062 30.625 33.9062H26.25C25.6484 33.9062 25.1562 34.3984 25.1562 35V43.75C25.1562 44.3516 25.6484 44.8438 26.25 44.8438ZM27.3438 36.0938H29.5312V42.6562H27.3438V36.0938ZM8.75 12.0312H10.9375C11.5391 12.0312 12.0312 11.5391 12.0312 10.9375C12.0312 10.3359 11.5391 9.84375 10.9375 9.84375H8.75C8.14844 9.84375 7.65625 10.3359 7.65625 10.9375C7.65625 11.5391 8.14844 12.0312 8.75 12.0312ZM15.3125 12.0312H24.0625C24.6641 12.0312 25.1562 11.5391 25.1562 10.9375C25.1562 10.3359 24.6641 9.84375 24.0625 9.84375H15.3125C14.7109 9.84375 14.2188 10.3359 14.2188 10.9375C14.2188 11.5391 14.7109 12.0312 15.3125 12.0312ZM8.75 17.5H10.9375C11.5391 17.5 12.0312 17.0078 12.0312 16.4062C12.0312 15.8047 11.5391 15.3125 10.9375 15.3125H8.75C8.14844 15.3125 7.65625 15.8047 7.65625 16.4062C7.65625 17.0078 8.14844 17.5 8.75 17.5ZM15.3125 17.5H24.0625C24.6641 17.5 25.1562 17.0078 25.1562 16.4062C25.1562 15.8047 24.6641 15.3125 24.0625 15.3125H15.3125C14.7109 15.3125 14.2188 15.8047 14.2188 16.4062C14.2188 17.0078 14.7109 17.5 15.3125 17.5ZM8.75 22.9688H10.9375C11.5391 22.9688 12.0312 22.4766 12.0312 21.875C12.0312 21.2734 11.5391 20.7812 10.9375 20.7812H8.75C8.14844 20.7812 7.65625 21.2734 7.65625 21.875C7.65625 22.4766 8.14844 22.9688 8.75 22.9688ZM25.1562 21.875C25.1562 21.2734 24.6641 20.7812 24.0625 20.7812H15.3125C14.7109 20.7812 14.2188 21.2734 14.2188 21.875C14.2188 22.4766 14.7109 22.9688 15.3125 22.9688H24.0625C24.6641 22.9688 25.1562 22.4766 25.1562 21.875Z" fill="black"/>
<defs>
<linearGradient id="paint0_linear_17_2140" x1="51" y1="34" x2="51" y2="64" gradientUnits="userSpaceOnUse">
<stop stop-color="#2BCBE7"/>
<stop offset="1" stop-color="#20DCCD"/>
</linearGradient>
<linearGradient id="paint1_linear_17_2140" x1="19.5" y1="27" x2="19.5" y2="44" gradientUnits="userSpaceOnUse">
<stop stop-color="#2ACDE4"/>
<stop offset="1" stop-color="#21DBCF"/>
</linearGradient>
</defs>
</svg>
