<svg width="100%" height="100%" viewBox="0 0 70 70" fill="none" xmlns="http://www.w3.org/2000/svg">
<path d="M61.4876 14.3057C65.4337 14.3057 68.6328 17.5046 68.6328 21.4509V34.187C68.6328 38.1331 65.4339 41.3322 61.4876 41.3322H48.3957L31.2361 38.3271L31.7625 41.3322H8.51238C4.56613 41.3322 1.36719 38.1333 1.36719 34.187V21.4509C1.36719 17.5047 4.56613 14.3057 8.51238 14.3057H61.4876Z" fill="url(#paint0_linear_17_2089)"/>
<path d="M31.2363 38.3276L34.2403 55.4862L37.6975 49.2182L44.1788 55.6997L48.6934 51.1851L42.2121 44.7037L48.3949 41.3318L31.2363 38.3276Z" fill="white"/>
<path d="M8.51238 42.6992H30.6139L32.8938 55.7219C32.9427 56.0007 33.0768 56.2574 33.2777 56.4567C33.4786 56.656 33.7364 56.788 34.0155 56.8346C34.2946 56.8812 34.5813 56.84 34.836 56.7167C35.0907 56.5935 35.3009 56.3942 35.4376 56.1464L38.0166 51.4707L43.2122 56.6663C43.7389 57.1929 44.619 57.193 45.1456 56.6663L49.6602 52.1517C50.1866 51.6253 50.1866 50.7446 49.6602 50.218L44.4709 45.0288L48.743 42.6989H61.4875C66.1812 42.6989 69.9999 38.8802 69.9999 34.1865V21.4504C69.9999 16.7567 66.1812 12.938 61.4875 12.938H40.0914C39.3363 12.938 38.7242 13.5501 38.7242 14.3052C38.7242 15.0603 39.3363 15.6724 40.0914 15.6724H61.4876C64.6737 15.6724 67.2656 18.2643 67.2656 21.4504V34.1865C67.2656 37.3725 64.6737 39.9646 61.4876 39.9646H48.5157L31.472 36.98C30.554 36.8196 29.7287 37.6446 29.8895 38.5626L30.135 39.9646H8.51238C5.32629 39.9648 2.73438 37.3729 2.73438 34.1868V21.4506C2.73438 18.2647 5.32629 15.6726 8.51238 15.6726H28.0602C28.8153 15.6726 29.4273 15.0605 29.4273 14.3054C29.4273 13.5504 28.8153 12.9383 28.0602 12.9383H8.51238C3.81869 12.9384 0 16.757 0 21.4506V34.1868C0 38.8806 3.81869 42.6992 8.51238 42.6992ZM46.7601 51.1852L44.179 53.7662L38.6645 48.2515C38.0308 47.6179 36.9327 47.7746 36.5005 48.558L34.918 51.4273L32.919 40.0102L44.3069 42.0041L41.5576 43.5035C40.7699 43.9332 40.6098 45.0349 41.2454 45.6706L46.7601 51.1852Z" fill="black"/>
<path d="M32.2694 23.6049V31.8529C32.2694 32.608 32.8815 33.2201 33.6366 33.2201C34.3917 33.2201 35.0038 32.608 35.0038 31.8529V27.9906L38.0889 32.4579C38.4714 33.0106 39.1401 33.2534 39.7533 33.0619C40.3857 32.8645 40.7944 32.2805 40.7943 31.5611L40.7171 23.5762C40.7099 22.8212 40.0865 22.2118 39.3368 22.2223C38.5819 22.2295 37.9757 22.8476 37.9829 23.6026L38.0211 27.5476L34.7617 22.8278C34.596 22.5879 34.358 22.4072 34.0824 22.3122C33.8068 22.2171 33.508 22.2126 33.2296 22.2994C32.9513 22.3862 32.708 22.5597 32.5353 22.7946C32.3625 23.0294 32.2694 23.3134 32.2694 23.6049ZM15.3681 23.5895V31.8529C15.3681 32.608 15.9802 33.2201 16.7353 33.2201C17.4904 33.2201 18.1025 32.608 18.1025 31.8529V23.5895C18.1025 22.8344 17.4904 22.2223 16.7353 22.2223C15.9802 22.2223 15.3681 22.8344 15.3681 23.5895ZM25.698 24.9567C26.2523 24.9567 26.7863 25.1196 27.2426 25.4279C27.8683 25.8507 28.718 25.6862 29.1408 25.0606C29.5635 24.4349 29.399 23.5851 28.7734 23.1624C27.8655 22.5481 26.7941 22.2206 25.6979 22.2224C22.6658 22.2224 20.1989 24.6891 20.1989 27.7212C20.1989 30.7534 22.6658 33.2202 25.6979 33.2202C28.6029 33.2202 30.6317 30.9589 30.6317 27.7212C30.6317 26.9662 30.0196 26.3541 29.2645 26.3541H26.7928C26.0377 26.3541 25.4256 26.9662 25.4256 27.7212C25.4256 28.4763 26.0377 29.0884 26.7928 29.0884H27.6669C27.3675 29.88 26.7542 30.4858 25.698 30.4858C24.1736 30.4858 22.9335 29.2457 22.9335 27.7212C22.9335 26.1968 24.1736 24.9567 25.698 24.9567ZM9.6608 30.4857C8.9485 30.4857 8.26572 30.2086 7.82426 29.7421C7.32113 29.2107 6.4944 29.1028 5.92469 29.5622C5.3074 30.0601 5.24315 30.9665 5.76815 31.546C6.73229 32.6099 8.15115 33.2201 9.6608 33.2201C11.5645 33.2201 13.1652 31.9929 13.4671 30.3022C13.6966 29.0169 13.1299 27.344 10.8515 26.5035C9.89733 26.1516 9.00482 25.7695 8.67027 25.6238C8.62119 25.5708 8.60232 25.5018 8.61449 25.4178C8.63951 25.2438 8.79359 25.1017 9.03723 25.0283C10.036 24.7275 10.9956 25.4866 11.0053 25.4944L10.9946 25.4855L11.2261 25.6286C11.4867 25.7898 11.7953 25.8554 12.0989 25.8142C12.4026 25.7729 12.6824 25.6273 12.8905 25.4024L12.9378 25.3512C13.472 24.7739 13.3864 23.8604 12.7541 23.3925C11.9931 22.7528 10.1877 21.8261 8.24863 22.4101C6.98193 22.7917 6.08506 23.7954 5.90787 25.0293C5.74053 26.1951 6.24639 27.3168 7.22775 27.9568C7.28818 27.9962 7.35162 28.0308 7.41738 28.06C7.46565 28.0816 8.6134 28.5926 9.90525 29.069C10.34 29.2293 10.8287 29.5227 10.7753 29.8217C10.7275 30.0895 10.3402 30.4857 9.6608 30.4857ZM47.5866 21.9333C46.8315 21.9333 46.2194 22.5453 46.2194 23.3004V28.9866C46.2194 30.3551 46.8679 31.4634 48.1467 32.2803C49.4013 33.0819 51.0603 33.1402 52.3861 32.4725C53.8755 31.7225 54.6957 30.4823 54.6957 28.9806V23.3004C54.6957 22.5453 54.0836 21.9333 53.3285 21.9333C52.5734 21.9333 51.9613 22.5453 51.9613 23.3004V28.9806C51.9613 29.3153 51.8638 29.674 51.1562 30.0303C50.6857 30.2672 50.0669 30.2622 49.6189 29.976C49.0046 29.5835 48.9538 29.2839 48.9538 28.9866V23.3004C48.9538 22.5455 48.3417 21.9333 47.5866 21.9333ZM59.4225 31.3498V29.1204C59.7812 29.1188 60.1314 29.1176 60.3561 29.1176C62.421 29.1176 64.101 27.4581 64.101 25.4184C64.101 23.3787 62.421 21.7192 60.3561 21.7192H58.0553C57.3113 21.7192 56.6881 22.3422 56.6881 23.0863V31.3498C56.6881 32.1049 57.3002 32.7169 58.0553 32.7169C58.8104 32.7169 59.4225 32.1047 59.4225 31.3498ZM60.3561 24.4535C60.9038 24.4535 61.3666 24.8953 61.3666 25.4184C61.3666 25.9414 60.9039 26.3832 60.3561 26.3832C60.133 26.3832 59.7871 26.3844 59.4312 26.3861C59.4296 26.0136 59.4282 25.6495 59.4282 25.4184C59.4282 25.2196 59.4274 24.8452 59.4264 24.4535H60.3561ZM33.0722 15.0648C33.3953 15.5497 34.0114 15.7782 34.5726 15.622C35.1241 15.4687 35.5269 14.977 35.5712 14.4063C35.6647 13.2023 34.1847 12.4839 33.2902 13.2922C32.7903 13.7437 32.7069 14.506 33.0722 15.0648Z" fill="black"/>
<defs>
<linearGradient id="paint0_linear_17_2089" x1="7.5" y1="17" x2="62.5" y2="39" gradientUnits="userSpaceOnUse">
<stop stop-color="#2BCAE7"/>
<stop offset="1" stop-color="#20DCCD"/>
</linearGradient>
</defs>
</svg>
