<svg width="100%" height="100%" viewBox="0 0 80 80" fill="none" xmlns="http://www.w3.org/2000/svg">
<g clip-path="url(#clip0_17_3327)">
<path d="M79 42.5H45C51.8333 49.3333 66.1 63.4 68.5 65C76.9 61.8 79 48.6667 79 42.5Z" fill="#25D3D9"/>
<path d="M79.8016 37.2421C78.4525 17.4452 62.5057 1.49709 42.7075 0.146669L41.2852 0.0507812V38.6644H79.8988L79.8016 37.2421ZM43.9487 36.0008V2.92876C47.1874 3.27654 50.3656 4.05217 53.4004 5.2354C53.395 5.28201 53.3737 5.32197 53.3737 5.36991C53.3737 5.72312 53.514 6.06186 53.7638 6.31162C54.0135 6.56138 54.3523 6.70169 54.7055 6.70169C55.1064 6.70169 55.454 6.51524 55.699 6.23557C62.2599 9.32388 67.7877 14.2435 71.6164 20.4017C71.369 20.1569 71.0349 20.0196 70.6869 20.0195C70.4235 20.0195 70.166 20.0976 69.947 20.2439C69.7279 20.3903 69.5573 20.5983 69.4565 20.8416C69.3557 21.085 69.3293 21.3527 69.3807 21.6111C69.4321 21.8694 69.5589 22.1067 69.7451 22.293C69.9314 22.4792 70.1687 22.6061 70.427 22.6575C70.6854 22.7088 70.9532 22.6825 71.1965 22.5817C71.4399 22.4809 71.6479 22.3102 71.7942 22.0912C71.9405 21.8722 72.0186 21.6147 72.0186 21.3513C72.0167 21.1855 71.9838 21.0215 71.9214 20.8678C72.6033 21.9998 73.2119 23.1785 73.7726 24.3837C73.64 24.5067 73.5341 24.6557 73.4615 24.8213C73.3889 24.9869 73.3511 25.1657 73.3504 25.3466C73.3504 25.6998 73.4907 26.0386 73.7405 26.2883C73.9902 26.5381 74.329 26.6784 74.6822 26.6784C74.7102 26.6784 74.7341 26.6637 74.7634 26.6624C75.9204 29.6634 76.6798 32.8028 77.0221 36.0008H43.9487ZM41.7087 41.328L68.4734 68.0927L69.4137 67.0726C75.5638 60.403 79.2888 51.7651 79.9028 42.7503L80 41.328H41.7087ZM68.3775 64.2306L48.1385 43.9915H77.1207C76.3063 51.4632 73.2595 58.5161 68.3775 64.2306Z" fill="black"/>
<path d="M46.7136 6.70262C47.4491 6.70262 48.0454 6.10636 48.0454 5.37084C48.0454 4.63532 47.4491 4.03906 46.7136 4.03906C45.9781 4.03906 45.3818 4.63532 45.3818 5.37084C45.3818 6.10636 45.9781 6.70262 46.7136 6.70262Z" fill="black"/>
<path d="M46.7136 14.6929C47.4491 14.6929 48.0454 14.0966 48.0454 13.3611C48.0454 12.6256 47.4491 12.0293 46.7136 12.0293C45.9781 12.0293 45.3818 12.6256 45.3818 13.3611C45.3818 14.0966 45.9781 14.6929 46.7136 14.6929Z" fill="black"/>
<path d="M50.7087 10.6968C51.4443 10.6968 52.0405 10.1005 52.0405 9.36498C52.0405 8.62946 51.4443 8.0332 50.7087 8.0332C49.9732 8.0332 49.377 8.62946 49.377 9.36498C49.377 10.1005 49.9732 10.6968 50.7087 10.6968Z" fill="black"/>
<path d="M58.6999 10.6968C59.4355 10.6968 60.0317 10.1005 60.0317 9.36498C60.0317 8.62946 59.4355 8.0332 58.6999 8.0332C57.9644 8.0332 57.3682 8.62946 57.3682 9.36498C57.3682 10.1005 57.9644 10.6968 58.6999 10.6968Z" fill="black"/>
<path d="M54.7039 14.6929C55.4394 14.6929 56.0356 14.0966 56.0356 13.3611C56.0356 12.6256 55.4394 12.0293 54.7039 12.0293C53.9683 12.0293 53.3721 12.6256 53.3721 13.3611C53.3721 14.0966 53.9683 14.6929 54.7039 14.6929Z" fill="black"/>
<path d="M62.6951 14.6929C63.4306 14.6929 64.0268 14.0966 64.0268 13.3611C64.0268 12.6256 63.4306 12.0293 62.6951 12.0293C61.9595 12.0293 61.3633 12.6256 61.3633 13.3611C61.3633 14.0966 61.9595 14.6929 62.6951 14.6929Z" fill="black"/>
<path d="M66.6902 18.687C67.4257 18.687 68.022 18.0907 68.022 17.3552C68.022 16.6197 67.4257 16.0234 66.6902 16.0234C65.9547 16.0234 65.3584 16.6197 65.3584 17.3552C65.3584 18.0907 65.9547 18.687 66.6902 18.687Z" fill="black"/>
<path d="M50.7087 18.687C51.4443 18.687 52.0405 18.0907 52.0405 17.3552C52.0405 16.6197 51.4443 16.0234 50.7087 16.0234C49.9732 16.0234 49.377 16.6197 49.377 17.3552C49.377 18.0907 49.9732 18.687 50.7087 18.687Z" fill="black"/>
<path d="M58.6999 18.687C59.4355 18.687 60.0317 18.0907 60.0317 17.3552C60.0317 16.6197 59.4355 16.0234 58.6999 16.0234C57.9644 16.0234 57.3682 16.6197 57.3682 17.3552C57.3682 18.0907 57.9644 18.687 58.6999 18.687Z" fill="black"/>
<path d="M66.6902 26.6792C67.4257 26.6792 68.022 26.0829 68.022 25.3474C68.022 24.6119 67.4257 24.0156 66.6902 24.0156C65.9547 24.0156 65.3584 24.6119 65.3584 25.3474C65.3584 26.0829 65.9547 26.6792 66.6902 26.6792Z" fill="black"/>
<path d="M70.6853 30.6733C71.4208 30.6733 72.0171 30.0771 72.0171 29.3415C72.0171 28.606 71.4208 28.0098 70.6853 28.0098C69.9498 28.0098 69.3535 28.606 69.3535 29.3415C69.3535 30.0771 69.9498 30.6733 70.6853 30.6733Z" fill="black"/>
<path d="M46.7136 22.6831C47.4491 22.6831 48.0454 22.0868 48.0454 21.3513C48.0454 20.6158 47.4491 20.0195 46.7136 20.0195C45.9781 20.0195 45.3818 20.6158 45.3818 21.3513C45.3818 22.0868 45.9781 22.6831 46.7136 22.6831Z" fill="black"/>
<path d="M46.7136 30.6733C47.4491 30.6733 48.0454 30.0771 48.0454 29.3415C48.0454 28.606 47.4491 28.0098 46.7136 28.0098C45.9781 28.0098 45.3818 28.606 45.3818 29.3415C45.3818 30.0771 45.9781 30.6733 46.7136 30.6733Z" fill="black"/>
<path d="M50.7087 26.6792C51.4443 26.6792 52.0405 26.0829 52.0405 25.3474C52.0405 24.6119 51.4443 24.0156 50.7087 24.0156C49.9732 24.0156 49.377 24.6119 49.377 25.3474C49.377 26.0829 49.9732 26.6792 50.7087 26.6792Z" fill="black"/>
<path d="M58.6999 26.6792C59.4355 26.6792 60.0317 26.0829 60.0317 25.3474C60.0317 24.6119 59.4355 24.0156 58.6999 24.0156C57.9644 24.0156 57.3682 24.6119 57.3682 25.3474C57.3682 26.0829 57.9644 26.6792 58.6999 26.6792Z" fill="black"/>
<path d="M54.7039 22.6831C55.4394 22.6831 56.0356 22.0868 56.0356 21.3513C56.0356 20.6158 55.4394 20.0195 54.7039 20.0195C53.9683 20.0195 53.3721 20.6158 53.3721 21.3513C53.3721 22.0868 53.9683 22.6831 54.7039 22.6831Z" fill="black"/>
<path d="M62.6951 22.6831C63.4306 22.6831 64.0268 22.0868 64.0268 21.3513C64.0268 20.6158 63.4306 20.0195 62.6951 20.0195C61.9595 20.0195 61.3633 20.6158 61.3633 21.3513C61.3633 22.0868 61.9595 22.6831 62.6951 22.6831Z" fill="black"/>
<path d="M54.7039 30.6733C55.4394 30.6733 56.0356 30.0771 56.0356 29.3415C56.0356 28.606 55.4394 28.0098 54.7039 28.0098C53.9683 28.0098 53.3721 28.606 53.3721 29.3415C53.3721 30.0771 53.9683 30.6733 54.7039 30.6733Z" fill="black"/>
<path d="M62.6951 30.6733C63.4306 30.6733 64.0268 30.0771 64.0268 29.3415C64.0268 28.606 63.4306 28.0098 62.6951 28.0098C61.9595 28.0098 61.3633 28.606 61.3633 29.3415C61.3633 30.0771 61.9595 30.6733 62.6951 30.6733Z" fill="black"/>
<path d="M74.6814 34.6694C75.4169 34.6694 76.0132 34.0732 76.0132 33.3376C76.0132 32.6021 75.4169 32.0059 74.6814 32.0059C73.9459 32.0059 73.3496 32.6021 73.3496 33.3376C73.3496 34.0732 73.9459 34.6694 74.6814 34.6694Z" fill="black"/>
<path d="M66.6902 34.6694C67.4257 34.6694 68.022 34.0732 68.022 33.3376C68.022 32.6021 67.4257 32.0059 66.6902 32.0059C65.9547 32.0059 65.3584 32.6021 65.3584 33.3376C65.3584 34.0732 65.9547 34.6694 66.6902 34.6694Z" fill="black"/>
<path d="M50.7087 34.6694C51.4443 34.6694 52.0405 34.0732 52.0405 33.3376C52.0405 32.6021 51.4443 32.0059 50.7087 32.0059C49.9732 32.0059 49.377 32.6021 49.377 33.3376C49.377 34.0732 49.9732 34.6694 50.7087 34.6694Z" fill="black"/>
<path d="M58.6999 34.6694C59.4355 34.6694 60.0317 34.0732 60.0317 33.3376C60.0317 32.6021 59.4355 32.0059 58.6999 32.0059C57.9644 32.0059 57.3682 32.6021 57.3682 33.3376C57.3682 34.0732 57.9644 34.6694 58.6999 34.6694Z" fill="black"/>
<path d="M38.6216 0.0507812L37.1993 0.146669C16.3396 1.57034 0 19.0726 0 39.9962C0.00108293 49.6394 3.49227 58.9563 9.82853 66.2256L10.7661 67.3017L38.6216 39.4448V0.0507812ZM35.9581 38.3421L10.9193 63.3809C5.5778 56.7574 2.66443 48.5051 2.66356 39.9962C2.66356 20.9477 17.1746 4.93442 35.9581 2.92876V38.3421ZM12.6492 69.1835L13.7253 70.121C20.9941 76.4573 30.3106 79.9485 39.9534 79.9496C49.2011 79.9408 58.1602 76.7283 65.3065 70.8588L66.4398 69.9266L39.173 42.6597L12.6492 69.1835ZM39.173 46.426L40.6393 47.8923L18.2547 70.2755C17.6874 69.868 17.1147 69.4711 16.5687 69.0316L39.173 46.426ZM28.2311 75.3682C27.3064 75.06 26.3943 74.7152 25.4969 74.3348L46.29 53.5417L48.1731 55.4248L28.2311 75.3682ZM50.0563 57.3093L51.9394 59.1925L34.3013 76.8319C33.2442 76.6703 32.1947 76.4628 31.1557 76.2099L50.0563 57.3093ZM22.9319 73.1335C22.1117 72.7114 21.3077 72.2587 20.5214 71.7764L42.5224 49.7754L44.4069 51.6599L22.9319 73.1335ZM37.7093 77.1901L53.8225 61.0756L55.7057 62.9587L41.441 77.2247C40.9456 77.2447 40.4515 77.286 39.9534 77.286C39.2023 77.286 38.4565 77.2354 37.7093 77.1901ZM57.5888 64.8432L59.4733 66.7277L50.4665 75.7345C48.8683 76.2059 47.2449 76.5855 45.5935 76.8399L57.5888 64.8432ZM56.6805 73.2867L61.3578 68.6095L62.4605 69.7122C60.6471 71.0778 58.7124 72.2743 56.6805 73.2867Z" fill="black"/>
</g>
<defs>
<clipPath id="clip0_17_3327">
<rect width="80" height="80" fill="white"/>
</clipPath>
</defs>
</svg>
