<svg width="100%" height="100%" viewBox="0 0 70 70" fill="none" xmlns="http://www.w3.org/2000/svg">
<circle cx="46" cy="46" r="21" fill="#25D3D9"/>
<path d="M19.7433 63.2997C10.1719 63.2997 0 60.4264 0 55.0998V9.31656C0 4.09281 8.50719 0 19.367 0C30.2269 0 38.7341 4.09281 38.7341 9.31656V19.367C38.7341 19.765 38.576 20.1467 38.2945 20.4281C38.0131 20.7096 37.6314 20.8677 37.2334 20.8677C36.8354 20.8677 36.4538 20.7096 36.1723 20.4281C35.8909 20.1467 35.7328 19.765 35.7328 19.367V15.7784C35.7327 15.6482 35.698 15.5204 35.6321 15.408C35.5662 15.2957 35.4716 15.203 35.358 15.1393C35.2443 15.0757 35.1158 15.0436 34.9856 15.0461C34.8554 15.0487 34.7282 15.0859 34.6172 15.1539C27.0287 19.7969 11.7031 19.7969 4.11578 15.1539C4.00467 15.0862 3.87758 15.0493 3.74751 15.0469C3.61744 15.0446 3.48908 15.0768 3.37557 15.1403C3.26205 15.2039 3.16747 15.2965 3.1015 15.4086C3.03554 15.5207 3.00056 15.6483 3.00016 15.7784V19.367C3.00016 22.4219 14.2888 25.7348 25.865 24.1675C26.2578 24.1167 26.6546 24.2234 26.969 24.4642C27.2834 24.705 27.4898 25.0604 27.5431 25.4529C27.5964 25.8453 27.4923 26.2429 27.2535 26.5588C27.0147 26.8747 26.6607 27.0834 26.2686 27.1392C19.3955 28.0722 9.88969 27.557 4.07641 24.4803C3.9646 24.4214 3.83947 24.3923 3.71312 24.3959C3.58678 24.3995 3.46351 24.4357 3.35525 24.5009C3.24699 24.5661 3.15742 24.6582 3.09521 24.7683C3.033 24.8783 3.00026 25.0025 3.00016 25.1289V28.3008C3.00016 30.4216 9.52219 33.5005 19.7433 33.5005C20.1413 33.5005 20.523 33.6586 20.8044 33.94C21.0858 34.2214 21.2439 34.6031 21.2439 35.0011C21.2439 35.3991 21.0858 35.7808 20.8044 36.0622C20.523 36.3436 20.1413 36.5017 19.7433 36.5017C13.5844 36.5017 7.72734 35.3478 4.07641 33.4152C3.96473 33.3559 3.83962 33.3266 3.71324 33.33C3.58687 33.3334 3.46352 33.3694 3.35519 33.4346C3.24686 33.4998 3.15723 33.5918 3.09502 33.7019C3.03281 33.812 3.00013 33.9362 3.00016 34.0627V37.2345C3.00016 39.0272 8.06203 41.8873 17.2123 42.3686C17.6096 42.3895 17.9823 42.5673 18.2484 42.863C18.5146 43.1587 18.6524 43.548 18.6315 43.9452C18.6106 44.3425 18.4328 44.7152 18.1371 44.9813C17.8414 45.2475 17.4521 45.3853 17.0548 45.3644C12.5695 45.2539 8.15354 44.2324 4.07531 42.362C3.96355 42.3033 3.83853 42.2745 3.71234 42.2782C3.58615 42.2819 3.46306 42.3181 3.35497 42.3834C3.24687 42.4486 3.15742 42.5406 3.09527 42.6504C3.03311 42.7603 3.00035 42.8844 3.00016 43.0106V46.1661C3.00016 47.9598 8.06203 50.8189 17.2123 51.3067C17.6096 51.3276 17.9823 51.5055 18.2484 51.8011C18.5146 52.0968 18.6524 52.4861 18.6315 52.8834C18.6106 53.2806 18.4328 53.6533 18.1371 53.9195C17.8414 54.1856 17.4521 54.3234 17.0548 54.3025C12.5693 54.191 8.1533 53.1684 4.07531 51.2969C3.96355 51.2382 3.83853 51.2093 3.71234 51.213C3.58615 51.2168 3.46306 51.253 3.35497 51.3182C3.24687 51.3834 3.15742 51.4754 3.09527 51.5853C3.03311 51.6952 3.00035 51.8192 3.00016 51.9455V55.1009C3.00016 57.2206 9.52219 60.3006 19.7433 60.3006C20.1311 60.3154 20.498 60.4799 20.7672 60.7595C21.0363 61.0391 21.1866 61.4121 21.1866 61.8002C21.1866 62.1882 21.0363 62.5612 20.7672 62.8408C20.498 63.1204 20.1311 63.2849 19.7433 63.2997ZM19.367 3.00016C9.72234 3.00016 3.00016 6.32953 3.00016 9.31656C3.00016 12.3036 9.72234 15.633 19.367 15.633C29.0117 15.633 35.7328 12.3047 35.7328 9.31656C35.7328 6.32844 29.0117 3.00016 19.367 3.00016Z" fill="black"/>
<path d="M46.1659 69.9999C41.452 69.9999 36.844 68.602 32.9245 65.9831C29.0051 63.3642 25.9502 59.6419 24.1463 55.2868C22.3424 50.9317 21.8704 46.1395 22.79 41.5162C23.7096 36.8929 25.9796 32.6461 29.3128 29.3128C32.6461 25.9796 36.8929 23.7096 41.5162 22.79C46.1395 21.8704 50.9317 22.3424 55.2868 24.1463C59.6419 25.9502 63.3642 29.0051 65.9831 32.9245C68.602 36.844 69.9999 41.452 69.9999 46.1659C69.9929 52.485 67.4796 58.5432 63.0114 63.0114C58.5432 67.4796 52.485 69.9929 46.1659 69.9999ZM46.1659 25.3333C42.0454 25.3333 38.0173 26.5552 34.5912 28.8445C31.1651 31.1338 28.4948 34.3876 26.918 38.1946C25.3411 42.0015 24.9286 46.1905 25.7326 50.2319C26.5366 54.2733 28.5209 57.9855 31.4346 60.8991C34.3484 63.8127 38.0607 65.7969 42.1022 66.6006C46.1436 67.4044 50.3326 66.9916 54.1394 65.4146C57.9463 63.8376 61.2 61.1671 63.4891 57.7409C65.7782 54.3146 66.9999 50.2865 66.9997 46.1659C66.9933 40.6425 64.7963 35.3472 60.8905 31.4417C56.9848 27.5362 51.6893 25.3394 46.1659 25.3333Z" fill="black"/>
<path d="M48.3991 61.0675C48.0014 61.0669 47.6202 60.9086 47.3391 60.6273C47.0579 60.3459 46.8999 59.9646 46.8996 59.5669V57.3334C46.8996 57.2371 46.8806 57.1417 46.8437 57.0528C46.8068 56.9638 46.7528 56.8829 46.6846 56.8149C46.6164 56.7468 46.5355 56.6929 46.4465 56.6561C46.3574 56.6193 46.262 56.6005 46.1657 56.6006H43.9334C43.837 56.6005 43.7416 56.6193 43.6526 56.6561C43.5636 56.6929 43.4826 56.7468 43.4145 56.8149C43.3463 56.8829 43.2922 56.9638 43.2553 57.0528C43.2184 57.1417 43.1995 57.2371 43.1995 57.3334V59.5669C43.2049 59.7673 43.1701 59.9667 43.0971 60.1535C43.0242 60.3402 42.9145 60.5104 42.7747 60.6541C42.6349 60.7977 42.4677 60.9119 42.283 60.9899C42.0983 61.0678 41.8999 61.108 41.6994 61.108C41.4989 61.108 41.3005 61.0678 41.1158 60.9899C40.9311 60.9119 40.7639 60.7977 40.624 60.6541C40.4842 60.5104 40.3746 60.3402 40.3016 60.1535C40.2287 59.9667 40.1939 59.7673 40.1993 59.5669V57.3334C40.1993 57.1391 40.1221 56.9527 39.9847 56.8153C39.8472 56.6778 39.6608 56.6006 39.4665 56.6006H37.233C36.8351 56.6006 36.4534 56.4425 36.1719 56.1611C35.8905 55.8797 35.7324 55.498 35.7324 55.1C35.7324 54.702 35.8905 54.3203 36.1719 54.0389C36.4534 53.7575 36.8351 53.5994 37.233 53.5994H39.4665C39.5627 53.5994 39.658 53.5804 39.7469 53.5436C39.8358 53.5068 39.9166 53.4528 39.9847 53.3847C40.0527 53.3167 40.1067 53.2359 40.1435 53.147C40.1803 53.0581 40.1993 52.9628 40.1993 52.8666V39.467C40.1993 39.2727 40.1221 39.0863 39.9847 38.9489C39.8472 38.8114 39.6608 38.7342 39.4665 38.7342H37.233C36.8351 38.7342 36.4534 38.5761 36.1719 38.2947C35.8905 38.0133 35.7324 37.6316 35.7324 37.2336C35.7324 36.8356 35.8905 36.4539 36.1719 36.1725C36.4534 35.8911 36.8351 35.733 37.233 35.733H39.4665C39.6608 35.733 39.8472 35.6558 39.9847 35.5183C40.1221 35.3809 40.1993 35.1945 40.1993 35.0002V32.7667C40.1939 32.5663 40.2287 32.3669 40.3016 32.1801C40.3746 31.9934 40.4842 31.8232 40.624 31.6795C40.7639 31.5359 40.9311 31.4217 41.1158 31.3437C41.3005 31.2658 41.4989 31.2256 41.6994 31.2256C41.8999 31.2256 42.0983 31.2658 42.283 31.3437C42.4677 31.4217 42.6349 31.5359 42.7747 31.6795C42.9145 31.8232 43.0242 31.9934 43.0971 32.1801C43.1701 32.3669 43.2049 32.5663 43.1995 32.7667V35.0002C43.1995 35.0965 43.2184 35.1919 43.2553 35.2808C43.2922 35.3698 43.3463 35.4507 43.4145 35.5187C43.4826 35.5868 43.5636 35.6407 43.6526 35.6775C43.7416 35.7143 43.837 35.7331 43.9334 35.733H46.1657C46.262 35.7331 46.3574 35.7143 46.4465 35.6775C46.5355 35.6407 46.6164 35.5868 46.6846 35.5187C46.7528 35.4507 46.8068 35.3698 46.8437 35.2808C46.8806 35.1919 46.8996 35.0965 46.8996 35.0002V32.7667C46.8942 32.5663 46.929 32.3669 47.002 32.1801C47.0749 31.9934 47.1845 31.8232 47.3244 31.6795C47.4642 31.5359 47.6314 31.4217 47.8161 31.3437C48.0008 31.2658 48.1992 31.2256 48.3997 31.2256C48.6002 31.2256 48.7986 31.2658 48.9833 31.3437C49.168 31.4217 49.3352 31.5359 49.475 31.6795C49.6148 31.8232 49.7245 31.9934 49.7974 32.1801C49.8704 32.3669 49.9052 32.5663 49.8998 32.7667V35.4114C49.8996 35.5626 49.9464 35.7102 50.0335 35.8338C50.1207 35.9574 50.244 36.0509 50.3865 36.1016C51.2071 36.387 51.9547 36.8499 52.5758 37.4573C53.197 38.0648 53.6765 38.8018 53.9802 39.6158C54.2838 40.4299 54.4042 41.3009 54.3326 42.1668C54.261 43.0326 53.9992 43.872 53.566 44.6252C53.472 44.7892 53.445 44.9831 53.4907 45.1666C53.5363 45.35 53.6511 45.5087 53.811 45.6095C54.9002 46.3005 55.736 47.326 56.1929 48.5323C56.6498 49.7385 56.7032 51.0604 56.345 52.2996C55.9868 53.5387 55.2364 54.6283 54.2065 55.4048C53.1765 56.1813 51.9225 56.6028 50.6326 56.6061C50.4382 56.6061 50.2518 56.6833 50.1144 56.8207C49.977 56.9582 49.8998 57.1446 49.8998 57.3389V59.5723C49.8977 59.9692 49.7388 60.3492 49.4577 60.6293C49.1765 60.9094 48.796 61.0669 48.3991 61.0675ZM43.9334 47.6669C43.837 47.6667 43.7416 47.6856 43.6526 47.7223C43.5636 47.7591 43.4826 47.8131 43.4145 47.8811C43.3463 47.9492 43.2922 48.03 43.2553 48.119C43.2184 48.208 43.1995 48.3034 43.1995 48.3997V52.8666C43.1995 52.9629 43.2184 53.0583 43.2553 53.1473C43.2922 53.2362 43.3463 53.3171 43.4145 53.3851C43.4826 53.4532 43.5636 53.5071 43.6526 53.5439C43.7416 53.5807 43.837 53.5995 43.9334 53.5994H50.6326C54.5591 53.5994 54.5537 47.6669 50.6326 47.6669H43.9334ZM43.9334 38.7342C43.837 38.7341 43.7416 38.7529 43.6526 38.7897C43.5636 38.8265 43.4826 38.8804 43.4145 38.9485C43.3463 39.0165 43.2922 39.0974 43.2553 39.1863C43.2184 39.2753 43.1995 39.3707 43.1995 39.467V43.9339C43.1995 44.0302 43.2184 44.1256 43.2553 44.2146C43.2922 44.3036 43.3463 44.3844 43.4145 44.4525C43.4826 44.5205 43.5636 44.5745 43.6526 44.6112C43.7416 44.648 43.837 44.6669 43.9334 44.6667H48.3991C52.3257 44.6667 52.3202 38.7342 48.3991 38.7342H43.9334Z" fill="black"/>
</svg>
