<svg width="100%" height="100%" viewBox="0 0 79 62" fill="none" xmlns="http://www.w3.org/2000/svg">
<path d="M16 46L26 40L27 40.5V53.5L16 59.5V46Z" fill="url(#paint0_linear_17_2033)"/>
<path d="M64 45L54 39L53 39.5V52.5L64 58.5V45Z" fill="url(#paint1_linear_17_2033)"/>
<path d="M38.9913 44.5496L28.5402 39.3752L28.4208 38.2636L39.3609 31.2412L50.3522 37.257L38.9913 44.5496Z" fill="url(#paint2_linear_17_2033)"/>
<path d="M47.0716 7.02595C47.0716 4.43879 49.1689 2.34131 51.7562 2.34131C54.3434 2.34131 56.4409 4.43864 56.4409 7.02595C56.4409 9.61327 54.3436 11.7106 51.7562 11.7106C54.3434 11.7106 56.4409 13.8079 56.4409 16.3952C56.4409 18.9826 54.3436 21.0799 51.7562 21.0799C49.1691 21.0799 47.0716 18.9826 47.0716 16.3952M52.1968 38.1579L39.657 30.8113L27.1172 38.1579V52.8514L39.657 60.1979M39.657 60.1979L52.1968 52.8514M39.657 60.1979V45.5046" stroke="black" strokeWidth="3" stroke-miterlimit="10"/>
<path d="M52.1984 38.1581L39.6586 45.5048L27.1188 38.1581L14.5788 30.8115L2.03906 38.1581V52.8516L14.5788 60.1981M14.5788 60.1981L27.1188 52.8516M14.5788 60.1981V45.5048" stroke="black" strokeWidth="3" stroke-miterlimit="10"/>
<path d="M2.03906 38.1581L14.5788 45.5048L27.1188 38.1581M64.7383 60.1981L52.1984 52.8516V38.1581L64.7383 30.8115L77.2781 38.1581V52.8516L64.7383 60.1981ZM64.7383 60.1981V45.5048" stroke="black" strokeWidth="3" stroke-miterlimit="10"/>
<path d="M52.1983 38.1579L64.7383 45.5046L77.278 38.1579M31.2683 11.7073H35.9512M35.9512 11.7073C38.5376 11.7073 40.6341 13.8039 40.6341 16.3902C40.6341 18.9766 38.5376 21.0732 35.9512 21.0732H31.2683V2.34146H35.9512C38.5376 2.34146 40.6341 4.43801 40.6341 7.02439C40.6341 9.61077 38.5376 11.7073 35.9512 11.7073ZM19.561 11.7073H26.5854M26.5854 21.0732H19.561V2.34146H26.5854M62.1968 18.7317V23.4146M2 0V21.0732H2.9678L7.26829 13.9127L11.5688 21.0732H12.5366V0M67.9512 7.02439V16.3902C67.9512 18.9766 70.0478 21.0732 72.6341 21.0732C75.2205 21.0732 77.3171 18.9766 77.3171 16.3902V7.02439C77.3171 4.43801 75.2205 2.34146 72.6341 2.34146C70.0478 2.34146 67.9512 4.43801 67.9512 7.02439Z" stroke="black" strokeWidth="3" stroke-miterlimit="10"/>
<defs>
<linearGradient id="paint0_linear_17_2033" x1="21.5" y1="40" x2="21.5" y2="59.5" gradientUnits="userSpaceOnUse">
<stop stop-color="#2CC8E9"/>
<stop offset="1" stop-color="#1EDEC9"/>
</linearGradient>
<linearGradient id="paint1_linear_17_2033" x1="58.5" y1="39" x2="58.5" y2="58.5" gradientUnits="userSpaceOnUse">
<stop stop-color="#2CC8E9"/>
<stop offset="1" stop-color="#1EDEC9"/>
</linearGradient>
<linearGradient id="paint2_linear_17_2033" x1="30.971" y1="43.1622" x2="47.3812" y2="32.6285" gradientUnits="userSpaceOnUse">
<stop stop-color="#2CC8E9"/>
<stop offset="1" stop-color="#1EDEC9"/>
</linearGradient>
</defs>
</svg>
