<svg width="100%" height="100%" viewBox="0 0 80 80" fill="none" xmlns="http://www.w3.org/2000/svg">
<g clip-path="url(#clip0_17_7709)">
<circle cx="60" cy="37" r="18" fill="#25D3D9"/>
<path d="M76.1478 54.5659H69.4231C75.7117 51.2039 80 44.5712 80 36.9558C80 26.6139 72.1125 18.0499 61.9416 17.0909C61.3008 17.0306 60.7258 17.5032 60.6649 18.1476C60.6505 18.3008 60.6663 18.4554 60.7116 18.6025C60.7569 18.7495 60.8307 18.8863 60.9288 19.0048C61.027 19.1234 61.1475 19.2214 61.2835 19.2934C61.4195 19.3654 61.5684 19.4099 61.7216 19.4243C70.6796 20.269 77.6562 27.8136 77.6562 36.956C77.6562 46.6662 69.7564 54.5661 60.0462 54.5661C50.3359 54.5661 42.436 46.6662 42.436 36.956C42.436 28.2758 48.7367 21.0198 57.0577 19.5982C57.2094 19.5723 57.3545 19.5168 57.4847 19.4348C57.615 19.3528 57.7278 19.246 57.8167 19.1204C57.9057 18.9948 57.969 18.8529 58.0031 18.7029C58.0373 18.5528 58.0415 18.3975 58.0156 18.2458C57.9897 18.0941 57.9342 17.949 57.8522 17.8188C57.7702 17.6885 57.6633 17.5757 57.5378 17.4868C57.4122 17.3978 57.2703 17.3345 57.1202 17.3003C56.9702 17.2662 56.8149 17.262 56.6632 17.2879C49.8914 18.4449 43.9495 23.1223 41.3879 29.8836C41.2358 29.7597 41.0844 29.6348 40.9339 29.5089C39.6581 28.4478 37.746 26.8578 35.2543 26.1033C35.6737 25.4443 35.896 24.6791 35.8951 23.8979V22.4426C35.8951 21.0285 35.1793 19.7785 34.091 19.0357C37.7957 9.5813 37.6131 10.1182 37.6518 9.91036C37.9029 8.56754 36.9188 7.31847 35.569 7.23331L31.9883 6.47472C32.036 5.36877 32.588 4.28673 31.6766 3.18954C30.4797 1.74875 27.6108 1.63672 26.76 1.63672C25.1902 1.63672 22.8456 1.97641 21.8322 3.19673C20.9259 4.28814 21.4739 5.33862 21.5251 6.50472L17.9462 7.23285C16.3589 7.32894 15.4732 8.98567 15.9187 10.1235L19.4184 19.0359C18.3301 19.7787 17.6143 21.0287 17.6143 22.4426V23.8979C17.6143 24.6987 17.8439 25.4469 18.2406 26.08C13.5832 27.4416 4.51114 35.6685 2.57269 44.5017C2.53971 44.652 2.53667 44.8073 2.56373 44.9588C2.59079 45.1103 2.64743 45.255 2.7304 45.3846C2.81338 45.5142 2.92108 45.6262 3.04734 45.7142C3.17361 45.8022 3.31597 45.8645 3.46629 45.8974C4.09567 46.0354 4.7227 45.639 4.86208 45.004C5.81552 40.6599 8.62101 36.291 13.2007 32.0181C14.9001 30.7425 16.7053 28.7664 19.4654 28.1864C18.415 29.1016 17.2848 30.345 16.1942 32.0313C16.0294 32.2922 15.9743 32.6076 16.0406 32.909C16.107 33.2104 16.2896 33.4735 16.5487 33.6411C16.8078 33.8087 17.1226 33.8673 17.4247 33.8043C17.7268 33.7412 17.9919 33.5615 18.1623 33.3042C19.7354 30.872 21.3528 29.5589 22.4323 28.8858C23.3905 28.2884 24.1056 28.0758 24.3234 28.0202H29.1838C29.4133 28.0786 30.1252 28.2923 31.0771 28.8858C32.1568 29.5589 33.774 30.8719 35.3471 33.3041C35.4307 33.4333 35.5389 33.5448 35.6656 33.6322C35.7923 33.7196 35.9349 33.7812 36.0854 33.8135C36.2359 33.8458 36.3912 33.8481 36.5426 33.8203C36.694 33.7926 36.8384 33.7353 36.9677 33.6517C37.0969 33.5681 37.2084 33.4599 37.2958 33.3332C37.3832 33.2065 37.4448 33.0639 37.4771 32.9134C37.5094 32.7629 37.5117 32.6075 37.4839 32.4562C37.4561 32.3048 37.3988 32.1603 37.3152 32.0311C36.2352 30.3614 35.1166 29.1258 34.0749 28.2133C36.9415 28.8811 39.0695 31.1005 40.3235 32.0247C40.4295 32.1212 40.5348 32.2185 40.6395 32.3164C40.276 33.8362 40.0923 35.3934 40.0921 36.956C40.0921 44.5715 44.3804 51.204 50.6691 54.5661H43.9442C41.8201 54.5661 40.0921 56.2942 40.0921 58.4183C40.0921 59.4596 40.5074 60.4057 41.1812 61.0997C40.5076 61.7938 40.0921 62.7399 40.0921 63.7811C40.0921 64.8226 40.5074 65.7686 41.1812 66.4627C40.5064 67.1569 40.0903 68.1038 40.0903 69.1462C40.0903 69.5568 40.1549 69.9526 40.2745 70.324H10.9341C5.66584 70.324 1.64284 65.6222 2.44722 60.4233L4.07708 49.8861C4.12457 49.5789 4.04811 49.2654 3.8645 49.0146C3.68089 48.7638 3.40518 48.5962 3.09801 48.5487C2.9459 48.5251 2.79061 48.5316 2.64104 48.5681C2.49148 48.6045 2.35056 48.67 2.22634 48.761C2.10213 48.8519 1.99707 48.9664 1.91716 49.098C1.83725 49.2296 1.78407 49.3756 1.76066 49.5278L0.130803 60.0649C-0.894359 66.6919 4.23739 72.6676 10.9341 72.6676H40.5609C40.2514 73.2327 40.0896 73.8668 40.0904 74.511C40.0904 76.6351 41.8185 78.3633 43.9426 78.3633H76.1459C78.2702 78.3633 79.9981 76.6351 79.9981 74.511C79.9981 73.4692 79.5824 72.5226 78.9081 71.8285C79.5824 71.1345 79.9981 70.1879 79.9981 69.146C79.9981 68.1046 79.5828 67.1585 78.9091 66.4644C79.5839 65.7702 80 64.8233 80 63.781C80 62.7397 79.5847 61.7936 78.9109 61.0996C79.5847 60.4055 80 59.4594 80 58.4181C80 56.2941 78.272 54.5659 76.1478 54.5659ZM21.7367 25.6761C20.7561 25.6761 19.9583 24.8784 19.9583 23.8978V22.4425C19.9583 21.459 20.7592 20.6642 21.7367 20.6642H31.7729C32.749 20.6642 33.5512 21.4579 33.5512 22.4425V23.8978C33.5512 24.8784 32.7535 25.6761 31.7729 25.6761H21.7367ZM35.1818 9.54661C35.2182 9.55442 35.2551 9.56036 35.2919 9.56458L31.8533 18.3212C31.8265 18.3207 31.7997 18.3204 31.7729 18.3204H30.5088L31.6968 8.80848L35.1818 9.54661ZM26.76 3.98017C28.3197 3.98017 29.5914 4.37205 29.8535 4.66095C29.8516 4.67267 29.85 4.68439 29.8485 4.69611L28.1469 18.3203H25.3627L23.6613 4.69611L23.6572 4.66674C23.9019 4.40939 25.0909 3.98017 26.76 3.98017ZM18.2176 9.56458C18.2515 9.56083 18.2851 9.55536 18.3186 9.54864L21.8166 8.83692L23.0008 18.3203H21.7369C21.71 18.3203 21.6831 18.3206 21.6562 18.321L18.2176 9.56458ZM76.1478 65.2894C76.1139 65.2894 76.0803 65.291 76.047 65.2938H56.2485C55.6011 65.2938 55.0766 65.8185 55.0766 66.4657C55.0766 67.1129 55.6011 67.6376 56.2485 67.6376H76.1459C76.9777 67.6376 77.6544 68.3143 77.6544 69.146C77.6544 69.9777 76.9777 70.6545 76.1459 70.6545H43.9426C43.1109 70.6545 42.4342 69.9777 42.4342 69.146C42.4342 68.3143 43.1109 67.6376 43.9426 67.6376H51.1411C51.7884 67.6376 52.313 67.1129 52.313 66.4657C52.313 65.8185 51.7884 65.2938 51.1411 65.2938H44.045C44.0114 65.2909 43.9778 65.2895 43.9442 65.2894C43.1125 65.2894 42.4359 64.6127 42.4359 63.781C42.4359 62.9493 43.1125 62.2725 43.9442 62.2725H76.1477C76.9794 62.2725 77.6561 62.9493 77.6561 63.781C77.6561 64.6127 76.9795 65.2894 76.1478 65.2894ZM43.9443 56.9097H76.1478C76.9795 56.9097 77.6562 57.5864 77.6562 58.4181C77.6562 59.2499 76.9795 59.9266 76.1478 59.9266H43.9443C43.1126 59.9266 42.436 59.2499 42.436 58.4181C42.436 57.5864 43.1126 56.9097 43.9443 56.9097ZM76.1459 76.0195H43.9426C43.1109 76.0195 42.4342 75.3428 42.4342 74.511C42.4342 73.6793 43.1109 73.0026 43.9426 73.0026H76.1459C76.9777 73.0026 77.6544 73.6793 77.6544 74.511C77.6544 75.3428 76.9777 76.0195 76.1459 76.0195Z" fill="black"/>
<path d="M54.3987 33.4458C54.3987 36.0278 56.4993 38.1286 59.0816 38.1286H61.0102C62.2998 38.1286 63.3492 39.1778 63.3492 40.4677C63.3492 41.7574 62.2998 42.8067 61.0102 42.8067H58.835C57.945 42.8067 57.175 42.2339 56.9192 41.3813C56.875 41.2338 56.8022 41.0966 56.7049 40.9773C56.6077 40.858 56.4879 40.7591 56.3523 40.6861C56.2168 40.6132 56.0683 40.5676 55.9152 40.5521C55.762 40.5366 55.6074 40.5514 55.46 40.5956C55.3126 40.6398 55.1753 40.7127 55.056 40.8099C54.9368 40.9072 54.8378 41.027 54.7649 41.1625C54.6919 41.298 54.6464 41.4466 54.6308 41.5997C54.6153 41.7528 54.6301 41.9075 54.6743 42.0549C55.2298 43.9064 56.9018 45.1505 58.835 45.1505H58.874V47.681C58.874 48.3282 59.3986 48.8529 60.0459 48.8529C60.6933 48.8529 61.2178 48.3282 61.2178 47.681V45.1458C63.7039 45.0368 65.693 42.9802 65.693 40.4677C65.693 37.8856 63.5924 35.7848 61.0102 35.7848H59.0816C57.7919 35.7848 56.7425 34.7356 56.7425 33.4458C56.7425 32.1559 57.7919 31.1067 59.0816 31.1067H60.8045C61.6947 31.1067 62.4647 31.6795 62.7205 32.5322C62.7647 32.6796 62.8375 32.8168 62.9348 32.9361C63.032 33.0553 63.1518 33.1543 63.2873 33.2272C63.4229 33.3002 63.5714 33.3457 63.7245 33.3613C63.8776 33.3768 64.0323 33.362 64.1797 33.3178C64.3271 33.2736 64.4644 33.2008 64.5836 33.1035C64.7029 33.0062 64.8018 32.8864 64.8748 32.7509C64.9477 32.6154 64.9933 32.4668 65.0088 32.3137C65.0244 32.1606 65.0096 32.006 64.9653 31.8586C64.4497 30.1403 62.9727 28.9451 61.2178 28.782V26.2324C61.2178 25.5852 60.6933 25.0605 60.0459 25.0605C59.3986 25.0605 58.874 25.5852 58.874 26.2324V28.7674C56.3878 28.8765 54.3987 30.9331 54.3987 33.4458ZM26.7545 37.2767C26.4437 37.2767 26.1456 37.4002 25.9258 37.6199C25.7061 37.8397 25.5826 38.1378 25.5826 38.4486V40.9836C23.0965 41.0927 21.1074 43.1492 21.1074 45.6618C21.1074 48.2438 23.2081 50.3446 25.7903 50.3446H27.7189C29.0086 50.3446 30.0579 51.394 30.0579 52.6837C30.0579 53.9734 29.0086 55.0228 27.7189 55.0228H25.5437C24.6535 55.0228 23.8835 54.4499 23.6277 53.5973C23.5384 53.2996 23.3345 53.0496 23.0608 52.9023C22.7872 52.7549 22.4662 52.7223 22.1685 52.8116C22.0211 52.8558 21.8838 52.9286 21.7646 53.0259C21.6453 53.1232 21.5463 53.243 21.4734 53.3785C21.4004 53.514 21.3549 53.6626 21.3394 53.8157C21.3238 53.9688 21.3386 54.1235 21.3829 54.2709C21.9385 56.1226 23.6106 57.3667 25.5437 57.3667H25.5826V59.897C25.5826 60.5442 26.1071 61.0689 26.7545 61.0689C27.4018 61.0689 27.9264 60.5442 27.9264 59.897V57.362C30.4126 57.2531 32.4017 55.1963 32.4017 52.6838C32.4017 50.1018 30.3011 48.001 27.7189 48.001H25.7903C24.5006 48.001 23.4512 46.9518 23.4512 45.6619C23.4512 44.3721 24.5006 43.3228 25.7903 43.3228H27.5132C28.4032 43.3228 29.1732 43.8957 29.429 44.7483C29.4732 44.8957 29.546 45.033 29.6433 45.1523C29.7406 45.2716 29.8604 45.3705 29.9959 45.4435C30.1314 45.5164 30.2799 45.562 30.4331 45.5775C30.5862 45.593 30.7409 45.5782 30.8883 45.5339C31.1859 45.4446 31.436 45.2407 31.5833 44.967C31.7306 44.6934 31.7632 44.3724 31.6739 44.0747C31.1584 42.3563 29.6814 41.1613 27.9264 40.9981V38.4486C27.9264 38.1378 27.8029 37.8397 27.5831 37.6199C27.3634 37.4002 27.0653 37.2767 26.7545 37.2767Z" fill="black"/>
</g>
<defs>
<clipPath id="clip0_17_7709">
<rect width="80" height="80" fill="white"/>
</clipPath>
</defs>
</svg>
